<?xml version="1.0" encoding="utf-8"?>
<!-- Generator: Adobe Illustrator 16.0.0, SVG Export Plug-In . SVG Version: 6.00 Build 0)  -->
<!DOCTYPE svg PUBLIC "-//W3C//DTD SVG 1.1//EN" "http://www.w3.org/Graphics/SVG/1.1/DTD/svg11.dtd">
<svg version="1.1" id="Layer_1" xmlns="http://www.w3.org/2000/svg" xmlns:xlink="http://www.w3.org/1999/xlink" x="0px" y="0px"
	 width="1600px" height="912px" viewBox="4 6 1600 912" enable-background="new 4 -6 1600 912" xml:space="preserve">
<g id="Layer_2">
	<g>
		<g>
			<polygon fill="#EDEB9F" points="500.426,174.755 451.188,260.043 401.946,174.755 			"/>
			<polygon fill="#FDF8D0" points="451.188,260.043 500.426,174.755 549.67,260.043 			"/>
			<polygon fill="#F79266" points="549.67,260.043 598.909,174.755 648.153,260.043 			"/>
			<polygon fill="#79D8D8" points="697.393,174.755 648.153,260.043 598.909,174.755 			"/>
			<polygon fill="#FDF8D0" points="795.875,174.755 746.633,260.043 697.393,174.755 			"/>
			<polygon fill="#F4DCBA" points="746.633,260.043 795.875,174.755 845.116,260.043 			"/>
			<polygon fill="#F79266" points="894.357,174.755 845.116,260.043 795.875,174.755 			"/>
			<polygon fill="#79D8D8" points="845.116,260.043 894.357,174.755 943.6,260.043 			"/>
			<polygon fill="#EDEB9F" points="992.838,174.755 943.6,260.043 894.357,174.755 			"/>
			<polygon fill="#FDF8D0" points="943.6,260.043 992.838,174.755 1042.082,260.043 			"/>
			<polygon fill="#F4DCBA" points="1091.323,174.755 1042.082,260.043 992.838,174.755 			"/>
			<polygon fill="#F79266" points="1042.082,260.043 1091.323,174.755 1140.564,260.043 			"/>
			<polygon fill="#79D8D8" points="1189.804,174.755 1140.564,260.043 1091.323,174.755 			"/>
			<polygon fill="#EDEB9F" points="1140.564,260.043 1189.804,174.755 1239.045,260.043 			"/>
			<polygon fill="#FDF8D0" points="1288.284,174.755 1239.045,260.043 1189.804,174.755 			"/>
			<polygon fill="#F4DCBA" points="1239.045,260.043 1288.284,174.755 1337.528,260.043 			"/>
			<polygon fill="#F79266" points="1386.771,174.755 1337.528,260.043 1288.284,174.755 			"/>
			<polygon fill="#79D8D8" points="1337.528,260.043 1386.771,174.755 1436.011,260.043 			"/>
			<polygon fill="#EDEB9F" points="1485.255,174.755 1436.011,260.043 1386.771,174.755 			"/>
			<polygon fill="#FDF8D0" points="1436.011,260.043 1485.255,174.755 1534.494,260.043 			"/>
			<polygon fill="#F4DCBA" points="1583.738,174.755 1534.494,260.043 1485.255,174.755 			"/>
			<polygon fill="#FDF8D0" points="303.432,345.331 352.671,260.043 401.915,345.331 			"/>
			<polygon fill="#F79266" points="401.915,345.331 451.154,260.043 500.396,345.331 			"/>
			<polygon fill="#79D8D8" points="549.637,260.043 500.396,345.331 451.154,260.043 			"/>
			<polygon fill="#FDF8D0" points="648.12,260.043 598.878,345.331 549.637,260.043 			"/>
			<polygon fill="#F79266" points="746.6,260.043 697.361,345.331 648.12,260.043 			"/>
			<polygon fill="#EDEB9F" points="845.086,260.043 795.841,345.331 746.6,260.043 			"/>
			<polygon fill="#FDF8D0" points="795.841,345.331 845.086,260.043 894.327,345.331 			"/>
			<polygon fill="#79D8D8" points="1042.049,260.043 992.808,345.331 943.564,260.043 			"/>
			<polygon fill="#FDF8D0" points="1140.531,260.043 1091.293,345.331 1042.049,260.043 			"/>
			<polygon fill="#F4DCBA" points="1091.293,345.331 1140.531,260.043 1189.773,345.331 			"/>
			<polygon fill="#F79266" points="1239.01,260.043 1189.773,345.331 1140.531,260.043 			"/>
			<polygon fill="#79D8D8" points="1189.773,345.331 1239.01,260.043 1288.256,345.331 			"/>
			<polygon fill="#EDEB9F" points="1337.5,260.043 1288.256,345.331 1239.01,260.043 			"/>
			<polygon fill="#FDF8D0" points="1288.256,345.331 1337.5,260.043 1386.739,345.331 			"/>
			<polygon fill="#F4DCBA" points="1435.979,260.043 1386.739,345.331 1337.5,260.043 			"/>
			<polygon fill="#F79266" points="1386.739,345.331 1435.979,260.043 1485.222,345.331 			"/>
			<polygon fill="#79D8D8" points="1534.461,260.043 1485.222,345.331 1435.979,260.043 			"/>
			<polygon fill="#79D8D8" points="500.426,4.179 451.188,89.467 401.946,4.179 			"/>
			<polygon fill="#EDEB9F" points="451.188,89.467 500.426,4.179 549.67,89.467 			"/>
			<polygon fill="#FDF8D0" points="598.909,4.179 549.67,89.467 500.426,4.179 			"/>
			<polygon fill="#F4DCBA" points="549.67,89.467 598.909,4.179 648.153,89.467 			"/>
			<polygon fill="#F79266" points="697.393,4.179 648.153,89.467 598.909,4.179 			"/>
			<polygon fill="#79D8D8" points="648.12,89.467 697.357,4.179 746.6,89.467 			"/>
			<polygon fill="#EDEB9F" points="795.875,4.179 746.633,89.467 697.393,4.179 			"/>
			<polygon fill="#FDF8D0" points="746.633,89.467 795.875,4.179 845.116,89.467 			"/>
			<polygon fill="#F4DCBA" points="894.357,4.179 845.116,89.467 795.875,4.179 			"/>
			<polygon fill="#F79266" points="845.116,89.467 894.357,4.179 943.6,89.467 			"/>
			<polygon fill="#79D8D8" points="992.838,4.179 943.6,89.467 894.357,4.179 			"/>
			<polygon fill="#EDEB9F" points="943.6,89.467 992.838,4.179 1042.082,89.467 			"/>
			<polygon fill="#FDF8D0" points="1091.323,4.179 1042.082,89.467 992.838,4.179 			"/>
			<polygon fill="#F4DCBA" points="1042.082,89.467 1091.323,4.179 1140.564,89.467 			"/>
			<polygon fill="#F79266" points="1189.804,4.179 1140.564,89.467 1091.323,4.179 			"/>
			<polygon fill="#79D8D8" points="1140.564,89.467 1189.804,4.179 1239.045,89.467 			"/>
			<polygon fill="#EDEB9F" points="1288.284,4.179 1239.045,89.467 1189.804,4.179 			"/>
			<polygon fill="#FDF8D0" points="1239.045,89.467 1288.284,4.179 1337.528,89.467 			"/>
			<polygon fill="#F4DCBA" points="1386.771,4.179 1337.528,89.467 1288.284,4.179 			"/>
			<polygon fill="#F79266" points="1337.528,89.467 1386.771,4.179 1436.011,89.467 			"/>
			<polygon fill="#79D8D8" points="1485.255,4.179 1436.011,89.467 1386.771,4.179 			"/>
			<polygon fill="#EDEB9F" points="1436.011,89.467 1485.255,4.179 1534.494,89.467 			"/>
			<polygon fill="#FDF8D0" points="1583.738,4.179 1534.494,89.467 1485.255,4.179 			"/>
			<polygon fill="#F4DCBA" points="401.915,174.755 451.154,89.467 500.396,174.755 			"/>
			<polygon fill="#F79266" points="549.637,89.467 500.396,174.755 451.154,89.467 			"/>
			<polygon fill="#79D8D8" points="500.396,174.755 549.637,89.467 598.878,174.755 			"/>
			<polygon fill="#EDEB9F" points="648.12,89.467 598.878,174.755 549.637,89.467 			"/>
			<polygon fill="#FDF8D0" points="598.878,174.755 648.12,89.467 697.361,174.755 			"/>
			<polygon fill="#F4DCBA" points="746.6,89.467 697.361,174.755 648.12,89.467 			"/>
			<polygon fill="#F79266" points="697.361,174.755 746.6,89.467 795.841,174.755 			"/>
			<polygon fill="#79D8D8" points="845.086,89.467 795.841,174.755 746.6,89.467 			"/>
			<polygon fill="#EDEB9F" points="795.841,174.755 845.086,89.467 894.327,174.755 			"/>
			<polygon fill="#FDF8D0" points="943.564,89.467 894.327,174.755 845.086,89.467 			"/>
			<polygon fill="#F4DCBA" points="894.327,174.755 943.564,89.467 992.808,174.755 			"/>
			<polygon fill="#F79266" points="1042.049,89.467 992.808,174.755 943.564,89.467 			"/>
			<polygon fill="#79D8D8" points="992.808,174.755 1042.049,89.467 1091.293,174.755 			"/>
			<polygon fill="#EDEB9F" points="1140.531,89.467 1091.293,174.755 1042.049,89.467 			"/>
			<polygon fill="#FDF8D0" points="1091.293,174.755 1140.531,89.467 1189.773,174.755 			"/>
			<polygon fill="#F4DCBA" points="1239.01,89.467 1189.773,174.755 1140.531,89.467 			"/>
			<polygon fill="#F79266" points="1189.773,174.755 1239.01,89.467 1288.256,174.755 			"/>
			<polygon fill="#79D8D8" points="1337.5,89.467 1288.256,174.755 1239.01,89.467 			"/>
			<polygon fill="#EDEB9F" points="1288.256,174.755 1337.5,89.467 1386.739,174.755 			"/>
			<polygon fill="#FDF8D0" points="1435.979,89.467 1386.739,174.755 1337.5,89.467 			"/>
			<polygon fill="#F4DCBA" points="1386.739,174.755 1435.979,89.467 1485.222,174.755 			"/>
			<polygon fill="#F79266" points="1534.461,89.467 1485.222,174.755 1435.979,89.467 			"/>
			<g>
				<polygon fill="#79D8D8" points="817.201,289.377 817.374,289.377 817.374,289.209 				"/>
			</g>
			<polygon fill="#FDF8D0" points="1288.284,515.898 1239.045,601.189 1189.804,515.898 			"/>
			<polygon fill="#F79266" points="1386.771,515.898 1337.528,601.189 1288.284,515.898 			"/>
			<polygon fill="#EDEB9F" points="1485.255,515.898 1436.011,601.189 1386.771,515.898 			"/>
			<polygon fill="#FDF8D0" points="1436.011,601.189 1485.255,515.898 1534.494,601.189 			"/>
			<polygon fill="#F4DCBA" points="1583.738,515.898 1534.494,601.189 1485.255,515.898 			"/>
			<polygon fill="#F4DCBA" points="1435.979,601.189 1386.739,686.48 1337.5,601.189 			"/>
			<polygon fill="#F79266" points="1386.739,686.48 1435.979,601.189 1485.222,686.48 			"/>
			<polygon fill="#79D8D8" points="1534.461,601.189 1485.222,686.48 1435.979,601.189 			"/>
			<polygon fill="#F4DCBA" points="1042.082,430.611 1091.323,345.326 1140.564,430.611 			"/>
			<polygon fill="#79D8D8" points="1140.564,430.611 1189.804,345.326 1239.045,430.611 			"/>
			<polygon fill="#EDEB9F" points="1288.284,345.326 1239.045,430.611 1189.804,345.326 			"/>
			<polygon fill="#FDF8D0" points="1239.045,430.611 1288.284,345.326 1337.528,430.611 			"/>
			<polygon fill="#F4DCBA" points="1386.771,345.326 1337.528,430.611 1288.284,345.326 			"/>
			<polygon fill="#F79266" points="1337.528,430.611 1386.771,345.326 1436.011,430.611 			"/>
			<polygon fill="#79D8D8" points="1485.255,345.326 1436.011,430.611 1386.771,345.326 			"/>
			<polygon fill="#EDEB9F" points="1436.011,430.611 1485.255,345.326 1534.494,430.611 			"/>
			<polygon fill="#FDF8D0" points="1583.738,345.326 1534.494,430.611 1485.255,345.326 			"/>
			<polygon fill="#79D8D8" points="992.808,515.898 1042.049,430.611 1091.293,515.898 			"/>
			<polygon fill="#79D8D8" points="1337.5,430.611 1288.256,515.898 1239.01,430.611 			"/>
			<polygon fill="#EDEB9F" points="1288.256,515.898 1337.5,430.611 1386.739,515.898 			"/>
			<polygon fill="#FDF8D0" points="1435.979,430.611 1386.739,515.898 1337.5,430.611 			"/>
			<polygon fill="#F4DCBA" points="1386.739,515.898 1435.979,430.611 1485.222,515.898 			"/>
			<polygon fill="#F79266" points="1534.461,430.611 1485.222,515.898 1435.979,430.611 			"/>
		</g>
	</g>
	<rect x="4" y="-6" opacity="0.4" fill="#FFFFFF" enable-background="new    " width="1600" height="912"/>
</g>
</svg>
