<?xml version="1.0" encoding="utf-8"?>
<!-- Generator: Adobe Illustrator 16.0.0, SVG Export Plug-In . SVG Version: 6.00 Build 0)  -->
<!DOCTYPE svg PUBLIC "-//W3C//DTD SVG 1.1//EN" "http://www.w3.org/Graphics/SVG/1.1/DTD/svg11.dtd">
<svg version="1.1" id="Layer_1" xmlns="http://www.w3.org/2000/svg" xmlns:xlink="http://www.w3.org/1999/xlink" x="0px" y="0px"
	 width="877.706px" height="41.41px" viewBox="142.4 1850.418 877.706 41.41" enable-background="new 142.4 1850.418 877.706 41.41"
	 xml:space="preserve">
<g id="Layer_7">
	<g>
		<g>
			<g>
				<rect x="142.4" y="1850.418" fill="none" width="877.706" height="41.41"/>
			</g>
			<g enable-background="new    ">
				<path fill="#6F6F6E" d="M483.414,1874.479c-1.234-1.262-1.851-2.955-1.851-5.079v-0.947h1.722v0.947
					c0,1.693,0.459,3.042,1.377,4.046c0.918,1.033,2.138,1.55,3.659,1.55c1.578,0,2.855-0.517,3.831-1.55
					c0.947-1.004,1.421-2.353,1.421-4.046v-18.982h1.722v18.982c0,2.124-0.632,3.817-1.894,5.079
					c-1.263,1.292-2.956,1.938-5.079,1.938C486.283,1876.417,484.647,1875.771,483.414,1874.479z"/>
				<path fill="#6F6F6E" d="M501.75,1873.662c-1.578-1.722-2.367-4.018-2.367-6.888c0-2.955,0.789-5.337,2.367-7.146
					c1.55-1.778,3.63-2.668,6.242-2.668c2.583,0,4.663,0.89,6.242,2.668c1.549,1.809,2.324,4.19,2.324,7.146
					c0,2.87-0.775,5.166-2.324,6.888c-1.579,1.722-3.659,2.583-6.242,2.583C505.38,1876.245,503.3,1875.384,501.75,1873.662z
					 M512.985,1872.629c1.233-1.464,1.851-3.415,1.851-5.854c0-2.524-0.618-4.533-1.851-6.026c-1.263-1.521-2.927-2.281-4.993-2.281
					c-2.095,0-3.76,0.761-4.993,2.281c-1.263,1.493-1.894,3.502-1.894,6.026c0,2.439,0.631,4.391,1.894,5.854
					c1.233,1.464,2.898,2.195,4.993,2.195C510.058,1874.824,511.722,1874.093,512.985,1872.629z"/>
				<path fill="#6F6F6E" d="M520.905,1850.418h1.722v2.625h-1.722V1850.418z M520.905,1875.943v-18.337h1.722v18.337H520.905z"/>
				<path fill="#6F6F6E" d="M528.137,1875.943v-18.337h1.722v3.099c0.517-1.09,1.306-1.951,2.368-2.582
					c1.061-0.66,2.238-0.99,3.53-0.99c1.808,0,3.342,0.589,4.605,1.765c1.292,1.205,1.937,2.641,1.937,4.305v12.741h-1.722v-12.741
					c0-1.263-0.474-2.339-1.42-3.229c-0.947-0.889-2.081-1.334-3.4-1.334c-1.436,0-2.712,0.488-3.831,1.463
					c-1.119,1.005-1.808,2.253-2.066,3.745v12.096H528.137z"/>
				<path fill="#6F6F6E" d="M562.874,1874.738c-1.234-1.119-1.851-2.468-1.851-4.047v-13.085h1.722v13.085
					c0,1.178,0.445,2.195,1.334,3.057c0.889,0.833,1.965,1.248,3.229,1.248c1.492,0,2.826-0.573,4.003-1.722
					c1.177-1.147,1.922-2.597,2.238-4.348v-11.32h1.722v18.337h-1.722v-3.229c-0.516,1.119-1.349,2.023-2.497,2.712
					c-1.119,0.66-2.367,0.99-3.745,0.99C565.585,1876.417,564.107,1875.857,562.874,1874.738z"/>
				<path fill="#6F6F6E" d="M581.34,1874.695c-1.377-1.147-2.066-2.54-2.066-4.176h1.592c0,1.234,0.531,2.296,1.593,3.186
					c1.062,0.861,2.339,1.291,3.831,1.291c1.722,0,3.113-0.387,4.176-1.162c1.033-0.803,1.549-1.851,1.549-3.143
					c0-0.975-0.545-1.808-1.635-2.496c-1.092-0.66-2.555-1.076-4.391-1.248c-1.952-0.173-3.502-0.717-4.649-1.636
					c-1.177-0.918-1.765-2.052-1.765-3.4c0-1.521,0.588-2.697,1.765-3.53c1.176-0.832,2.826-1.248,4.95-1.248
					c2.037,0,3.658,0.445,4.864,1.334c1.233,0.89,1.851,2.081,1.851,3.573h-1.636c-0.2-1.119-0.747-1.994-1.636-2.626
					c-0.89-0.631-2.037-0.947-3.443-0.947c-1.55,0-2.784,0.316-3.702,0.947c-0.919,0.632-1.377,1.464-1.377,2.497
					c0,0.976,0.56,1.808,1.679,2.496c1.09,0.66,2.554,1.076,4.391,1.248c1.922,0.173,3.472,0.747,4.648,1.722
					c1.147,0.977,1.723,2.195,1.723,3.659c0,1.636-0.676,2.942-2.023,3.917c-1.32,0.977-3.1,1.464-5.338,1.464
					C584.339,1876.417,582.688,1875.843,581.34,1874.695z"/>
				<path fill="#6F6F6E" d="M611.428,1875.943v-18.337h1.722v3.099c0.517-1.09,1.306-1.951,2.367-2.582
					c1.062-0.66,2.238-0.99,3.53-0.99c1.808,0,3.343,0.589,4.605,1.765c1.292,1.205,1.937,2.641,1.937,4.305v12.741h-1.721v-12.741
					c0-1.263-0.475-2.339-1.421-3.229c-0.946-0.889-2.081-1.334-3.4-1.334c-1.436,0-2.712,0.488-3.831,1.463
					c-1.119,1.005-1.809,2.253-2.066,3.745v12.096H611.428z"/>
				<path fill="#6F6F6E" d="M632.003,1873.662c-1.578-1.722-2.367-4.018-2.367-6.888c0-2.955,0.789-5.337,2.367-7.146
					c1.55-1.778,3.63-2.668,6.242-2.668c2.582,0,4.662,0.89,6.241,2.668c1.55,1.809,2.324,4.19,2.324,7.146
					c0,2.87-0.774,5.166-2.324,6.888c-1.579,1.722-3.659,2.583-6.241,2.583C635.633,1876.245,633.553,1875.384,632.003,1873.662z
					 M643.237,1872.629c1.234-1.464,1.852-3.415,1.852-5.854c0-2.524-0.617-4.533-1.852-6.026c-1.263-1.521-2.927-2.281-4.992-2.281
					c-2.096,0-3.76,0.761-4.994,2.281c-1.263,1.493-1.894,3.502-1.894,6.026c0,2.439,0.631,4.391,1.894,5.854
					c1.234,1.464,2.898,2.195,4.994,2.195C640.311,1874.824,641.975,1874.093,643.237,1872.629z"/>
				<path fill="#6F6F6E" d="M649.006,1857.606h1.636l5.252,16.056l4.262-16.056h1.937l4.261,15.711l5.209-15.711h1.679
					l-6.069,18.337h-1.636l-4.434-15.884l-4.391,15.884h-1.636L649.006,1857.606z"/>
				<path fill="#6F6F6E" d="M676.598,1873.317h2.152v2.626h-2.152V1873.317z M678.75,1850.418v8.522l-0.646,9.814h-0.818
					l-0.646-9.814v-8.522H678.75z"/>
			</g>
		</g>
	</g>
</g>
</svg>
