<?xml version="1.0" encoding="utf-8"?>
<!-- Generator: Adobe Illustrator 16.0.0, SVG Export Plug-In . SVG Version: 6.00 Build 0)  -->
<!DOCTYPE svg PUBLIC "-//W3C//DTD SVG 1.1//EN" "http://www.w3.org/Graphics/SVG/1.1/DTD/svg11.dtd">
<svg version="1.1" id="Layer_1" xmlns="http://www.w3.org/2000/svg" xmlns:xlink="http://www.w3.org/1999/xlink" x="0px" y="0px"
	 width="877.707px" height="62.465px" viewBox="143.326 930.433 877.707 62.465"
	 enable-background="new 143.326 930.433 877.707 62.465" xml:space="preserve">
<g>
	<g>
		<g>
			<rect x="143.326" y="930.434" fill="none" width="877.707" height="62.464"/>
		</g>
		<g enable-background="new    ">
			<path fill="#40B9BF" d="M167.771,972.976l8.538-42.543h19.227c2.583,0,4.639,1.173,6.17,3.516
				c1.578,2.344,2.081,4.998,1.506,7.963c-0.67,3.492-2.177,6.361-4.52,8.609c-2.344,2.249-4.975,3.372-7.892,3.372h-16.357
				l-3.803,19.083H167.771z M190.872,951.166c2.199,0,4.185-0.812,5.955-2.439c1.769-1.673,2.893-3.777,3.372-6.312
				c0.478-2.392,0.119-4.521-1.076-6.386c-1.147-1.865-2.703-2.798-4.663-2.798h-15.855l-3.587,17.936H190.872z"/>
			<path fill="#40B9BF" d="M203.067,972.976l6.098-30.562h2.87l-1.363,6.887c1.243-2.296,2.798-4.089,4.663-5.381
				c1.817-1.338,3.682-2.009,5.596-2.009h1.65l-0.717,3.301c-0.096,0-0.24-0.048-0.43-0.144c-0.144-0.096-0.24-0.144-0.287-0.144
				c-2.344,0-4.568,0.933-6.672,2.798c-2.152,1.818-3.802,4.257-4.95,7.317l-3.587,17.936H203.067z"/>
			<path fill="#40B9BF" d="M222.509,971.397c-1.865-1.77-2.583-3.778-2.152-6.026c0.478-2.392,1.889-4.424,4.233-6.099
				c2.343-1.673,5.166-2.654,8.465-2.941c3.204-0.286,5.787-0.74,7.748-1.362c2.056-0.67,3.18-1.482,3.372-2.439l0.574-2.727
				c0.287-1.481-0.358-2.798-1.937-3.945c-1.531-1.148-3.443-1.722-5.739-1.722c-2.439,0-4.544,0.502-6.313,1.506
				c-1.818,1.053-2.87,2.368-3.157,3.946l-0.287,1.578h-2.726l0.359-1.865c0.43-2.152,1.817-3.921,4.161-5.309
				c2.391-1.387,5.213-2.081,8.466-2.081c2.965,0,5.476,0.718,7.533,2.152c2.009,1.483,2.845,3.134,2.511,4.95l-3.731,18.51
				c-0.24,1.147-0.168,2.152,0.215,3.013c0.382,0.909,0.933,1.363,1.65,1.363c0.239,0,0.454-0.023,0.646-0.071
				c0.19-0.048,0.358-0.119,0.502-0.216l-0.287,1.363c-0.766,0.334-1.698,0.502-2.798,0.502c-1.052,0-1.89-0.502-2.511-1.506
				c-0.622-1.005-0.814-2.128-0.574-3.372c-0.909,1.675-2.368,3.013-4.376,4.018c-2.009,0.956-4.281,1.435-6.815,1.435
				C226.717,974.052,224.374,973.166,222.509,971.397z M237.216,969.532c2.199-1.626,3.802-3.754,4.807-6.385l1.435-7.031
				c-0.766,0.527-2.057,1.005-3.874,1.435c-1.818,0.384-4.138,0.694-6.959,0.933c-2.392,0.192-4.448,0.933-6.17,2.225
				c-1.77,1.291-2.823,2.846-3.157,4.663c-0.335,1.675,0.191,3.182,1.579,4.52c1.338,1.34,3.037,2.009,5.094,2.009
				C232.6,971.899,235.016,971.11,237.216,969.532z"/>
			<path fill="#40B9BF" d="M255.294,969.245c-2.296-3.396-3.013-7.246-2.152-11.551c0.908-4.734,3.037-8.656,6.385-11.766
				c3.347-3.06,7.126-4.591,11.335-4.591c3.108,0,5.667,1.028,7.676,3.085c2.056,2.057,2.822,4.4,2.296,7.03h-2.87
				c0.382-1.912-0.215-3.61-1.793-5.094c-1.579-1.481-3.54-2.224-5.883-2.224c-3.396,0-6.433,1.268-9.111,3.802
				c-2.679,2.583-4.401,5.836-5.166,9.757c-0.717,3.587-0.168,6.815,1.65,9.686c1.817,2.822,4.208,4.232,7.174,4.232
				c2.63,0,4.926-0.717,6.887-2.152c1.961-1.387,3.157-3.18,3.587-5.38h3.013c-0.574,2.966-2.177,5.429-4.807,7.389
				c-2.679,1.913-5.764,2.87-9.255,2.87C260.532,974.339,257.542,972.642,255.294,969.245z"/>
			<path fill="#40B9BF" d="M284.995,972.043c-0.909-1.339-1.196-2.845-0.861-4.52l4.591-22.886h-4.376l0.43-2.224h4.376l1.722-8.681
				h2.87l-1.722,8.681h4.161l-0.431,2.224h-4.161l-4.591,22.886c-0.24,1.147-0.12,2.152,0.359,3.013
				c0.43,0.909,1.051,1.363,1.865,1.363c0.861,0,1.625-0.167,2.295-0.502l-0.358,2.08c-1.101,0.383-1.962,0.574-2.583,0.574
				C287.099,974.052,285.903,973.382,284.995,972.043z"/>
			<path fill="#40B9BF" d="M296.33,972.976l6.098-30.562h2.87l-6.098,30.562H296.33z M304.867,930.433h2.87l-0.933,4.376h-2.87
				L304.867,930.433z"/>
			<path fill="#40B9BF" d="M311.539,969.245c-2.296-3.396-3.013-7.246-2.152-11.551c0.908-4.734,3.037-8.656,6.385-11.766
				c3.347-3.06,7.126-4.591,11.335-4.591c3.108,0,5.667,1.028,7.676,3.085c2.056,2.057,2.822,4.4,2.296,7.03h-2.87
				c0.382-1.912-0.215-3.61-1.793-5.094c-1.579-1.481-3.54-2.224-5.883-2.224c-3.396,0-6.433,1.268-9.111,3.802
				c-2.679,2.583-4.401,5.836-5.166,9.757c-0.717,3.587-0.168,6.815,1.65,9.686c1.817,2.822,4.208,4.232,7.174,4.232
				c2.63,0,4.926-0.717,6.887-2.152c1.961-1.387,3.157-3.18,3.587-5.38h3.013c-0.574,2.966-2.177,5.429-4.807,7.389
				c-2.679,1.913-5.764,2.87-9.255,2.87C316.776,974.339,313.786,972.642,311.539,969.245z"/>
			<path fill="#40B9BF" d="M341.598,969.604c-1.865-3.013-2.32-6.982-1.363-11.909c0.956-4.925,2.965-8.896,6.026-11.909
				c3.06-2.965,6.672-4.447,10.833-4.447c4.113,0,7.126,1.362,9.04,4.089c1.912,2.727,2.439,6.361,1.578,10.904l-0.215,1.363
				h-24.392c-0.814,4.161-0.502,7.486,0.933,9.973c1.482,2.487,3.826,3.73,7.031,3.73c2.535,0,4.902-0.646,7.103-1.938
				c2.152-1.291,3.849-3.036,5.094-5.237h2.87c-1.148,2.967-3.133,5.334-5.955,7.103c-2.87,1.817-6.075,2.727-9.613,2.727
				C346.5,974.052,343.51,972.569,341.598,969.604z M365.129,954.969l0.215-1.076c0.287-2.679-0.455-5.022-2.224-7.031
				c-1.722-2.009-3.899-3.013-6.529-3.013c-2.917,0-5.572,0.957-7.963,2.869c-2.393,1.914-4.018,4.401-4.879,7.462l-0.143,0.789
				H365.129z"/>
			<path fill="#40B9BF" d="M394.112,972.976l6.098-30.562h2.87l-6.098,30.562H394.112z M402.649,930.433h2.87l-0.933,4.376h-2.87
				L402.649,930.433z"/>
			<path fill="#40B9BF" d="M407.671,970.752c-1.962-2.009-2.703-4.28-2.224-6.815h2.654c-0.383,1.913,0.191,3.635,1.722,5.165
				c1.53,1.531,3.467,2.296,5.811,2.296c2.917,0,5.356-0.646,7.317-1.938c2.009-1.338,3.229-3.085,3.659-5.237
				c0.334-1.625-0.312-3.013-1.937-4.16c-1.578-1.148-3.85-1.841-6.815-2.081c-3.156-0.287-5.572-1.194-7.246-2.726
				c-1.626-1.53-2.224-3.419-1.793-5.668c0.478-2.534,1.84-4.495,4.089-5.883c2.248-1.387,5.141-2.081,8.681-2.081
				c3.395,0,5.955,0.742,7.676,2.225c1.769,1.482,2.415,3.468,1.937,5.954h-2.726c0.047-1.865-0.574-3.323-1.866-4.376
				c-1.291-1.052-3.109-1.578-5.452-1.578c-2.583,0-4.735,0.526-6.457,1.578c-1.77,1.053-2.823,2.439-3.157,4.161
				c-0.335,1.626,0.311,3.013,1.937,4.161c1.625,1.101,3.946,1.793,6.959,2.08c3.157,0.287,5.524,1.244,7.103,2.87
				c1.625,1.626,2.199,3.658,1.722,6.098c-0.527,2.727-2.081,4.903-4.663,6.528c-2.536,1.627-5.668,2.439-9.398,2.439
				C412.191,973.765,409.68,972.761,407.671,970.752z"/>
			<path fill="#40B9BF" d="M459.468,972.043c-0.909-1.339-1.196-2.845-0.861-4.52l4.591-22.886h-4.376l0.43-2.224h4.376l1.722-8.681
				h2.87l-1.722,8.681h4.161l-0.431,2.224h-4.161l-4.591,22.886c-0.24,1.147-0.12,2.152,0.359,3.013
				c0.43,0.909,1.051,1.363,1.865,1.363c0.861,0,1.625-0.167,2.295-0.502l-0.358,2.08c-1.101,0.383-1.962,0.574-2.583,0.574
				C461.572,974.052,460.376,973.382,459.468,972.043z"/>
			<path fill="#40B9BF" d="M470.802,972.976l8.538-42.543h2.87l-3.587,17.721c1.435-2.152,3.204-3.826,5.309-5.022
				c2.056-1.194,4.208-1.793,6.457-1.793c2.727,0,4.926,1.101,6.601,3.3c1.673,2.249,2.248,4.783,1.722,7.604l-4.161,20.733h-2.87
				l4.018-20.159c0.43-2.343,0.072-4.424-1.076-6.242c-1.196-1.816-2.774-2.726-4.735-2.726c-2.392,0-4.711,0.837-6.959,2.511
				c-2.201,1.627-3.946,3.851-5.237,6.672l-4.018,19.944H470.802z"/>
			<path fill="#40B9BF" d="M505.812,969.604c-1.865-3.013-2.32-6.982-1.363-11.909c0.956-4.925,2.965-8.896,6.026-11.909
				c3.06-2.965,6.672-4.447,10.833-4.447c4.113,0,7.126,1.362,9.04,4.089c1.912,2.727,2.439,6.361,1.578,10.904l-0.215,1.363
				h-24.392c-0.814,4.161-0.502,7.486,0.933,9.973c1.482,2.487,3.826,3.73,7.031,3.73c2.535,0,4.902-0.646,7.103-1.938
				c2.152-1.291,3.849-3.036,5.094-5.237h2.87c-1.148,2.967-3.133,5.334-5.955,7.103c-2.87,1.817-6.075,2.727-9.613,2.727
				C510.714,974.052,507.724,972.569,505.812,969.604z M529.343,954.969l0.215-1.076c0.287-2.679-0.455-5.022-2.224-7.031
				c-1.722-2.009-3.899-3.013-6.529-3.013c-2.917,0-5.572,0.957-7.963,2.869c-2.393,1.914-4.018,4.401-4.879,7.462l-0.143,0.789
				H529.343z"/>
			<path fill="#40B9BF" d="M561.124,969.173c-2.008-2.869-2.559-6.695-1.65-11.479c0.956-4.925,3.037-8.896,6.242-11.909
				c3.204-2.965,6.982-4.447,11.335-4.447c4.305,0,7.461,1.482,9.47,4.447c2.009,3.014,2.534,6.984,1.578,11.909
				c-0.909,4.783-2.967,8.609-6.17,11.479c-3.157,2.87-6.912,4.305-11.263,4.305C566.361,973.478,563.18,972.043,561.124,969.173z
				 M580.207,967.451c2.583-2.438,4.257-5.69,5.022-9.757c0.812-4.208,0.43-7.556-1.148-10.044
				c-1.578-2.534-4.089-3.802-7.533-3.802c-3.492,0-6.529,1.268-9.111,3.802c-2.583,2.488-4.281,5.836-5.094,10.044
				c-0.766,4.066-0.358,7.318,1.22,9.757c1.578,2.439,4.089,3.659,7.533,3.659C574.586,971.11,577.625,969.891,580.207,967.451z"/>
			<path fill="#40B9BF" d="M592.259,972.976l6.099-30.562h2.87l-1.005,5.165c1.243-1.865,2.845-3.323,4.807-4.376
				c1.961-1.052,4.018-1.579,6.17-1.579c2.821,0,5.141,1.029,6.959,3.085c1.817,2.058,2.463,4.401,1.937,7.031l-4.232,21.235h-2.869
				l4.232-21.235c0.383-1.961-0.097-3.73-1.436-5.309c-1.339-1.53-3.037-2.296-5.093-2.296c-2.487,0-4.783,0.789-6.888,2.367
				c-2.105,1.578-3.658,3.684-4.663,6.313l-4.018,20.159H592.259z"/>
			<path fill="#40B9BF" d="M624.542,972.976l8.538-42.543h2.87l-8.538,42.543H624.542z"/>
			<path fill="#40B9BF" d="M633.438,982.302h2.225c1.147,0,2.534-0.86,4.16-2.582c1.626-1.723,3.252-4.066,4.879-7.031
				l-5.668-30.274h2.654l5.094,26.759l15.641-26.759h2.797l-19.872,33.861c-1.388,2.535-2.941,4.521-4.663,5.955
				c-1.722,1.481-3.371,2.224-4.95,2.224h-2.726L633.438,982.302z"/>
			<path fill="#40B9BF" d="M690.042,942.414h2.727l3.443,26.759l12.411-26.759h3.229l1.865,26.186l13.917-26.186h2.799
				l-16.214,30.562h-2.726l-2.081-26.473l-12.626,26.473h-2.727L690.042,942.414z"/>
			<path fill="#40B9BF" d="M731.078,971.397c-1.865-1.77-2.583-3.778-2.152-6.026c0.478-2.392,1.89-4.424,4.233-6.099
				c2.342-1.673,5.165-2.654,8.465-2.941c3.204-0.286,5.787-0.74,7.748-1.362c2.057-0.67,3.18-1.482,3.372-2.439l0.573-2.727
				c0.287-1.481-0.357-2.798-1.937-3.945c-1.531-1.148-3.443-1.722-5.739-1.722c-2.439,0-4.545,0.502-6.312,1.506
				c-1.818,1.053-2.87,2.368-3.157,3.946l-0.287,1.578h-2.726l0.358-1.865c0.431-2.152,1.817-3.921,4.161-5.309
				c2.391-1.387,5.213-2.081,8.465-2.081c2.965,0,5.477,0.718,7.533,2.152c2.009,1.483,2.846,3.134,2.512,4.95l-3.731,18.51
				c-0.239,1.147-0.168,2.152,0.216,3.013c0.382,0.909,0.932,1.363,1.649,1.363c0.239,0,0.454-0.023,0.646-0.071
				s0.359-0.119,0.502-0.216l-0.286,1.363c-0.766,0.334-1.698,0.502-2.798,0.502c-1.053,0-1.891-0.502-2.512-1.506
				c-0.621-1.005-0.813-2.128-0.573-3.372c-0.909,1.675-2.368,3.013-4.376,4.018c-2.01,0.956-4.281,1.435-6.816,1.435
				C735.286,974.052,732.943,973.166,731.078,971.397z M745.785,969.532c2.199-1.626,3.802-3.754,4.807-6.385l1.435-7.031
				c-0.766,0.527-2.057,1.005-3.873,1.435c-1.818,0.384-4.139,0.694-6.959,0.933c-2.393,0.192-4.449,0.933-6.17,2.225
				c-1.771,1.291-2.823,2.846-3.157,4.663c-0.335,1.675,0.19,3.182,1.579,4.52c1.338,1.34,3.036,2.009,5.094,2.009
				C741.169,971.899,743.585,971.11,745.785,969.532z"/>
			<path fill="#40B9BF" d="M757.551,982.302h2.224c1.148,0,2.535-0.86,4.161-2.582c1.626-1.723,3.252-4.066,4.878-7.031
				l-5.667-30.274h2.654l5.094,26.759l15.64-26.759h2.798l-19.872,33.861c-1.389,2.535-2.941,4.521-4.664,5.955
				c-1.721,1.481-3.371,2.224-4.949,2.224h-2.727L757.551,982.302z"/>
			<path fill="#40B9BF" d="M813.866,972.043c-0.908-1.339-1.195-2.845-0.86-4.52l4.591-22.886h-4.375l0.43-2.224h4.377l1.721-8.681
				h2.87l-1.722,8.681h4.161l-0.431,2.224h-4.161l-4.591,22.886c-0.24,1.147-0.121,2.152,0.358,3.013
				c0.431,0.909,1.052,1.363,1.865,1.363c0.86,0,1.626-0.167,2.296-0.502l-0.359,2.08c-1.101,0.383-1.961,0.574-2.582,0.574
				C815.971,974.052,814.774,973.382,813.866,972.043z"/>
			<path fill="#40B9BF" d="M827.999,969.173c-2.008-2.869-2.559-6.695-1.65-11.479c0.957-4.925,3.037-8.896,6.242-11.909
				c3.203-2.965,6.982-4.447,11.335-4.447c4.305,0,7.462,1.482,9.47,4.447c2.01,3.014,2.535,6.984,1.578,11.909
				c-0.908,4.783-2.966,8.609-6.17,11.479c-3.156,2.87-6.911,4.305-11.263,4.305C833.236,973.478,830.056,972.043,827.999,969.173z
				 M847.083,967.451c2.582-2.438,4.256-5.69,5.021-9.757c0.812-4.208,0.43-7.556-1.148-10.044
				c-1.578-2.534-4.089-3.802-7.532-3.802c-3.491,0-6.528,1.268-9.111,3.802c-2.583,2.488-4.28,5.836-5.094,10.044
				c-0.766,4.066-0.358,7.318,1.22,9.757c1.578,2.439,4.09,3.659,7.533,3.659C841.462,971.11,844.5,969.891,847.083,967.451z"/>
			<path fill="#40B9BF" d="M884.315,972.043c-0.909-1.339-1.195-2.845-0.861-4.52l4.592-22.886h-4.376l0.431-2.224h4.376
				l1.722-8.681h2.869l-1.721,8.681h4.16l-0.43,2.224h-4.162l-4.591,22.886c-0.239,1.147-0.12,2.152,0.358,3.013
				c0.431,0.909,1.052,1.363,1.865,1.363c0.861,0,1.626-0.167,2.296-0.502l-0.358,2.08c-1.102,0.383-1.962,0.574-2.583,0.574
				C886.419,974.052,885.224,973.382,884.315,972.043z"/>
			<path fill="#40B9BF" d="M895.649,972.976l6.099-30.562h2.87l-1.363,6.887c1.243-2.296,2.798-4.089,4.663-5.381
				c1.817-1.338,3.683-2.009,5.596-2.009h1.649l-0.717,3.301c-0.096,0-0.24-0.048-0.43-0.144c-0.145-0.096-0.24-0.144-0.287-0.144
				c-2.345,0-4.568,0.933-6.672,2.798c-2.152,1.818-3.803,4.257-4.951,7.317l-3.587,17.936H895.649z"/>
			<path fill="#40B9BF" d="M917.172,970.823c-1.771-1.912-2.415-4.112-1.937-6.601l4.376-21.809h2.87l-4.377,21.809
				c-0.383,1.866,0.072,3.516,1.363,4.95c1.243,1.483,2.845,2.225,4.807,2.225c2.582,0,5.021-0.933,7.317-2.798
				c2.296-1.817,4.018-4.257,5.165-7.318l3.73-18.867h2.87l-6.098,30.562h-2.87l1.076-5.381c-1.291,1.914-2.966,3.42-5.021,4.52
				c-2.057,1.1-4.258,1.65-6.601,1.65C921.118,973.765,918.894,972.785,917.172,970.823z"/>
			<path fill="#40B9BF" d="M948.666,972.043c-0.909-1.339-1.196-2.845-0.86-4.52l4.591-22.886h-4.376l0.43-2.224h4.377l1.722-8.681
				h2.87l-1.723,8.681h4.162l-0.432,2.224h-4.16l-4.592,22.886c-0.24,1.147-0.12,2.152,0.359,3.013
				c0.43,0.909,1.051,1.363,1.865,1.363c0.86,0,1.625-0.167,2.295-0.502l-0.358,2.08c-1.101,0.383-1.962,0.574-2.583,0.574
				C950.771,974.052,949.574,973.382,948.666,972.043z"/>
			<path fill="#40B9BF" d="M960.001,972.976l8.537-42.543h2.869l-3.587,17.721c1.435-2.152,3.204-3.826,5.309-5.022
				c2.057-1.194,4.209-1.793,6.457-1.793c2.727,0,4.926,1.101,6.601,3.3c1.674,2.249,2.247,4.783,1.722,7.604l-4.161,20.733h-2.869
				l4.017-20.159c0.431-2.343,0.072-4.424-1.075-6.242c-1.196-1.816-2.774-2.726-4.735-2.726c-2.393,0-4.712,0.837-6.959,2.511
				c-2.2,1.627-3.946,3.851-5.237,6.672l-4.018,19.944H960.001z"/>
			<path fill="#40B9BF" d="M993.288,968.6h4.161l-0.86,4.376h-4.161L993.288,968.6z"/>
		</g>
	</g>
</g>
</svg>
