<?xml version="1.0" encoding="utf-8"?>
<!-- Generator: Adobe Illustrator 16.0.0, SVG Export Plug-In . SVG Version: 6.00 Build 0)  -->
<!DOCTYPE svg PUBLIC "-//W3C//DTD SVG 1.1//EN" "http://www.w3.org/Graphics/SVG/1.1/DTD/svg11.dtd">
<svg version="1.1" id="Layer_1" xmlns="http://www.w3.org/2000/svg" xmlns:xlink="http://www.w3.org/1999/xlink" x="0px" y="0px"
	 width="942.094px" height="209.975px" viewBox="115.78 1276.721 942.094 209.975"
	 enable-background="new 115.78 1276.721 942.094 209.975" xml:space="preserve">
<g>
	<g>
		<rect x="115.78" y="1276.722" fill="none" width="942.094" height="419.947"/>
	</g>
	<g enable-background="new    ">
		<path fill="#FC7963" d="M334.686,1304.788h-15.535l-4.793,13.63h-1.848l13.629-38.116h1.617l13.629,38.116h-1.964
			L334.686,1304.788z M334.108,1303.172l-2.657-7.624c-0.809-2.31-1.569-4.504-2.281-6.583c-0.713-2.079-1.415-4.312-2.108-6.699
			h-0.231c-0.693,2.388-1.396,4.62-2.108,6.699c-0.713,2.079-1.473,4.273-2.281,6.583l-2.714,7.624H334.108z"/>
		<path fill="#FC7963" d="M352.358,1320.844v10.396h-1.733v-40.427h1.502l0.231,4.158h0.115c1.424-1.386,3.09-2.541,4.996-3.465
			c1.906-0.925,3.783-1.387,5.631-1.387c3.965,0,6.92,1.281,8.865,3.841c1.944,2.561,2.917,5.978,2.917,10.251
			c0,2.349-0.356,4.447-1.068,6.295c-0.713,1.849-1.666,3.407-2.858,4.678c-1.194,1.271-2.58,2.243-4.158,2.917
			c-1.579,0.673-3.234,1.011-4.967,1.011c-1.348,0-2.897-0.356-4.649-1.068c-1.752-0.712-3.36-1.704-4.822-2.975V1320.844z
			 M352.358,1313.104c1.732,1.579,3.484,2.706,5.255,3.379c1.771,0.674,3.214,1.011,4.331,1.011c1.617,0,3.099-0.327,4.447-0.982
			c1.347-0.653,2.512-1.568,3.494-2.743c0.982-1.174,1.752-2.578,2.31-4.216c0.558-1.636,0.837-3.416,0.837-5.342
			c0-1.771-0.183-3.416-0.548-4.938c-0.366-1.521-0.953-2.839-1.762-3.956c-0.808-1.116-1.848-1.992-3.118-2.628
			c-1.271-0.636-2.811-0.953-4.621-0.953c-1.54,0-3.234,0.443-5.082,1.328c-1.848,0.887-3.696,2.253-5.544,4.101V1313.104z"/>
		<path fill="#FC7963" d="M388.741,1290.812h1.501l0.231,6.931h0.116c1.501-2.195,3.369-4.015,5.602-5.458
			c2.232-1.443,4.773-2.166,7.623-2.166c0.885,0,1.809,0.078,2.772,0.231c0.962,0.154,1.886,0.462,2.772,0.924l-0.462,1.617
			c-1.04-0.385-1.916-0.654-2.627-0.809c-0.713-0.153-1.608-0.231-2.686-0.231c-2.388,0-4.669,0.675-6.844,2.021
			c-2.176,1.349-4.265,3.639-6.266,6.873v17.672h-1.732V1290.812z"/>
		<path fill="#FC7963" d="M419.349,1290.812h15.939v27.605h-1.732v-25.988h-14.207V1290.812z M433.787,1283.767
			c-0.655,0-1.204-0.211-1.646-0.635c-0.443-0.424-0.664-1.021-0.664-1.791c0-0.77,0.221-1.366,0.664-1.79
			c0.442-0.423,0.991-0.635,1.646-0.635c0.654,0,1.203,0.212,1.646,0.635c0.442,0.424,0.664,1.021,0.664,1.79
			c0,0.771-0.222,1.367-0.664,1.791C434.99,1283.556,434.441,1283.767,433.787,1283.767z"/>
		<path fill="#FC7963" d="M453.826,1276.721h12.301v34.074c0,4.467,2.059,6.699,6.179,6.699c0.924,0,1.857-0.125,2.801-0.376
			c0.943-0.25,1.992-0.644,3.147-1.184l0.693,1.444c-1.117,0.424-2.186,0.818-3.205,1.184c-1.021,0.365-2.205,0.549-3.552,0.549
			c-2.503,0-4.428-0.664-5.775-1.993c-1.348-1.328-2.021-3.552-2.021-6.67v-32.11h-10.568V1276.721z"/>
		<path fill="#FC7963" d="M521.799,1308.946c0-1.386,0.26-2.627,0.78-3.725c0.52-1.098,1.203-2.069,2.05-2.917
			c0.846-0.846,1.78-1.588,2.801-2.223c1.02-0.636,2.05-1.185,3.09-1.646v-0.23c-1.541-0.847-2.897-1.993-4.071-3.437
			c-1.175-1.443-1.762-3.147-1.762-5.111c0-1.309,0.269-2.502,0.809-3.58c0.539-1.078,1.271-2.012,2.195-2.802
			c0.924-0.788,2.021-1.404,3.292-1.848c1.271-0.442,2.657-0.664,4.158-0.664c1.771,0,3.35,0.241,4.736,0.722
			c1.386,0.482,2.541,1.155,3.465,2.021c0.924,0.866,1.626,1.887,2.108,3.061c0.481,1.175,0.722,2.436,0.722,3.783
			c0,1.811-0.578,3.532-1.732,5.169c-1.155,1.637-2.561,3.07-4.216,4.303v0.23c1.039,0.54,2.021,1.078,2.945,1.617
			c0.924,0.54,1.732,1.165,2.425,1.877c0.693,0.713,1.232,1.55,1.617,2.512c0.384,0.963,0.578,2.118,0.578,3.466
			s-0.28,2.599-0.837,3.754c-0.559,1.154-1.377,2.165-2.455,3.031c-1.079,0.867-2.407,1.551-3.985,2.051
			c-1.579,0.5-3.37,0.751-5.371,0.751c-2.041,0-3.889-0.26-5.544-0.78c-1.656-0.52-3.061-1.231-4.216-2.137
			c-1.155-0.904-2.042-1.973-2.657-3.205C522.107,1311.758,521.799,1310.41,521.799,1308.946z M523.647,1308.946
			c0,1.194,0.26,2.311,0.78,3.35c0.52,1.04,1.271,1.945,2.252,2.715c0.981,0.771,2.185,1.377,3.609,1.819
			c1.424,0.442,3.041,0.664,4.851,0.664c1.771,0,3.33-0.211,4.678-0.636c1.347-0.423,2.473-0.99,3.378-1.703
			c0.904-0.712,1.588-1.55,2.05-2.513c0.462-0.962,0.693-2.001,0.693-3.118c0-1.655-0.366-3.013-1.097-4.071
			c-0.732-1.059-1.733-1.964-3.003-2.715s-2.734-1.396-4.389-1.935c-1.656-0.539-3.407-1.098-5.255-1.675
			c-1.232,0.577-2.368,1.184-3.407,1.819c-1.04,0.635-1.935,1.348-2.686,2.137s-1.348,1.666-1.791,2.628
			C523.868,1306.676,523.647,1307.754,523.647,1308.946z M538.258,1299.359c4.042-2.694,6.064-5.697,6.064-9.009
			c0-1.077-0.193-2.098-0.578-3.061c-0.385-0.962-0.973-1.81-1.761-2.541c-0.79-0.731-1.752-1.309-2.888-1.733
			c-1.136-0.423-2.455-0.635-3.956-0.635c-1.309,0-2.493,0.183-3.552,0.549c-1.059,0.366-1.963,0.876-2.714,1.53
			c-0.75,0.655-1.328,1.425-1.732,2.31c-0.404,0.887-0.606,1.849-0.606,2.888c0,1.387,0.308,2.58,0.924,3.581
			c0.616,1.001,1.463,1.877,2.542,2.628c1.077,0.75,2.319,1.396,3.725,1.935C535.13,1298.34,536.641,1298.86,538.258,1299.359z"/>
		<path fill="#FC7963" d="M565.575,1292.43h-8.49v-1.386l8.49-0.231l0.231-8.085h1.501v8.085h15.073v1.617h-15.073v16.055
			c0,1.387,0.116,2.638,0.347,3.754c0.231,1.117,0.635,2.061,1.213,2.83c0.578,0.771,1.376,1.367,2.396,1.79
			c1.02,0.425,2.339,0.636,3.956,0.636c1.54,0,2.917-0.135,4.129-0.404s2.377-0.636,3.494-1.098l0.577,1.387
			c-1.232,0.539-2.608,0.962-4.129,1.271c-1.521,0.308-2.917,0.462-4.187,0.462c-1.848,0-3.379-0.26-4.591-0.78
			c-1.213-0.52-2.186-1.261-2.917-2.224c-0.732-0.962-1.252-2.107-1.56-3.436c-0.309-1.328-0.462-2.801-0.462-4.418V1292.43z"/>
		<path fill="#FC7963" d="M593.179,1276.721h1.733v12.359l-0.116,7.508c1.849-1.925,3.648-3.484,5.4-4.678s3.763-1.791,6.035-1.791
			c3.387,0,5.91,0.896,7.565,2.686c1.655,1.791,2.483,4.592,2.483,8.403v17.21h-1.732v-16.979c0-3.271-0.655-5.707-1.964-7.306
			c-1.31-1.597-3.427-2.396-6.353-2.396c-1.039,0-2.012,0.136-2.916,0.404c-0.906,0.27-1.801,0.685-2.686,1.242
			c-0.887,0.559-1.791,1.261-2.715,2.107c-0.924,0.848-1.926,1.829-3.003,2.945v19.982h-1.733V1276.721z"/>
		<path fill="#FC7963" d="M664.329,1300.399h18.25v2.31h-18.25V1300.399z"/>
		<path fill="#FC7963" d="M755.461,1316.801v1.617h-23.563v-1.617h11.204v-31.879h-8.085v-1.271c1.848-0.231,3.475-0.539,4.88-0.924
			s2.608-0.809,3.609-1.271h1.329v35.344H755.461z"/>
		<path fill="#FC7963" d="M777.405,1319.111c-4.004,0-7.084-1.694-9.24-5.082s-3.234-8.124-3.234-14.207
			c0-6.16,1.078-10.877,3.234-14.149s5.236-4.909,9.24-4.909s7.084,1.637,9.24,4.909s3.234,7.989,3.234,14.149
			c0,6.083-1.078,10.819-3.234,14.207S781.409,1319.111,777.405,1319.111z M777.405,1282.381c-3.195,0-5.766,1.473-7.709,4.418
			c-1.945,2.945-2.917,7.286-2.917,13.023s0.972,10.116,2.917,13.138c1.943,3.023,4.514,4.534,7.709,4.534s5.766-1.511,7.711-4.534
			c1.943-3.021,2.916-7.4,2.916-13.138s-0.973-10.078-2.916-13.023C783.171,1283.854,780.601,1282.381,777.405,1282.381z
			 M777.405,1302.594c-0.77,0-1.463-0.278-2.078-0.837c-0.617-0.558-0.925-1.396-0.925-2.513c0-1.116,0.308-1.953,0.925-2.512
			c0.615-0.558,1.309-0.838,2.078-0.838s1.463,0.28,2.08,0.838c0.615,0.559,0.924,1.396,0.924,2.512
			c0,1.117-0.309,1.955-0.924,2.513C778.868,1302.315,778.175,1302.594,777.405,1302.594z"/>
		<path fill="#FC7963" d="M808.13,1292.43h-8.49v-1.386l8.49-0.231l0.23-8.085h1.502v8.085h15.072v1.617h-15.072v16.055
			c0,1.387,0.115,2.638,0.346,3.754c0.231,1.117,0.636,2.061,1.213,2.83c0.578,0.771,1.377,1.367,2.396,1.79
			c1.021,0.425,2.34,0.636,3.957,0.636c1.539,0,2.916-0.135,4.129-0.404s2.377-0.636,3.494-1.098l0.577,1.387
			c-1.232,0.539-2.608,0.962-4.129,1.271c-1.521,0.308-2.917,0.462-4.187,0.462c-1.849,0-3.379-0.26-4.592-0.78
			c-1.213-0.52-2.186-1.261-2.916-2.224c-0.732-0.962-1.252-2.107-1.561-3.436s-0.461-2.801-0.461-4.418V1292.43z"/>
		<path fill="#FC7963" d="M835.733,1276.721h1.733v12.359l-0.116,7.508c1.849-1.925,3.648-3.484,5.4-4.678s3.763-1.791,6.035-1.791
			c3.387,0,5.91,0.896,7.565,2.686c1.655,1.791,2.483,4.592,2.483,8.403v17.21h-1.732v-16.979c0-3.271-0.655-5.707-1.964-7.306
			c-1.31-1.597-3.427-2.396-6.353-2.396c-1.039,0-2.012,0.136-2.916,0.404c-0.906,0.27-1.801,0.685-2.686,1.242
			c-0.887,0.559-1.791,1.261-2.715,2.107c-0.924,0.848-1.926,1.829-3.003,2.945v19.982h-1.733V1276.721z"/>
	</g>
	<g enable-background="new    ">
		<path fill="#F79266" d="M137.697,1337.858h6.192c2.664,0,4.722,0.485,6.174,1.458c1.452,0.972,2.178,2.646,2.178,5.021
			c0,2.28-0.72,3.979-2.16,5.095c-1.44,1.115-3.504,1.674-6.192,1.674h-5.04v10.512h-1.152V1337.858z M143.458,1350.099
			c2.568,0,4.47-0.444,5.706-1.332c1.236-0.888,1.854-2.364,1.854-4.429c0-2.088-0.625-3.521-1.872-4.302
			c-1.249-0.779-3.145-1.17-5.688-1.17h-4.608v11.232H143.458z"/>
		<path fill="#F79266" d="M159.225,1337.858h1.152v13.68h0.072l12.384-13.68h1.404l-7.776,8.712l8.82,15.048h-1.368l-8.316-14.184
			l-5.22,5.76v8.424h-1.152V1337.858z"/>
		<path fill="#F79266" d="M179.745,1337.858h1.152v14.616c0,1.632,0.174,2.994,0.522,4.086c0.348,1.092,0.816,1.962,1.404,2.609
			c0.588,0.648,1.26,1.11,2.016,1.387c0.756,0.275,1.554,0.413,2.394,0.413c0.84,0,1.65-0.138,2.43-0.413
			c0.78-0.276,1.464-0.738,2.052-1.387c0.587-0.647,1.056-1.518,1.404-2.609c0.348-1.092,0.522-2.454,0.522-4.086v-14.616h1.08
			v14.903c0,1.849-0.216,3.366-0.648,4.555c-0.432,1.188-0.996,2.136-1.692,2.844c-0.697,0.708-1.494,1.2-2.394,1.476
			c-0.9,0.276-1.818,0.414-2.754,0.414s-1.854-0.138-2.754-0.414c-0.9-0.275-1.698-0.768-2.394-1.476
			c-0.696-0.708-1.26-1.656-1.692-2.844c-0.432-1.188-0.648-2.706-0.648-4.555V1337.858z"/>
		<path fill="#F79266" d="M229.856,1352.798l-8.208-14.939h1.152l4.464,8.136c0.552,0.912,1.08,1.836,1.584,2.772
			c0.504,0.936,1.032,1.884,1.584,2.844h0.144c0.576-0.96,1.128-1.908,1.656-2.844c0.527-0.937,1.056-1.872,1.584-2.809l4.32-8.1
			h1.08l-8.208,14.939v8.82h-1.152V1352.798z"/>
		<path fill="#F79266" d="M245.264,1360.61h6.192v-21.744h-6.192v-1.008H258.8v1.008h-6.192v21.744h6.192v1.008h-13.536V1360.61z"/>
		<path fill="#F79266" d="M266.288,1337.858h1.188l9.864,17.496l2.628,4.607h0.072c-0.024-1.151-0.054-2.268-0.09-3.348
			c-0.036-1.08-0.054-2.184-0.054-3.312v-15.443h1.08v23.76h-1.188l-9.864-17.496l-2.628-4.607h-0.072
			c0.023,1.151,0.054,2.244,0.09,3.275c0.036,1.032,0.054,2.112,0.054,3.24v15.588h-1.08V1337.858z"/>
		<path fill="#F79266" d="M286.627,1349.666c0-1.872,0.24-3.563,0.72-5.076c0.48-1.512,1.164-2.795,2.052-3.852
			c0.888-1.056,1.956-1.872,3.204-2.448c1.248-0.576,2.64-0.864,4.176-0.864c0.768,0,1.47,0.085,2.106,0.252
			c0.636,0.169,1.206,0.391,1.71,0.666c0.504,0.276,0.954,0.583,1.35,0.918c0.396,0.337,0.75,0.661,1.062,0.973l-0.72,0.792
			c-0.625-0.696-1.374-1.29-2.25-1.782c-0.876-0.491-1.962-0.738-3.258-0.738c-1.392,0-2.641,0.259-3.744,0.774
			c-1.104,0.517-2.04,1.26-2.808,2.231c-0.768,0.973-1.356,2.148-1.764,3.528c-0.409,1.381-0.612,2.922-0.612,4.626
			s0.198,3.253,0.594,4.645s0.966,2.58,1.71,3.563c0.744,0.984,1.65,1.746,2.718,2.286s2.274,0.81,3.618,0.81
			c1.152,0,2.214-0.167,3.186-0.504c0.972-0.336,1.758-0.815,2.358-1.439v-7.849h-5.76v-1.008h6.948v9.216
			c-0.72,0.792-1.65,1.435-2.79,1.927c-1.14,0.491-2.479,0.737-4.014,0.737c-1.488,0-2.832-0.294-4.032-0.882
			c-1.2-0.588-2.227-1.422-3.078-2.502c-0.852-1.08-1.512-2.382-1.98-3.906C286.861,1353.236,286.627,1351.538,286.627,1349.666z"/>
		<path fill="#F79266" d="M310.639,1357.479c0.696,1.224,1.518,2.118,2.466,2.682c0.948,0.564,1.938,0.846,2.97,0.846
			c2.088,0,3.594-0.558,4.518-1.674c0.924-1.116,1.386-2.802,1.386-5.058v-15.48h-10.476v-0.972h11.628v16.56
			c0,1.057-0.121,2.053-0.36,2.988c-0.24,0.937-0.636,1.752-1.188,2.448s-1.278,1.242-2.178,1.638
			c-0.9,0.396-2.022,0.594-3.366,0.594c-1.368,0-2.628-0.33-3.78-0.989c-1.152-0.66-2.052-1.65-2.7-2.971L310.639,1357.479z"/>
		<path fill="#F79266" d="M331.663,1360.61h6.192v-21.744h-6.192v-1.008h13.536v1.008h-6.192v21.744h6.192v1.008h-13.536V1360.61z"
			/>
		<path fill="#F79266" d="M353.982,1337.858h13.824v1.008h-12.672v9.576h10.656v1.008h-10.656v11.16h13.032v1.008h-14.184V1337.858z
			"/>
		<path fill="#F79266" d="M395.094,1349.666c0-1.872,0.24-3.563,0.72-5.076c0.48-1.512,1.158-2.795,2.034-3.852
			c0.876-1.056,1.932-1.872,3.168-2.448c1.236-0.576,2.61-0.864,4.122-0.864c1.368,0,2.562,0.288,3.582,0.864
			c1.02,0.576,1.842,1.225,2.466,1.944l-0.72,0.792c-0.648-0.768-1.417-1.38-2.304-1.836c-0.888-0.456-1.896-0.685-3.024-0.685
			c-1.368,0-2.598,0.259-3.69,0.774c-1.092,0.517-2.016,1.26-2.772,2.231c-0.756,0.973-1.338,2.148-1.746,3.528
			c-0.408,1.381-0.612,2.922-0.612,4.626s0.204,3.253,0.612,4.645c0.408,1.392,0.984,2.58,1.728,3.563
			c0.744,0.984,1.65,1.746,2.718,2.286s2.274,0.81,3.618,0.81c1.272,0,2.394-0.252,3.366-0.756c0.972-0.504,1.914-1.26,2.826-2.268
			l0.72,0.72c-0.913,1.057-1.914,1.885-3.006,2.484c-1.093,0.6-2.418,0.899-3.978,0.899c-1.464,0-2.796-0.294-3.996-0.882
			c-1.201-0.588-2.232-1.422-3.096-2.502c-0.864-1.08-1.536-2.382-2.016-3.906C395.333,1353.236,395.094,1351.538,395.094,1349.666z
			"/>
		<path fill="#F79266" d="M416.549,1353.05c0-1.439,0.222-2.724,0.666-3.852c0.444-1.128,1.044-2.076,1.8-2.844
			c0.756-0.769,1.632-1.355,2.628-1.765c0.996-0.407,2.058-0.611,3.186-0.611c1.128,0,2.19,0.204,3.186,0.611
			c0.996,0.409,1.872,0.996,2.628,1.765c0.756,0.768,1.356,1.716,1.8,2.844c0.444,1.128,0.666,2.412,0.666,3.852
			c0,1.417-0.222,2.683-0.666,3.799c-0.444,1.115-1.044,2.058-1.8,2.825c-0.756,0.769-1.632,1.356-2.628,1.765
			c-0.996,0.407-2.058,0.611-3.186,0.611c-1.128,0-2.19-0.204-3.186-0.611c-0.996-0.408-1.872-0.996-2.628-1.765
			c-0.756-0.768-1.356-1.71-1.8-2.825C416.771,1355.732,416.549,1354.467,416.549,1353.05z M417.701,1353.05
			c0,1.201,0.18,2.286,0.54,3.259c0.36,0.972,0.858,1.812,1.494,2.52c0.636,0.708,1.386,1.255,2.25,1.638
			c0.864,0.385,1.812,0.576,2.844,0.576c1.032,0,1.98-0.191,2.844-0.576c0.864-0.383,1.614-0.93,2.25-1.638
			c0.636-0.708,1.134-1.548,1.494-2.52c0.36-0.973,0.54-2.058,0.54-3.259c0-1.175-0.18-2.262-0.54-3.258
			c-0.36-0.995-0.858-1.848-1.494-2.556c-0.636-0.708-1.386-1.26-2.25-1.656c-0.864-0.396-1.812-0.594-2.844-0.594
			c-1.032,0-1.98,0.198-2.844,0.594c-0.864,0.396-1.614,0.948-2.25,1.656c-0.636,0.708-1.134,1.561-1.494,2.556
			C417.881,1350.788,417.701,1351.875,417.701,1353.05z"/>
		<path fill="#F79266" d="M438.509,1344.41h0.936l0.144,2.376h0.072c0.527-0.864,1.085-1.548,1.674-2.052
			c0.588-0.504,1.362-0.756,2.322-0.756c0.984,0,1.752,0.252,2.304,0.756c0.552,0.504,0.948,1.284,1.188,2.34
			c0.671-1.008,1.314-1.775,1.926-2.304c0.612-0.528,1.398-0.792,2.358-0.792c1.2,0,2.118,0.42,2.754,1.26
			c0.636,0.84,0.954,2.124,0.954,3.852v12.528h-1.08v-12.384c0-2.832-0.9-4.248-2.7-4.248c-0.84,0-1.561,0.288-2.16,0.864
			c-0.6,0.575-1.212,1.439-1.836,2.592v13.176h-1.08v-12.384c0-2.832-0.9-4.248-2.7-4.248c-0.84,0-1.561,0.288-2.16,0.864
			c-0.6,0.575-1.212,1.439-1.836,2.592v13.176h-1.08V1344.41z"/>
		<path fill="#F79266" d="M460.108,1344.41h0.936l0.144,2.376h0.072c0.527-0.864,1.085-1.548,1.674-2.052
			c0.588-0.504,1.362-0.756,2.322-0.756c0.984,0,1.752,0.252,2.304,0.756c0.552,0.504,0.948,1.284,1.188,2.34
			c0.671-1.008,1.314-1.775,1.926-2.304c0.612-0.528,1.398-0.792,2.358-0.792c1.2,0,2.118,0.42,2.754,1.26
			c0.636,0.84,0.954,2.124,0.954,3.852v12.528h-1.08v-12.384c0-2.832-0.9-4.248-2.7-4.248c-0.84,0-1.561,0.288-2.16,0.864
			c-0.6,0.575-1.212,1.439-1.836,2.592v13.176h-1.08v-12.384c0-2.832-0.9-4.248-2.7-4.248c-0.84,0-1.561,0.288-2.16,0.864
			c-0.6,0.575-1.212,1.439-1.836,2.592v13.176h-1.08V1344.41z"/>
		<path fill="#F79266" d="M496.468,1361.618h-0.936l-0.144-3.456h-0.144c-0.96,1.129-1.998,2.059-3.114,2.79
			c-1.116,0.731-2.382,1.098-3.798,1.098c-2.112,0-3.684-0.558-4.716-1.674c-1.032-1.116-1.548-2.861-1.548-5.238v-10.728h1.08
			v10.584c0,2.04,0.408,3.559,1.224,4.554c0.816,0.996,2.136,1.494,3.96,1.494c0.648,0,1.26-0.084,1.836-0.252
			c0.576-0.168,1.146-0.426,1.71-0.773s1.134-0.78,1.71-1.297c0.576-0.516,1.176-1.134,1.8-1.854v-12.456h1.08V1361.618z"/>
		<path fill="#F79266" d="M504.388,1344.41h0.936l0.144,3.456h0.144c0.504-0.552,1.02-1.067,1.548-1.548
			c0.528-0.48,1.068-0.894,1.62-1.242c0.552-0.348,1.14-0.617,1.764-0.81c0.624-0.192,1.283-0.288,1.98-0.288
			c2.111,0,3.684,0.558,4.716,1.674c1.032,1.116,1.548,2.862,1.548,5.238v10.728h-1.08v-10.584c0-2.04-0.408-3.558-1.224-4.554
			c-0.816-0.996-2.137-1.494-3.96-1.494c-0.648,0-1.254,0.084-1.818,0.252s-1.122,0.426-1.674,0.773
			c-0.552,0.349-1.116,0.787-1.692,1.314c-0.576,0.528-1.201,1.141-1.872,1.836v12.456h-1.08V1344.41z"/>
		<path fill="#F79266" d="M525.627,1344.41h9.936v17.208h-1.08v-16.2h-8.856V1344.41z M534.627,1340.019
			c-0.409,0-0.75-0.132-1.026-0.396c-0.276-0.264-0.414-0.636-0.414-1.116c0-0.479,0.138-0.852,0.414-1.115
			c0.275-0.265,0.617-0.396,1.026-0.396c0.408,0,0.75,0.132,1.026,0.396c0.276,0.264,0.414,0.636,0.414,1.115
			c0,0.48-0.138,0.853-0.414,1.116C535.377,1339.887,535.035,1340.019,534.627,1340.019z"/>
		<path fill="#F79266" d="M546.867,1353.05c0-1.439,0.246-2.724,0.738-3.852c0.492-1.128,1.158-2.076,1.998-2.844
			c0.84-0.769,1.824-1.355,2.952-1.765c1.127-0.407,2.328-0.611,3.6-0.611c0.72,0,1.38,0.071,1.98,0.216
			c0.6,0.144,1.152,0.342,1.656,0.594s0.959,0.54,1.368,0.864c0.408,0.324,0.792,0.654,1.152,0.99l-0.72,0.792
			c-0.744-0.721-1.554-1.309-2.43-1.765c-0.876-0.455-1.878-0.684-3.006-0.684c-1.2,0-2.298,0.198-3.294,0.594
			c-0.996,0.396-1.854,0.948-2.574,1.656c-0.72,0.708-1.278,1.561-1.674,2.556c-0.396,0.996-0.594,2.083-0.594,3.258
			c0,1.201,0.192,2.286,0.576,3.259c0.384,0.972,0.936,1.812,1.656,2.52s1.578,1.255,2.574,1.638
			c0.996,0.385,2.106,0.576,3.33,0.576c1.224,0,2.328-0.239,3.312-0.72c0.984-0.479,1.872-1.104,2.664-1.872l0.648,0.792
			c-0.864,0.841-1.842,1.519-2.934,2.034c-1.092,0.516-2.322,0.773-3.69,0.773c-1.344,0-2.58-0.204-3.708-0.611
			c-1.128-0.408-2.106-0.996-2.934-1.765c-0.828-0.768-1.476-1.71-1.944-2.825C547.101,1355.732,546.867,1354.467,546.867,1353.05z"
			/>
		<path fill="#F79266" d="M568.683,1357.406c0-0.96,0.258-1.8,0.774-2.521c0.516-0.72,1.314-1.337,2.394-1.854
			c1.08-0.516,2.472-0.948,4.176-1.296s3.744-0.63,6.12-0.846c0-0.744-0.084-1.477-0.252-2.196c-0.168-0.72-0.45-1.351-0.846-1.891
			c-0.396-0.539-0.942-0.978-1.638-1.313c-0.696-0.336-1.561-0.504-2.592-0.504c-0.696,0-1.368,0.078-2.016,0.233
			c-0.648,0.157-1.267,0.36-1.854,0.612c-0.588,0.252-1.123,0.522-1.602,0.811c-0.48,0.287-0.888,0.552-1.224,0.792l-0.576-0.864
			c0.312-0.24,0.72-0.51,1.224-0.811c0.504-0.3,1.08-0.581,1.728-0.846c0.648-0.264,1.35-0.486,2.106-0.666s1.518-0.27,2.286-0.27
			c1.152,0,2.129,0.174,2.934,0.521c0.804,0.349,1.458,0.822,1.962,1.422c0.504,0.601,0.87,1.291,1.098,2.07
			c0.228,0.78,0.342,1.602,0.342,2.466v11.16h-0.936l-0.144-2.664h-0.072c-0.504,0.408-1.05,0.798-1.638,1.17
			c-0.588,0.372-1.194,0.702-1.818,0.99c-0.625,0.288-1.266,0.516-1.926,0.684s-1.314,0.252-1.962,0.252
			c-0.768,0-1.512-0.09-2.232-0.27s-1.362-0.456-1.926-0.828c-0.564-0.372-1.021-0.852-1.368-1.44
			C568.856,1358.925,568.683,1358.223,568.683,1357.406z M569.834,1357.37c0,0.672,0.144,1.242,0.432,1.71s0.666,0.846,1.134,1.134
			c0.468,0.288,0.996,0.499,1.584,0.63c0.588,0.133,1.194,0.198,1.818,0.198c2.28,0,4.728-1.104,7.344-3.312v-5.904
			c-2.328,0.216-4.278,0.486-5.85,0.81c-1.572,0.324-2.838,0.715-3.798,1.171c-0.96,0.456-1.644,0.978-2.052,1.565
			C570.038,1355.961,569.834,1356.627,569.834,1357.37z"/>
		<path fill="#F79266" d="M595.179,1345.418h-5.292v-0.864l5.292-0.144l0.145-5.04h0.936v5.04h9.396v1.008h-9.396v10.008
			c0,0.864,0.072,1.645,0.216,2.341s0.396,1.284,0.756,1.764c0.36,0.48,0.858,0.853,1.494,1.116s1.458,0.396,2.466,0.396
			c0.96,0,1.818-0.084,2.574-0.252s1.481-0.396,2.178-0.684l0.36,0.863c-0.769,0.337-1.626,0.601-2.574,0.792
			c-0.948,0.192-1.817,0.288-2.61,0.288c-1.151,0-2.105-0.162-2.861-0.485c-0.756-0.324-1.363-0.786-1.818-1.387
			c-0.456-0.6-0.779-1.313-0.972-2.142s-0.288-1.746-0.288-2.754V1345.418z"/>
		<path fill="#F79266" d="M612.026,1344.41h9.936v17.208h-1.08v-16.2h-8.855V1344.41z M621.026,1340.019
			c-0.408,0-0.75-0.132-1.025-0.396c-0.277-0.264-0.414-0.636-0.414-1.116c0-0.479,0.137-0.852,0.414-1.115
			c0.275-0.265,0.617-0.396,1.025-0.396s0.75,0.132,1.025,0.396c0.276,0.264,0.414,0.636,0.414,1.115
			c0,0.48-0.138,0.853-0.414,1.116C621.776,1339.887,621.435,1340.019,621.026,1340.019z"/>
		<path fill="#F79266" d="M632.546,1353.05c0-1.439,0.222-2.724,0.666-3.852c0.443-1.128,1.044-2.076,1.8-2.844
			c0.757-0.769,1.632-1.355,2.628-1.765c0.996-0.407,2.058-0.611,3.186-0.611c1.129,0,2.19,0.204,3.187,0.611
			c0.995,0.409,1.872,0.996,2.628,1.765c0.756,0.768,1.355,1.716,1.801,2.844c0.443,1.128,0.666,2.412,0.666,3.852
			c0,1.417-0.223,2.683-0.666,3.799c-0.445,1.115-1.045,2.058-1.801,2.825c-0.756,0.769-1.633,1.356-2.628,1.765
			c-0.996,0.407-2.058,0.611-3.187,0.611c-1.128,0-2.189-0.204-3.186-0.611c-0.996-0.408-1.871-0.996-2.628-1.765
			c-0.756-0.768-1.356-1.71-1.8-2.825C632.768,1355.732,632.546,1354.467,632.546,1353.05z M633.698,1353.05
			c0,1.201,0.18,2.286,0.539,3.259c0.36,0.972,0.858,1.812,1.494,2.52c0.637,0.708,1.387,1.255,2.25,1.638
			c0.864,0.385,1.812,0.576,2.844,0.576c1.032,0,1.98-0.191,2.845-0.576c0.864-0.383,1.614-0.93,2.25-1.638s1.134-1.548,1.494-2.52
			c0.36-0.973,0.54-2.058,0.54-3.259c0-1.175-0.18-2.262-0.54-3.258c-0.36-0.995-0.858-1.848-1.494-2.556s-1.386-1.26-2.25-1.656
			c-0.864-0.396-1.812-0.594-2.845-0.594c-1.031,0-1.979,0.198-2.844,0.594c-0.863,0.396-1.613,0.948-2.25,1.656
			c-0.636,0.708-1.134,1.561-1.494,2.556C633.878,1350.788,633.698,1351.875,633.698,1353.05z"/>
		<path fill="#F79266" d="M655.585,1344.41h0.937l0.144,3.456h0.145c0.504-0.552,1.02-1.067,1.548-1.548s1.067-0.894,1.62-1.242
			c0.552-0.348,1.14-0.617,1.764-0.81s1.283-0.288,1.98-0.288c2.111,0,3.684,0.558,4.716,1.674s1.548,2.862,1.548,5.238v10.728
			h-1.08v-10.584c0-2.04-0.408-3.558-1.224-4.554c-0.816-0.996-2.137-1.494-3.96-1.494c-0.648,0-1.254,0.084-1.818,0.252
			s-1.122,0.426-1.674,0.773c-0.553,0.349-1.116,0.787-1.691,1.314c-0.576,0.528-1.201,1.141-1.873,1.836v12.456h-1.08V1344.41z"/>
		<path fill="#F79266" d="M697.489,1349.666c0-1.872,0.239-3.563,0.719-5.076c0.48-1.512,1.158-2.795,2.035-3.852
			c0.875-1.056,1.932-1.872,3.168-2.448c1.235-0.576,2.609-0.864,4.121-0.864c1.369,0,2.562,0.288,3.582,0.864
			s1.842,1.225,2.467,1.944l-0.721,0.792c-0.647-0.768-1.416-1.38-2.304-1.836s-1.896-0.685-3.024-0.685
			c-1.367,0-2.598,0.259-3.689,0.774c-1.092,0.517-2.016,1.26-2.771,2.231c-0.756,0.973-1.339,2.148-1.746,3.528
			c-0.408,1.381-0.612,2.922-0.612,4.626s0.204,3.253,0.612,4.645c0.407,1.392,0.983,2.58,1.728,3.563
			c0.743,0.984,1.649,1.746,2.718,2.286s2.273,0.81,3.618,0.81c1.272,0,2.394-0.252,3.366-0.756c0.972-0.504,1.914-1.26,2.826-2.268
			l0.72,0.72c-0.913,1.057-1.914,1.885-3.006,2.484c-1.093,0.6-2.419,0.899-3.978,0.899c-1.465,0-2.797-0.294-3.996-0.882
			c-1.201-0.588-2.232-1.422-3.097-2.502s-1.536-2.382-2.017-3.906C697.729,1353.236,697.489,1351.538,697.489,1349.666z"/>
		<path fill="#F79266" d="M719.304,1353.05c0-1.392,0.24-2.651,0.721-3.779c0.479-1.128,1.121-2.082,1.926-2.862
			c0.804-0.779,1.723-1.38,2.754-1.8s2.088-0.63,3.168-0.63c1.152,0,2.196,0.18,3.133,0.54c0.936,0.359,1.739,0.882,2.412,1.565
			c0.671,0.685,1.188,1.512,1.547,2.484c0.36,0.972,0.541,2.082,0.541,3.33c0,0.192,0,0.378,0,0.558s-0.025,0.378-0.072,0.594
			h-14.977c0,1.152,0.191,2.215,0.576,3.187c0.384,0.972,0.918,1.817,1.602,2.538c0.685,0.72,1.513,1.277,2.484,1.674
			c0.973,0.396,2.058,0.594,3.258,0.594s2.28-0.18,3.24-0.54c0.96-0.359,1.848-0.828,2.664-1.403l0.504,0.936
			c-0.385,0.24-0.786,0.48-1.206,0.72c-0.42,0.24-0.894,0.456-1.422,0.648s-1.104,0.348-1.728,0.468
			c-0.625,0.12-1.332,0.18-2.125,0.18c-1.224,0-2.381-0.204-3.474-0.611c-1.093-0.408-2.046-1.002-2.862-1.782
			c-0.815-0.779-1.464-1.722-1.943-2.826C719.544,1355.727,719.304,1354.467,719.304,1353.05z M734.425,1352.114
			c0-2.376-0.607-4.158-1.818-5.346c-1.213-1.188-2.79-1.782-4.734-1.782c-0.912,0-1.788,0.168-2.628,0.504
			c-0.841,0.336-1.597,0.81-2.269,1.422s-1.229,1.356-1.674,2.232c-0.443,0.876-0.726,1.866-0.846,2.97H734.425z"/>
		<path fill="#F79266" d="M741.984,1344.41h0.937l0.144,3.456h0.144c0.504-0.552,1.02-1.067,1.549-1.548
			c0.527-0.48,1.067-0.894,1.619-1.242c0.553-0.348,1.141-0.617,1.765-0.81s1.283-0.288,1.979-0.288
			c2.111,0,3.684,0.558,4.717,1.674c1.031,1.116,1.547,2.862,1.547,5.238v10.728h-1.08v-10.584c0-2.04-0.408-3.558-1.223-4.554
			c-0.816-0.996-2.137-1.494-3.961-1.494c-0.647,0-1.254,0.084-1.818,0.252c-0.563,0.168-1.121,0.426-1.674,0.773
			c-0.552,0.349-1.115,0.787-1.691,1.314c-0.576,0.528-1.201,1.141-1.872,1.836v12.456h-1.08V1344.41z"/>
		<path fill="#F79266" d="M767.976,1345.418h-5.291v-0.864l5.291-0.144l0.145-5.04h0.936v5.04h9.396v1.008h-9.396v10.008
			c0,0.864,0.072,1.645,0.217,2.341c0.144,0.696,0.396,1.284,0.756,1.764c0.359,0.48,0.857,0.853,1.494,1.116
			c0.635,0.264,1.457,0.396,2.465,0.396c0.961,0,1.818-0.084,2.574-0.252s1.482-0.396,2.179-0.684l0.36,0.863
			c-0.77,0.337-1.627,0.601-2.574,0.792c-0.949,0.192-1.818,0.288-2.61,0.288c-1.151,0-2.106-0.162-2.862-0.485
			c-0.756-0.324-1.362-0.786-1.818-1.387c-0.455-0.6-0.779-1.313-0.971-2.142c-0.193-0.828-0.289-1.746-0.289-2.754V1345.418z"/>
		<path fill="#F79266" d="M784.104,1353.05c0-1.392,0.239-2.651,0.72-3.779s1.122-2.082,1.926-2.862
			c0.805-0.779,1.723-1.38,2.754-1.8c1.032-0.42,2.089-0.63,3.169-0.63c1.151,0,2.196,0.18,3.132,0.54
			c0.936,0.359,1.74,0.882,2.412,1.565c0.672,0.685,1.188,1.512,1.548,2.484c0.36,0.972,0.54,2.082,0.54,3.33
			c0,0.192,0,0.378,0,0.558s-0.024,0.378-0.072,0.594h-14.976c0,1.152,0.191,2.215,0.575,3.187c0.385,0.972,0.918,1.817,1.603,2.538
			c0.685,0.72,1.513,1.277,2.483,1.674c0.973,0.396,2.059,0.594,3.259,0.594s2.28-0.18,3.239-0.54
			c0.961-0.359,1.849-0.828,2.664-1.403l0.504,0.936c-0.384,0.24-0.785,0.48-1.205,0.72c-0.42,0.24-0.895,0.456-1.422,0.648
			c-0.529,0.192-1.104,0.348-1.729,0.468c-0.625,0.12-1.332,0.18-2.124,0.18c-1.224,0-2.382-0.204-3.474-0.611
			c-1.093-0.408-2.047-1.002-2.862-1.782c-0.815-0.779-1.464-1.722-1.944-2.826C784.343,1355.727,784.104,1354.467,784.104,1353.05z
			 M799.224,1352.114c0-2.376-0.606-4.158-1.818-5.346c-1.212-1.188-2.789-1.782-4.733-1.782c-0.913,0-1.788,0.168-2.628,0.504
			c-0.841,0.336-1.597,0.81-2.269,1.422s-1.229,1.356-1.674,2.232s-0.726,1.866-0.846,2.97H799.224z"/>
		<path fill="#F79266" d="M808.943,1344.41h0.937l0.144,4.32h0.071c0.937-1.368,2.1-2.502,3.492-3.402s2.977-1.35,4.752-1.35
			c0.553,0,1.129,0.048,1.729,0.144c0.6,0.097,1.176,0.288,1.729,0.576l-0.289,1.008c-0.647-0.239-1.193-0.407-1.638-0.504
			c-0.444-0.096-1.003-0.144-1.674-0.144c-1.488,0-2.911,0.42-4.267,1.26s-2.658,2.268-3.905,4.284v11.016h-1.08V1344.41z"/>
		<path fill="#F79266" d="M849.442,1337.858h1.656l4.176,11.448l1.512,4.319h0.145l1.439-4.319l4.176-11.448h1.656v23.76h-1.152
			v-17.82c0-0.743,0.013-1.512,0.037-2.304c0.023-0.792,0.047-1.56,0.072-2.304h-0.109l-1.295,3.96l-4.428,11.952h-0.973
			l-4.464-11.952l-1.404-3.96h-0.071c0.023,0.744,0.053,1.512,0.09,2.304c0.035,0.792,0.054,1.561,0.054,2.304v17.82h-1.116
			V1337.858z"/>
		<path fill="#F79266" d="M871.078,1357.406c0-0.96,0.258-1.8,0.774-2.521c0.516-0.72,1.313-1.337,2.394-1.854
			c1.08-0.516,2.472-0.948,4.176-1.296s3.744-0.63,6.12-0.846c0-0.744-0.084-1.477-0.252-2.196s-0.45-1.351-0.846-1.891
			c-0.396-0.539-0.942-0.978-1.639-1.313c-0.695-0.336-1.561-0.504-2.592-0.504c-0.696,0-1.367,0.078-2.016,0.233
			c-0.648,0.157-1.267,0.36-1.854,0.612c-0.589,0.252-1.123,0.522-1.603,0.811c-0.48,0.287-0.888,0.552-1.224,0.792l-0.576-0.864
			c0.312-0.24,0.72-0.51,1.224-0.811c0.504-0.3,1.08-0.581,1.728-0.846c0.648-0.264,1.351-0.486,2.106-0.666s1.518-0.27,2.286-0.27
			c1.152,0,2.129,0.174,2.934,0.521c0.805,0.349,1.459,0.822,1.963,1.422c0.504,0.601,0.869,1.291,1.098,2.07
			c0.228,0.78,0.342,1.602,0.342,2.466v11.16h-0.936l-0.145-2.664h-0.072c-0.504,0.408-1.05,0.798-1.638,1.17
			c-0.589,0.372-1.194,0.702-1.817,0.99c-0.625,0.288-1.267,0.516-1.927,0.684s-1.313,0.252-1.962,0.252
			c-0.768,0-1.512-0.09-2.232-0.27c-0.72-0.18-1.361-0.456-1.926-0.828s-1.02-0.852-1.367-1.44
			C871.252,1358.925,871.078,1358.223,871.078,1357.406z M872.229,1357.37c0,0.672,0.145,1.242,0.433,1.71s0.666,0.846,1.134,1.134
			c0.469,0.288,0.996,0.499,1.584,0.63c0.588,0.133,1.193,0.198,1.818,0.198c2.279,0,4.728-1.104,7.344-3.312v-5.904
			c-2.328,0.216-4.278,0.486-5.85,0.81c-1.572,0.324-2.839,0.715-3.799,1.171c-0.959,0.456-1.644,0.978-2.051,1.565
			C872.434,1355.961,872.229,1356.627,872.229,1357.37z"/>
		<path fill="#F79266" d="M892.821,1344.41h9.937v17.208h-1.08v-16.2h-8.856V1344.41z M901.821,1340.019
			c-0.408,0-0.75-0.132-1.025-0.396c-0.276-0.264-0.414-0.636-0.414-1.116c0-0.479,0.138-0.852,0.414-1.115
			c0.275-0.265,0.617-0.396,1.025-0.396s0.75,0.132,1.026,0.396c0.276,0.264,0.414,0.636,0.414,1.115
			c0,0.48-0.138,0.853-0.414,1.116C902.571,1339.887,902.229,1340.019,901.821,1340.019z"/>
		<path fill="#F79266" d="M914.781,1344.41h0.937l0.144,3.456h0.144c0.504-0.552,1.02-1.067,1.549-1.548
			c0.527-0.48,1.067-0.894,1.619-1.242c0.553-0.348,1.141-0.617,1.765-0.81s1.283-0.288,1.979-0.288
			c2.111,0,3.684,0.558,4.717,1.674c1.031,1.116,1.547,2.862,1.547,5.238v10.728h-1.08v-10.584c0-2.04-0.408-3.558-1.223-4.554
			c-0.816-0.996-2.137-1.494-3.961-1.494c-0.647,0-1.254,0.084-1.818,0.252c-0.563,0.168-1.121,0.426-1.674,0.773
			c-0.552,0.349-1.115,0.787-1.691,1.314c-0.576,0.528-1.201,1.141-1.872,1.836v12.456h-1.08V1344.41z"/>
		<path fill="#F79266" d="M957.332,1337.858h1.152v10.584h12.672v-10.584h1.152v23.76h-1.152v-12.168h-12.672v12.168h-1.152
			V1337.858z"/>
		<path fill="#F79266" d="M979.076,1357.406c0-0.96,0.258-1.8,0.774-2.521c0.516-0.72,1.313-1.337,2.394-1.854
			c1.08-0.516,2.472-0.948,4.176-1.296s3.744-0.63,6.12-0.846c0-0.744-0.084-1.477-0.252-2.196s-0.45-1.351-0.846-1.891
			c-0.396-0.539-0.942-0.978-1.639-1.313s-1.56-0.504-2.592-0.504c-0.696,0-1.368,0.078-2.016,0.233
			c-0.648,0.157-1.267,0.36-1.854,0.612s-1.122,0.522-1.602,0.811c-0.48,0.287-0.889,0.552-1.224,0.792l-0.576-0.864
			c0.312-0.24,0.72-0.51,1.224-0.811c0.504-0.3,1.08-0.581,1.729-0.846c0.647-0.264,1.35-0.486,2.105-0.666s1.518-0.27,2.286-0.27
			c1.152,0,2.13,0.174,2.934,0.521c0.804,0.349,1.458,0.822,1.962,1.422c0.505,0.601,0.87,1.291,1.099,2.07
			c0.228,0.78,0.342,1.602,0.342,2.466v11.16h-0.936l-0.145-2.664h-0.072c-0.504,0.408-1.05,0.798-1.638,1.17
			s-1.194,0.702-1.818,0.99s-1.266,0.516-1.926,0.684s-1.313,0.252-1.962,0.252c-0.769,0-1.512-0.09-2.231-0.27
			c-0.721-0.18-1.363-0.456-1.927-0.828s-1.021-0.852-1.368-1.44C979.25,1358.925,979.076,1358.223,979.076,1357.406z
			 M980.229,1357.37c0,0.672,0.144,1.242,0.432,1.71s0.666,0.846,1.134,1.134s0.996,0.499,1.584,0.63
			c0.588,0.133,1.193,0.198,1.818,0.198c2.279,0,4.728-1.104,7.344-3.312v-5.904c-2.328,0.216-4.278,0.486-5.85,0.81
			c-1.572,0.324-2.839,0.715-3.798,1.171c-0.961,0.456-1.645,0.978-2.053,1.565C980.432,1355.961,980.229,1356.627,980.229,1357.37z
			"/>
		<path fill="#F79266" d="M1000.712,1335.626h7.668v21.24c0,2.784,1.283,4.176,3.852,4.176c0.576,0,1.158-0.077,1.746-0.233
			s1.242-0.402,1.962-0.738l0.433,0.899c-0.696,0.265-1.362,0.511-1.998,0.738c-0.637,0.228-1.374,0.342-2.214,0.342
			c-1.561,0-2.761-0.414-3.601-1.241c-0.84-0.828-1.26-2.215-1.26-4.158v-20.017h-6.588V1335.626z"/>
		<path fill="#F79266" d="M1022.312,1335.626h7.668v21.24c0,2.784,1.283,4.176,3.852,4.176c0.576,0,1.158-0.077,1.746-0.233
			s1.242-0.402,1.962-0.738l0.433,0.899c-0.696,0.265-1.362,0.511-1.998,0.738c-0.637,0.228-1.374,0.342-2.214,0.342
			c-1.561,0-2.761-0.414-3.601-1.241c-0.84-0.828-1.26-2.215-1.26-4.158v-20.017h-6.588V1335.626z"/>
	</g>
	<g enable-background="new    ">
		<path fill="#F79266" d="M358.351,1437.217h1.92v17.641h21.12v-17.641h1.92v39.6h-1.92v-20.279h-21.12v20.279h-1.92V1437.217z"/>
		<path fill="#F79266" d="M394.59,1469.797c0-1.6,0.43-3,1.29-4.199c0.86-1.201,2.19-2.23,3.99-3.09c1.8-0.861,4.119-1.58,6.96-2.16
			c2.84-0.58,6.24-1.051,10.2-1.41c0-1.24-0.141-2.461-0.42-3.66c-0.28-1.201-0.75-2.25-1.41-3.15c-0.66-0.9-1.57-1.629-2.73-2.189
			c-1.161-0.561-2.601-0.84-4.32-0.84c-1.161,0-2.28,0.129-3.36,0.389c-1.08,0.262-2.11,0.6-3.09,1.021
			c-0.981,0.42-1.871,0.869-2.67,1.35c-0.801,0.479-1.48,0.92-2.04,1.32l-0.96-1.441c0.519-0.398,1.2-0.85,2.04-1.35
			c0.84-0.5,1.8-0.969,2.88-1.41c1.08-0.439,2.25-0.811,3.51-1.109c1.26-0.301,2.529-0.451,3.81-0.451
			c1.92,0,3.549,0.291,4.89,0.871c1.34,0.58,2.43,1.371,3.27,2.369c0.84,1,1.449,2.15,1.83,3.451c0.379,1.299,0.57,2.67,0.57,4.109
			v18.6h-1.56l-0.24-4.439h-0.12c-0.84,0.68-1.75,1.33-2.73,1.949c-0.981,0.621-1.99,1.17-3.03,1.65
			c-1.041,0.48-2.11,0.859-3.21,1.141c-1.101,0.279-2.19,0.42-3.27,0.42c-1.28,0-2.52-0.15-3.72-0.451
			c-1.2-0.299-2.271-0.758-3.21-1.379c-0.94-0.619-1.701-1.42-2.28-2.4C394.88,1472.328,394.59,1471.156,394.59,1469.797z
			 M396.51,1469.736c0,1.121,0.24,2.07,0.72,2.85c0.48,0.781,1.11,1.41,1.89,1.891c0.78,0.48,1.659,0.83,2.64,1.051
			c0.979,0.221,1.989,0.33,3.03,0.33c3.8,0,7.88-1.84,12.24-5.521v-9.84c-3.88,0.361-7.131,0.811-9.75,1.352
			c-2.621,0.539-4.731,1.189-6.33,1.949c-1.601,0.76-2.74,1.631-3.42,2.609C396.85,1467.387,396.51,1468.498,396.51,1469.736z"/>
		<path fill="#F79266" d="M430.229,1462.537c0-2.4,0.41-4.539,1.23-6.42c0.819-1.881,1.93-3.459,3.33-4.74
			c1.4-1.279,3.04-2.26,4.92-2.939c1.88-0.68,3.879-1.021,6-1.021c1.2,0,2.3,0.121,3.3,0.361c0.999,0.24,1.92,0.57,2.76,0.99
			s1.6,0.898,2.28,1.439c0.68,0.539,1.32,1.09,1.92,1.65l-1.2,1.32c-1.24-1.201-2.59-2.18-4.05-2.941
			c-1.461-0.76-3.13-1.139-5.01-1.139c-2,0-3.831,0.33-5.49,0.988c-1.661,0.66-3.09,1.582-4.29,2.762c-1.2,1.18-2.13,2.6-2.79,4.26
			s-0.99,3.471-0.99,5.43c0,2,0.32,3.811,0.96,5.43c0.64,1.619,1.56,3.021,2.76,4.199c1.2,1.182,2.63,2.092,4.29,2.73
			c1.659,0.641,3.51,0.961,5.55,0.961s3.879-0.4,5.52-1.201c1.64-0.799,3.12-1.838,4.44-3.119l1.08,1.32
			c-1.44,1.4-3.07,2.529-4.89,3.389c-1.82,0.861-3.87,1.291-6.15,1.291c-2.241,0-4.3-0.34-6.18-1.02
			c-1.881-0.68-3.51-1.66-4.89-2.941c-1.38-1.279-2.46-2.85-3.24-4.709C430.62,1467.008,430.229,1464.898,430.229,1462.537z"/>
		<path fill="#F79266" d="M468.629,1433.496h1.8v32.881l0.12-0.119l19.68-18.121h2.4l-11.88,11.041l13.92,17.639h-2.16l-13.2-16.559
			l-8.88,8.398v8.16h-1.8V1433.496z"/>
		<path fill="#F79266" d="M533.548,1448.137h2.04l4.98,19.32c0.319,1.32,0.639,2.59,0.96,3.811c0.319,1.221,0.62,2.469,0.9,3.75
			h0.24c0.32-1.281,0.65-2.529,0.99-3.75c0.339-1.221,0.669-2.49,0.99-3.811l4.98-19.32h2.52l4.98,19.32
			c0.32,1.32,0.65,2.59,0.99,3.811c0.339,1.221,0.669,2.469,0.99,3.75h0.24c0.32-1.281,0.639-2.529,0.96-3.75
			c0.32-1.221,0.639-2.49,0.96-3.811l4.92-19.32h1.92l-7.68,28.68h-2.52l-4.92-18.719c-0.36-1.4-0.69-2.762-0.99-4.08
			c-0.3-1.32-0.65-2.68-1.05-4.08h-0.24c-0.32,1.4-0.63,2.779-0.93,4.139c-0.3,1.361-0.67,2.74-1.11,4.141l-4.8,18.6h-2.52
			L533.548,1448.137z"/>
		<path fill="#F79266" d="M574.827,1448.137h16.561v28.68h-1.801v-27h-14.76V1448.137z M589.827,1440.816
			c-0.681,0-1.25-0.219-1.71-0.66c-0.46-0.439-0.69-1.059-0.69-1.859c0-0.799,0.23-1.42,0.69-1.859s1.029-0.66,1.71-0.66
			c0.68,0,1.25,0.221,1.71,0.66s0.69,1.061,0.69,1.859c0,0.801-0.23,1.42-0.69,1.859
			C591.077,1440.598,590.507,1440.816,589.827,1440.816z"/>
		<path fill="#F79266" d="M618.747,1449.816h-8.82v-1.439l8.82-0.24l0.24-8.4h1.56v8.4h15.659v1.68h-15.659v16.68
			c0,1.441,0.12,2.74,0.36,3.9c0.239,1.16,0.66,2.141,1.26,2.939c0.6,0.801,1.43,1.422,2.49,1.861c1.059,0.439,2.43,0.66,4.109,0.66
			c1.6,0,3.03-0.141,4.29-0.42c1.261-0.279,2.47-0.66,3.63-1.141l0.6,1.439c-1.28,0.561-2.71,1-4.289,1.32
			c-1.581,0.32-3.03,0.48-4.351,0.48c-1.92,0-3.51-0.27-4.771-0.811c-1.26-0.539-2.27-1.309-3.029-2.311
			c-0.76-0.998-1.301-2.189-1.62-3.568c-0.32-1.381-0.479-2.91-0.479-4.59V1449.816z"/>
		<path fill="#F79266" d="M647.427,1433.496h1.799v12.84l-0.119,7.801c1.92-2,3.789-3.619,5.609-4.859s3.91-1.861,6.271-1.861
			c3.519,0,6.14,0.932,7.86,2.791c1.719,1.859,2.58,4.77,2.58,8.73v17.879h-1.801v-17.639c0-3.4-0.681-5.93-2.04-7.592
			c-1.36-1.658-3.561-2.488-6.6-2.488c-1.08,0-2.091,0.141-3.03,0.42c-0.94,0.279-1.87,0.709-2.79,1.289
			c-0.921,0.58-1.86,1.311-2.819,2.189c-0.961,0.881-2.001,1.9-3.121,3.061v20.76h-1.799V1433.496z"/>
		<path fill="#F79266" d="M742.226,1476.816h-1.561l-0.24-5.76h-0.24c-1.6,1.881-3.33,3.43-5.189,4.65
			c-1.859,1.219-3.971,1.83-6.33,1.83c-3.52,0-6.141-0.93-7.859-2.791c-1.721-1.859-2.58-4.77-2.58-8.729v-17.881h1.8v17.641
			c0,3.4,0.68,5.93,2.04,7.59c1.359,1.66,3.56,2.49,6.6,2.49c1.08,0,2.1-0.141,3.061-0.42c0.959-0.279,1.909-0.711,2.85-1.291
			c0.939-0.578,1.891-1.299,2.85-2.16c0.961-0.859,1.96-1.889,3-3.09v-20.76h1.801V1476.816z"/>
		<path fill="#F79266" d="M755.185,1471.537c1.561,1.32,3.35,2.369,5.37,3.15c2.02,0.779,4.59,1.17,7.71,1.17
			c1.561,0,2.93-0.17,4.109-0.51s2.17-0.791,2.971-1.352c0.8-0.559,1.4-1.209,1.8-1.949s0.601-1.51,0.601-2.311
			c0-0.68-0.131-1.328-0.391-1.949c-0.26-0.619-0.779-1.209-1.56-1.77s-1.87-1.111-3.271-1.65c-1.4-0.541-3.221-1.07-5.459-1.59
			c-1.681-0.4-3.211-0.859-4.591-1.381c-1.38-0.52-2.58-1.109-3.601-1.77c-1.02-0.66-1.81-1.389-2.369-2.189
			c-0.561-0.801-0.84-1.66-0.84-2.58c0-1,0.209-1.951,0.63-2.85c0.42-0.9,1.079-1.689,1.979-2.371c0.9-0.68,2.029-1.219,3.391-1.619
			c1.359-0.4,3-0.602,4.92-0.602c1.84,0,3.76,0.322,5.76,0.961c2,0.641,3.68,1.48,5.04,2.52l-1.08,1.439
			c-1.28-0.959-2.729-1.738-4.351-2.34c-1.619-0.6-3.449-0.898-5.489-0.898c-1.681,0-3.091,0.16-4.229,0.479
			c-1.141,0.322-2.061,0.742-2.761,1.26c-0.7,0.521-1.19,1.121-1.47,1.801c-0.28,0.682-0.42,1.381-0.42,2.1
			c0,1.441,0.89,2.662,2.67,3.66c1.779,1,4.209,1.881,7.29,2.641c2.359,0.6,4.319,1.189,5.88,1.77s2.799,1.211,3.72,1.891
			c0.92,0.68,1.569,1.42,1.95,2.219c0.38,0.801,0.57,1.701,0.57,2.701c0,1.041-0.261,2.039-0.78,3
			c-0.521,0.959-1.271,1.799-2.25,2.52c-0.98,0.721-2.181,1.301-3.601,1.74s-3.051,0.66-4.89,0.66c-3,0-5.681-0.451-8.04-1.35
			c-2.36-0.9-4.38-1.971-6.06-3.211L755.185,1471.537z"/>
		<path fill="#F79266" d="M799.704,1474.057c0-1.16,0.319-2.029,0.959-2.609c0.641-0.58,1.359-0.871,2.16-0.871
			s1.52,0.291,2.16,0.871c0.64,0.58,0.961,1.449,0.961,2.609s-0.321,2.031-0.961,2.609c-0.641,0.58-1.359,0.871-2.16,0.871
			s-1.52-0.291-2.16-0.871C800.023,1476.088,799.704,1475.217,799.704,1474.057z M801.983,1440.336v-3.719h1.68v3.719l-0.119,23.641
			h-1.44L801.983,1440.336z"/>
	</g>
</g>
</svg>
