<?xml version="1.0" encoding="utf-8"?>
<!-- Generator: Adobe Illustrator 16.0.0, SVG Export Plug-In . SVG Version: 6.00 Build 0)  -->
<!DOCTYPE svg PUBLIC "-//W3C//DTD SVG 1.1//EN" "http://www.w3.org/Graphics/SVG/1.1/DTD/svg11.dtd">
<svg version="1.1" xmlns="http://www.w3.org/2000/svg" xmlns:xlink="http://www.w3.org/1999/xlink" x="0px" y="0px"
	 width="1166.162px" height="2104.812px" viewBox="0 0 1166.162 2104.812" enable-background="new 0 0 1166.162 2104.812"
	 xml:space="preserve">
<g id="Layer_11" display="none">
	<rect x="-2873.838" y="-1" display="inline" opacity="0.8" fill="#FFFFFF" width="1168" height="2028"/>
	<rect x="-1376.838" y="-2" display="inline" opacity="0.1" width="1168" height="2107"/>
	<rect x="3.162" y="-2" display="inline" opacity="0.1" width="1168" height="2107"/>
	<rect x="2787.162" y="-2" display="inline" opacity="0.6" fill="#FFFFFF" width="1168" height="2107"/>
	<rect x="1373.162" y="-2" display="inline" opacity="0.1" width="1168" height="3651"/>
</g>
<g id="Layer_1">
</g>
<g id="Layer_6">
	<g>
		<polygon fill="#E2C0B7" points="183.248,285.413 138.869,362.274 94.498,285.413 		"/>
		<polygon fill="#F4DCBA" points="272.002,285.413 227.623,362.274 183.248,285.413 		"/>
		<polygon fill="#F4DCBA" points="405.132,362.274 449.507,285.413 493.887,362.274 		"/>
		<polygon fill="#FFCC99" points="538.261,285.413 493.887,362.274 449.507,285.413 		"/>
		<polygon fill="#F4DCBA" points="715.77,285.413 671.395,362.274 627.016,285.413 		"/>
		<polygon fill="#FFCC99" points="671.395,362.274 715.77,285.413 760.15,362.274 		"/>
		<polygon fill="#F4DCBA" points="848.9,362.274 893.28,285.413 937.654,362.274 		"/>
		<polygon fill="#FFCC99" points="982.029,285.413 937.654,362.274 893.28,285.413 		"/>
		<polygon fill="#E2C0B7" points="1070.784,285.413 1026.409,362.274 982.029,285.413 		"/>
		<polygon fill="#F4DCBA" points="1159.543,285.413 1115.164,362.274 1070.784,285.413 		"/>
		<polygon fill="#F4DCBA" points="271.977,439.138 316.352,362.274 360.726,439.138 		"/>
		<polygon fill="#E2C0B7" points="493.859,362.274 449.479,439.138 405.105,362.274 		"/>
		<polygon fill="#F4DCBA" points="582.614,362.274 538.235,439.138 493.859,362.274 		"/>
		<polygon fill="#FFCC99" points="848.874,362.274 804.498,439.138 760.119,362.274 		"/>
		<polygon fill="#F4DCBA" points="1026.378,362.274 982.003,439.138 937.629,362.274 		"/>
		<polygon fill="#E2C0B7" points="5.712,285.413 50.087,208.549 94.466,285.413 		"/>
		<polygon fill="#F4DCBA" points="94.466,285.413 138.843,208.549 183.217,285.413 		"/>
		<polygon fill="#FFCC99" points="227.597,208.549 183.217,285.413 138.843,208.549 		"/>
		<polygon fill="#E2C0B7" points="316.352,208.549 271.977,285.413 227.597,208.549 		"/>
		<polygon fill="#F4DCBA" points="405.105,208.549 360.726,285.413 316.352,208.549 		"/>
		<polygon fill="#FFCC99" points="360.726,285.413 405.105,208.549 449.479,285.413 		"/>
		<polygon fill="#E2C0B7" points="449.479,285.413 493.859,208.549 538.235,285.413 		"/>
		<polygon fill="#F4DCBA" points="538.235,285.413 582.614,208.549 626.984,285.413 		"/>
		<polygon fill="#FFCC99" points="671.364,208.549 626.984,285.413 582.614,208.549 		"/>
		<polygon fill="#E2C0B7" points="760.119,208.549 715.743,285.413 671.364,208.549 		"/>
		<polygon fill="#F4DCBA" points="848.874,208.549 804.498,285.413 760.119,208.549 		"/>
		<polygon fill="#FFCC99" points="804.498,285.413 848.874,208.549 893.249,285.413 		"/>
		<polygon fill="#E2C0B7" points="893.249,285.413 937.629,208.549 982.003,285.413 		"/>
		<polygon fill="#F4DCBA" points="982.003,285.413 1026.378,208.549 1070.758,285.413 		"/>
		<polyline fill="#FFCC99" points="1115.133,208.549 1070.758,285.413 1026.378,208.549 		"/>
		<polygon fill="#79D8D8" points="468.73,388.711 468.881,388.711 468.881,388.559 		"/>
	</g>
</g>
<g id="Layer_9">
	<rect x="0.162" y="-1" fill="#F4DCBA" width="1166" height="211"/>
</g>
<g id="Layer_5">
	<polygon fill="#F4DCBA" points="604.938,2003.696 587.374,2034.119 569.808,2003.696 	"/>
	<g>
		<rect x="128.715" y="150.379" fill="none" width="908.796" height="52.581"/>
		
			<text transform="matrix(1 0 0 1 449.9141 176.8965)" fill="none" stroke="#FFFFFF" stroke-miterlimit="10" font-family="'ShreeDev0714'" font-size="36">HACKPKU 2016</text>
		<g>
			<polygon fill="none" stroke="#FFFFFF" stroke-miterlimit="10" points="524.904,124.72 556.139,70.622 587.373,124.72 			"/>
			<polygon fill="none" stroke="#FFFFFF" stroke-miterlimit="10" points="551.393,79.111 582.625,25.014 613.861,79.111 			"/>
			<polygon fill="none" stroke="#FFFFFF" stroke-miterlimit="10" points="577.359,124.72 608.594,70.622 639.824,124.72 			"/>
		</g>
	</g>
</g>
<g id="Layer_4">
</g>
<g id="Layer_2">
</g>
<g id="Layer_8">
	<path fill-rule="evenodd" clip-rule="evenodd" fill="#A3A3A3" d="M640.827,1017.477c66.806,0,133.613-0.007,200.42,0.022
		c2.527,0,5.114,0.053,7.569,0.572c5.152,1.087,8.945,5.655,8.976,10.914c0.093,16.466,0.09,32.935,0.001,49.401
		c-0.028,5.265-3.798,9.788-8.942,10.94c-2.063,0.462-4.238,0.578-6.362,0.578c-134.551,0.027-269.103-0.02-403.653,0.125
		c-9.091,0.01-15.478-4.867-15.104-15.23c0.509-14.173,0.486-28.39,0.003-42.565c-0.324-9.534,5.65-14.925,15.066-14.866
		c39.628,0.252,79.258,0.107,118.886,0.107C585.4,1017.477,613.113,1017.476,640.827,1017.477z M641.275,1020.022
		c-67.072,0-134.144,0-201.216,0.001c-1.339,0-2.687-0.074-4.014,0.054c-6.274,0.605-9.603,4.246-9.615,10.595
		c-0.028,15.396-0.121,30.795,0.108,46.187c0.037,2.467,1.107,5.274,2.576,7.284c2.45,3.353,6.497,3.226,10.284,3.226
		c133.073-0.004,266.146-0.004,399.219-0.004c1.874,0,3.75,0.041,5.623-0.008c7.445-0.194,11.017-3.827,11.024-11.245
		c0.016-14.324,0.004-28.649,0.005-42.975c0-10.081-3.035-13.11-13.181-13.111C775.151,1020.022,708.213,1020.023,641.275,1020.022z
		"/>
	<path fill-rule="evenodd" clip-rule="evenodd" fill="#A3A3A3" d="M631.391,762.002c67.209-0.002,134.418,0.088,201.626-0.108
		c8.862-0.027,15.696,4.336,15.305,15.433c-0.518,14.708-0.12,29.45-0.144,44.177c-0.013,7.69-4.646,12.531-12.312,12.929
		c-0.935,0.049-1.874,0.021-2.812,0.021c-134.551,0-269.102-0.004-403.652,0.015c-4.673,0.001-9.397-0.19-12.232-4.454
		c-1.539-2.316-2.767-5.341-2.812-8.068c-0.263-15.794-0.159-31.594-0.123-47.392c0.016-6.888,4.301-11.661,11.118-12.425
		c1.854-0.208,3.743-0.119,5.617-0.119C497.777,762.003,564.584,762.004,631.391,762.002z M631.626,764.547
		c-67.206,0-134.411,0-201.618,0c-1.071,0-2.146-0.05-3.213,0.025c-6.475,0.455-9.989,4.145-10.003,10.636
		c-0.033,15.396-0.034,30.792,0.005,46.188c0.017,6.152,3.247,9.699,9.357,10.41c1.19,0.139,2.406,0.084,3.61,0.084
		c134.279,0.003,268.558,0.002,402.838,0c0.668,0,1.338,0.014,2.008-0.005c7.42-0.205,11.011-3.856,11.017-11.257
		c0.013-14.325-0.314-28.66,0.108-42.972c0.304-10.289-5.072-13.202-13.292-13.187C765.504,764.603,698.565,764.545,631.626,764.547
		z"/>
	<path fill-rule="evenodd" clip-rule="evenodd" fill="#A3A3A3" d="M641.264,1581.399c67.344-0.002,134.687,0.006,202.028-0.018
		c4.894-0.002,9.56,0.677,12.217,5.292c1.269,2.206,2.191,4.955,2.224,7.472c0.199,15.662,0.122,31.327,0.09,46.991
		c-0.014,7.263-4.529,12.083-11.755,12.657c-1.066,0.085-2.142,0.048-3.212,0.048c-134.686,0.003-269.372-0.003-404.059,0.022
		c-5.174,0.002-10.086-0.635-12.859-5.607c-1.178-2.115-1.96-4.748-1.986-7.156c-0.176-15.662-0.11-31.327-0.086-46.991
		c0.01-7.086,4.347-11.892,11.357-12.623c1.459-0.152,2.942-0.085,4.414-0.085C506.846,1581.399,574.056,1581.399,641.264,1581.399z
		 M641.252,1583.941c-67.073,0-134.145,0-201.218,0.002c-1.339,0-2.688-0.081-4.015,0.054c-6.286,0.635-9.577,4.259-9.588,10.617
		c-0.026,15.396,0.031,30.792-0.039,46.188c-0.018,3.644,1.065,6.997,4.193,8.544c2.73,1.353,6.131,1.862,9.237,1.864
		c134.012,0.087,268.024,0.076,402.035,0.074c1.07,0,2.146,0.048,3.212-0.022c6.725-0.439,10.179-4.084,10.191-10.85
		c0.026-15.262,0.076-30.525-0.07-45.785c-0.02-2.158-0.665-4.546-1.746-6.407c-2.313-3.99-6.443-4.284-10.573-4.284
		C775.666,1583.943,708.459,1583.941,641.252,1583.941z"/>
	<path fill-rule="evenodd" clip-rule="evenodd" fill="#A3A3A3" d="M640.861,1774.354c-67.478,0-134.954-0.006-202.431,0.015
		c-4.882,0.001-9.563-0.646-12.228-5.263c-1.273-2.206-2.209-4.955-2.241-7.471c-0.198-15.661-0.122-31.328-0.089-46.992
		c0.016-7.275,4.515-12.102,11.722-12.689c1.064-0.085,2.141-0.049,3.211-0.049c134.687-0.003,269.373,0.003,404.06-0.026
		c5.18-0.001,10.086,0.649,12.879,5.595c1.188,2.104,1.966,4.744,1.992,7.15c0.175,15.662,0.107,31.327,0.085,46.992
		c-0.011,7.254-4.501,12.099-11.719,12.68c-1.464,0.118-2.944,0.057-4.417,0.057
		C774.744,1774.355,707.803,1774.354,640.861,1774.354z M640.914,1704.449c-67.072,0-134.146,0-201.219,0.002
		c-1.205,0-2.418-0.068-3.613,0.045c-6.295,0.605-9.64,4.227-9.652,10.56c-0.032,15.396-0.035,30.791,0.004,46.188
		c0.016,6.186,3.19,9.705,9.315,10.461c1.189,0.146,2.407,0.084,3.61,0.084c134.28,0.004,268.56,0.004,402.839,0.004
		c0.669,0,1.339,0.014,2.009-0.003c7.462-0.194,11.05-3.812,11.059-11.211c0.015-14.325-0.312-28.659,0.111-42.972
		c0.305-10.318-4.996-13.241-13.244-13.227C775.061,1704.504,707.988,1704.449,640.914,1704.449z"/>
	<path fill-rule="evenodd" clip-rule="evenodd" fill="#A3A3A3" d="M640.627,1918.821c-72.229,0-144.204,0-216.475,0
		c0-32.016,0-63.926,0-96.123c72.04,0,144.11,0,216.475,0C640.627,1854.571,640.627,1886.481,640.627,1918.821z M638.216,1825.302
		c-70.749,0-141.196,0-211.501,0c0,30.52,0,60.707,0,90.85c70.651,0,141.006,0,211.501,0
		C638.216,1885.807,638.216,1855.712,638.216,1825.302z"/>
	<path fill-rule="evenodd" clip-rule="evenodd" fill="#A3A3A3" d="M649.897,1822.548c72.241,0,144.217,0,216.486,0
		c0,32.029,0,63.939,0,96.135c-72.052,0-144.122,0-216.486,0C649.897,1886.788,649.897,1854.88,649.897,1822.548z M652.315,1916.081
		c70.737,0,141.187,0,211.509,0c0-30.512,0-60.701,0-90.858c-70.647,0-141.004,0-211.509,0
		C652.315,1855.567,652.315,1885.661,652.315,1916.081z"/>
	<path fill-rule="evenodd" clip-rule="evenodd" fill="#A3A3A3" d="M423.938,954.718c-0.074-9.255,7.42-16.792,16.746-16.842
		c9.342-0.048,16.982,7.414,16.992,16.6c0.01,9.256-7.508,16.862-16.748,16.946C431.756,971.504,424.011,963.89,423.938,954.718z"/>
	<path fill-rule="evenodd" clip-rule="evenodd" fill="#A3A3A3" d="M457.671,887.271c-0.07,9.004-7.644,16.589-16.623,16.646
		c-9.46,0.06-17.144-7.56-17.11-16.967c0.032-9.186,7.674-16.616,17.026-16.557C450.243,870.45,457.742,878.026,457.671,887.271z"/>
	<path fill-rule="evenodd" clip-rule="evenodd" fill="#A3A3A3" d="M710.268,1340.333c-0.07,9.004-7.644,16.589-16.623,16.646
		c-9.46,0.06-17.144-7.56-17.11-16.967c0.032-9.186,7.674-16.616,17.026-16.557C702.84,1323.513,710.339,1331.089,710.268,1340.333z
		"/>
	<path fill-rule="evenodd" clip-rule="evenodd" fill="#A3A3A3" d="M559.85,1045.613c4.312,0,8.178-0.076,12.035,0.062
		c0.814,0.028,1.6,0.842,2.398,1.293c-0.81,0.437-1.605,1.218-2.43,1.25c-3.596,0.139-7.201,0.059-11.23,0.059
		c2.146,8.504,7.496,14.14,14.336,18.683c-0.131,0.437-0.263,0.874-0.394,1.312c-1.099-0.172-2.425-0.005-3.262-0.568
		c-5.937-3.998-9.93-9.578-12.29-15.721c-2.955,4.236-5.859,8.686-9.091,12.884c-1.173,1.522-3.038,2.606-4.771,3.562
		c-0.737,0.407-1.938-0.029-3.044-0.634c7.017-4.763,12.104-10.43,13.702-19.517c-3.507,0-6.762,0.115-10.001-0.066
		c-1.05-0.06-2.056-0.899-3.082-1.383c0.976-0.404,1.938-1.118,2.927-1.158c3.452-0.145,6.914-0.057,10.793-0.057
		c0.246-2.705,0.377-5.197,0.762-7.65c0.102-0.652,0.988-1.181,1.514-1.767c0.376,0.598,1.043,1.181,1.076,1.798
		C559.927,1040.363,559.85,1042.745,559.85,1045.613z"/>
	<path fill-rule="evenodd" clip-rule="evenodd" fill="#A3A3A3" d="M533.8,1056.121c-3.258,0-6.29,0-10.019,0
		c0,3.462,0.258,6.646-0.134,9.746c-0.146,1.159-1.653,2.735-2.813,3.027c-1.438,0.361-3.16-0.416-4.615-1.226
		c5.475-1.818,5.722-2.413,4.434-11.367c-3.084,0-6.238,0-9.672,0c0-3.495,0-6.629,0-10.094c7.545,0,15.068,0,22.819,0
		C533.8,1049.445,533.8,1052.475,533.8,1056.121z M530.971,1048.993c-5.851,0-11.396,0-17.006,0c0,1.635,0,2.992,0,4.311
		c5.886,0,11.422,0,17.242,0C531.119,1051.696,531.049,1050.418,530.971,1048.993z"/>
	<path fill-rule="evenodd" clip-rule="evenodd" fill="#A3A3A3" d="M579.594,1043.598c1.912-0.14,3.617-0.266,6.053-0.444
		c-1.186-1.939-2.175-3.554-3.163-5.169c2.548-1.437,4.547,0.415,5.573,5.139c1.935-0.005,3.865-0.005,6.207-0.005
		c-1.154-2.202-2.125-4.053-3.318-6.33c1.009-0.157,2.345-0.619,2.513-0.352c1.224,1.957,2.212,4.062,3.788,7.11
		c3.155,1.192,4.32-2.294,5.742-5.256c0.877-1.828,1.715-3.151,3.727-0.837c-0.942,1.718-1.896,3.455-3.074,5.604
		c2.127,0.205,4.002,0.387,6.434,0.623c0,1.812,0.172,3.533-0.066,5.196c-0.137,0.962-0.934,1.829-1.435,2.74
		c-0.473-0.928-1.033-1.822-1.388-2.792c-0.22-0.603-0.127-1.318-0.198-2.3c-8.109,0-16.192,0-24.259,0
		c-0.178,0.255-0.373,0.444-0.455,0.674c-0.531,1.466-1.037,2.941-1.551,4.413c-0.492-1.582-1.127-3.138-1.422-4.755
		C579.122,1045.873,579.468,1044.794,579.594,1043.598z"/>
	<path fill-rule="evenodd" clip-rule="evenodd" fill="#A3A3A3" d="M598.038,1060.242c-1.501,3.598-2.157,6.571-3.886,8.655
		c-0.749,0.902-3.714-0.036-5.672-0.137c0.006-0.529,0.012-1.056,0.018-1.584c1.461-0.255,2.923-0.51,4.742-0.827
		c0-1.853,0-3.756,0-6.11c-4.038,0-8.012,0.056-11.981-0.052c-0.732-0.021-1.446-0.71-2.169-1.091
		c0.752-0.481,1.489-1.35,2.259-1.378c3.862-0.144,7.732-0.065,10.294-0.065c2.799-2.435,4.752-4.132,7.204-6.265
		c-4.796,0-9.362,0-13.927,0c-0.087-0.44-0.174-0.881-0.262-1.322c0.772-0.369,1.539-1.044,2.317-1.06
		c5.073-0.1,10.15-0.103,15.223-0.009c0.763,0.014,1.512,0.697,2.267,1.071c-0.441,0.741-0.709,1.735-1.355,2.18
		c-2.171,1.493-4.479,2.791-6.733,4.164c0.148,0.413,0.297,0.826,0.444,1.238c3.663,0,7.329-0.076,10.986,0.059
		c0.829,0.029,1.631,0.791,2.445,1.217c-0.811,0.438-1.607,1.223-2.434,1.255C604.246,1060.322,600.663,1060.242,598.038,1060.242z"
		/>
	<path fill-rule="evenodd" clip-rule="evenodd" fill="#A3A3A3" d="M491.573,1047.579c4.116,0.438,6.258-4.479,10.533-1.625
		c-2.545,1.274-5.014,2.752-7.661,3.761c-2.24,0.854-3.072,2.095-2.914,4.466c0.195,2.922,0.128,5.87,0.024,8.802
		c-0.085,2.396,0.88,3.443,3.3,3.313c2.139-0.116,4.496,0.306,4.547-2.978c0.021-1.291,0.178-2.58,0.272-3.869
		c0.502-0.09,1.004-0.181,1.506-0.271c0.288,1.178,1.067,2.506,0.763,3.503c-0.639,2.092-1.369,4.968-2.946,5.76
		c-2.029,1.021-4.997,0.667-7.418,0.188c-1.073-0.212-2.534-2.164-2.565-3.358c-0.225-8.936-0.162-17.879-0.094-26.818
		c0.005-0.73,0.728-1.454,1.115-2.181c0.513,0.738,1.424,1.455,1.467,2.22C491.674,1041.521,491.573,1044.565,491.573,1047.579z"/>
	<path fill-rule="evenodd" clip-rule="evenodd" fill="#A3A3A3" d="M480.075,1063.437c-3.168,1.056-6.047,2.017-8.925,2.977
		c-0.334-0.229-0.667-0.456-1.001-0.685c0.604-0.823,1.033-2.069,1.84-2.405c8.273-3.447,8.293-3.406,8.079-12.297
		c-0.013-0.518-0.102-1.035-0.209-2.093c-2.522,0-5.023,0.099-7.508-0.068c-0.629-0.042-1.201-0.925-1.801-1.42
		c0.592-0.373,1.17-1.034,1.779-1.067c2.384-0.125,4.777-0.051,7.748-0.051c0-2.782-0.116-5.281,0.067-7.759
		c0.058-0.798,0.904-1.539,1.392-2.308c0.432,0.7,1.234,1.397,1.242,2.102c0.083,9.506,0.09,19.012-0.014,28.516
		c-0.008,0.726-0.994,1.44-1.525,2.16c-0.388-0.711-0.973-1.385-1.117-2.142C479.93,1065.876,480.075,1064.79,480.075,1063.437z"/>
	<path fill-rule="evenodd" clip-rule="evenodd" fill="#A3A3A3" d="M519.83,1040.002c0.196-1.43,0.358-2.599,0.521-3.769
		c0.876,0.738,1.687,1.575,2.643,2.186c1,0.64,2.116,1.435,3.224,1.505c3.187,0.202,6.399-0.018,9.592,0.129
		c0.927,0.044,1.82,0.765,2.729,1.175c-0.115,0.456-0.231,0.912-0.346,1.367c-3.679,0-7.356,0-11.035,0
		c-6.134,0-12.267,0.047-18.397-0.061c-0.808-0.015-1.6-0.823-2.399-1.264c0.821-0.423,1.63-1.182,2.465-1.211
		C512.539,1039.927,516.261,1040.002,519.83,1040.002z"/>
	<path fill-rule="evenodd" clip-rule="evenodd" fill="#A3A3A3" d="M515.043,1058.282c0.166,1.342,0.703,2.603,0.312,3.047
		c-1.932,2.197-4.064,4.228-6.242,6.187c-0.405,0.365-1.342,0.138-2.033,0.185c0.108-0.778-0.068-1.837,0.373-2.287
		C509.684,1063.145,512.074,1061.036,515.043,1058.282z"/>
	<path fill-rule="evenodd" clip-rule="evenodd" fill="#A3A3A3" d="M536.496,1067.905c-2.197-2.078-4.446-4.104-6.55-6.272
		c-0.491-0.504-0.486-1.487-0.71-2.252c0.768,0.071,1.785-0.146,2.258,0.265c1.988,1.726,3.917,3.549,5.633,5.537
		c0.534,0.619,0.332,1.875,0.467,2.84C537.228,1067.983,536.861,1067.944,536.496,1067.905z"/>
</g>
<g id="Layer_7">
	<g>
		<rect x="127.178" y="505.907" fill="none" width="911.871" height="55.863"/>
		<text transform="matrix(1 0 0 1 386.7178 551.207)" fill="#6F6F6E" font-family="'ShreeDev0714-Bold'" font-size="60">SIGN UP NOW</text>
	</g>
	<g>
		<rect x="127.178" y="658.748" fill="none" width="911.871" height="43.022"/>
		<text transform="matrix(1 0 0 1 453.0381 694.1064)" fill="#6F6F6E" font-family="'ShreeDev0714'" font-size="48">BASIC INFO</text>
	</g>
	<g>
		<rect x="127.178" y="1214.694" fill="none" width="911.871" height="43.022"/>
		<text transform="matrix(1 0 0 1 438.5488 1250.0527)" fill="#6F6F6E" font-family="'ShreeDev0714'" font-size="48">GROUP INFO</text>
	</g>
	<g>
		<rect x="127.178" y="1477.883" fill="none" width="911.871" height="43.022"/>
		<text transform="matrix(1 0 0 1 471.8203 1513.2412)" fill="#6F6F6E" font-family="'ShreeDev0714'" font-size="48">CONTACT</text>
	</g>
	<g>
		<rect x="241.91" y="781.156" fill="none" width="911.871" height="43.022"/>
		<text transform="matrix(1 0 0 1 241.9102 807.6748)" fill="#6F6F6E" font-family="'ShreeDev0714'" font-size="36">NAME</text>
	</g>
	<g>
		<rect x="241.91" y="874.143" fill="none" width="172.274" height="43.022"/>
		<text transform="matrix(1 0 0 1 241.9102 900.6611)" fill="#6F6F6E" font-family="'ShreeDev0714'" font-size="36">GENDER</text>
	</g>
	<g>
		<rect x="242.803" y="1035.494" fill="none" width="911.871" height="43.022"/>
		<text transform="matrix(1 0 0 1 242.8027 1062.0127)" fill="#6F6F6E" font-family="'ShreeDev0714'" font-size="36">SCHOOL</text>
	</g>
	<g>
		<rect x="242.803" y="1327.217" fill="none" width="407.095" height="43.022"/>
		<text transform="matrix(1 0 0 1 242.8027 1353.7354)" fill="#6F6F6E" font-family="'ShreeDev0714'" font-size="36">ARE YOU IN A GROUP?</text>
	</g>
	<g>
		<rect x="728.455" y="1327.217" fill="none" width="407.095" height="43.022"/>
		<text transform="matrix(1 0 0 1 728.4551 1353.7354)" fill="#6F6F6E" font-family="'ShreeDev0714'" font-size="36">YES, I AM</text>
	</g>
	<g>
		<rect x="245.098" y="1601.292" fill="none" width="407.095" height="43.022"/>
		<text transform="matrix(1 0 0 1 245.0977 1627.8105)" fill="#6F6F6E" font-family="'ShreeDev0714'" font-size="36">E-MAIL</text>
	</g>
	<g>
		<rect x="245.098" y="1722.452" fill="none" width="407.095" height="43.022"/>
		<text transform="matrix(1 0 0 1 245.0977 1748.9707)" fill="#6F6F6E" font-family="'ShreeDev0714'" font-size="36">PHONE</text>
	</g>
	<g>
		<rect x="456.857" y="1855.972" fill="none" width="149.479" height="43.022"/>
		<text transform="matrix(1 0 0 1 467.5801 1882.4902)" fill="#6F6F6E" font-family="'ShreeDev0714'" font-size="36">SUBMIT</text>
	</g>
	<g>
		<rect x="683.401" y="1855.972" fill="none" width="149.479" height="43.022"/>
		<text transform="matrix(1 0 0 1 704.6113 1882.4902)" fill="#6F6F6E" font-family="'ShreeDev0714'" font-size="36">RESET</text>
	</g>
	<line fill="none" stroke="#6F6F6E" stroke-miterlimit="10" x1="127.178" y1="587.197" x2="1039.049" y2="587.197"/>
</g>
<g id="Layer_10">
</g>
<g id="Layer_12">
</g>
</svg>
