<?xml version="1.0" encoding="utf-8"?>
<!-- Generator: Adobe Illustrator 16.0.0, SVG Export Plug-In . SVG Version: 6.00 Build 0)  -->
<!DOCTYPE svg PUBLIC "-//W3C//DTD SVG 1.1//EN" "http://www.w3.org/Graphics/SVG/1.1/DTD/svg11.dtd">
<svg version="1.1" id="Layer_1" xmlns="http://www.w3.org/2000/svg" xmlns:xlink="http://www.w3.org/1999/xlink" x="0px" y="0px"
	 width="1153.831px" height="230.59px" viewBox="5.712 208.548 1153.831 230.59"
	 enable-background="new 5.712 208.548 1153.831 230.59" xml:space="preserve">
<g id="Layer_6">
	<g>
		<polygon fill="#E2C0B7" points="183.248,285.414 138.869,362.275 94.498,285.414 		"/>
		<polygon fill="#F4DCBA" points="272.002,285.414 227.623,362.275 183.248,285.414 		"/>
		<polygon fill="#F4DCBA" points="405.132,362.275 449.507,285.414 493.887,362.275 		"/>
		<polygon fill="#FFCC99" points="538.261,285.414 493.887,362.275 449.507,285.414 		"/>
		<polygon fill="#F4DCBA" points="715.77,285.414 671.395,362.275 627.016,285.414 		"/>
		<polygon fill="#FFCC99" points="671.395,362.275 715.77,285.414 760.15,362.275 		"/>
		<polygon fill="#F4DCBA" points="848.9,362.275 893.28,285.414 937.654,362.275 		"/>
		<polygon fill="#FFCC99" points="982.029,285.414 937.654,362.275 893.28,285.414 		"/>
		<polygon fill="#E2C0B7" points="1070.784,285.414 1026.409,362.275 982.029,285.414 		"/>
		<polygon fill="#F4DCBA" points="1159.543,285.414 1115.164,362.275 1070.784,285.414 		"/>
		<polygon fill="#F4DCBA" points="271.977,439.138 316.352,362.275 360.726,439.138 		"/>
		<polygon fill="#E2C0B7" points="493.859,362.275 449.479,439.138 405.105,362.275 		"/>
		<polygon fill="#F4DCBA" points="582.614,362.275 538.235,439.138 493.859,362.275 		"/>
		<polygon fill="#FFCC99" points="848.874,362.275 804.498,439.138 760.119,362.275 		"/>
		<polygon fill="#F4DCBA" points="1026.378,362.275 982.003,439.138 937.629,362.275 		"/>
		<polygon fill="#E2C0B7" points="5.712,285.414 50.087,208.548 94.466,285.414 		"/>
		<polygon fill="#F4DCBA" points="94.466,285.414 138.843,208.548 183.217,285.414 		"/>
		<polygon fill="#FFCC99" points="227.597,208.548 183.217,285.414 138.843,208.548 		"/>
		<polygon fill="#E2C0B7" points="316.352,208.548 271.977,285.414 227.597,208.548 		"/>
		<polygon fill="#F4DCBA" points="405.105,208.548 360.726,285.414 316.352,208.548 		"/>
		<polygon fill="#FFCC99" points="360.726,285.414 405.105,208.548 449.479,285.414 		"/>
		<polygon fill="#E2C0B7" points="449.479,285.414 493.859,208.548 538.235,285.414 		"/>
		<polygon fill="#F4DCBA" points="538.235,285.414 582.614,208.548 626.984,285.414 		"/>
		<polygon fill="#FFCC99" points="671.364,208.548 626.984,285.414 582.614,208.548 		"/>
		<polygon fill="#E2C0B7" points="760.119,208.548 715.743,285.414 671.364,208.548 		"/>
		<polygon fill="#F4DCBA" points="848.874,208.548 804.498,285.414 760.119,208.548 		"/>
		<polygon fill="#FFCC99" points="804.498,285.414 848.874,208.548 893.249,285.414 		"/>
		<polygon fill="#E2C0B7" points="893.249,285.414 937.629,208.548 982.003,285.414 		"/>
		<polygon fill="#F4DCBA" points="982.003,285.414 1026.378,208.548 1070.758,285.414 		"/>
		<polyline fill="#FFCC99" points="1115.133,208.548 1070.758,285.414 1026.378,208.548 		"/>
		<polygon fill="#79D8D8" points="468.73,388.71 468.881,388.71 468.881,388.558 		"/>
	</g>
</g>
</svg>
