<?xml version="1.0" encoding="utf-8"?>
<!-- Generator: Adobe Illustrator 16.0.0, SVG Export Plug-In . SVG Version: 6.00 Build 0)  -->
<!DOCTYPE svg PUBLIC "-//W3C//DTD SVG 1.1//EN" "http://www.w3.org/Graphics/SVG/1.1/DTD/svg11.dtd">
<svg version="1.1" id="Layer_1" xmlns="http://www.w3.org/2000/svg" xmlns:xlink="http://www.w3.org/1999/xlink" x="0px" y="0px"
	 width="186.88px" height="898px" viewBox="157.179 0 186.429 898" enable-background="new 155.179 0 186.429 898"
	 xml:space="preserve">
<g id="Layer_2">
</g>
<g>
	<polygon fill="#FCE1D0" points="279.428,862.104 217.249,826.201 279.428,790.304 	"/>
	<polygon fill="#F4DCBA" points="217.249,754.402 279.428,790.304 217.249,826.201 	"/>
	<polygon fill="#F79266" points="279.428,790.304 217.249,754.402 279.428,718.504 	"/>
	<polygon fill="#FCE1D0" points="217.249,610.806 279.428,646.704 217.249,682.602 	"/>
	<polygon fill="#F4DCBA" points="279.428,646.704 217.249,610.806 279.428,574.903 	"/>
	<polygon fill="#F79266" points="217.249,539.005 279.428,574.903 217.249,610.806 	"/>
	<polygon fill="#FCE1D0" points="279.428,503.105 217.249,467.206 279.428,431.304 	"/>
	<polygon fill="#F4DCBA" points="217.249,395.405 279.428,431.304 217.249,467.206 	"/>
	<polygon fill="#F79266" points="279.428,431.304 217.249,395.405 279.428,359.504 	"/>
	<polygon fill="#FCE1D0" points="217.249,251.805 279.428,287.707 217.249,323.605 	"/>
	<polygon fill="#F4DCBA" points="279.428,287.707 217.249,251.805 279.428,215.906 	"/>
	<polygon fill="#F79266" points="217.249,180.008 279.428,215.906 217.249,251.805 	"/>
	<polygon fill="#FCE1D0" points="279.428,144.107 217.249,108.209 279.428,72.306 	"/>
	<polygon fill="#F4DCBA" points="217.249,36.404 279.428,72.306 217.249,108.209 	"/>
	<polygon fill="#FCE1D0" points="341.608,898 279.428,862.102 341.608,826.201 	"/>
	<polygon fill="#F4DCBA" points="341.608,754.423 279.428,718.525 341.608,682.629 	"/>
	<polygon fill="#F79266" points="279.428,646.725 341.608,682.629 279.428,718.525 	"/>
	<polyline fill="#FCE1D0" points="341.608,610.828 279.428,574.926 341.608,539.026 	"/>
	<polyline fill="#F79266" points="279.428,359.527 279.428,287.729 341.608,323.627 	"/>
	<polygon fill="#FCE1D0" points="341.608,251.828 279.428,215.927 341.608,180.03 	"/>
	<polygon fill="#F4DCBA" points="279.428,144.132 341.608,180.03 279.428,215.927 	"/>
	<polygon fill="#F79266" points="341.608,180.03 279.428,144.132 341.608,108.229 	"/>
	<polygon fill="#F79266" points="217.359,897.521 155.179,861.621 217.359,825.721 	"/>
	<polygon fill="#F79266" points="155.179,717.998 217.359,753.9 155.179,789.799 	"/>
	<polygon fill="#F4DCBA" points="217.359,753.9 155.179,717.998 217.359,682.1 	"/>
	<polygon fill="#F4DCBA" points="155.179,502.601 217.359,538.499 155.179,574.402 	"/>
	<polygon fill="#F79266" points="217.359,538.499 155.179,502.601 217.359,466.701 	"/>
	<polygon fill="#F79266" points="155.179,359.002 217.359,394.9 155.179,430.801 	"/>
	<polygon fill="#F4DCBA" points="217.359,394.9 155.179,359.002 217.359,323.099 	"/>
	<polyline fill="#FCE1D0" points="155.179,215.401 217.359,179.503 217.359,251.303 	"/>
	<polygon fill="#F79266" points="217.359,179.503 155.179,143.604 217.359,107.703 	"/>
	<polygon fill="#FCE1D0" points="155.179,0 217.359,35.902 155.179,71.805 	"/>
	<polygon fill="#79D8D8" points="300.815,595.254 300.815,595.133 300.692,595.133 	"/>
</g>
<polygon fill="none" stroke="#6F6F6E" stroke-miterlimit="10" points="2295.875,791.626 2288.527,804.354 2281.18,791.626 "/>
</svg>
