<?xml version="1.0" encoding="utf-8"?>
<!-- Generator: Adobe Illustrator 16.0.0, SVG Export Plug-In . SVG Version: 6.00 Build 0)  -->
<!DOCTYPE svg PUBLIC "-//W3C//DTD SVG 1.1//EN" "http://www.w3.org/Graphics/SVG/1.1/DTD/svg11.dtd">
<svg version="1.1" id="Layer_1" xmlns="http://www.w3.org/2000/svg" xmlns:xlink="http://www.w3.org/1999/xlink" x="0px" y="0px"
	 width="1154.472px" height="230.591px" viewBox="4.409 208.735 1154.472 230.591"
	 enable-background="new 4.409 208.735 1154.472 230.591" xml:space="preserve">
<g id="Layer_6">
	<g>
		<polygon fill="#79D8D8" points="360.1,362.463 315.72,439.326 271.346,362.463 		"/>
		<polygon fill="#CCE2BA" points="626.362,362.463 581.982,439.326 537.608,362.463 		"/>
		<polygon fill="#C5C7DD" points="715.117,362.463 670.738,439.326 626.362,362.463 		"/>
		<polygon fill="#79D8D8" points="803.867,362.463 759.487,439.326 715.117,362.463 		"/>
		<polygon fill="#CCE2BA" points="759.487,439.326 803.867,362.463 848.246,439.326 		"/>
		<polygon fill="#C5C7DD" points="1158.881,362.463 1114.506,439.326 1070.132,362.463 		"/>
		<polygon fill="#79D8D8" points="181.945,208.735 137.566,285.599 93.195,208.735 		"/>
		<polygon fill="#CCE2BA" points="137.566,285.599 181.945,208.735 226.32,285.599 		"/>
		<polygon fill="#C5C7DD" points="226.32,285.599 270.699,208.735 315.075,285.599 		"/>
		<polygon fill="#CCE2BA" points="448.204,208.735 403.829,285.599 359.454,208.735 		"/>
		<polygon fill="#C5C7DD" points="536.958,208.735 492.584,285.599 448.204,208.735 		"/>
		<polygon fill="#CCE2BA" points="581.337,285.599 625.713,208.735 670.092,285.599 		"/>
		<polygon fill="#C5C7DD" points="670.092,285.599 714.467,208.735 758.848,285.599 		"/>
		<polygon fill="#79D8D8" points="758.848,285.599 803.223,208.735 847.598,285.599 		"/>
		<polygon fill="#CCE2BA" points="891.979,208.735 847.598,285.599 803.223,208.735 		"/>
		<polygon fill="#79D8D8" points="1069.48,208.735 1025.105,285.599 980.727,208.735 		"/>
		<polygon fill="#CCE2BA" points="1025.105,285.599 1069.48,208.735 1113.861,285.599 		"/>
		<polygon fill="#CCE2BA" points="4.409,362.463 48.784,285.599 93.163,362.463 		"/>
		<polygon fill="#C5C7DD" points="93.163,362.463 137.54,285.599 181.914,362.463 		"/>
		<polygon fill="#79D8D8" points="181.914,362.463 226.294,285.599 270.674,362.463 		"/>
		<polygon fill="#CCE2BA" points="315.049,285.599 270.674,362.463 226.294,285.599 		"/>
		<polygon fill="#C5C7DD" points="403.803,285.599 359.423,362.463 315.049,285.599 		"/>
		<polygon fill="#79D8D8" points="492.557,285.599 448.177,362.463 403.803,285.599 		"/>
		<polygon fill="#CCE2BA" points="448.177,362.463 492.557,285.599 536.933,362.463 		"/>
		<polygon fill="#79D8D8" points="625.682,362.463 670.062,285.599 714.439,362.463 		"/>
		<polygon fill="#CCE2BA" points="758.816,285.599 714.439,362.463 670.062,285.599 		"/>
		<polygon fill="#C5C7DD" points="847.571,285.599 803.195,362.463 758.816,285.599 		"/>
		<polygon fill="#79D8D8" points="936.326,285.599 891.946,362.463 847.571,285.599 		"/>
		<polygon fill="#CCE2BA" points="891.946,362.463 936.326,285.599 980.7,362.463 		"/>
		<polygon fill="#79D8D8" points="601.233,388.899 601.384,388.899 601.384,388.747 		"/>
	</g>
</g>
</svg>
