<?xml version="1.0" encoding="utf-8"?>
<!-- Generator: Adobe Illustrator 16.0.0, SVG Export Plug-In . SVG Version: 6.00 Build 0)  -->
<!DOCTYPE svg PUBLIC "-//W3C//DTD SVG 1.1//EN" "http://www.w3.org/Graphics/SVG/1.1/DTD/svg11.dtd">
<svg version="1.1" xmlns="http://www.w3.org/2000/svg" xmlns:xlink="http://www.w3.org/1999/xlink" x="0px" y="0px"
	 width="1166.162px" height="3649.986px" viewBox="0 0 1166.162 3649.986" enable-background="new 0 0 1166.162 3649.986"
	 xml:space="preserve">
<g id="Layer_11" display="none">
	<rect x="-4253" y="-0.014" display="inline" opacity="0.8" fill="#FFFFFF" width="1168" height="2028"/>
	<rect x="-2756" y="-1.014" display="inline" opacity="0.1" width="1168" height="2107"/>
	<rect x="-1376" y="-1.014" display="inline" opacity="0.1" width="1168" height="2107"/>
	<rect x="1408" y="-1.014" display="inline" opacity="0.6" fill="#FFFFFF" width="1168" height="2107"/>
	<rect x="-6" y="-1.014" display="inline" opacity="0.1" width="1168" height="3651"/>
</g>
<g id="Layer_1">
</g>
<g id="Layer_6">
	<g>
		<polygon fill="#FCE1D0" points="94.193,364.123 138.572,287.261 182.947,364.123 		"/>
		<polygon fill="#F4DCBA" points="227.326,287.261 182.947,364.123 138.572,287.261 		"/>
		<polygon fill="#F79266" points="182.947,364.123 227.326,287.261 271.701,364.123 		"/>
		<polygon fill="#FCE1D0" points="404.831,287.261 360.456,364.123 316.081,287.261 		"/>
		<polygon fill="#F4DCBA" points="360.456,364.123 404.831,287.261 449.211,364.123 		"/>
		<polygon fill="#F79266" points="493.586,287.261 449.211,364.123 404.831,287.261 		"/>
		<polygon fill="#FCE1D0" points="537.964,364.123 582.34,287.261 626.719,364.123 		"/>
		<polygon fill="#F4DCBA" points="671.094,287.261 626.719,364.123 582.34,287.261 		"/>
		<polygon fill="#F79266" points="626.719,364.123 671.094,287.261 715.475,364.123 		"/>
		<polygon fill="#FCE1D0" points="848.604,287.261 804.225,364.123 759.85,287.261 		"/>
		<polygon fill="#F4DCBA" points="804.225,364.123 848.604,287.261 892.979,364.123 		"/>
		<polygon fill="#F79266" points="937.354,287.261 892.979,364.123 848.604,287.261 		"/>
		<polygon fill="#FCE1D0" points="981.733,364.123 1026.108,287.261 1070.488,364.123 		"/>
		<polygon fill="#F4DCBA" points="1114.867,287.261 1070.488,364.123 1026.108,287.261 		"/>
		<polygon fill="#FCE1D0" points="49.82,440.986 94.195,364.123 138.574,440.986 		"/>
		<polygon fill="#F4DCBA" points="227.301,440.986 271.676,364.123 316.049,440.986 		"/>
		<polygon fill="#F79266" points="360.43,364.123 316.049,440.986 271.676,364.123 		"/>
		<polyline fill="#FCE1D0" points="404.804,440.986 449.184,364.123 493.56,440.986 		"/>
		<polyline fill="#F79266" points="715.443,364.123 804.198,364.123 759.822,440.986 		"/>
		<polygon fill="#FCE1D0" points="848.573,440.986 892.953,364.123 937.327,440.986 		"/>
		<polygon fill="#F4DCBA" points="981.701,364.123 937.327,440.986 892.953,364.123 		"/>
		<polygon fill="#F79266" points="937.327,440.986 981.701,364.123 1026.082,440.986 		"/>
		<polygon fill="#F79266" points="50.411,287.397 94.79,210.534 139.167,287.397 		"/>
		<polygon fill="#FCE1D0" points="272.326,210.534 227.947,287.397 183.572,210.534 		"/>
		<polygon fill="#F4DCBA" points="227.947,287.397 272.326,210.534 316.701,287.397 		"/>
		<polygon fill="#F4DCBA" points="538.586,210.534 494.211,287.397 449.831,210.534 		"/>
		<polygon fill="#F79266" points="494.211,287.397 538.586,210.534 582.964,287.397 		"/>
		<polygon fill="#FCE1D0" points="716.094,210.534 671.719,287.397 627.34,210.534 		"/>
		<polygon fill="#F4DCBA" points="671.719,287.397 716.094,210.534 760.475,287.397 		"/>
		<polyline fill="#FCE1D0" points="893.604,210.534 937.979,287.397 849.225,287.397 		"/>
		<polygon fill="#F79266" points="937.979,287.397 982.354,210.534 1026.733,287.397 		"/>
		<polygon fill="#FCE1D0" points="1159.867,210.534 1115.488,287.397 1071.108,210.534 		"/>
		<polygon fill="#79D8D8" points="424.055,390.56 424.205,390.56 424.205,390.407 		"/>
	</g>
</g>
<g id="Layer_9">
	<rect x="1" y="-0.014" fill="#F79266" width="1166" height="211"/>
</g>
<g id="Layer_5">
	<polygon fill="#F79266" points="605.211,3498.462 587.646,3528.885 570.08,3498.462 	"/>
	<polygon fill="none" stroke="#6F6F6E" stroke-miterlimit="10" points="605.776,2004.683 588.212,2035.105 570.646,2004.683 	"/>
	<g>
		<g>
			<rect x="129.553" y="151.365" fill="none" width="908.796" height="52.581"/>
			
				<text transform="matrix(1 0 0 1 450.752 177.8828)" fill="none" stroke="#FFFFFF" stroke-miterlimit="10" font-family="'ShreeDev0714'" font-size="36">HACKPKU 2016</text>
			<g>
				<polygon fill="none" stroke="#FFFFFF" stroke-miterlimit="10" points="525.742,125.706 556.977,71.608 588.211,125.706 				"/>
				<polygon fill="none" stroke="#FFFFFF" stroke-miterlimit="10" points="552.23,80.098 583.463,26 614.699,80.098 				"/>
				<polygon fill="none" stroke="#FFFFFF" stroke-miterlimit="10" points="578.197,125.706 609.432,71.608 640.662,125.706 				"/>
			</g>
		</g>
	</g>
</g>
<g id="Layer_4">
</g>
<g id="Layer_2">
</g>
<g id="Layer_8">
</g>
<g id="Layer_7">
	<g>
		<g>
			<rect x="130.71" y="3543.885" fill="none" width="911.871" height="43.022"/>
			<text transform="matrix(1 0 0 1 201.0039 3570.4033)"><tspan x="0" y="0" fill="#6F6F6E" font-family="'ShreeDev0714'" font-size="36">Please </tspan><tspan x="120.61" y="0" fill="#79D8D8" font-family="'ShreeDev0714'" font-size="36">send us an e-mail </tspan><tspan x="438.792" y="0" fill="#6F6F6E" font-family="'ShreeDev0714'" font-size="36">for further questions.</tspan></text>
		</g>
	</g>
	<g>
		<rect x="127.146" y="506.894" fill="none" width="911.871" height="55.863"/>
		<text transform="matrix(1 0 0 1 505.7158 552.1934)" fill="#6F6F6E" font-family="'ShreeDev0714-Bold'" font-size="60">FAQS</text>
	</g>
	<g>
		<rect x="128.016" y="632.689" fill="none" width="911.871" height="2801.053"/>
		<text transform="matrix(1 0 0 1 128.0156 668.0479)"><tspan x="0" y="0" fill="#FC7963" font-family="'ShreeDev0714'" font-size="48">Q: HOW MUCH WILL IT COST TO PAR</tspan><tspan x="855.998" y="0" fill="#FC7963" font-family="'ShreeDev0714'" font-size="48">-</tspan><tspan x="0" y="57.6" fill="#FC7963" font-family="'ShreeDev0714'" font-size="48">TICIPATE IN HACKPKU 2016?</tspan><tspan x="0" y="172.8" fill="#6F6F6E" font-family="'ShreeDev0714'" font-size="48">A: HackPKU 2016 is free for ALL! You </tspan><tspan x="0" y="230.4" fill="#6F6F6E" font-family="'ShreeDev0714'" font-size="48">don&apos;t have to pay a dime to attend this </tspan><tspan x="0" y="288" fill="#6F6F6E" font-family="'ShreeDev0714'" font-size="48">activity. We would even cover your travel </tspan><tspan x="0" y="345.6" fill="#6F6F6E" font-family="'ShreeDev0714'" font-size="48">tickets.</tspan><tspan x="0" y="460.8" fill="#FC7963" font-family="'ShreeDev0714'" font-size="48">Q: THE MAXIMUM MEMBERS ON A </tspan><tspan x="0" y="518.4" fill="#FC7963" font-family="'ShreeDev0714'" font-size="48">TEAM?</tspan><tspan x="0" y="633.6" fill="#6F6F6E" font-family="'ShreeDev0714'" font-size="48">A: 5.</tspan><tspan x="0" y="748.8" fill="#FC7963" font-family="'ShreeDev0714'" font-size="48">Q: HOW LONG IS THE HACK?</tspan><tspan x="0" y="864" fill="#6F6F6E" font-family="'ShreeDev0714'" font-size="48">A: It is 36 hours long, From Friday (April </tspan><tspan x="0" y="921.6" fill="#6F6F6E" font-family="'ShreeDev0714'" font-size="48">1st) 9pm to Sunday (April 3rd) 9am.</tspan><tspan x="0" y="979.2" fill="#6F6F6E" font-family="'ShreeDev0714'" font-size="48">There will be sufficient beverages and </tspan><tspan x="0" y="1036.8" fill="#6F6F6E" font-family="'ShreeDev0714'" font-size="48">chocolates for everyone!</tspan><tspan x="0" y="1152" fill="#FC7963" font-family="'ShreeDev0714'" font-size="48">Q: WHEN/WHERE CAN I HACK?</tspan><tspan x="0" y="1267.199" fill="#6F6F6E" font-family="'ShreeDev0714'" font-size="48">A: HackPKU will start in the evening of </tspan><tspan x="0" y="1324.8" fill="#6F6F6E" font-family="'ShreeDev0714'" font-size="48">Friday, April 1st with the kick-off cere</tspan><tspan x="817.419" y="1324.8" fill="#6F6F6E" font-family="'ShreeDev0714'" font-size="48">-</tspan><tspan x="0" y="1382.399" fill="#6F6F6E" font-family="'ShreeDev0714'" font-size="48">mony. There will be events planned </tspan><tspan x="0" y="1440" fill="#6F6F6E" font-family="'ShreeDev0714'" font-size="48">throughout the day for those who arrive </tspan><tspan x="0" y="1497.6" fill="#6F6F6E" font-family="'ShreeDev0714'" font-size="48">early. A detailed schedule of events and </tspan><tspan x="0" y="1555.199" fill="#6F6F6E" font-family="'ShreeDev0714'" font-size="48">locations will be posted later. All projects </tspan><tspan x="0" y="1612.8" fill="#6F6F6E" font-family="'ShreeDev0714'" font-size="48">eligible for prizes must be completed be</tspan><tspan x="883.303" y="1612.8" fill="#6F6F6E" font-family="'ShreeDev0714'" font-size="48">-</tspan><tspan x="0" y="1670.399" fill="#6F6F6E" font-family="'ShreeDev0714'" font-size="48">tween Friday night after the kick-off and </tspan><tspan x="0" y="1728" fill="#6F6F6E" font-family="'ShreeDev0714'" font-size="48">Sunday morning at the hacking location.</tspan><tspan x="0" y="1785.6" fill="#6F6F6E" font-family="'ShreeDev0714'" font-size="48">You may hack anywhere you like, but the </tspan><tspan x="0" y="1843.199" fill="#6F6F6E" font-family="'ShreeDev0714'" font-size="48">hacking location is highly recommended.</tspan><tspan x="0" y="1958.399" fill="#FC7963" font-family="'ShreeDev0714'" font-size="48">Q: WHAT CAN I WIN? (MONEY E.G.)</tspan><tspan x="0" y="2073.6" fill="#6F6F6E" font-family="'ShreeDev0714'" font-size="48">A: It&apos;s not about winning—it&apos;s about lear</tspan><tspan x="864.284" y="2073.6" fill="#6F6F6E" font-family="'ShreeDev0714'" font-size="48">-</tspan><tspan x="0" y="2131.199" fill="#6F6F6E" font-family="'ShreeDev0714'" font-size="48">ning and making friends that last for a li</tspan><tspan x="868.935" y="2131.199" fill="#6F6F6E" font-family="'ShreeDev0714'" font-size="48">-</tspan><tspan x="0" y="2188.8" fill="#6F6F6E" font-family="'ShreeDev0714'" font-size="48">fetime (so everyone&apos;s a winner!). If you&apos;re </tspan><tspan x="0" y="2246.4" fill="#6F6F6E" font-family="'ShreeDev0714'" font-size="48">thinking, &quot;that&apos;s adorable...but really,&quot; then </tspan><tspan x="0" y="2304" fill="#6F6F6E" font-family="'ShreeDev0714'" font-size="48">we&apos;ve got you covered too. A panel of </tspan><tspan x="0" y="2361.6" fill="#6F6F6E" font-family="'ShreeDev0714'" font-size="48">professional judges will select the best </tspan><tspan x="0" y="2419.2" fill="#6F6F6E" font-family="'ShreeDev0714'" font-size="48">three hacks based on the following crite</tspan><tspan x="876.268" y="2419.2" fill="#6F6F6E" font-family="'ShreeDev0714'" font-size="48">-</tspan><tspan x="0" y="2476.801" fill="#6F6F6E" font-family="'ShreeDev0714'" font-size="48">ria: creativity, technical difficulty, polish, </tspan><tspan x="0" y="2534.4" fill="#6F6F6E" font-family="'ShreeDev0714'" font-size="48">and usefulness. By the way, top prizes </tspan><tspan x="0" y="2592" fill="#6F6F6E" font-family="'ShreeDev0714'" font-size="48">are more than 30,000RMB!</tspan><tspan x="0" y="2707.201" fill="#F9A064" font-family="'ShreeDev0714'" font-size="48">ANY OTHER QUESTIONS</tspan><tspan x="549.992" y="2707.201" fill="#F9A064" font-family="'AdobeSongStd-Light-GBpc-EUC-H'" font-size="48">？</tspan></text>
	</g>
	<line fill="none" x1="128.016" y1="588.184" x2="1039.887" y2="588.184"/>
</g>
<g id="Layer_10">
</g>
<g id="Layer_12">
</g>
</svg>
