<?xml version="1.0" encoding="utf-8"?>
<!-- Generator: Adobe Illustrator 16.0.0, SVG Export Plug-In . SVG Version: 6.00 Build 0)  -->
<!DOCTYPE svg PUBLIC "-//W3C//DTD SVG 1.1//EN" "http://www.w3.org/Graphics/SVG/1.1/DTD/svg11.dtd">
<svg version="1.1" id="Layer_1" xmlns="http://www.w3.org/2000/svg" xmlns:xlink="http://www.w3.org/1999/xlink" x="0px" y="0px"
	 width="1110.047px" height="230.452px" viewBox="49.82 207.534 1110.047 230.452"
	 enable-background="new 49.82 207.534 1110.047 230.452" xml:space="preserve">
<g id="Layer_6">
	<g>
		<polygon fill="#FCE1D0" points="94.193,361.123 138.572,284.261 182.947,361.123 		"/>
		<polygon fill="#F4DCBA" points="227.326,284.261 182.947,361.123 138.572,284.261 		"/>
		<polygon fill="#F79266" points="182.947,361.123 227.326,284.261 271.701,361.123 		"/>
		<polygon fill="#FCE1D0" points="404.831,284.261 360.456,361.123 316.081,284.261 		"/>
		<polygon fill="#F4DCBA" points="360.456,361.123 404.831,284.261 449.211,361.123 		"/>
		<polygon fill="#F79266" points="493.586,284.261 449.211,361.123 404.831,284.261 		"/>
		<polygon fill="#FCE1D0" points="537.964,361.123 582.34,284.261 626.719,361.123 		"/>
		<polygon fill="#F4DCBA" points="671.094,284.261 626.719,361.123 582.34,284.261 		"/>
		<polygon fill="#F79266" points="626.719,361.123 671.094,284.261 715.475,361.123 		"/>
		<polygon fill="#FCE1D0" points="848.604,284.261 804.225,361.123 759.85,284.261 		"/>
		<polygon fill="#F4DCBA" points="804.225,361.123 848.604,284.261 892.979,361.123 		"/>
		<polygon fill="#F79266" points="937.354,284.261 892.979,361.123 848.604,284.261 		"/>
		<polygon fill="#FCE1D0" points="981.732,361.123 1026.108,284.261 1070.488,361.123 		"/>
		<polygon fill="#F4DCBA" points="1114.867,284.261 1070.488,361.123 1026.108,284.261 		"/>
		<polygon fill="#FCE1D0" points="49.82,437.986 94.195,361.123 138.574,437.986 		"/>
		<polygon fill="#F4DCBA" points="227.301,437.986 271.676,361.123 316.049,437.986 		"/>
		<polygon fill="#F79266" points="360.43,361.123 316.049,437.986 271.676,361.123 		"/>
		<polyline fill="#FCE1D0" points="404.804,437.986 449.184,361.123 493.56,437.986 		"/>
		<polyline fill="#F79266" points="715.443,361.123 804.198,361.123 759.822,437.986 		"/>
		<polygon fill="#FCE1D0" points="848.573,437.986 892.953,361.123 937.327,437.986 		"/>
		<polygon fill="#F4DCBA" points="981.701,361.123 937.327,437.986 892.953,361.123 		"/>
		<polygon fill="#F79266" points="937.327,437.986 981.701,361.123 1026.082,437.986 		"/>
		<polygon fill="#F79266" points="50.411,284.397 94.79,207.534 139.167,284.397 		"/>
		<polygon fill="#FCE1D0" points="272.326,207.534 227.947,284.397 183.572,207.534 		"/>
		<polygon fill="#F4DCBA" points="227.947,284.397 272.326,207.534 316.701,284.397 		"/>
		<polygon fill="#F4DCBA" points="538.586,207.534 494.211,284.397 449.831,207.534 		"/>
		<polygon fill="#F79266" points="494.211,284.397 538.586,207.534 582.964,284.397 		"/>
		<polygon fill="#FCE1D0" points="716.094,207.534 671.719,284.397 627.34,207.534 		"/>
		<polygon fill="#F4DCBA" points="671.719,284.397 716.094,207.534 760.475,284.397 		"/>
		<polyline fill="#FCE1D0" points="893.604,207.534 937.979,284.397 849.225,284.397 		"/>
		<polygon fill="#F79266" points="937.979,284.397 982.354,207.534 1026.733,284.397 		"/>
		<polygon fill="#FCE1D0" points="1159.867,207.534 1115.488,284.397 1071.108,207.534 		"/>
		<polygon fill="#79D8D8" points="424.055,387.56 424.205,387.56 424.205,387.407 		"/>
	</g>
</g>
</svg>
