<?xml version="1.0" encoding="utf-8"?>
<!-- Generator: Adobe Illustrator 16.0.0, SVG Export Plug-In . SVG Version: 6.00 Build 0)  -->
<!DOCTYPE svg PUBLIC "-//W3C//DTD SVG 1.1//EN" "http://www.w3.org/Graphics/SVG/1.1/DTD/svg11.dtd">
<svg version="1.1" id="Layer_1" xmlns="http://www.w3.org/2000/svg" xmlns:xlink="http://www.w3.org/1999/xlink" x="0px" y="0px"
	 width="179.183px" height="897.089px" viewBox="155.46 0 179.183 897.089" enable-background="new 155.46 0 179.183 897.089"
	 xml:space="preserve">
<g id="Layer_2">
</g>
<g>
	<polygon fill="#79D8D8" points="274.915,620.698 334.643,655.184 274.915,689.664 	"/>
	<polygon fill="#CCE2BA" points="274.915,413.797 334.643,448.283 274.915,482.764 	"/>
	<polygon fill="#C5C7DD" points="274.915,344.829 334.643,379.312 274.915,413.797 	"/>
	<polygon fill="#79D8D8" points="274.915,275.865 334.643,310.35 274.915,344.829 	"/>
	<polygon fill="#CCE2BA" points="334.643,310.35 274.915,275.865 334.643,241.381 	"/>
	<polygon fill="#C5C7DD" points="274.915,0 334.643,34.481 274.915,68.962 	"/>
	<polygon fill="#79D8D8" points="155.46,759.134 215.187,793.618 155.46,828.097 	"/>
	<polygon fill="#CCE2BA" points="215.187,793.618 155.46,759.134 215.187,724.652 	"/>
	<polygon fill="#C5C7DD" points="215.187,724.652 155.46,690.167 215.187,655.685 	"/>
	<polygon fill="#79D8D8" points="155.46,552.235 215.187,586.717 155.46,621.199 	"/>
	<polygon fill="#C5C7DD" points="155.46,483.27 215.187,517.75 155.46,552.235 	"/>
	<polygon fill="#CCE2BA" points="215.187,448.784 155.46,414.302 215.187,379.816 	"/>
	<polygon fill="#C5C7DD" points="215.187,379.816 155.46,345.334 215.187,310.848 	"/>
	<polygon fill="#79D8D8" points="215.187,310.848 155.46,276.366 215.187,241.885 	"/>
	<polygon fill="#CCE2BA" points="155.46,207.398 215.187,241.885 155.46,276.366 	"/>
	<polygon fill="#79D8D8" points="155.46,69.467 215.187,103.949 155.46,138.436 	"/>
	<polygon fill="#CCE2BA" points="215.187,103.949 155.46,69.467 215.187,34.982 	"/>
	<polygon fill="#CCE2BA" points="274.915,897.089 215.187,862.607 274.915,828.122 	"/>
	<polygon fill="#C5C7DD" points="274.915,828.122 215.187,793.638 274.915,759.157 	"/>
	<polygon fill="#79D8D8" points="274.915,759.157 215.187,724.672 274.915,690.188 	"/>
	<polygon fill="#CCE2BA" points="215.187,655.705 274.915,690.188 215.187,724.672 	"/>
	<polygon fill="#C5C7DD" points="215.187,586.737 274.915,621.224 215.187,655.705 	"/>
	<polygon fill="#79D8D8" points="215.187,517.771 274.915,552.257 215.187,586.737 	"/>
	<polygon fill="#CCE2BA" points="274.915,552.257 215.187,517.771 274.915,483.289 	"/>
	<polygon fill="#79D8D8" points="274.915,414.325 215.187,379.839 274.915,345.354 	"/>
	<polygon fill="#CCE2BA" points="215.187,310.872 274.915,345.354 215.187,379.839 	"/>
	<polygon fill="#C5C7DD" points="215.187,241.904 274.915,276.388 215.187,310.872 	"/>
	<polygon fill="#79D8D8" points="215.187,172.938 274.915,207.422 215.187,241.904 	"/>
	<polygon fill="#CCE2BA" points="274.915,207.422 215.187,172.938 274.915,138.456 	"/>
	<polygon fill="#79D8D8" points="295.458,433.323 295.458,433.206 295.339,433.206 	"/>
</g>
<polygon fill="none" stroke="#6F6F6E" stroke-miterlimit="10" points="2295.875,2747.626 2288.527,2760.354 2281.18,2747.626 "/>
</svg>
