<?xml version="1.0" encoding="utf-8"?>
<!-- Generator: Adobe Illustrator 16.0.0, SVG Export Plug-In . SVG Version: 6.00 Build 0)  -->
<!DOCTYPE svg PUBLIC "-//W3C//DTD SVG 1.1//EN" "http://www.w3.org/Graphics/SVG/1.1/DTD/svg11.dtd">
<svg version="1.1" id="Layer_1" xmlns="http://www.w3.org/2000/svg" xmlns:xlink="http://www.w3.org/1999/xlink" x="0px" y="0px"
	 width="883.666px" height="172.916px" viewBox="142.051 1009.268 883.666 172.916"
	 enable-background="new 142.051 1009.268 883.666 172.916" xml:space="preserve">
<g id="Layer_2">
	<g>
		<path fill="#F79266" d="M816.02,1182.182c0.14-0.64-0.151-1.198-0.33-1.779c-7.747-25.536-15.496-51.073-23.245-76.609
			c-1.336-4.393-2.666-8.786-4.001-13.178c-0.156-0.514-0.207-1.073-0.646-1.469c-0.613,0.021-1.01,0.441-1.455,0.742
			c-13.963,9.428-27.918,18.863-41.888,28.276c-0.799,0.539-1.331,1.184-1.709,2.062c-8.076,18.787-16.171,37.566-24.263,56.349
			c-0.629,1.462-1.265,2.922-1.896,4.382c-0.171,0.392-0.4,0.768-0.269,1.224c-3.804,0-7.604,0-11.404,0
			c0.983-2.966,2.381-5.761,3.619-8.619c12.827-29.599,25.669-59.189,38.513-88.782c10.699-24.65,21.409-49.298,32.107-73.947
			c0.215-0.496,0.561-0.966,0.442-1.562c3.802,0,7.604,0,11.405,0c0.338,0.776-0.068,1.437-0.357,2.095
			c-7.729,17.596-15.319,35.246-22.986,52.867c-5.443,12.516-10.885,25.028-16.331,37.543c-0.244,0.561-0.479,1.129-0.817,1.639
			c-0.098,0.134-0.322,0.244-0.313,0.369c0.011,0.188,0.094,0.201,0.062,0.052c-0.021-0.108,0.038-0.201,0.154-0.275
			c4.027-3.212,8.365-5.987,12.584-8.928c17.04-11.876,34.109-23.711,51.161-35.573c12.224-8.502,24.46-16.981,36.686-25.481
			c10.714-7.451,21.456-14.862,32.126-22.375c1.053-0.74,2.135-1.422,3.32-1.93c4.781,0,9.564,0,14.348,0
			c-2.264,1.979-4.817,3.56-7.262,5.287c-30.796,21.796-61.604,43.574-92.407,65.359c-1.298,0.917-1.305,0.929-0.872,2.374
			c4.76,15.887,9.521,31.771,14.285,47.656c5.151,17.175,10.307,34.348,15.457,51.521c0.071,0.233,0.109,0.476,0.162,0.714
			C825.339,1182.182,820.679,1182.182,816.02,1182.182z"/>
		<path fill="#F79266" d="M880.018,1181.865c-4.066-0.965-8.031-2.225-11.635-4.401c-10.25-6.199-16.354-15.3-18.514-27.007
			c-1.593-8.636-0.038-16.977,3.236-24.982c3.359-8.217,6.984-16.326,10.515-24.475c7.791-17.98,15.595-35.956,23.393-53.934
			c5.097-11.742,10.197-23.48,15.282-35.228c0.36-0.833,0.882-1.618,0.915-2.569c3.802,0,7.603,0,11.404,0
			c-5.751,13.26-11.506,26.521-17.254,39.779c-6.625,15.285-13.248,30.57-19.869,45.856c-4.283,9.893-8.604,19.77-12.825,29.688
			c-2.278,5.351-3.583,10.932-3.379,16.796c0.422,12.172,8.693,27.409,26.506,30.149c9.847,1.515,19.497,0.424,28.797-2.813
			c21.145-7.365,37.082-20.946,47.068-41.086c3.64-7.345,6.593-15.027,9.83-22.568c8.285-19.305,16.557-38.615,24.832-57.924
			c5.212-12.159,10.421-24.32,15.628-36.481c0.19-0.442,0.473-0.87,0.366-1.396c3.802,0,7.604,0,11.402,0
			c-7.952,18.586-15.9,37.172-23.855,55.757c-8.604,20.104-17.155,40.233-25.827,60.31c-5.484,12.694-13.619,23.494-23.982,32.625
			c-6.513,5.737-13.6,10.646-21.263,14.729c-8.448,4.505-17.376,7.596-26.821,9.18c-0.319,0.19-0.671,0.103-1.01,0.122
			c-0.407,0.057-0.854-0.142-1.22,0.19c-6.867,0-13.734,0-20.604,0C880.833,1181.829,880.345,1182.131,880.018,1181.865z"/>
		<path fill="#0D9EB9" d="M496.316,1160.477c-2.035,4.848-4.073,9.691-6.604,14.309c-0.375,0.683-0.722,1.422-1.396,1.898
			c-3.485,2.032-6.887,4.232-10.764,5.498c-1.228,0-2.454,0-3.679,0c-0.745-0.888-0.084-1.823-0.104-2.737
			c0.945-5.093,1.106-10.164-0.36-15.196c-0.156-0.534-0.087-1.09-0.239-1.618c0.33-1.026,0.742-2.019,1.36-2.912
			c0.464-0.37,0.995-0.422,1.562-0.354c5.128,0.59,10.285-0.012,15.419,0.348c1.086,0.076,1.124-0.438,0.806-1.222
			c-2.742-6.685-5.235-13.468-8.119-20.095c1.458-3.634,3.118-7.174,4.833-10.688c0.816-0.582,1.662-0.26,2.468-0.018
			c5.1,1.521,10.225,2.966,15.327,4.481c0.729,0.219,1.622,0.338,1.664,1.41c-1.626,3.677-3.239,7.36-4.883,11.029
			c-1.971,4.396-3.966,8.782-5.955,13.168c-0.149,0.327-0.354,0.627-0.534,0.938c-0.646,0.226-1.137,0.696-1.745,1.076
			C495.52,1160.271,496.142,1160.086,496.316,1160.477z"/>
		<path fill="#0D9EB9" d="M394.775,1009.27c2.292,1.505,3.013,3.722,2.929,6.329c-0.079,2.46-0.64,4.847-1.094,7.245
			c-0.708,3.714-1.212,7.466-2.138,11.14c-3.87,1.844-7.625,3.909-11.448,5.847c-5.131,2.597-10.098,5.516-15.366,7.854
			c-0.204-0.055-0.374-0.158-0.518-0.312c-0.653-1.029-0.701-2.217-0.806-3.363c-0.31-3.415-0.658-6.826-1.021-10.234
			c-0.082-0.767,0.029-1.459,0.359-2.139c2.472-3.645,5.272-7.046,7.905-10.569c0.763-1.022,1.439-2.124,2.421-2.973
			c1.576-0.277,3.183-0.283,4.743-0.091c4.504,0.559,9.019,0.212,13.528,0.289c1.912,0.033,2.091-0.261,1.405-2.005
			c-0.646-1.646-1.236-3.315-1.913-4.95c-0.276-0.672-0.646-1.351-0.092-2.062C394.041,1009.27,394.408,1009.27,394.775,1009.27z"/>
		<path fill="#1BAE7D" d="M459.822,1178.11c-1.388,1.5-3.12,2.489-4.918,3.396c-0.426,0.214-0.953,0.248-1.267,0.676
			c-10.546,0-21.093,0-31.639,0c0.349-1.875,1.954-2.871,3.069-4.149c4.623-5.306,9.375-10.497,13.958-15.837
			c0.606-0.707,1.309-1.276,2.107-1.736c4.9-0.161,9.8-0.142,14.7-0.009c0.293,0.321,0.51,0.689,0.604,1.12
			c1.149,5.328,2.419,10.634,3.425,15.994C459.896,1177.744,459.854,1177.929,459.822,1178.11z"/>
		<path fill="#1BAE7D" d="M398.082,1181.823c-1.352-0.615-2.87-0.86-4.062-1.827c-0.846-1.488-2.222-2.576-3.066-4.065
			c-0.025-0.18,0.001-0.352,0.072-0.519c1.756-1.633,3.906-2.694,5.892-3.985c5.473-3.559,10.965-7.088,16.445-10.635
			c0.513-0.331,1.007-0.701,1.654-0.71c4.405,0.428,8.827,0.168,13.237,0.37c-0.261,2.046-1.506,3.671-2.423,5.413
			c-2.612,4.962-5.384,9.84-7.93,14.838c-0.28,0.55-0.586,1.068-1.055,1.479c-5.764,0-11.526,0-17.292,0
			c-0.236-0.255-0.553-0.17-0.844-0.188C398.49,1181.984,398.255,1182.02,398.082,1181.823z"/>
		<path fill="#1BAE7D" d="M558.858,1009.27c2.803,2.051,3.353,3.505,2.497,6.908c-0.25,1.002-0.604,1.992-1.021,2.938
			c-1.783,4.019-3.609,8.02-5.425,12.021c-0.101,0.219-0.256,0.406-0.386,0.608c-2.632,1.201-5.495,0.9-8.255,1.204
			c-3.927,0.432-7.883,0.627-11.819,0.993c-0.884,0.083-1.961,0.538-2.449-0.759c0.838-2.174,1.748-4.312,2.888-6.348
			c2.85-2.684,5.188-5.825,7.839-8.687c2.324-2.512,4.621-5.05,6.795-7.691c0.439-0.533,1.049-0.83,1.61-1.188
			C553.707,1009.27,556.283,1009.27,558.858,1009.27z"/>
		<path fill="#25BC89" d="M518.783,1030.646c-0.689,0.373-1.438,0.221-2.162,0.221c-11.436,0.001-22.872-0.021-34.311-0.017
			c-2.565,0.001-5.134,0.08-7.699,0.124c0.255-1.109,1.193-0.857,1.912-0.879c2.498-0.068,5-0.008,7.5-0.034
			c2.076-0.021,2.246-0.173,2.626-2.2c1.033-5.516,2.016-11.038,3.071-16.55c0.139-0.713,0.181-1.463,0.707-2.044
			c6.377,0,12.754,0,19.13,0c1.123,0.996,2.106,2.105,2.798,3.454c0.026,0.189,0.015,0.374-0.036,0.561
			c-1.265,1.81-2.784,3.399-4.292,4.994c-3.362,3.557-6.537,7.282-9.963,10.777c-0.209,0.214-0.434,0.438-0.476,0.806
			c0.492,0.495,1.132,0.242,1.695,0.244c5.692,0.021,11.385,0.002,17.077,0.024C517.189,1030.133,518.098,1029.914,518.783,1030.646
			z"/>
		<path fill="#10B5CD" d="M559.962,1182.182c-2.51-2.114-4.485-4.682-6.241-7.432c-0.396-1.006,0.516-1.057,1.024-1.317
			c2.286-1.166,4.649-2.169,7.001-3.202c1.057-0.465,2.187-0.817,2.961-1.766c0.234-0.143,0.494-0.193,0.766-0.204
			c3.191-0.876,6.026-2.604,9.082-3.805c1.522-0.599,2.927-1.499,4.566-1.808c1.896,2.704,1.921,5.599,0.637,8.5
			c-2.017,4.559-5.277,8.005-9.7,10.334c-0.425,0.225-0.937,0.302-1.268,0.697C565.849,1182.182,562.904,1182.182,559.962,1182.182z
			"/>
		<path fill="#1BAE7D" d="M512.144,1012.967c-0.001-0.127-0.003-0.253-0.005-0.38c1.438-1.541,3.233-2.521,5.147-3.317
			c4.905,0,9.812,0,14.717,0c-0.021,0.295,0.203,0.425,0.402,0.545c2.307,1.406,2.957,3.595,2.421,6.021
			c-1.272,5.777-4.433,10.215-9.81,12.921c-2.331-2.319-4.244-4.998-6.392-7.477c-1.912-2.207-3.721-4.505-5.629-6.719
			C512.591,1014.093,512.312,1013.562,512.144,1012.967z"/>
		<path fill="#25BC89" d="M256.5,1167.219c-1.2,2.931-2.508,5.801-4.275,8.447c-1.987,2.979-4.722,5.021-7.919,6.516
			c-1.349,0-2.698,0-4.046,0c-0.409-0.475-0.35-1.025-0.236-1.57c1.766-8.387,3.261-16.826,5.263-25.162
			c0.175-0.561,0.349-1.119,0.714-1.594c0.829-0.508,1.24,0.163,1.647,0.646c2.895,3.436,5.613,7.014,8.432,10.511
			C256.609,1165.67,256.823,1166.395,256.5,1167.219z"/>
		<path fill="#11CFE1" d="M239.155,1009.27c0.042,0.109,0.05,0.272,0.128,0.319c2.384,1.418,2.47,3.625,1.981,5.965
			c-0.21,1.013-0.577,2.005-1,2.95c-1.276,2.845-2.591,5.674-4.101,8.406c-0.738,0.188-1.12-0.371-1.531-0.783
			c-4.084-4.099-8.412-7.94-12.536-11.999c-0.132-0.13-0.204-0.299-0.237-0.481c1.321-1.674,3.104-2.702,4.987-3.6
			c0.547-0.26,1.175-0.345,1.639-0.775C232.042,1009.27,235.599,1009.27,239.155,1009.27z"/>
		<path fill="#1BAE7D" d="M490.429,1009.27c0.017,2.643-0.753,5.169-1.205,7.731c-0.694,3.942-1.502,7.867-2.12,11.824
			c-0.247,1.577-0.452,1.757-2.148,1.763c-2.875,0.011-5.751-0.002-8.625,0.022c-0.585,0.005-1.241-0.199-1.718,0.364
			c-0.589,0.242-1.194,0.398-1.838,0.354c1.148-2.816,2.745-5.409,4.146-8.096c2.173-4.171,4.43-8.296,6.565-12.485
			c0.278-0.551,0.59-1.069,1.059-1.479C486.504,1009.27,488.466,1009.27,490.429,1009.27z"/>
		<path fill="#10A071" d="M358.396,1181.936c0.05,0.095,0.037,0.177-0.042,0.246c-2.698,0-5.396,0-8.093,0
			c-0.342-0.763,0.052-1.438,0.293-2.105c1.055-2.925,2.037-5.876,3.262-8.733c0.047-0.155,0.107-0.308,0.171-0.455
			c0.13-0.29,0.165-0.598,0.156-0.916c0.013-0.166,0.056-0.321,0.122-0.476c1.693-2.183,3.968-3.757,5.941-5.646
			c2.895-2.773,5.984-5.349,8.77-8.246c1.068-0.397,2.128-0.891,3.275-0.258c0.053,0.396,0.013,0.771-0.248,1.097
			c-2.206,5.105-4.998,9.917-7.578,14.833c-1.506,2.871-3.046,5.726-4.585,8.58C359.433,1180.604,359.043,1181.355,358.396,1181.936
			z"/>
		<path fill="#10A071" d="M416.85,1182.182c0.617-2.002,1.711-3.781,2.655-5.628c1.142-2.227,2.438-4.375,3.621-6.581
			c1.445-2.691,2.839-5.417,4.267-8.12c0.257-0.481,0.573-0.935,0.863-1.398c4.294-0.148,8.587-0.156,12.88,0.005
			c-1.016,1.205-2.005,2.436-3.055,3.607c-3.36,3.761-6.758,7.482-10.111,11.246c-2.019,2.267-3.98,4.578-5.97,6.869
			C420.283,1182.182,418.566,1182.182,416.85,1182.182z"/>
		<path fill="#1BAE7D" d="M292.958,1157.654c-3.339,4.306-6.67,8.615-10.02,12.912c-1.055,1.352-2.125,2.691-3.25,3.983
			c-2.811,3.222-6.11,5.812-9.997,7.63c-0.246,0-0.491,0-0.736,0c-2.08-1.652-3.263-4.107-5.235-5.859
			c-0.092-0.392,0.081-0.698,0.299-0.993c2.946-2.392,6.29-4.183,9.46-6.235c5.888-3.812,11.799-7.591,17.741-11.318
			C291.657,1157.496,292.306,1156.357,292.958,1157.654z"/>
		<path fill="#10A071" d="M484.543,1009.27c-0.451,1.674-1.38,3.129-2.162,4.644c-2.297,4.447-4.632,8.875-7.006,13.28
			c-0.771,1.432-1.305,3.028-2.601,4.139c-2.1,0.679-3.989,1.756-5.782,3.021c-1.276-0.334-0.631-1.226-0.428-1.826
			c0.943-2.775,1.959-5.527,2.979-8.275c1.446-3.894,2.773-7.83,4.252-11.711c0.26-0.68,0.418-1.427,1.178-1.775
			c1.271-0.654,2.724-0.668,4.043-1.144c0.181-0.188,0.412-0.151,0.638-0.158c0.29-0.02,0.604,0.065,0.842-0.19
			C481.845,1009.27,483.193,1009.27,484.543,1009.27z"/>
		<path fill="#0C8AA9" d="M393.672,1009.27c0.231,1.783,1.282,3.271,1.776,4.968c0.271,0.931,0.759,1.797,1.103,2.71
			c0.651,1.728,0.546,1.884-1.263,1.889c-3.242,0.01-6.485-0.043-9.726,0.012c-2.931,0.052-5.826-0.628-8.762-0.388
			c-0.318,0.025-0.594-0.11-0.799-0.368c2.572-3.492,5.587-6.472,9.589-8.312c0.269-0.123,0.596-0.18,0.724-0.507
			C388.767,1009.27,391.219,1009.27,393.672,1009.27z"/>
		<path fill="#0B7E9F" d="M325.979,1009.27c0.006,0.062-0.012,0.158,0.019,0.181c2.722,1.743,2.741,4.235,1.927,6.954
			c-0.759,2.533-1.996,4.857-3.205,7.193c-0.192,0.161-0.418,0.271-0.663,0.229c-3.381-0.582-6.795-1.019-10.059-2.151
			c-0.491-0.413-0.295-0.904-0.057-1.312c2.021-3.446,3.764-7.053,5.899-10.434c0.163-0.257,0.417-0.438,0.619-0.662
			C322.3,1009.27,324.139,1009.27,325.979,1009.27z"/>
		<path fill="#10B5CD" d="M320.46,1009.27c-0.353,1.512-1.371,2.684-2.069,4.017c-1.432,2.73-2.997,5.396-4.506,8.087
			c-1.986,1.516-4.427,1.89-6.711,2.644c-1.437,0.477-2.946,0.716-4.389,1.192c-0.326-0.051-0.563-0.172-0.422-0.569
			c1.235-3.182,2.683-6.259,4.647-9.062c1.863-2.66,4.301-4.617,7.339-5.811c0.333-0.131,0.641-0.327,0.96-0.494
			C317.026,1009.27,318.743,1009.27,320.46,1009.27z"/>
		<path fill="#1BAE7D" d="M245.771,1155.299c-1.837,8.961-3.675,17.922-5.512,26.883c-2.576,0-5.151,0-7.727,0
			c-0.442-0.525-1.228-0.725-1.435-1.479c3.019-5.3,5.868-10.692,8.787-16.047c1.226-2.249,2.382-4.54,3.683-6.745
			c0.508-0.859,0.643-1.631,0.341-2.534C244.508,1154.808,245.129,1154.785,245.771,1155.299z"/>
		<path fill="#0B8B64" d="M473.17,1162.628c0.637,0.569,0.771,1.392,0.959,2.142c0.996,3.943,1.168,7.934,0.563,11.964
			c-0.146,0.962-0.113,1.947-0.485,2.87c-0.551,1.15-1.431,1.979-2.541,2.578c-0.736,0-1.471,0-2.208,0
			c-2.256-1.775-2.617-4.086-1.859-6.693c0.255-0.874,0.479-1.771,0.852-2.596C469.995,1169.458,471.592,1166.047,473.17,1162.628z"
			/>
		<path fill="#1BAE7D" d="M644.578,1009.27c0.059,0.103,0.095,0.245,0.181,0.298c3.097,1.775,3.559,4.582,2.933,7.733
			c-0.381,1.908-1.017,3.747-2.35,5.25c-1.564-0.991-2.438-2.621-3.646-3.943c-1.626-1.787-3.197-3.618-4.6-5.594
			c-0.034-0.176-0.018-0.347,0.053-0.513c1.608-1.284,3.256-2.519,5.222-3.231C643.105,1009.27,643.842,1009.27,644.578,1009.27z"/>
		<path fill="#0B8B64" d="M166.035,1172.158c-2.123,4.56-5.368,7.997-10.025,10.021c-2.943,0-5.886,0-8.829,0
			c-0.195-0.835,0.58-1.025,0.97-1.477c4.799-3.751,9.998-6.785,15.81-8.687C164.619,1171.805,165.415,1171.123,166.035,1172.158z"
			/>
		<path fill="#11A071" d="M551.132,1009.27c-2.169,2.478-4.337,4.953-6.508,7.43c-2.454,2.795-5.015,5.495-7.349,8.395
			c-0.534,0.664-1.188,1.234-1.802,1.836c-0.212,0.213-0.427,0.176-0.588-0.09c1.364-3.384,2.771-6.753,4.592-9.917
			c1.869-3.252,4.479-5.745,8.033-7.138c0.264-0.104,0.609-0.135,0.677-0.514C549.169,1009.27,550.15,1009.27,551.132,1009.27z"/>
		<path fill="#0B8B64" d="M263.799,1176.275c0.382,0.017,0.731,0.139,0.966,0.438c1.41,1.812,3.055,3.443,4.188,5.466
			c-2.82,0-5.641,0-8.461,0c-0.305-0.434-0.925-0.531-1.132-1.066c-0.131-0.316-0.071-0.646,0.159-0.848
			C260.995,1178.987,261.812,1177.003,263.799,1176.275z"/>
		<path fill="#0E80A1" d="M477.553,1182.182c0.186-0.148,0.352-0.334,0.559-0.441c2.835-1.492,5.673-2.979,8.518-4.455
			c0.531-0.276,1.041-0.637,1.688-0.602c-1.324,2.1-3.235,3.521-5.374,4.688c-0.458,0.25-1.042,0.297-1.344,0.812
			C480.251,1182.182,478.901,1182.182,477.553,1182.182z"/>
		<path fill="#1BAD7D" d="M354.308,1170.775c-0.034,0.299,0.002,0.629-0.114,0.893c-1.503,3.434-2.585,7.023-3.934,10.514
			c-0.369,0-0.736,0-1.104,0c-0.282-0.442-0.904-0.559-1.073-1.109c1.473-3.124,3.329-6.046,4.813-9.164
			C353.165,1171.346,353.402,1170.604,354.308,1170.775z"/>
		<path fill="#31CA95" d="M517.285,1009.27c-1.602,1.286-3.303,2.409-5.147,3.317c-1.111-0.908-1.997-1.995-2.58-3.317
			C512.134,1009.27,514.71,1009.27,517.285,1009.27z"/>
		<path fill="#0FA0BA" d="M148.252,1181.077c-0.257,0.465-0.918,0.538-1.072,1.104c-0.981,0-1.962,0-2.944,0
			c-1.32-1.021-2.365-2.189-2.143-4.031c0.308-0.322,0.69-0.261,1.012-0.102C144.893,1178.936,146.723,1179.752,148.252,1181.077z"
			/>
		<path fill="#32CA95" d="M642.371,1009.27c-1.637,1.229-3.244,2.503-5.146,3.32c-1.128-0.156-1.519-1.195-2.228-1.854
			c0.728-0.729,1.94-0.599,2.591-1.466C639.183,1009.27,640.777,1009.27,642.371,1009.27z"/>
		<path fill="#0F9F75" d="M471.666,1182.182c0.704-1,1.575-1.836,2.541-2.578c0.107,0.89-0.526,1.681-0.333,2.578
			C473.137,1182.182,472.402,1182.182,471.666,1182.182z"/>
		<path fill="#FBDAE4" d="M880.018,1181.865c0.42-0.058,0.829-0.081,1.118,0.314c-0.368,0-0.732,0-1.104,0
			C880.026,1182.076,880.021,1181.971,880.018,1181.865z"/>
		<path fill="#F79266" d="M901.738,1182.182c0.289-0.445,0.728-0.369,1.156-0.322c0.079,0.086,0.1,0.162,0.059,0.229
			c-0.04,0.062-0.077,0.094-0.111,0.094C902.474,1182.182,902.105,1182.182,901.738,1182.182z"/>
		<path fill="#F79266" d="M902.842,1182.182c0.006-0.108,0.022-0.219,0.051-0.322c0.359,0.003,0.719,0.007,1.073,0.012
			c-0.007,0.104-0.013,0.208-0.021,0.312C903.579,1182.182,903.21,1182.182,902.842,1182.182z"/>
		<path fill="#F79266" d="M744.653,1009.624c-0.319,0.032-0.606-0.004-0.742-0.354c0.244,0,0.49,0,0.735,0
			C744.641,1009.388,744.645,1009.505,744.653,1009.624z"/>
		<path fill="#CAEAE0" d="M479.736,1009.604c-0.24,0.006-0.479,0.012-0.72,0.017c0.005-0.116,0.009-0.232,0.009-0.351
			c0.243,0,0.489,0,0.734,0c0.123,0.084,0.16,0.16,0.113,0.232C479.826,1009.569,479.781,1009.604,479.736,1009.604z"/>
		<path fill="#58C4A0" d="M398.799,1181.832c0.323-0.035,0.602,0.029,0.759,0.35c-0.245,0-0.489,0-0.733,0
			c-0.116-0.068-0.158-0.146-0.126-0.225C398.729,1181.874,398.763,1181.832,398.799,1181.832z"/>
		<path fill="#C4EADD" d="M398.799,1181.832c0.029,0.115,0.037,0.23,0.023,0.35c-0.246,0-0.491,0-0.737,0
			c0.004-0.119,0.002-0.237-0.004-0.356C398.321,1181.826,398.561,1181.83,398.799,1181.832z"/>
		<path fill="#77C9AE" d="M479.736,1009.604c0.021-0.108,0.03-0.222,0.022-0.334c0.245,0,0.491,0,0.735,0
			C480.333,1009.589,480.062,1009.659,479.736,1009.604z"/>
		<path fill="#23CAC1" d="M496.58,1111.158c0.85-2.285,1.866-4.495,3.021-6.645c7.5-9.061,15.215-17.939,22.854-26.885
			c0.24-0.283,0.451-0.574,0.577-0.927c0.104-0.162,0.249-0.263,0.44-0.295c0.201,0.002,0.382,0.061,0.548,0.175
			c0.755,0.734,0.864,1.732,1.058,2.681c1.925,9.568,3.825,19.146,5.745,28.718c0.181,0.896,0.34,1.799,0.229,2.725
			c-0.13,0.338-0.39,0.531-0.719,0.65c-0.231,0.045-0.461,0.045-0.688,0.004c-10.026,0.513-20.062,0.396-30.096,0.387
			C498.536,1111.745,497.445,1111.976,496.58,1111.158z"/>
		<path fill="#31CA95" d="M547.88,1046.45c-1.211,3.264-2.762,6.378-4.204,9.538c-1.795,3.938-3.429,7.948-5.437,11.789
			c-0.34,0.509-0.713,0.979-1.254,1.308c-3.914,2.366-7.871,4.66-11.74,7.104c-0.258,0.164-0.551,0.262-0.864,0.276
			c-0.32-0.035-0.582-0.149-0.693-0.482c-0.005-3.869,0.808-7.646,1.285-11.461c0.811-6.425,1.53-12.859,2.386-19.281
			c0.145-1.094,0.667-2.101,0.612-3.221c0.938-2.426,2.004-4.791,3.241-7.079c2.558,1.089,4.617,2.945,6.862,4.503
			C541.373,1041.73,544.844,1043.791,547.88,1046.45z"/>
		<path fill="#31CA95" d="M415.02,1160.082c-2.589,2.146-5.537,3.757-8.354,5.561c-5.181,3.32-10.245,6.826-15.569,9.923
			c-1.348-0.43-1.759-1.804-2.684-2.652c-0.476-0.438-0.583-1.255-1.393-1.338c-0.924-1.698-1.158-3.592-1.391-5.451
			c-0.588-4.675-0.464-9.384-0.474-14.084c1.216-0.917,2.703-0.714,4.058-0.834c5.896-0.521,11.782-1.165,17.688-1.563
			c1.459-0.102,2.092-0.627,2.042-2.11c-0.061-1.708-0.037-3.42,0.001-5.13c0.017-0.777-0.098-1.611,0.602-2.213
			c0.44,3.217,0.247,6.456,0.329,9.686c0.032,1.281,0.082,2.559,0.18,3.839C410.302,1156.971,411.655,1159.289,415.02,1160.082z"/>
		<path fill="#11CFE1" d="M508.491,1133.579c-0.286-0.554-0.833-0.661-1.365-0.815c-5.553-1.605-11.106-3.215-16.654-4.846
			c-0.479-0.142-0.955-0.178-1.438-0.214c0.843-2.129,1.756-4.226,2.861-6.233c0.5-0.806,1.338-1.015,2.173-1.237
			c10.941-2.949,21.904-5.817,32.844-8.79c1.04-0.281,2.117-0.566,3.225-0.275l0.026,0.016c0.116,0.146,0.148,0.309,0.105,0.487
			c-2.255,3.359-4.905,6.409-7.491,9.505c-1.156,1.382-1.948,3.125-3.68,3.983c-1.504-1.659-2.523-3.688-4.111-5.562
			C512.762,1124.382,510.626,1128.98,508.491,1133.579z"/>
		<path fill="#10A071" d="M409.546,1140.186c-0.205,2.684-0.011,5.366-0.047,8.052c-0.024,1.753-0.144,1.846-1.846,1.938
			c-3.877,0.21-7.734,0.666-11.602,1.016c-1.871,0.168-3.741,0.452-5.628,0.462c-1.764,0.009-3.49,0.557-5.269,0.39
			c-0.355-3.676-0.352-7.362-0.286-11.05c1.523,0.626,0.365,2.078,0.998,3.113c3.243-2.028,6.396-4.203,9.62-6.265
			c3.764-2.401,7.424-4.967,11.172-7.396c1.263-0.818,2.243-1.666,2.063-3.332c-0.038-0.354,0.101-0.729,0.455-0.946
			c0.318,0.945,0.193,1.927,0.211,2.893C409.461,1132.766,409.497,1136.476,409.546,1140.186z"/>
		<path fill="#10A071" d="M397.68,1081.755c1.222-1.915,2.74-3.591,4.245-5.274c4.36-4.878,8.907-9.578,13.53-14.209
			c0.705-0.597,1.24-0.117,1.76,0.304c2.829,2.293,5.58,4.679,8.417,6.959c0.653,0.522,1.315,1.102,1.456,2.021
			c-0.525,2.289-1.438,4.429-2.517,6.504c-0.824,1.125-1.78,2.124-2.846,3.024c-1.922,0.768-3.997,0.774-5.972,0.78
			c-5.394,0.015-10.765,0.673-16.159,0.442C398.936,1082.281,398.105,1082.658,397.68,1081.755z"/>
		<path fill="#0B8B64" d="M409.18,1126.165c-0.017,0.121-0.066,0.249-0.045,0.362c0.428,2.189-0.703,3.378-2.463,4.503
			c-6.675,4.267-13.257,8.679-19.874,13.033c-0.443,0.292-0.803,0.78-1.448,0.64c-0.477-1.202,0.314-2.562-0.479-3.715
			c-0.047-1.168-0.095-2.336-0.143-3.504c-0.12-0.606,0.025-1.23-0.074-1.827c-0.359-2.14,0.535-3.666,2.244-4.827
			c1.286-1.209,2.681-2.292,4.044-3.412c4.626-3.629,9.603-6.636,15.19-8.562c0.967-0.144,1.854-1.021,2.914-0.324
			C409.188,1121.073,409.271,1123.618,409.18,1126.165z"/>
		<path fill="#0B8B64" d="M512.144,1012.967c1.437,1.649,2.888,3.282,4.298,4.95c1.611,1.906,3.237,3.804,4.76,5.78
			c1.29,1.673,3.006,3.026,3.816,5.061c-1.918,1.16-3.998,1.776-6.232,1.892c-5.995-0.023-11.991-0.05-17.986-0.071
			c-1.385-0.005-2.769,0-4.299,0c0.35-0.878,0.77-1.446,1.28-1.967c1.367-1.396,2.698-2.818,3.981-4.299
			c2.078-2.396,4.347-4.634,6.5-6.966C509.585,1015.914,510.852,1014.429,512.144,1012.967z"/>
		<path fill="#23CAC1" d="M392.194,1090.199c0.97-2.119,2.194-4.079,3.651-5.896c0.812-0.535,1.532-0.117,2.229,0.245
			c4.325,2.25,8.608,4.573,12.9,6.884c0.776,0.418,1.928,0.782,1.485,2.14c-0.372,1.043-0.834,2.043-1.444,2.972
			c-4.679,2.292-9.022,5.176-13.596,7.657c-1.453,0.788-2.833,1.715-4.333,2.414c-0.695,0.323-1.501,0.811-2.005-0.324
			c-0.304-1.264-0.301-2.563-0.154-3.815C391.408,1098.387,390.792,1094.188,392.194,1090.199z"/>
		<path fill="#0C8AA9" d="M484.199,1138.391c0.393-0.169,0.58-0.138,0.772,0.357c1.401,3.572,2.866,7.121,4.302,10.681
			c1.184,2.938,2.354,5.882,3.525,8.822c0.09,0.229,0.161,0.461,0.235,0.693c0.467,1.455,0.299,1.677-1.148,1.327
			c-0.607-0.148-1.207-0.156-1.812-0.159c-2.019-0.009-4.036,0.004-6.056-0.007c-3.167-0.017-6.343,0.142-9.488-0.392
			c1.155-3.153,2.681-6.146,4.066-9.196C480.443,1146.465,482.164,1142.355,484.199,1138.391z"/>
		<path fill="#2ED9CD" d="M406.196,1119.265c-5.504,1.988-10.426,5.017-15.109,8.47c-2.532-0.439-4.696-1.613-6.604-3.302
			c-0.268-3.036-0.344-6.077-0.302-9.124c0.005-0.424-0.011-0.855,0.232-1.236c0.87,0.767,1.887,0.979,3.033,0.974
			c3.655-0.03,7.31-0.03,10.964-0.009c2.544,0.096,5.089,0.051,7.633,0.029c1.781-0.016,2.045-0.332,2.158-2.146
			c0.056-0.882-0.174-1.844,0.615-2.555c0.414,1.966,0.231,3.951,0.218,5.934C408.336,1117.523,407.413,1118.535,406.196,1119.265z"
			/>
		<path fill="#25BC89" d="M547.88,1046.45c-0.85-0.062-1.41-0.685-2.046-1.117c-4.645-3.183-9.264-6.401-13.898-9.6
			c-0.31-0.214-0.562-0.453-0.724-0.793c0.144-0.641,0.35-1.251,0.788-1.757c0.61,0.628,1.387,0.401,2.075,0.309
			c2.521-0.343,5.059-0.499,7.591-0.729c2.166-0.192,4.345-0.358,6.511-0.55c2.107-0.183,4.211-0.636,6.349-0.471
			c-0.855,2.495-2.071,4.835-3.16,7.228C550.224,1041.475,549.239,1044.05,547.88,1046.45z"/>
		<path fill="#18BDB7" d="M408.815,1110.363c-0.023,1.15-0.041,2.305-0.073,3.457c-0.039,1.372-0.323,1.711-1.726,1.753
			c-1.882,0.056-3.766,0.021-5.647,0.021c-0.971,0.001-1.943-0.007-2.915-0.012c0.064-0.938,0.838-0.775,1.379-0.796
			c1.897-0.07,3.797-0.075,5.572,0.006c-4.458-2.11-8.817-4.702-13.389-6.878c-0.438-0.208-0.879-0.461-0.993-1.011
			c0.09-0.215,0.235-0.266,0.436-0.146c2.012-0.453,3.609-1.754,5.354-2.722c4.362-2.424,8.637-5.009,12.955-7.513
			c0.386-0.225,0.848-0.641,1.251,0.019c-0.947,2.71-1.854,5.423-2.087,8.323C408.783,1106.701,408.924,1108.532,408.815,1110.363z"
			/>
		<path fill="#2ED9CD" d="M530.135,1111.166c-3.055,0.577-6.002,1.564-9.001,2.352c-9.184,2.408-18.351,4.873-27.521,7.328
			c-0.586,0.157-1.146,0.415-1.717,0.625c1.411-3.505,2.966-6.944,4.685-10.312c8.124,0.005,16.25,0.117,24.369-0.047
			c2.48-0.05,4.975-0.317,7.469-0.29C529,1110.827,529.655,1110.599,530.135,1111.166z"/>
		<path fill="#1BAE7D" d="M527.971,1042.02c0.268,0.207,0.369,0.485,0.324,0.81c-0.459,3.304-0.951,6.604-1.379,9.914
			c-0.312,2.41-0.51,4.834-0.813,7.245c-0.408,3.252-0.878,6.494-1.314,9.744c-0.177,1.322-0.415,2.646-0.479,3.978
			c-0.041,0.867-0.193,1.688-0.396,2.518c-0.162,0.075-0.323,0.085-0.488,0.021c-2.711-2.146-5.574-4.104-7.962-6.637
			c0.9-2.535,2.147-4.919,3.247-7.366c2.76-6.13,5.549-12.247,8.334-18.367c0.174-0.388,0.391-0.758,0.588-1.137
			c0.189-0.195,0.107-0.523,0.338-0.7L527.971,1042.02z"/>
		<path fill="#2ED9CD" d="M412.462,1093.569c-0.009-0.729-0.561-0.991-1.069-1.353c-1.748-1.234-3.761-1.979-5.593-3.066
			c-2.663-1.584-5.475-2.913-8.224-4.354c-0.543-0.284-1.094-0.537-1.731-0.494c0.481-0.942,1.061-1.814,1.833-2.549
			c3.518-0.038,7.039,0.193,10.541-0.306c0.182-0.025,0.365-0.026,0.547-0.03c3.653-0.069,7.312,0.01,10.952-0.378
			c0.661-0.069,1.338,0.024,2.009,0.044c-1.342,1.587-2.677,3.179-4.024,4.759C415.67,1088.226,414.1,1090.919,412.462,1093.569z"/>
		<path fill="#18BDB7" d="M523.166,1076.958c0.177,0.13,0.229,0.31,0.073,0.458c-1.938,1.862-3.47,4.075-5.255,6.07
			c-2.474,2.76-4.778,5.668-7.144,8.521c-0.699,0.843-1.457,1.647-2.19,2.442c-1.784,1.924-3.325,4.042-5.076,5.986
			c-1.137,1.264-2.197,2.597-3.288,3.899c-0.191,0.229-0.342,0.562-0.688,0.177c0.842-2.423,2.04-4.688,3.074-7.025
			c1.679-3.794,3.427-7.558,5.156-11.326c0.175-0.383,0.419-0.733,0.632-1.1c1.923-1.757,4.354-2.696,6.535-4.03
			c2.137-1.309,4.344-2.497,6.508-3.765C522.002,1076.979,522.504,1076.475,523.166,1076.958z"/>
		<path fill="#0B8B64" d="M459.822,1178.11c-0.848-0.723-0.668-1.804-0.88-2.719c-1.063-4.604-2.04-9.229-3.034-13.854
			c-0.076-0.354-0.05-0.729-0.072-1.092c1.961-0.154,3.92-0.229,5.833,0.351c2.924,0.883,4.299,2.832,4.189,5.891
			c-0.075,2.072-0.816,3.95-1.737,5.762C463.031,1174.589,461.718,1176.575,459.822,1178.11z"/>
		<path fill="#1BAE7D" d="M474.975,1010.762c-1.057,2.855-2.126,5.705-3.168,8.564c-1.604,4.404-3.209,8.811-4.757,13.234
			c-0.187,0.532-0.869,1.177-0.057,1.788c-3.749,3.364-7.05,7.182-10.701,10.644c-0.385,0.216-0.705,0.207-0.897-0.255
			c2.841-4.785,5.27-9.793,7.937-14.673c3.021-5.531,5.82-11.183,8.866-16.698c0.334-0.604,0.599-1.204,0.538-1.907
			C473.409,1010.998,474.177,1010.834,474.975,1010.762z"/>
		<path fill="#0C9598" d="M424.571,1078.061c0.244-1.994,1.205-3.75,1.881-5.6c0.122-0.335,0.227-0.677,0.338-1.016
			c0.217-1.637,1.247-2.887,2.056-4.23c2.833-4.703,6.771-8.456,10.682-12.223c0.492-0.478,1.087-1.107,1.833-0.271
			c-0.205,2.774-1.022,5.393-2.046,7.954c-0.872,1.255-2.022,2.261-3.063,3.357c-3.474,3.661-6.979,7.294-10.479,10.929
			C425.396,1077.354,425.093,1077.829,424.571,1078.061z"/>
		<path fill="#0FAEAB" d="M439.312,1062.677c0.095-2.149,0.888-4.147,1.369-6.216c0.15-0.646,0.532-1.248,0.441-1.951
			c-0.195-0.672,0.306-0.983,0.693-1.357c3.278-2.544,6.771-4.752,10.518-6.547c0.764-0.366,1.516-0.793,2.409-0.77
			c0.184,0.044,0.328,0.142,0.433,0.299c-0.687,0.775-1.349,1.575-2.063,2.323c-4.188,4.379-8.39,8.748-12.59,13.114
			C440.145,1061.965,439.826,1062.432,439.312,1062.677z"/>
		<path fill="#2ED9CD" d="M523.166,1076.958c-1.871,0.759-3.504,1.948-5.26,2.917c-2.889,1.591-5.717,3.28-8.579,4.914
			c-0.258,0.146-0.575,0.185-0.865,0.272c1.081-3.041,2.572-5.899,3.919-8.823c2.856-0.315,5.723-0.129,8.586-0.183
			c0.75,0.104,1.578-0.108,2.188,0.549C523.162,1076.724,523.166,1076.841,523.166,1076.958z"/>
		<path fill="#10A071" d="M520.933,1076.573c-2.567,0.036-5.142,0.05-7.71,0.128c-0.443,0.014-0.691-0.062-0.84-0.463
			c0.975-2.232,1.887-4.495,3.076-6.631c1.228,0.121,1.767,1.236,2.581,1.903c1.861,1.525,4.035,2.703,5.492,4.7
			c-0.07,0.057-0.144,0.111-0.213,0.167C522.528,1076.518,521.703,1076.208,520.933,1076.573z"/>
		<path fill="#25BC89" d="M455.177,1046.135c-0.143-0.025-0.286-0.055-0.43-0.083c-3.325-2.258-6.625-4.552-9.867-6.928
			c-0.457-0.335-1.367-0.662-0.556-1.53c2.316-0.796,4.733-0.734,7.131-0.822c0.792-0.026,1.362,0.433,1.641,1.197
			c0.505,1.632,1.143,3.211,1.94,4.729c0.301,0.573,0.735,1.151,0.45,1.884c0.167,0.333,0.483,0.373,0.804,0.411
			c-0.133,0.345-0.389,0.571-0.703,0.744c-0.205,0.062-0.385,0.149-0.419,0.396L455.177,1046.135z"/>
		<path fill="#1689A5" d="M406.196,1119.265c0.938-0.997,1.524-2.327,2.836-2.967c0.098,0.743,0.144,1.487,0.011,2.233
			C408.027,1118.512,407.175,1119.137,406.196,1119.265z"/>
		<path fill="#31CA95" d="M527.965,1042.037c0.02,0.297-0.06,0.548-0.338,0.701C527.592,1042.433,527.719,1042.207,527.965,1042.037
			z"/>
		<path fill="#31CA95" d="M455.168,1046.131c0.042-0.234,0.188-0.361,0.419-0.396
			C455.521,1045.946,455.395,1046.091,455.168,1046.131z"/>
		<path fill="#0C8AA9" d="M541.942,1157.873c-1.248-1.492-2.36-3.08-3.325-4.77c-0.355-0.664-0.113-1.311,0.085-1.943
			c3.073-9.918,6.166-19.83,9.279-29.735c0.191-0.619,0.288-1.364,1.188-1.405c3.251,4.568,6.513,9.131,9.742,13.713
			c1.508,2.138,3.13,4.195,4.446,6.468c-1.532,2.024-3.733,3.287-5.639,4.885c-4.914,4.128-9.926,8.135-14.83,12.273
			C542.61,1157.594,542.336,1157.839,541.942,1157.873z"/>
		<path fill="#0B7E9F" d="M541.942,1157.873c0.929-1.504,2.473-2.352,3.759-3.461c2.585-2.229,5.236-4.379,7.901-6.511
			c3.235-2.589,6.322-5.366,9.757-7.703c0.604,0.541,1.03,1.207,1.38,1.932c0.779,1.567,0.939,3.231,0.972,4.97
			c0.098,5.554,0.246,11.104,0.664,16.645c0.082,1.098,0.105,2.202-0.002,3.296c-0.062,0.618,0.041,1.415-0.898,1.562
			c-0.244,0.002-0.489,0.002-0.735,0.002c-0.683,0.523-1.414,0.231-2.117,0.101c-4.564-0.859-9.087-1.92-13.65-2.79
			c-0.803-0.153-1.515-0.451-2.134-0.982C545.104,1162.646,543.422,1160.33,541.942,1157.873z"/>
		<path fill="#0EAEAB" d="M523.531,1076.213c0.125,0.004,0.252,0.009,0.377,0.013c0.24,0.001,0.481,0.001,0.727,0.001
			c2.428-0.436,4.878-0.264,7.307-0.104c4.396,0.288,8.795,0.487,13.193,0.637c1.719,0.059,3.428,0.123,5.064,0.711
			c0.719,0.553,0.521,1.312,0.412,2.021c-0.22,1.386-0.402,2.771-0.483,4.175c-2.89,2.045-5.979,3.776-8.965,5.666
			c-2.685,1.695-5.405,3.337-8.104,5.016c-1.297,0.809-1.293,0.825-0.454,2.046c1.382,2.013,2.771,4.019,4.156,6.025
			c0.453,0.646,0.073,1.193-0.288,1.654c-1.736,2.213-3.216,4.62-5.068,6.746c-0.167,0.091-0.334,0.083-0.498-0.01
			c-0.598-1.663-0.72-3.433-1.079-5.146c-1.498-7.183-2.91-14.384-4.354-21.578c-0.393-1.962-0.799-3.922-1.172-5.889
			c-0.116-0.611-0.236-1.195-0.759-1.604c-0.122-0.072-0.163-0.146-0.122-0.217s0.082-0.108,0.123-0.108L523.531,1076.213z"/>
		<path fill="#0B8B64" d="M637.235,1012.97c1.124,0.521,1.585,1.67,2.316,2.54c1.957,2.322,4.12,4.48,5.788,7.041
			c-0.825,1.546-2.126,2.672-3.398,3.812c-1.463,1.31-3.062,2.453-4.729,3.486c-6.505,4.037-13.015,8.066-19.525,12.094
			c-0.31,0.189-0.652,0.322-0.979,0.482c-2.006,0.896-4.085,1.524-6.282,1.727c-0.192-0.037-0.359-0.124-0.508-0.254
			c-0.262-0.491-0.062-0.905,0.216-1.31c4.401-5.141,9.056-10.059,13.562-15.104c3.896-4.364,7.914-8.623,11.718-13.074
			C635.918,1013.817,636.374,1013.128,637.235,1012.97z"/>
		<path fill="#0B7E9F" d="M530.921,1142.102c-2.229-2.941-4.38-5.945-6.33-9.088c-0.562-1.246,0.134-2.268,0.688-3.24
			c1.498-2.64,2.978-5.293,4.809-7.727c2.9-4.154,6.168-7.996,9.842-11.484c0.521-0.495,0.957-1.371,1.955-0.85
			c1.51,1.871,2.884,3.841,4.152,5.885c0.374,1.01-0.238,1.788-0.677,2.56c-3.053,5.366-6.057,10.759-9.184,16.083
			c-1.299,2.213-2.448,4.513-3.816,6.686C532.021,1141.463,531.808,1142.212,530.921,1142.102z"/>
		<path fill="#10B5CD" d="M530.921,1142.102c0.933-0.6,1.231-1.666,1.737-2.536c3.729-6.444,7.373-12.94,11.062-19.409
			c0.848-1.484,1.793-2.913,2.317-4.561c1.172,1.387,2.177,2.891,3.134,4.424c-0.299,0.229-0.488,0.514-0.604,0.888
			c-1.431,4.67-2.872,9.335-4.316,14c-1.878,6.064-3.756,12.132-5.634,18.196C535.918,1149.529,533.361,1145.855,530.921,1142.102z"
			/>
		<path fill="#0EAEAB" d="M568.771,1072.123c-2.354,1.645-4.788,3.162-7.322,4.52c-0.683-0.809-0.209-1.646-0.016-2.442
			c1.609-6.545,3.253-13.082,4.885-19.62c0.307-1.114,1.313-1.559,2.121-2.183c3.058-2.37,6.408-4.255,9.89-5.923
			c0.53-0.25,1.04-0.562,1.628-0.648c0.854-0.129,1.209,0.258,1.053,1.107c-0.438,1.405-1.043,2.746-1.689,4.059
			c-2.906,5.859-5.736,11.759-8.468,17.704C570.294,1069.912,569.77,1071.165,568.771,1072.123z"/>
		<path fill="#0C9598" d="M566.581,1054.52c0.215,1.682-0.553,3.183-0.929,4.742c-1.334,5.562-2.771,11.104-4.162,16.65
			c-0.06,0.232-0.028,0.487-0.041,0.729c-3.672,2.505-7.464,4.814-11.321,7.021c-0.778-0.693-0.476-1.576-0.364-2.391
			c0.163-1.197,0.419-2.382,0.633-3.571c-0.009-0.087-0.021-0.174-0.029-0.261c-0.021-0.179-0.021-0.354,0-0.53
			c1.618-5.884,4.774-10.915,8.604-15.576c1.823-2.22,3.771-4.318,6.062-6.072C565.495,1054.905,565.843,1054.299,566.581,1054.52z"
			/>
		<path fill="#25BC89" d="M597.104,1033.849c0.05-0.212,0.194-0.277,0.396-0.267c0.438,0.183,0.575,0.537,0.565,0.979
			c0.678,5.241,1.662,10.437,2.435,15.661c0.128,0.872,0.548,1.812-0.417,2.511c-4.061,2.781-8.332,5.229-12.494,7.849
			c-1.951,1.229-3.943,2.392-5.918,3.586c-0.037-0.083-0.075-0.166-0.113-0.248c0.016-0.479,0.299-0.851,0.489-1.259
			c4.213-8.579,8.755-16.991,13.021-25.543C595.638,1035.966,596.277,1034.847,597.104,1033.849z"/>
		<path fill="#0D9EB9" d="M565.475,1168.601c0.558-0.478,0.375-1.129,0.364-1.715c-0.081-4.257-0.271-8.515-0.466-12.763
			c-0.132-2.854-0.198-5.709-0.241-8.562c-0.019-1.168-0.551-2.258-0.393-3.431c1.988,2.772,3.997,5.534,5.973,8.317
			c2.51,3.537,4.998,7.088,7.485,10.64c0.347,0.495,0.799,0.933,0.924,1.562c-1.611,1.381-3.694,1.816-5.537,2.73
			c-2.231,1.108-4.587,1.962-6.818,3.087C566.384,1168.66,565.963,1169.159,565.475,1168.601z"/>
		<path fill="#31CA95" d="M600.08,1052.73c0.087-0.35,0.286-0.652,0.218-1.054c-0.923-5.415-1.829-10.832-2.744-16.248
			c-0.071-0.437-0.107-0.851,0.309-1.15c0.771-0.219,1.28,0.311,1.767,0.72c3.068,2.587,6.238,5.049,9.324,7.609
			c0.435,0.36,0.749,0.786,1.046,1.241l-0.002,0.003c0.671,0.482,1.722,0.485,1.938,1.541
			C608.068,1047.979,604.122,1050.431,600.08,1052.73z"/>
		<path fill="#2ED9CD" d="M568.771,1072.123c0.893-1.997,1.737-4.016,2.687-5.984c2.398-4.996,4.857-9.962,7.259-14.957
			c0.684-1.42,1.244-2.896,1.862-4.35c0.873,0.088,0.825,0.805,0.833,1.366c0.062,4.934,0.059,9.87,0.008,14.805
			c-0.004,0.554-0.16,1.083-0.463,1.561c-2.857,2.05-5.927,3.768-8.903,5.63C570.979,1070.863,569.971,1071.656,568.771,1072.123z"
			/>
		<path fill="#0D9EB9" d="M541.885,1109.713c-0.551,0.002-0.874,0.383-1.226,0.723c-3.741,3.612-7.193,7.475-10.13,11.775
			c-1.112-0.256-0.895-1.204-0.891-1.918c0.012-2.931,0.368-5.844,0.502-8.769c0.003-0.114,0.011-0.229,0.021-0.345
			c0.248-0.124,0.496-0.248,0.746-0.371c0.119,0,0.235,0,0.354-0.004c0.774-0.887,1.882-1.042,2.924-1.346
			c1.571-0.457,3.146-0.898,4.726-1.339c0.646-0.18,1.305-0.343,1.924,0.101C541.294,1108.643,541.659,1109.127,541.885,1109.713z"
			/>
		<path fill="#23CAC1" d="M540.834,1108.223c-2.971,0.527-5.798,1.579-8.703,2.35c-0.289,0.077-0.578,0.156-0.868,0.234
			c0.912-1.914,2.361-3.461,3.527-5.198c0.695-1.037,1.791-1.834,1.974-3.189C538.225,1104.279,539.595,1106.205,540.834,1108.223z"
			/>
		<path fill="#1CBCB5" d="M580.957,1064.562c-0.005-5.282-0.004-10.563-0.031-15.847c-0.004-0.635,0.259-1.351-0.349-1.886
			c0.097-0.389,0.329-0.891-0.439-0.698c-0.614,0.151-1.109,0.646-1.78,0.664c-0.139-1.155,0.943-1.536,1.447-2.283
			c0.274-0.358,0.624-0.602,1.072-0.693c0.755,0.364,1.021,1.037,1.002,1.802c-0.152,6.134,0.244,12.275-0.241,18.404
			c0,0,0.032,0.14,0.032,0.141C581.514,1064.443,581.239,1064.508,580.957,1064.562z"/>
		<path fill="#21B080" d="M611.934,1045.395c-0.646-0.512-1.499-0.768-1.938-1.541c2.237-0.475,4.475-0.948,6.713-1.426
			C615.212,1043.571,613.617,1044.554,611.934,1045.395z"/>
		<path fill="#1BAE7D" d="M196.712,1108.638c-2.788,5.955-5.569,11.913-8.62,17.74c-2.504-1.226-4.362-3.296-6.459-5.035
			c-2.487-2.062-5.08-4.017-7.392-6.271c-1.153-1.127-1.856,0.452-2.792,0.149c2.508-5.693,5.363-11.227,8.053-16.835
			c0.604-1.26,1.264-2.491,1.898-3.737c4.936-1.045,9.844-2.212,14.771-3.305c0.764-0.169,1.533-0.415,2.337-0.226
			c0.7,0.443,0.336,1.057,0.258,1.626c-0.044,0.19-0.109,0.38-0.185,0.562c-0.036,0.091-0.077,0.183-0.114,0.271
			C196.475,1098.436,195.691,1103.431,196.712,1108.638z"/>
		<path fill="#0D9EB9" d="M221.901,1056.413c-0.695,1.96-1.722,3.767-2.621,5.631c-2.169,4.499-4.392,8.974-6.594,13.457
			c-1.144,0.766-2.261,1.62-3.543,2.099c-0.821,0.308-0.309,0.481-0.113,0.769c-0.588,0.662-1.308,0.545-2.043,0.353
			c-2.497-2.508-4.315-5.548-6.429-8.352c-1.525-2.022-3.346-3.865-4.346-6.264c1.702-3.734,3.428-7.461,5.408-11.061
			c0.523-0.438,1.128-0.398,1.747-0.314c5.705,0.771,11.421,1.457,17.105,2.362C221.17,1055.204,222.254,1055.083,221.901,1056.413z
			"/>
		<path fill="#10B5CD" d="M221.901,1056.413c-0.083-0.372-0.211-0.698-0.662-0.756c-2.942-0.377-5.885-0.749-8.825-1.143
			c-2.279-0.304-4.554-0.636-6.833-0.946c-1.319-0.184-2.64-0.352-3.961-0.523c1.553-3.635,3.296-7.177,5.165-10.658
			c3.054-1.986,6.613-2.915,9.785-4.655c0.166-0.08,0.337-0.146,0.51-0.207c4.794-2.017,9.563-4.085,14.347-6.123
			c0.932-0.396,1.817-1.056,2.938-0.788c-1.376,3.453-3.172,6.708-4.755,10.062c-2.337,4.959-4.751,9.882-7.14,14.816
			C222.31,1055.814,222.091,1056.107,221.901,1056.413z"/>
		<path fill="#10A071" d="M171.449,1115.221c0.771-0.259,1.051-1.396,1.894-1.309c0.796,0.084,1.189,0.987,1.794,1.488
			c3.43,2.834,6.894,5.628,10.27,8.523c0.914,0.784,1.977,1.436,2.686,2.452c-0.978,2.51-2.227,4.89-3.459,7.276
			c-1.374,0.818-2.906,0.909-4.438,0.889c-5.44-0.068-10.862,0.525-16.301,0.461c-0.677-0.008-1.703,0.479-1.671-0.901
			C165.235,1127.776,168.193,1121.426,171.449,1115.221z"/>
		<path fill="#18BDB7" d="M179.967,1143.229c-1.084,2.317-2.151,4.645-3.256,6.95c-1.951,4.072-3.921,8.134-5.89,12.196
			c-0.238,0.489-0.4,1.024-0.811,1.417c-1.457,1.937-2.722,4.052-4.901,5.331c-1.287,0.518-2.64,0.402-3.967,0.36
			c-3.33-0.105-6.674,0.329-9.988-0.255c-0.284-0.181-0.476-0.414-0.19-0.719c0.262-0.273,0.638-0.374,1.006-0.384
			c3.775-0.104,7.549-0.087,10.859-0.027c-4.192-2.313-8.979-4.569-13.52-7.286c0.095-0.566,0.352-1.054,0.74-1.473
			c3.316-2.292,6.957-4.022,10.419-6.064c3.936-2.322,7.93-4.543,11.924-6.765c1.895-1.244,3.924-2.25,5.905-3.339
			C178.76,1142.922,179.456,1142.176,179.967,1143.229z"/>
		<path fill="#0D9EB9" d="M234.362,1030.611c-3.966,1.712-7.921,3.451-11.904,5.121c-1.791,0.752-3.515,1.666-5.385,2.224
			c-0.569-5.385-0.814-10.776-0.315-16.183c1.261-2.985,2.681-5.871,5.102-8.13c0.724,0.347,1.33,0.836,1.906,1.396
			c3.931,3.819,7.879,7.621,11.825,11.425c0.173,0.168,0.382,0.298,0.573,0.445C235.696,1028.208,235.102,1029.445,234.362,1030.611
			z"/>
		<path fill="#2ED9CD" d="M179.967,1143.229c-1.017-0.41-1.654,0.432-2.388,0.803c-1.711,0.865-3.347,1.88-5.013,2.833
			c-0.568,0.144-1.092-0.036-1.573-0.292c-3.92-2.075-7.855-4.123-11.697-6.344c0.829-2.112,1.877-4.123,2.927-6.131
			c0.155,0.528,0.526,0.649,0.998,0.485c0.776-0.271,1.576-0.197,2.367-0.188c5.262,0.065,10.504-0.56,15.769-0.457
			c1.094,0.021,2.164-0.409,3.276-0.283C183.14,1136.877,181.7,1140.124,179.967,1143.229z"/>
		<path fill="#11CFE1" d="M206.775,1078.425c0.758-0.058,1.569,0.256,2.252-0.321c0.776-0.674,1.6-1.026,2.572-0.381
			c-0.653,2.093-2.024,3.881-2.639,6.047c1.027,0.389,2.027,0.029,2.966,0.269c0.139,0.132,0.238,0.29,0.299,0.472
			c0.11,0.874-0.174,1.673-0.466,2.474c-0.663,1.071-1.845,1.312-2.877,1.802c-2.8,1.322-5.676,2.472-8.505,3.732
			c-0.618,0.273-1.279,0.812-2.035,0.256c0.126-0.479,0.251-0.958,0.376-1.438c0.143-1.588,1.16-2.774,1.876-4.1
			c0.185-0.354,0.449-0.646,0.712-0.933c-0.495,0.172-0.932-0.078-1.391-0.186c-3.738-1.211-7.284-2.756-10.026-5.716
			c-0.371-0.401-0.789-0.763-0.991-1.292c0.376-1.006,0.861-1.96,1.419-2.877c0.487-0.359,0.971-0.727,1.627-0.688
			c3.025,1.104,5.986,2.397,9.286,2.574c1.22,0.066,2.421,0.226,3.636-0.001C205.536,1077.995,206.204,1077.921,206.775,1078.425z"
			/>
		<path fill="#2ED9CD" d="M150.858,1168.924c4.134,0.002,8.266-0.014,12.4,0.022c0.811,0.007,1.549-0.235,2.32-0.375
			c0.72-0.415,1.44-0.676,2.162-0.005c-0.488,1.235-1.016,2.452-1.706,3.593c-0.702-0.492-1.301,0.053-1.892,0.25
			c-5.512,1.842-10.484,4.7-15.139,8.142c-0.246,0.182-0.499,0.354-0.75,0.526c-1.235-0.334-2.293-1.018-3.384-1.655
			c-0.875-0.513-1.753-1.061-2.775-1.273c-0.188-1.377,0.281-2.637,0.739-3.883c0.771-2.1,1.793-4.087,2.858-6.052
			C147.383,1168.672,149.237,1167.944,150.858,1168.924z"/>
		<path fill="#23CAC1" d="M159.295,1140.229c1.415,0.019,2.512,0.866,3.662,1.495c3.186,1.745,6.355,3.522,9.609,5.141
			c-5.707,3.278-11.375,6.627-17.143,9.797c-1.745,0.959-3.331,2.297-5.373,2.683c0.333-1.252,1.021-2.349,1.572-3.5
			c2.375-4.961,4.787-9.901,7.192-14.85C158.943,1140.724,159.133,1140.483,159.295,1140.229z"/>
		<path fill="#0B8B64" d="M200.922,1087.279c-0.735,1.352-1.469,2.702-2.204,4.053c-5.204,1.174-10.408,2.349-15.611,3.521
			c-0.592,0.133-1.195,0.334-1.706-0.205c1.55-3.26,3.09-6.521,4.654-9.773c0.929-1.931,1.895-3.844,2.844-5.766
			c0.251,0.164,0.547,0.287,0.747,0.502c2.711,2.922,6.091,4.72,9.838,5.914c0.229,0.07,0.438,0.203,0.657,0.308
			C200.709,1086.148,201.087,1086.567,200.922,1087.279z"/>
		<path fill="#0C8AA9" d="M206.775,1078.425c-1.14,0.12-2.284,0.365-3.419,0.334c-3.843-0.104-7.571-0.755-10.975-2.688
			c-0.204-0.116-0.455-0.149-0.684-0.224c-0.283-0.231-1.026-0.004-0.777-0.771c1.607-3.732,3.42-7.366,5.293-10.97
			c1.642,1.562,2.781,3.521,4.163,5.286c2.06,2.632,3.978,5.37,5.972,8.054C206.574,1077.75,206.77,1078.039,206.775,1078.425z"/>
		<path fill="#0EAEAB" d="M150.858,1168.924c-1.316,0.003-2.633,0.003-3.95,0.012c-0.557,0.004-1.109,0.021-1.217-0.722
			c1.091-2.522,2.272-5.001,3.619-7.4c1.656,0.108,2.951,1.113,4.344,1.828c3.25,1.669,6.448,3.439,9.667,5.17
			c0.265,0.145,0.526,0.296,0.899,0.505c-0.399,0.396-0.832,0.241-1.197,0.242c-3.479,0.017-6.959,0.002-10.439,0.021
			C151.997,1168.583,151.347,1168.383,150.858,1168.924z"/>
		<path fill="#0B7E9F" d="M216.758,1021.773c0.505,0.5,0.315,1.142,0.32,1.729c0.019,2.549,0.078,5.102-0.014,7.647
			c-0.06,1.649,0.548,3.224,0.393,4.876c-0.062,0.664-0.003,1.336-0.384,1.931c-0.126,0.009-0.252,0.018-0.378,0.025
			c-0.086-0.003-0.171-0.007-0.256-0.013c-0.441-0.011-0.877,0.097-1.321,0.062c-1.842-0.448-3.892-0.173-5.463-1.562
			c0.688-1.971,1.735-3.774,2.632-5.646C213.74,1027.789,215.263,1024.788,216.758,1021.773z"/>
		<path fill="#12CFE1" d="M209.655,1036.472c1.967,0.438,3.927,0.912,5.932,1.154c0.322,0.295,0.81,0.027,1.129,0.333l-0.021,0.022
			c-1.815,1.378-3.978,2.053-6.046,2.889c-1.28,0.519-2.384,1.518-3.865,1.517C207.581,1040.337,208.523,1038.358,209.655,1036.472z
			"/>
		<path fill="#23B9D0" d="M190.919,1075.075c0.26,0.257,0.518,0.515,0.777,0.771c-0.428,0.24-0.87,0.436-1.38,0.385
			C190.425,1075.797,190.543,1075.369,190.919,1075.075z"/>
		<path fill="#2ED9CD" d="M281.03,1115.58c-0.595,1.504-1.235,2.988-2.042,4.395c-4.751,1.955-9.191,4.463-13.318,7.522
			c-0.343,0.254-0.726,0.452-1.171,0.477c-3.225-1.263-6.376-2.673-9.207-4.708c1.127-2.605,2.264-5.211,3.681-7.681
			c0.719-0.591,1.584-0.575,2.438-0.574c3.598,0.003,7.197-0.036,10.795,0.011c2.252,0.125,4.506,0.014,6.758,0.062
			C279.683,1115.101,280.446,1114.98,281.03,1115.58z"/>
		<path fill="#0D9EB9" d="M215.25,1106.326c-5.765,0.018-11.529,0.032-17.293,0.049c0.229-1.038,1.104-0.778,1.755-0.798
			c2.193-0.063,4.39-0.009,6.835-0.035c-2.301-3.357-4.623-6.405-6.905-9.485c-0.643-0.864-1.499-1.662-1.354-2.906l0.019-0.011
			c2.025-0.916,4.063-0.208,6.078,0.016c2.407,0.266,4.8,0.664,7.211,0.886c0.472-0.008,0.867,0.178,1,0.637
			c0.878,3.033,2.872,5.32,4.989,7.529c0.117,0.262,0.138,0.532,0.07,0.811c-0.166,0.439-0.489,0.745-0.854,1.018
			c-0.86,0.467-1.684,0.994-2.657,1.562c0.486,0.084,0.78,0.118,1.032,0.288c0.094,0.086,0.135,0.184,0.126,0.285
			C215.292,1106.271,215.274,1106.326,215.25,1106.326z"/>
		<path fill="#11CFE1" d="M245.771,1155.299c-0.63,0.089-1.324-0.146-1.869,0.371c-0.484,0.581-1.248,0.473-1.854,0.759
			c-0.852,0.167-1.696,0.711-2.568,0.062c0.712-2.155,1.854-4.114,2.809-6.157c2.461-5.259,4.986-10.488,7.491-15.726
			c0.103-0.216,0.262-0.4,0.396-0.602c3.152-1.399,6.45-2.397,9.706-3.512c0.291-0.1,0.597-0.081,0.884,0.048
			c0.444,1.166-0.59,1.611-1.17,2.182c-4.255,4.178-7.783,8.879-10.423,14.232c-0.783,1.589-1.394,3.245-1.958,4.92
			c-0.149,0.396-0.257,0.809-0.373,1.215c-0.079,0.36-0.391,0.534-0.622,0.771C246.17,1154.375,246.027,1154.854,245.771,1155.299z"
			/>
		<path fill="#0EAEAB" d="M263.014,1107.121c-0.029-0.286,0.045-0.655-0.382-0.692c-0.486-0.041-0.976-0.034-1.464-0.034
			c-5.683-0.002-11.366,0-17.049-0.005c-0.669,0-1.34-0.046-2.009-0.071c-0.154-0.148-0.274-0.324-0.36-0.521
			c-0.317-1.562-0.138-3.139-0.148-4.711c0.011-0.405,0.046-0.809,0.142-1.202c0.317-0.887,0.228-1.812,0.256-2.726
			c0.069-2.165,0.624-2.522,2.591-1.414c2.776,1.562,5.694,2.854,8.464,4.416c2.724,1.535,5.551,2.857,8.31,4.316
			c0.9,0.478,1.945,0.821,2.313,1.95C263.635,1106.829,263.626,1107.265,263.014,1107.121z"/>
		<path fill="#0EAEAB" d="M263.014,1107.121c0.327-0.123,0.41-0.393,0.421-0.703c0.467-0.436,0.913-0.135,1.363,0.034
			c5.359,2.571,10.633,5.299,15.666,8.536c-2.786,0.692-5.523,0.107-8.199,0.594c-4.431,0.001-8.862,0.002-13.292,0.003
			C260.183,1112.698,261.485,1109.855,263.014,1107.121z"/>
		<path fill="#10A071" d="M242.066,1156.036c0.54-0.489,1.213-0.299,1.836-0.366c0.917-0.022,1.296,0.297,0.742,1.188
			c-1.105,1.766-1.972,3.656-2.946,5.492c-1.314,2.478-2.701,4.913-4.036,7.38c-1.803,3.323-3.591,6.656-5.371,9.993
			c-0.271,0.511-0.532,0.977-1.194,0.979c-1.126-1.309-0.878-2.848-0.655-4.343c0.123-0.833,0.384-1.67,0.721-2.444
			c2.108-4.846,4.388-9.61,6.804-14.312C239.441,1158.537,240.503,1156.997,242.066,1156.036z"/>
		<path fill="#0C8AA9" d="M198.289,1093.148c1.387,2.511,3.321,4.633,4.969,6.957c1.328,1.873,2.69,3.725,4.096,5.666
			c-0.517,0.382-1.011,0.244-1.455,0.248c-2.074,0.019-4.146-0.007-6.219,0.018c-0.585,0.006-1.235-0.203-1.723,0.338
			c-0.416,0.754-0.83,1.508-1.245,2.262c-1.089-0.743-0.803-2.018-0.881-2.975c-0.345-4.251,0.512-8.344,2.204-12.257
			C198.079,1093.302,198.203,1093.233,198.289,1093.148z"/>
		<path fill="#0D9EB9" d="M260.893,1130.678c-3.076,0.786-5.95,2.17-9.001,3.026c-0.561,0.158-1.073,0.61-1.717,0.305
			c1.566-3.646,3.273-7.228,5.116-10.743c2.265,0.784,4.297,2.057,6.452,3.069c0.942,0.442,1.859,0.934,2.788,1.403
			C263.792,1129.304,262.655,1130.377,260.893,1130.678z"/>
		<path fill="#1BBAB8" d="M216.686,1103.846c0.147-0.353,0.389-0.61,0.739-0.771c1.516,0.411,2.815,1.28,4.169,2.021
			c0.302,0.166,1.215,0.411,0.384,1.102c-1.502,0.094-3.013-0.159-4.508,0.14c-0.741,0.115-1.481,0.125-2.221-0.011
			c-0.006-0.096-0.008-0.191-0.006-0.287C215.538,1105.186,216.629,1104.855,216.686,1103.846z"/>
		<path fill="#2ED9CD" d="M217.47,1106.337c0.876-0.587,1.856-0.215,2.786-0.294c0.653-0.055,1.315-0.016,1.972-0.019
			c0.688-0.687,1.58-0.575,2.418-0.579c5.004-0.021,10.009-0.021,15.013-0.003c0.848,0.002,1.725-0.053,2.429,0.584
			c0.019,0.097,0.025,0.191,0.021,0.292c-4.625,0.023-9.249,0.062-13.873,0.068C224.647,1106.393,221.059,1106.355,217.47,1106.337z
			"/>
		<path fill="#12916C" d="M242.066,1156.036c0.167,0.122,0.262,0.336,0.093,0.439c-1.305,0.813-2.242,2.024-3.35,3.052
			c-0.253,0.232-0.514,0.597-0.841,0.073c0.365-1.104,0.809-2.172,1.512-3.11C240.342,1156.34,241.205,1156.188,242.066,1156.036z"
			/>
		<path fill="#28CBC2" d="M167.74,1168.567c-0.72,0.001-1.441,0.003-2.162,0.004c1.532-1.542,2.628-3.489,4.433-4.778
			C169.464,1165.483,168.593,1167.021,167.74,1168.567z"/>
		<path fill="#1BAE7D" d="M311.343,1051.657c-1.044,2.857-2.5,5.532-3.808,8.271c-1.908,3.998-3.658,8.075-5.788,11.967
			c-2.517-1.19-4.294-3.348-6.466-4.987c-2.377-1.796-4.513-3.897-6.96-5.612c-0.717-0.934-2.181-1.301-2.14-2.812
			c2.316-5.188,4.749-10.324,7.343-15.385c1.577-0.885,3.371-0.997,5.081-1.396c4.391-1.026,8.795-1.993,13.205-2.941
			c0.65-0.14,1.299-0.362,1.979-0.158c0.632,0.673,0.252,1.347,0.007,2.021c-1.092,2.68-1.967,5.425-2.024,8.344
			C311.756,1049.901,311.184,1050.715,311.343,1051.657z"/>
		<path fill="#10A071" d="M288.433,1061.13c0.932,0.183,1.625,0.78,2.297,1.383c2.702,2.421,5.592,4.611,8.351,6.96
			c0.908,0.773,1.949,1.432,2.667,2.424c-1.293,3.131-2.72,6.195-4.361,9.159c-1.104,0.735-2.352,0.394-3.542,0.458
			c-0.904,0.052-1.819-0.062-2.702,0.229c-0.546,0.132-1.103,0.156-1.661,0.155c-2.617,0.114-5.245-0.247-7.854,0.19
			c-0.526,0.119-1.061,0.173-1.601,0.162c-1.464-0.035-2.935,0.104-4.393-0.144c-0.205-0.073-0.376-0.194-0.513-0.362
			c0.686-2.093,1.774-4.004,2.73-5.969c1.542-3.172,2.862-6.452,4.673-9.491c1.506-1.671,3.2-3.15,4.784-4.742
			C287.6,1061.249,287.944,1060.95,288.433,1061.13z"/>
		<path fill="#0B8B64" d="M313.902,1038.754c-4.244,0.963-8.488,1.932-12.733,2.888c-1.829,0.413-3.676,0.753-5.488,1.229
			c-0.725,0.188-1.426,0.254-2.155,0.229c0.61-1.796,1.547-3.443,2.349-5.151c1.868-3.979,3.782-7.936,5.685-11.896
			c0.234-0.487,0.371-1.037,0.804-1.413c0.152,0.137,0.305,0.271,0.456,0.404c0.706,0.162,1.145,0.703,1.582,1.196
			c2.793,3.161,6.288,5.173,10.272,6.45c2.391,0.768,2.556,1.217,1.208,3.363C315.293,1036.991,315.21,1038.336,313.902,1038.754z"
			/>
		<path fill="#2ED9CD" d="M279.991,1081.73c0.478,0,0.956,0,1.434,0.002c2.261-0.198,4.53-0.473,6.756,0.189
			c0.684,0.203,1.004-0.166,1.376-0.562c0.478,0,0.955,0.002,1.433,0.002c2.09-0.266,4.18-0.282,6.27,0.015
			c-1.416,3.39-3.008,6.696-4.729,9.938c-0.191,0.186-0.31,0.443-0.579,0.547c-0.174,0.061-0.354,0.086-0.538,0.082
			c-0.364-0.053-0.769-0.166-1.074,0.052c-1.634,1.164-3.179,0.556-4.587-0.345c-2.102-1.344-4.475-2.148-6.529-3.623
			c-1.598-1.146-3.604-1.653-5.217-2.912c-0.869-0.68-2.13-0.29-3.224-0.273c-1.493,0.02-2.983,0.04-4.475,0.007
			c-1.368,0.045-2.737,0.061-4.105,0.013c-6.436,0.053-12.872,0.095-19.307,0.003c-4.717,0.077-9.434,0.022-14.149,0.024
			c-0.612,0-1.229-0.009-1.8-0.286c-0.239-0.118-0.339-0.312-0.302-0.579c0.426-0.021,0.853-0.063,1.279-0.063
			c14.369-0.004,28.737-0.046,43.105,0.046c1.968,0.012,3.42-0.245,4.094-2.262l0.116-0.005c1.258,0.454,2.648-0.03,3.905,0.571
			C279.48,1082.474,279.731,1081.972,279.991,1081.73z"/>
		<path fill="#0EAEAB" d="M226.643,1084.024c-0.007,0.1-0.002,0.196,0.013,0.296c0.304,0.806-0.226,1.409-0.539,2.038
			c-1.543,3.107-3.103,6.21-4.645,9.318c-0.296,0.525-0.562,1.066-0.825,1.609c-0.508,0.904-1.129,1.747-1.521,2.72
			c-0.439,0.443-0.403,1.604-1.528,1.021c-0.246-0.69,0.023-1.331,0.209-1.975c1.124-3.886,2.113-7.81,3.224-11.699
			c0.695-2.438,0.639-2.506-1.828-2.519c-1.716-0.009-3.433,0.009-5.149-0.008c-0.729-0.008-1.485,0.054-2.092-0.494
			c-0.011-0.1-0.024-0.199-0.038-0.299C216.833,1083.863,221.737,1083.92,226.643,1084.024z"/>
		<path fill="#33CA96" d="M288.433,1061.13c-1.242,0.907-2.22,2.094-3.313,3.159c-0.791,0.771-1.609,1.486-2.595,1.995
			c0.992-2.707,2.303-5.265,3.658-7.801c0.409,0.749,1.043,1.295,1.701,1.8C288.184,1060.515,288.433,1060.729,288.433,1061.13z"/>
		<path fill="#1083A3" d="M211.599,1077.723c-0.857,0.127-1.715,0.254-2.572,0.381c-0.241-0.026-0.482-0.056-0.724-0.082
			c1.427-0.916,2.533-2.369,4.383-2.52C212.487,1076.321,212.114,1077.058,211.599,1077.723z"/>
		<path fill="#FFFFFF" d="M750.152,1103.805c-0.013,0.055-0.015,0.112-0.039,0.154c-0.018,0.023-0.109,0.023-0.111,0.021
			c-0.033-0.119,0.028-0.168,0.179-0.146L750.152,1103.805z"/>
		<path fill="#F79266" d="M587.186,1182.182c4.613-10.479,9.23-20.955,13.84-31.437c7.071-16.087,14.14-32.176,21.203-48.265
			c8.123-18.5,16.236-37.006,24.363-55.502c5.196-11.828,10.411-23.648,15.607-35.479c0.313-0.719,0.772-1.396,0.772-2.231
			c26.979,0,53.958,0,80.938,0c0.185,0.247,0.549,0.119,0.742,0.354c6.986,2.087,11.123,7.005,13.646,13.601
			c2.96,7.735,2.958,15.587,0.906,23.476c-2.338,8.986-6.513,17.158-11.642,24.846c-6.974,10.447-15.766,19.04-26.521,25.57
			c-6.471,3.929-13.424,6.526-20.987,7.316c-1.699,0.178-3.429,0.153-5.144,0.155c-19.859,0.01-39.724,0.006-59.581,0.006
			c-0.43,0-0.87,0.063-1.286-0.011c-1.359-0.243-1.923,0.477-2.417,1.631c-2.822,6.587-5.714,13.146-8.586,19.709
			c-7.975,18.237-15.955,36.473-23.925,54.712c-0.218,0.497-0.562,0.961-0.528,1.547
			C594.79,1182.182,590.987,1182.182,587.186,1182.182z M639.651,1093.46c19.435,0.008,38.868-0.013,58.303,0.017
			c6.975,0.013,13.468-1.729,19.455-5.24c14.664-8.6,24.049-21.354,28.979-37.463c2.081-6.799,2.011-13.638-0.65-20.355
			c-2.662-6.716-7.448-10.151-14.652-10.167c-20.046-0.041-40.094-0.006-60.141-0.043c-1.183-0.002-1.702,0.423-2.151,1.473
			c-2.675,6.25-5.425,12.47-8.155,18.696c-7.525,17.167-15.06,34.332-22.58,51.503c-0.186,0.429-0.543,0.839-0.321,1.478
			C638.33,1093.571,639.001,1093.46,639.651,1093.46z"/>
		<path fill="#10A071" d="M303.701,1144.439c-0.985,0.564-1.444,1.604-2.166,2.407c-0.442,0.492-0.868,0.998-1.301,1.498
			c-2.273,1.42-4.887,0.938-7.339,1.209c-4.92,0.545-9.86,0.951-14.795,1.366c-0.894,0.074-1.959,0.553-2.506-0.701
			c4.301-5.703,8.592-11.416,12.91-17.107c3.8-5.015,7.631-10.006,11.449-15.006c0.602-0.279,1.177-0.453,1.499,0.381
			c-0.194,0.988,0.022,1.938,0.282,2.89c1.834,6.726,3.452,13.508,5.147,20.269c0.218,0.867,0.639,1.756,0.075,2.658
			C305.883,1144.628,304.787,1144.415,303.701,1144.439z"/>
		<path fill="#31CA95" d="M275.594,1150.221c0.574,0.549,1.293,0.355,1.923,0.271c2.536-0.353,5.096-0.456,7.63-0.746
			c3.264-0.373,6.55-0.508,9.81-0.96c1.736-0.241,3.528-0.147,5.277-0.438c-2.312,3.192-4.734,6.299-7.277,9.31
			c-0.557-0.634-0.88,0.08-1.196,0.276c-3.457,2.177-6.882,4.401-10.325,6.603c-5.344,3.415-10.693,6.817-16.04,10.229
			c-0.411,0.264-0.818,0.531-1.226,0.798c-0.83,0.212-1.197-0.429-1.587-0.927c-0.925-1.182-1.91-2.312-2.837-3.493
			c2.937-4.222,6.169-8.223,9.257-12.331C271.173,1155.924,273.396,1153.082,275.594,1150.221z"/>
		<path fill="#0EAEAB" d="M315.308,1097.945c2.404-3.213,4.792-6.438,7.213-9.637c1.762-2.326,3.566-4.623,5.352-6.932
			c1.777-1.021,3.718-0.459,5.584-0.541c1.651-0.072,3.299,0.123,4.881,0.671c0.644,0.503,0.506,1.188,0.362,1.827
			c-0.477,2.126-0.682,4.289-0.928,6.443c-0.989,1.979-2.551,3.551-3.857,5.306c-4.625,6.214-9.349,12.354-14.065,18.496
			c-0.397,0.519-0.697,1.165-1.413,1.37c-0.198-0.055-0.361-0.154-0.499-0.309c-0.821-1.36-0.81-2.938-1.087-4.43
			c-0.608-3.252-1.141-6.52-1.762-9.77C314.927,1099.579,314.901,1098.75,315.308,1097.945z"/>
		<path fill="#0B8B64" d="M260.893,1130.678c1.373-0.781,2.438-1.943,3.638-2.938c2.808-2.058,5.721-3.943,8.776-5.613
			c1.504-0.821,3.067-1.5,4.66-2.116c0.321-0.125,0.671-0.348,1.021-0.032c-2.646,5.688-5.238,11.404-8.123,16.979
			c-0.774,1.048-1.783,1.817-2.874,2.516c-6.446,4.134-12.781,8.438-19.234,12.562c-0.462,0.295-0.899,0.687-1.458,0.746
			c-0.694,0.076-0.646-0.361-0.461-0.828c0.816-3.499,2.54-6.586,4.397-9.605c2.185-3.552,4.816-6.748,7.786-9.674
			C259.669,1132.033,260.42,1131.483,260.893,1130.678z"/>
		<path fill="#18BDB7" d="M291.777,1091.688c0.109,0.009,0.219,0.017,0.329,0.024c0.117,0.068,0.166,0.15,0.146,0.242
			c-0.021,0.099-0.047,0.146-0.079,0.146c-1.898,4.5-4.115,8.854-6.204,13.264c-1.62,3.418-3.117,6.896-4.938,10.217
			c-2.922,0.001-5.844,0.001-8.766,0.002c0.485-0.545,1.134-0.341,1.719-0.348c1.994-0.022,3.987-0.011,6.03-0.154
			c-5.057-2.994-10.267-5.654-15.474-8.317c0.111-0.144,0.25-0.253,0.412-0.335c3.594-1.441,6.744-3.693,10.125-5.527
			c4.245-2.301,8.354-4.844,12.611-7.123c0.146-0.082,0.297-0.15,0.448-0.224c0.213-0.115,0.428-0.233,0.632-0.365
			C289.724,1092.596,290.704,1092.049,291.777,1091.688z"/>
		<path fill="#11CFE1" d="M313.902,1038.754c0.716-1.271,1.46-2.531,2.141-3.822c0.536-1.017,0.5-1.094-0.679-1.508
			c-2.827-0.99-5.626-2.025-8.042-3.872c-1.704-1.303-3.243-2.766-4.503-4.51c0.049-0.312,0.147-0.589,0.512-0.65
			c3.34-0.562,6.539-1.594,9.661-2.888c0.269-0.111,0.593-0.091,0.892-0.133c3.612,0.742,7.224,1.484,10.835,2.227
			c-2.063,4.4-4.113,8.812-6.208,13.196c-0.545,1.143-0.914,2.381-1.716,3.396c-1.128-0.469-2.029,0.589-3.106,0.467
			c-0.074-0.039-0.148-0.078-0.223-0.118C313.612,1039.941,313.757,1039.348,313.902,1038.754z"/>
		<path fill="#23CAC1" d="M338.483,1081.741c-3.526-0.421-7.068-0.391-10.61-0.362c3.789-5.217,7.712-10.334,11.682-15.414
			c3.488-1.057,6.854-2.407,10.043-4.183c0.425-0.237,0.84-0.492,1.354-0.466c1.092,0.896-0.022,1.364-0.441,1.822
			c-2.976,3.264-5.696,6.705-7.941,10.52c-1.215,2.062-2.183,4.234-3.018,6.474C339.325,1080.744,339.242,1081.474,338.483,1081.741
			z"/>
		<path fill="#23CAC1" d="M315.308,1097.945c0.075,2.365,0.787,4.633,1.132,6.957c0.432,2.92,0.978,5.823,1.488,8.732
			c0.072,0.413,0.221,0.814,0.335,1.225c-0.044,0.094-0.089,0.188-0.135,0.285c-0.148,0.16-0.333,0.254-0.553,0.277
			c-0.216,0.002-0.43-0.01-0.646-0.03c-4.07-0.084-8.116,0.671-12.188,0.367c-0.825-0.062-1.865,0.306-2.287-0.87
			c3.154-4.209,6.3-8.422,9.467-12.62C313.024,1100.809,314.178,1099.386,315.308,1097.945z"/>
		<path fill="#31CA95" d="M246.22,1153.865c0.099-0.245,0.197-0.489,0.296-0.734c2.498-1.209,5.243-0.877,7.874-1.21
			c2.527-0.319,5.082-0.455,7.621-0.707c0.667-0.063,1.348-0.114,1.86,0.468c-0.602,1.805-1.504,3.473-2.337,5.164
			c-1.696,3.449-3.147,7.02-5.035,10.373c0.086-0.941-0.489-1.635-1.002-2.279c-2.827-3.553-5.707-7.062-8.554-10.6
			C246.739,1154.086,246.546,1153.895,246.22,1153.865z"/>
		<path fill="#10A071" d="M263.871,1151.682c-2.18,0.041-4.342,0.299-6.497,0.588c-1.561,0.207-3.144,0.26-4.7,0.377
			c-2.05,0.154-4.091,0.543-6.158,0.484c-0.031-0.431-0.037-0.854,0.322-1.18c0.082,0.697,0.363,0.568,0.825,0.266
			c2.189-1.441,4.413-2.829,6.603-4.269c4.939-3.245,9.866-6.511,14.796-9.77c0.606-0.399,1.202-0.813,1.803-1.225
			c-0.832,2.239-1.95,4.348-2.981,6.494C266.561,1146.201,265.397,1149.03,263.871,1151.682z"/>
		<path fill="#0D9EB9" d="M342.458,1062.225c1.611-2.519,3.523-4.812,5.328-7.188c2.286-3.006,4.467-6.095,6.918-8.975
			c0.468-0.317,0.988-0.553,1.548-0.463c3.552,0.568,7.17,0.709,10.663,1.649c0.725,0.579,0.285,1.025-0.167,1.472
			c-1.944,0.474-3.479,1.739-5.146,2.731c-5.715,3.405-11.469,6.746-17.163,10.188
			C343.848,1062.001,343.293,1062.631,342.458,1062.225z"/>
		<path fill="#10B5CD" d="M367.19,1047.532c-2.47-0.313-4.938-0.646-7.412-0.933c-1.688-0.193-3.35-0.66-5.074-0.537
			c3.005-4.312,6.318-8.396,9.462-12.604c0.47-0.631,0.85-1.348,1.508-1.828c0.182,2.182,0.514,4.35,0.679,6.521
			c0.133,1.758,0.457,3.496,0.485,5.269c0.022,1.394,0.259,2.774,0.712,4.105C367.432,1047.643,367.311,1047.645,367.19,1047.532z"
			/>
		<path fill="#0B7E9F" d="M342.458,1062.225c3.018-1.571,5.86-3.444,8.783-5.18c4.704-2.786,9.393-5.599,14.094-8.387
			c0.333-0.197,0.722-0.571,1.104-0.033c-0.15,1.497-1.483,2.116-2.32,3.1c-0.506,0.597-1.102,1.113-1.643,1.684
			c-0.111,0.127-0.231,0.245-0.352,0.361c-0.115,0.123-0.239,0.237-0.361,0.354c-2.145,1.757-4.177,3.655-6.502,5.188
			c-1.347,0.865-2.635,1.852-4.257,2.179c-3.111,1.948-6.495,3.293-9.949,4.478c-0.494,0.169-1.001,0.565-1.5-0.001
			C340.443,1064.656,341.357,1063.367,342.458,1062.225z"/>
		<path fill="#26BC89" d="M259.748,1171.14c1.581,0.334,1.91,1.94,2.883,2.895c0.514,0.503,0.882,1.159,1.541,1.524
			c-0.124,0.239-0.249,0.479-0.373,0.719c-1.479,1.611-2.959,3.225-4.438,4.838c-2.141-1.798-2.364-4.1-1.645-6.59
			C258.089,1173.234,258.77,1172.087,259.748,1171.14z"/>
		<path fill="#2ED9CD" d="M302.453,1114.891c0.093,0.076,0.184,0.213,0.281,0.22c3.089,0.146,6.178,0.262,9.265-0.065
			c1.846-0.193,3.7-0.504,5.52,0.178c-0.06,0.075-0.121,0.15-0.18,0.229c-2.292,1.214-4.881,1.441-7.316,2.191
			c-2.205,0.679-4.463,1.188-6.685,1.818c-0.812,0.01-1.507-0.226-1.957-0.958c-0.381-0.475-0.938-0.315-1.43-0.394
			C300.735,1116.995,301.497,1115.868,302.453,1114.891z"/>
		<path fill="#0E8BA9" d="M311.343,1051.657c-0.085-0.086-0.248-0.177-0.244-0.259c0.134-3.764,0.48-7.481,2.368-10.862l0.02-0.019
			c0.921,0.672,1.642,1.483,1.904,2.631C314.2,1046.061,312.885,1048.913,311.343,1051.657z"/>
		<path fill="#11A0B9" d="M315.391,1043.148c-0.763-0.782-1.511-1.577-1.904-2.631c0.773-0.312,1.543-0.63,2.318-0.937
			c0.594-0.237,0.91-0.003,0.991,0.604l0.002-0.009c-0.256,0.183-0.172,0.521-0.339,0.745
			C316.271,1041.746,315.896,1042.479,315.391,1043.148z"/>
		<path fill="#2ED9CD" d="M297.259,1081.378c-2.089-0.005-4.179-0.01-6.269-0.015c0.815-0.564,1.744-0.283,2.62-0.319
			c1.257-0.053,2.517,0.003,3.777,0.012C297.397,1081.184,297.354,1081.291,297.259,1081.378z"/>
		<path fill="#11CFE1" d="M316.458,1040.926c-0.045-0.318,0.024-0.59,0.339-0.745C316.799,1040.48,316.733,1040.75,316.458,1040.926
			z"/>
		<path fill="#2ED9CD" d="M292.173,1092.102c-0.022-0.131-0.045-0.26-0.067-0.39c0.141-0.132,0.282-0.263,0.424-0.394
			C292.52,1091.629,292.458,1091.916,292.173,1092.102z"/>
		<path fill="#2ED9CD" d="M383.773,1092.151c0.057,0.093,0.048,0.18-0.025,0.26c-0.46,0.558,0.037,1.3-0.359,1.869l0.011-0.021
			c-0.78,2.539-1.212,5.146-1.474,7.781c-2.641-0.491-4.841-1.913-7.038-3.337c-0.048-1.201-0.963-0.196-1.357-0.526
			c-0.861-0.171-1.565-0.667-2.305-1.088c-1.833-1.042-1.888-0.927-2.089,1.117c-0.393,4.014-0.308,8.032-0.358,12.05
			c-0.004,0.366-0.042,0.73-0.117,1.09c-0.32,0.949-0.239,1.938-0.276,2.913c-0.074,1.91-0.375,2.099-2.046,1.27
			c-3.062-1.522-6.074-3.148-9.246-4.445c-0.348-0.729-0.069-1.445,0.059-2.155c2.784-15.344,5.717-30.658,8.55-46.101
			c-1.371,1.054-1.724,2.983-3.465,3.531c-0.848-0.582-0.448-1.306-0.13-1.921c2.15-4.147,4.101-8.396,6.26-12.541
			c0.271-0.52,0.522-1.132,1.287-1.115c0.514,0.34,0.556,0.886,0.632,1.419c0.349,5.468-0.41,10.907-0.372,16.366
			c0.028,0.322,0.04,0.646,0.021,0.971c-0.424,8.102-0.348,16.216-0.846,24.611c1.6-0.709,2.833-1.352,4.045-2.041
			c3.19-1.816,6.471-3.473,9.678-5.262c0.527-0.295,1.078-0.615,1.731-0.343c0.148,0.518,0.186,1.03-0.039,1.536l0.023-0.03
			c-0.587,0.66,0.041,1.541-0.404,2.226l0.013-0.021C383.639,1090.787,384.141,1091.552,383.773,1092.151z"/>
		<path fill="#1BAE7D" d="M441.866,1053.439c-0.248,0.355-0.495,0.715-0.742,1.068c-0.382,0.023-0.697,0.178-0.971,0.447
			c-3.895,3.846-7.928,7.571-10.821,12.296c-0.854,1.396-1.696,2.795-2.542,4.192c-0.715-1.092-1.766-1.812-2.763-2.616
			c-2.455-1.984-4.849-4.05-7.244-6.104c-0.404-0.347-0.816-0.508-1.329-0.451c3.523-3.723,7.04-7.449,10.577-11.157
			c3.792-3.979,7.604-7.938,11.413-11.899c0.208-0.215,0.454-0.393,0.684-0.588c1.86-0.153,3.586-1.25,5.537-0.795
			c0.153,0.146,0.247,0.321,0.286,0.527c0.096,0.229,0.188,0.468,0.159,0.709c-0.581,4.526-1.14,9.059-1.821,13.571
			C442.243,1052.948,442.05,1053.196,441.866,1053.439z"/>
		<path fill="#25BC89" d="M369.393,1069.609c0.006-0.25,0.013-0.5,0.019-0.751c0.396-0.565,0.446-1.28,0.799-1.867
			c3.018-5.76,6.149-11.458,9.155-17.224c0.225-0.434,0.458-0.864,0.948-1.069c1.912-0.33,3.834-0.581,5.717-1.061
			c0.652-0.163,1.327-0.227,1.886,0.311c1.149,3.863,1.74,7.812,1.605,11.841c-0.026,0.824,0.112,1.706-0.237,2.516
			c-0.361,3.325-1.131,6.58-1.716,9.867c-0.393,2.209-0.663,4.446-1.303,6.608c-0.74,0.28-1.297-0.175-1.871-0.493
			c-4.333-2.409-8.731-4.697-13.103-7.036C370.523,1070.841,369.783,1070.438,369.393,1069.609z"/>
		<path fill="#0D9EB9" d="M378.262,1122.582c-0.631,4.062-1.299,8.121-2.264,12.123c-1.928,1.405-4.291,1.747-6.453,2.556
			c-4.991,1.867-10.12,3.353-15.114,5.224c-0.572,0.214-1.163,0.402-1.792,0.293c-1.239-0.474-0.639-1.245-0.27-1.912
			c1.36-2.46,2.969-4.771,4.456-7.15c3.3-5.281,6.615-10.558,9.909-15.845c0.476-0.765,0.906-1.629,1.961-1.779
			c3.151,1.036,5.969,2.771,8.902,4.265C378.5,1120.812,378.562,1121.681,378.262,1122.582z"/>
		<path fill="#11CFE1" d="M352.467,1142.473c1.719-0.193,3.235-1.022,4.845-1.559c3.58-1.189,7.154-2.395,10.726-3.607
			c2.245-0.763,4.483-1.548,6.717-2.342c0.408-0.146,0.81-0.258,1.242-0.26c-0.251,2.915-0.955,5.756-1.467,8.626
			c-0.716,4.012-1.517,8.01-2.28,12.013c-1.082,0.206-2.209,0.197-3.23,0.688c-0.615,0.419-1.241,0.811-2.021,0.822
			c-1.484,0.064-2.494-0.797-3.442-1.774c-3.805-3.931-7.965-7.487-11.841-11.341c-0.108-0.147-0.166-0.314-0.185-0.494
			C351.56,1142.642,352.066,1142.621,352.467,1142.473z"/>
		<path fill="#10A071" d="M455.487,1044.58c-0.785-1.675-1.795-3.24-2.358-5.022c-0.128-0.403-0.229-0.801-0.229-1.223
			c-1.118-4.235-1.124-6.492-0.015-10.017c-2.146,2.644-4.528,5.005-6.665,7.583c-0.154,0.188-0.328,0.372-0.533,0.5
			c-0.388,0.243-0.775,0.777-1.261,0.312c-0.355-0.344-0.067-0.809,0.122-1.186c1.434-2.837,2.87-5.668,4.643-8.315
			c1.896-2.141,3.991-4.062,6.304-5.749c0.507,1.706-0.979,2.923-1.074,4.601c3.049-3.07,6.418-5.696,9.42-8.714
			c1.421-1.43,3.194-2.467,4.421-4.094c1.387-0.856,2.896-1.414,4.472-1.8c0.274,0.083,0.691,0.067,0.626,0.489
			c-0.057,0.349-0.237,0.688-0.413,1.004c-3.474,6.226-6.658,12.603-10.016,18.889c-2.038,3.814-4.149,7.588-6.072,11.462
			C456.562,1043.892,456.354,1044.595,455.487,1044.58z"/>
		<path fill="#18BDB7" d="M369.393,1069.609c1.748,0.989,3.48,2.014,5.249,2.968c3.865,2.086,7.748,4.138,11.624,6.203
			c-0.321,2.608-0.758,5.198-1.44,7.741c-0.111,0.182-0.228,0.186-0.351,0.013c-4.62,2.491-9.238,4.987-13.864,7.468
			c-0.53,0.284-1.037,0.65-1.84,0.727c-0.199-2.047-0.231-4.088,0.023-6.104c0.099-0.786,0.216-1.562,0.221-2.354
			c0.008-1.227,0.059-2.45-0.004-3.672C368.788,1078.256,369.505,1073.945,369.393,1069.609z"/>
		<path fill="#0EAEAB" d="M374.902,1098.305c1.507,1.104,3.266,1.74,4.891,2.624c0.684,0.372,1.366,0.747,2.048,1.12
			c0.137,0.038,0.198,0.104,0.185,0.188c-0.015,0.1-0.04,0.146-0.077,0.146c-0.604,4.317-1.474,8.588-2.315,12.862
			c-0.133,0.32-0.344,0.562-0.677,0.688c-3.154,0.426-6.336-0.07-9.494,0.289c-0.338,0.004-0.662-0.091-0.992-0.142
			c-0.71-1.488-0.357-3.021-0.195-4.549c-0.071-5.297,0.072-10.589,0.513-15.979c1.151-0.004,2,0.721,2.916,1.229
			c0.797,0.443,1.54,0.984,2.465,1.148C374.472,1097.947,374.735,1098.032,374.902,1098.305z"/>
		<path fill="#0B7E9F" d="M387.773,1047.887c-0.751-0.085-1.434,0.216-2.138,0.383c-1.831,0.435-3.668,0.824-5.562,0.797
			c-0.941,0.918-2.099,0.855-3.273,0.729c-2.248-0.414-4.58-0.3-6.774-1.055c-0.372-0.083-0.729-0.214-1.084-0.352
			c-0.438-0.173-0.868-0.354-1.012-0.869c0.171-0.436,0.546-0.625,0.933-0.825c2.49-1.298,4.965-2.624,7.458-3.912
			c4.666-2.41,9.344-4.793,14.01-7.202c1.083-0.561,2.14-1.171,3.202-1.77c0.373-0.211,0.686-0.213,0.942,0.172
			c-0.614,4.162-1.309,8.312-2.299,12.406c-1.018,0.949-2.382,1.06-3.612,1.495c-0.174,0.035-0.349,0.047-0.525,0.034
			C387.949,1047.91,387.861,1047.898,387.773,1047.887z"/>
		<path fill="#0EAEAB" d="M391.09,1106.775c0.449,0.547,1.129,0.718,1.719,1.021c4.351,2.25,8.712,4.479,13.067,6.725
			c0.249,0.129,0.592,0.182,0.683,0.702c-2.146,0-4.261-0.013-6.375,0.011c-0.588,0.007-1.241-0.2-1.729,0.348
			c-4.083,0.008-8.167,0.02-12.25,0.018c-1.529,0-1.529-0.014-1.792-1.529c0.059-3.251,0.649-6.414,1.597-9.52
			C388.194,1104.173,389.686,1105.374,391.09,1106.775z"/>
		<path fill="#1BAE7D" d="M358.396,1181.936c1.384-3.475,3.381-6.639,5.103-9.938c2.145-4.115,4.413-8.169,6.485-12.324
			c0.569-1.142,1.162-2.271,2.019-3.231c-0.282,3.286-1.128,6.478-1.64,9.726c-0.247,1.564-0.658,3.105-0.864,4.675
			c-0.281,2.15-1.238,3.949-2.67,5.505C364.482,1178.895,361.744,1180.882,358.396,1181.936z"/>
		<path fill="#1BAE7D" d="M449.19,1027.215c0.053,0.725-0.376,1.279-0.687,1.862c-1.31,2.469-2.646,4.921-4.084,7.581
			c1.546-0.623,2.061-1.99,2.969-2.939c0.967-1.01,2.021-1.923,2.832-3.1c0.778-1.129,1.99-1.908,2.901-3.441
			c0.288,2.241-0.663,3.912-0.616,5.71c0.045,1.827,0.075,3.646,0.396,5.447c-0.417-0.812-0.982-1.271-1.994-1.118
			c-2.269,0.344-4.587,0.229-6.835,0.754c-0.108,0.174-0.226,0.172-0.348,0.017l-0.034-0.034c-0.848-0.871-1.649-1.774-2.135-2.909
			C443.999,1032.334,446.462,1029.645,449.19,1027.215z"/>
		<path fill="#2FD9CD" d="M391.09,1106.775c-1.714-0.695-3.171-1.976-5.081-2.226c1.331-5.1,3.502-9.837,6.185-14.353
			c-0.416,3.433-0.243,6.898-0.669,10.342c-0.254,2.043-0.059,4.143-0.066,6.216C391.336,1106.764,391.213,1106.77,391.09,1106.775z
			"/>
		<path fill="#0C8C65" d="M468.262,1013.259c0.398,0.256,0.205,0.507-0.025,0.725c-1.968,1.821-3.901,3.685-5.933,5.435
			c-0.598,0.515-1.229,0.997-1.784,1.561c-2.012,2.048-4.35,3.741-6.274,5.881c-0.118,0.132-0.283,0.201-0.552,0.084
			c0.265-1.924,1.338-3.604,1.803-5.476C459.338,1018.089,463.527,1015.248,468.262,1013.259z"/>
		<path fill="#32CA96" d="M388.145,1047.583c1.365-0.323,2.617-1.028,4.028-1.192c-0.116,2.438-0.801,4.782-1.17,7.181
			c-0.417,2.698-0.953,5.381-1.451,8.065c-0.042,0.231-0.178,0.445-0.269,0.668c0.116-3.532-0.468-6.991-1.068-10.453
			c-0.228-1.308-0.3-2.642-0.442-3.965c-0.001,0,0.002,0.004,0.002,0.004C387.896,1047.785,388.019,1047.682,388.145,1047.583z"/>
		<path fill="#2ED9CD" d="M379.3,1115.585c0.112-0.112,0.224-0.226,0.334-0.338c-0.407,2.455-0.725,4.926-1.373,7.335
			c0.132-1.146-0.475-1.729-1.46-2.197c-2.735-1.309-5.429-2.706-8.14-4.068c-0.111-0.075-0.148-0.153-0.113-0.232
			c0.035-0.079,0.073-0.118,0.11-0.118c0.244-0.005,0.488-0.011,0.731-0.015c2.646-0.364,5.307-0.062,7.958-0.176
			C378,1115.747,378.681,1115.962,379.3,1115.585z"/>
		<path fill="#0E9EB9" d="M384.482,1124.433c2.202,1.103,4.403,2.2,6.604,3.302c-1.239,1.087-2.478,2.173-3.717,3.26
			c-0.247-0.05-0.442,0.068-0.658,0.17c-1.75,0.812-1.899,0.729-2.157-1.175C384.429,1128.138,384.372,1126.287,384.482,1124.433z"
			/>
		<path fill="#0E8D66" d="M441.557,1035.042c1.059,0.716,1.766,1.688,2.135,2.909c-1.481,0.316-2.971,0.615-4.443,0.966
			c-0.46,0.109-0.836,0.159-1.119-0.29C439.178,1037.343,440.309,1036.137,441.557,1035.042z"/>
		<path fill="#2ABE8C" d="M387.021,1171.573c0.076-0.651,0.361-0.725,0.755-0.229c1.119,1.397,2.216,2.812,3.322,4.221
			c0.002,0.123,0.003,0.248,0.005,0.373c0.162,0.68-0.233,0.978-0.793,1.159C388.709,1175.556,387.604,1173.72,387.021,1171.573z"/>
		<path fill="#13906A" d="M390.309,1177.097c0.264-0.387,0.528-0.771,0.793-1.159c1.338,0.842,1.999,2.272,2.981,3.425
			c0.166,0.19,0.19,0.445-0.065,0.636C392.544,1179.335,391.295,1178.382,390.309,1177.097z"/>
		<path fill="#1DCCDC" d="M384.555,1129.987c0.091,0.209,0.245,0.411,0.264,0.625c0.055,0.655,0.326,0.721,0.939,0.577
			c0.512-0.12,1.013-0.731,1.613-0.197c-0.048,0.039-0.092,0.082-0.142,0.116c-1.887,1.349-2.9,3.074-2.421,5.479
			c0.058,0.285-0.05,0.604-0.082,0.9C384.407,1134.992,384.513,1132.488,384.555,1129.987z"/>
		<path fill="#2ED9CD" d="M381.949,1102.385c-0.052-0.104-0.088-0.219-0.108-0.336c0.22-0.845-0.365-1.777,0.297-2.592
			c0.068-0.084-0.139-0.426-0.261-0.621c-0.162-0.261-0.41-0.57-0.148-0.808c1.123-1.021,0.731-2.688,1.671-3.771
			C383.139,1097.008,382.584,1099.703,381.949,1102.385z"/>
		<path fill="#2ED9CD" d="M384.125,1090.234c0.104-0.747-0.364-1.601,0.404-2.228
			C384.509,1088.771,384.587,1089.553,384.125,1090.234z"/>
		<path fill="#2ED9CD" d="M383.773,1092.151c0.056-0.659-0.313-1.397,0.366-1.938
			C384.139,1090.882,384.188,1091.561,383.773,1092.151z"/>
		<path fill="#2ED9CD" d="M383.389,1094.28c0.065-0.634-0.27-1.345,0.359-1.869C383.749,1093.058,383.81,1093.716,383.389,1094.28z"
			/>
		<path fill="#2ED9CD" d="M384.474,1086.534c0.117-0.011,0.234-0.015,0.351-0.013c0.027,0.531,0.093,1.076-0.318,1.518
			C384.496,1087.538,384.484,1087.036,384.474,1086.534z"/>
		<path fill="#0C8AA9" d="M530.143,1111.524c0.74,1.814,0.382,3.675,0.205,5.521c-0.164,1.73-0.538,3.465,0.184,5.163
			c-1.887,2.423-3.289,5.154-4.884,7.761c-0.546,0.892-1.049,1.911-1.057,3.042c-1.979-2.514-3.811-5.134-5.493-7.854
			c3.581-4.476,7.164-8.948,10.75-13.419C529.92,1111.646,530.043,1111.595,530.143,1111.524z"/>
		<path fill="#11CFE1" d="M546.836,1164.929c5.311,1.093,10.62,2.187,15.929,3.276c0.656,0.134,1.314,0.264,1.975,0.396
			c0.34,0.534-0.008,0.735-0.431,0.928c-1.979,0.896-3.959,1.803-5.938,2.702c-1.483,0.678-2.971,1.345-4.442,2.041
			c-0.119,0.057-0.142,0.312-0.207,0.479C551.305,1171.562,549.024,1168.277,546.836,1164.929z"/>
		<path fill="#1185A4" d="M496.316,1160.477c-0.652-0.069-1.335,0.156-2.188-0.308c1.035-0.618,1.591-1.782,2.99-1.452
			C496.988,1159.365,496.758,1159.969,496.316,1160.477z"/>
		<path fill="#10B5CD" d="M303.701,1144.439c1.041-0.312,2.122-0.005,3.17-0.203c0.703-0.562,1.537-0.438,2.344-0.447
			c2.499,0.043,5.001-0.041,7.499,0.043c1.455,0.05,2.356-0.494,3.103-1.75c3.458-5.819,6.813-11.7,10.324-17.488
			c0.474-0.781,0.908-1.59,1.553-2.258c0.233-0.218,0.498-0.379,0.803-0.478c1.393-0.148,2.792-0.409,4.144,0.22
			c0.599,0.927,0.052,1.776-0.224,2.617c-1.829,5.575-3.701,11.139-5.543,16.711c-0.734,2.217-0.632,2.334,1.767,2.356
			c5.866,0.062,11.734-0.131,17.6,0.099c0.341,0.185,0.935,0.172,0.662,0.839c-0.78-0.23-1.582-0.145-2.374-0.146
			c-14.274-0.004-28.547-0.002-42.822-0.009C305.04,1144.548,304.36,1144.652,303.701,1144.439z"/>
		<path fill="#0B8B64" d="M366.83,1156.466c0.729-0.146,1.459-0.291,2.19-0.437c-0.746,1.208-1.804,2.154-2.884,3.009
			c-1.009,0.795-1.905,1.686-2.831,2.557c-2.25,2.116-4.514,4.218-6.884,6.2c-0.784,0.656-1.574,1.344-2.119,2.243
			c-1.701,2.338-4.062,4.026-6.046,6.088c-0.379,0.394-0.915,0.771-1.472,0.57c-0.687-0.248-0.365-0.95-0.361-1.44
			c0.005-1.031-0.177-2.076,0.118-3.097c0.066-1.73,0.384-3.421,0.811-5.095c1.474-1.601,3.35-2.693,5.044-4.019
			c3.066-2.241,6.534-3.745,9.926-5.382C363.736,1156.983,365.215,1156.443,366.83,1156.466z"/>
		<path fill="#0C7F9F" d="M352.473,1163.443c-1.431,1.104-2.864,2.21-4.289,3.326c-0.252,0.195-0.517,0.304-0.832,0.296
			c0.29-3.224,0.973-6.387,1.453-9.578c0.489-3.259,1.034-6.509,1.566-9.759c0.049-0.299,0.177-0.582,0.269-0.871
			c0.412-0.588-0.03-1.318,0.324-1.916c-0.062-0.069-0.082-0.149-0.06-0.241c-0.051-0.365-0.353-0.396-0.622-0.464
			c-0.142-0.789,0.377-1.06,0.986-1.255c0.179,0.005,0.329,0.07,0.452,0.199c0.015,0.112,0.027,0.229,0.037,0.343
			c0.625,0.779,0.543,1.715,0.546,2.621c0.012,4.192,0.047,8.39-0.017,12.582C352.262,1160.309,352.799,1161.857,352.473,1163.443z"
			/>
		<path fill="#11A072" d="M346.542,1172.159c0,1.388,0,2.774,0,4.188c1.032,0.089,1.473-0.559,1.955-1.063
			c1.803-1.896,3.775-3.604,5.805-5.244l0.01,0.01c0.204,0.245,0.199,0.488-0.006,0.73l0.002-0.003
			c-0.507,0.193-0.688,0.657-0.914,1.092c-1.384,2.645-2.766,5.291-4.161,7.93c-0.272,0.515-0.363,1.213-1.149,1.273
			c-0.95-0.771-1.339-1.854-1.593-2.987C346.047,1176.108,345.946,1174.129,346.542,1172.159z"/>
		<path fill="#0C8AA9" d="M350.963,1144.941c-0.033,0.649,0.276,1.358-0.324,1.916
			C350.604,1146.194,350.595,1145.536,350.963,1144.941z"/>
		<path fill="#23CAC1" d="M579.805,1044.514c-0.201,0.939-0.981,1.513-1.445,2.283c-1.705,1.279-3.771,1.913-5.525,3.113
			c-2.14,1.463-4.35,2.822-6.251,4.607c-5.672,4.441-10.088,9.94-13.393,16.306c-1.061,2.04-2.158,4.131-2.443,6.493
			c-0.107,0.134-0.237,0.25-0.35,0.383v0.001c-3.536-0.623-7.155-0.04-10.689-0.715c-0.119-0.022-0.245-0.021-0.365-0.015
			c-4.077,0.231-8.123-0.563-12.198-0.369c-0.875,0.041-1.684-0.187-2.508-0.375c2.629-2.083,5.65-3.544,8.471-5.325
			c1.691-1.07,3.423-2.086,5.136-3.125c-0.317,0.841-0.634,1.682-1.085,2.874c1.036-0.627,1.796-1.081,2.55-1.545
			c12.936-7.974,25.871-15.945,38.81-23.915C578.927,1044.936,579.299,1044.593,579.805,1044.514z"/>
		<path fill="#25BC89" d="M637.235,1012.97c-2.396,2.691-4.824,5.354-7.182,8.081c-2.835,3.282-5.922,6.337-8.662,9.703
			c-1.044,1.279-2.3,2.361-3.385,3.615c-2.474,2.855-5.085,5.598-7.642,8.385c-1.284-0.445-0.596-1.431-0.481-2.13
			c0.869-5.433,1.937-10.833,2.639-16.293c3.102-2.153,6.378-4.025,9.58-6.012c3.625-2.245,7.276-4.447,10.93-6.65
			c0.62-0.374,1.228-0.801,1.966-0.938c1.177,0.101,1.51,1.207,2.227,1.856C637.229,1012.716,637.23,1012.843,637.235,1012.97z"/>
		<path fill="#1BAE7D" d="M612.523,1024.331c0.449,0.059,0.571,0.247,0.483,0.739c-0.479,2.692-0.882,5.398-1.355,8.094
			c-0.528,2.992-0.888,6.016-1.602,8.975c-0.064,0.268,0.12,0.456,0.315,0.615c-0.152,0.355-0.398,0.68-0.37,1.098
			c-2.796-1.84-5.174-4.207-7.849-6.197c-1.459-1.086-2.723-2.424-4.288-3.373c-0.121-0.233-0.243-0.465-0.363-0.697
			c3.55-2.223,7.088-4.459,10.649-6.657C609.589,1026.035,610.969,1025.033,612.523,1024.331z"/>
		<path fill="#1BAE7D" d="M581.638,1064.024c-0.6-0.47-0.344-1.13-0.338-1.702c0.051-5.607-0.148-11.219,0.13-16.82
			c0.035-0.693-0.611-1.05-0.553-1.684c3.126-2.086,6.309-4.084,9.608-5.894c0.592,0.871,0.043,1.668-0.235,2.43
			c-2.593,7.114-4.749,14.389-7.621,21.403c-0.16,0.392-0.404,0.766-0.229,1.219
			C582.146,1063.326,581.892,1063.675,581.638,1064.024z"/>
		<path fill="#10A071" d="M582.399,1062.977c-0.768-0.637-0.109-1.28,0.077-1.832c1.483-4.337,3.104-8.627,4.54-12.979
			c1.132-3.422,2.596-6.729,3.469-10.238c2.108-1.51,4.312-2.879,6.615-4.078c-0.258,1.751-1.613,2.982-2.175,4.604
			c-0.296,0.854-0.865,1.612-1.281,2.43C589.893,1048.244,586.146,1055.611,582.399,1062.977z"/>
		<path fill="#22C8C0" d="M367.928,1047.521c0.361,0.138,0.722,0.272,1.083,0.41c0.553,1.183-0.726,1.547-1.037,2.346
			c-0.091,0.146-0.195,0.281-0.303,0.416c-0.165,0.203-0.351,0.385-0.554,0.549c-1.136,0.794-2.44,1.287-3.604,2.038
			c-0.441,0.284-0.951,0.571-1.491,0.137c1.472-1.597,2.944-3.194,4.416-4.791c0.43-0.241,0.534-0.706,0.75-1.093
			c0.121,0,0.241-0.001,0.361-0.006C367.676,1047.525,367.802,1047.521,367.928,1047.521z"/>
		<path fill="#1BAD7D" d="M354.306,1170.778c0.002-0.243,0.004-0.487,0.006-0.73
			C354.693,1170.294,354.674,1170.538,354.306,1170.778z"/>
		<path fill="#23CAC1" d="M523.545,1076.267c-0.003,0.108-0.003,0.22-0.001,0.325c-0.13,0.005-0.258,0.01-0.388,0.016
			c-0.74-0.012-1.482-0.021-2.226-0.032C521.748,1076.005,522.672,1076.344,523.545,1076.267z"/>
		<path fill="#31CA95" d="M443.726,1037.985c0.115-0.011,0.23-0.017,0.348-0.017c2.875,2.044,5.749,4.087,8.622,6.137
			c0.771,0.553,1.707,0.941,2.055,1.944c-4.26,1.692-8.135,4.053-11.774,6.818c-0.344,0.261-0.65,0.545-1.105,0.567
			c-0.043-1.943,0.349-3.844,0.62-5.755c0.307-2.15,0.634-4.304,0.82-6.467C443.401,1040.131,443.859,1039.096,443.726,1037.985z"/>
		<path fill="#0EAEAB" d="M550.396,1077.699c0.115-0.128,0.231-0.256,0.349-0.383
			C550.628,1077.443,550.514,1077.571,550.396,1077.699z"/>
		<path fill="#10B5CD" d="M211.941,1094.252c-0.299,0.415-0.739,0.407-1.163,0.347c-3.181-0.454-6.356-0.948-9.542-1.37
			c-0.962-0.129-1.952-0.062-2.929-0.089c0.011-0.123,0.023-0.247,0.034-0.37c2.177-0.563,4.097-1.754,6.177-2.559
			c1.855-0.718,3.668-1.552,5.481-2.376c0.543-0.246,1.024-0.631,1.533-0.952c0.468,0.387,0.588,0.942,0.545,1.479
			C211.917,1090.322,212.614,1092.304,211.941,1094.252z"/>
		<path fill="#0C9598" d="M211.941,1094.252c-0.618-2.43-0.314-4.91-0.408-7.369c-0.06-0.884,0.362-1.687,0.431-2.548
			c2.878-0.006,5.756-0.022,8.634-0.013c1.736,0.007,1.8,0.135,1.333,1.781c-1.363,4.809-2.709,9.618-4.053,14.433
			c-0.064,0.229-0.03,0.485-0.041,0.729c0.201,0.188,0.217,0.414,0.152,0.662c-0.118,0.231-0.299,0.378-0.562,0.411
			c-2.634-2.013-4.5-4.539-5.253-7.816C212.15,1094.42,212.02,1094.342,211.941,1094.252z"/>
		<path fill="#18B08C" d="M200.922,1087.279c-0.26-0.481-0.521-0.964-0.782-1.446
			C201.637,1086.159,201.637,1086.159,200.922,1087.279z"/>
		<path fill="#0D9EB9" d="M216.716,1037.959c-0.413,0.013-0.833,0.049-1.129-0.333
			C216.005,1037.594,216.432,1037.537,216.716,1037.959z"/>
		<path fill="#2ED9CD" d="M217.427,1102.34c0.126-0.128,0.253-0.257,0.38-0.386c1.769,0.024,1.96-0.349,1.113-2.183
			c0.145-1.051,0.824-1.804,1.442-2.59c0.568-0.324,1.232-0.604,0.741-1.466c0.395-1.477,1.241-2.745,1.9-4.1
			c1.191-2.444,2.434-4.866,3.653-7.298c5.4,0.004,10.8,0.009,16.199,0.013c0.854,2.001,0.411,4.07,0.302,6.117
			c-0.06,1.126-0.788,2.573,0.167,3.26c0.725,0.521,1.855-0.592,2.742-1.072c3.916-2.126,7.877-4.17,11.761-6.354
			c1.436-0.811,2.902-1.534,4.502-1.958c1.355,0.003,2.71,0.005,4.064,0.007c0.697,0.842,0.583,1.852,0.507,2.814
			c-0.427,5.428-0.78,10.858-1.111,16.291c-0.07,1.147-0.115,2.343-0.887,3.318c-0.121,0-0.241,0.002-0.362,0.006
			c-0.357-0.151-0.68-0.413-1.105-0.347c-0.54-0.604-1.231-0.987-1.938-1.354c-4.792-2.465-9.589-4.923-14.377-7.396
			c-1.085-0.562-2.137-1.19-3.219-1.759c-0.363-0.189-0.713-0.502-1.27-0.327c-0.553,1.329,0.287,2.889-0.525,4.209
			c-0.637-0.56-0.354-1.357-0.526-2.059c-0.76,1.507-0.699,1.857,0.522,3.145c-0.004,1.717-0.009,3.435-0.013,5.148
			c-6.619,0-13.239-0.001-19.86-0.002c-0.943-0.856-2.186-1.18-3.259-1.811c-0.556-0.326-1.247-0.463-1.544-1.14
			C217.425,1102.83,217.427,1102.585,217.427,1102.34z"/>
		<path fill="#0B7FA0" d="M216.686,1103.846c0.016,0.293-0.017,0.602,0.057,0.878c0.248,0.946,0.455,1.786-0.983,0.897
			c-0.062-0.037-0.339,0.27-0.516,0.417c-0.639,0.001-1.279,0.001-1.918,0.001C214.389,1105.045,215.324,1104.084,216.686,1103.846z
			"/>
		<path fill="#2ED9CD" d="M242.101,1100.876c-1.432-0.166-1.436-0.165-1.472-1.414c-0.013-0.485-0.011-0.972,0.008-1.458
			c0.029-0.797,0.457-1.207,1.354-1.257c0.218,1.014,0.056,2.035,0.117,3.043C242.103,1100.151,242.103,1100.515,242.101,1100.876z"
			/>
		<path fill="#2ED9CD" d="M289.557,1081.362c-0.339,1.681-0.6,1.814-1.833,0.776c-0.436-0.367-0.865-0.389-1.345-0.392
			c-1.651-0.012-3.302-0.013-4.953-0.017c0.397-0.381,0.9-0.312,1.38-0.315C285.056,1081.395,287.306,1081.379,289.557,1081.362z"/>
		<path fill="#2ED9CD" d="M279.991,1081.73c-0.313,1.604-0.398,1.674-1.543,0.843c-0.483-0.353-0.961-0.442-1.518-0.473
			c-0.577-0.026-1.235,0.236-1.693-0.361C276.822,1081.736,278.407,1081.733,279.991,1081.73z"/>
		<path fill="#23CAC1" d="M264.902,1106.757c0.44-2.586,0.153-5.235,0.69-7.812c0.024-0.12,0.046-0.246,0.037-0.365
			c-0.228-2.699,0.506-5.346,0.402-8.044c-0.079-2.071,0.568-4.114,0.361-6.203c1.585,0.001,3.171,0.002,4.758,0.003
			c5.569,2.465,10.782,5.61,16.13,8.495c0.396,0.215,0.937,0.396,0.804,1.052c-1.87,1.48-4.074,2.396-6.11,3.598
			c-4.816,2.837-9.685,5.587-14.542,8.354C266.649,1106.276,265.89,1106.844,264.902,1106.757z"/>
		<path fill="#18BDB7" d="M262.328,1084.324c-1.592,1.247-3.497,1.947-5.24,2.928c-4.665,2.626-9.435,5.066-14.165,7.574
			c-0.039,0.021-0.111-0.023-0.379-0.092c-0.308-3.438,0.591-6.913,0.309-10.401C249.345,1084.33,255.836,1084.327,262.328,1084.324
			z"/>
		<path fill="#2ED9CD" d="M288.084,1093.881c-1.137-0.688-2.247-1.433-3.417-2.062c-4.125-2.216-8.272-4.396-12.413-6.584
			c-0.432-0.229-0.891-0.413-1.105-0.902c1.913-0.188,3.679,0.032,4.918,1.748c0.07,0.096,0.184,0.218,0.283,0.225
			c2.719,0.18,4.31,2.604,6.789,3.376c1.565,0.486,2.894,1.729,4.493,2.35c0.67,0.26,1.17,0.473,1.786-0.183
			c0.664-0.704,1.531-0.672,2.358-0.161c-0.711,1.052-1.986,1.195-2.952,1.839c-0.119,0.125-0.264,0.224-0.377,0.354h-0.181H288.084
			z"/>
		<path fill="#2ED9CD" d="M218.919,1099.771c0.739,0.054,1.147,0.447,1.073,1.188c-0.069,0.687-0.309,1.361-0.992,1.646
			c-0.566,0.235-1.105,0.134-1.194-0.651c0.009-0.229,0.02-0.459,0.03-0.688C218.198,1100.77,218.559,1100.27,218.919,1099.771z"/>
		<path fill="#2ED9CD" d="M221.102,1095.718c0.921,0.111,0.895,0.82,0.68,1.372c-0.326,0.831-0.944-0.066-1.419,0.094
			C220.454,1096.617,220.649,1096.104,221.102,1095.718z"/>
		<path fill="#0B8B64" d="M309.422,1144.225c-0.85,0.124-1.7,0.122-2.551,0.015c-0.261-2.491-1.092-4.854-1.681-7.266
			c-1.396-5.72-2.874-11.419-4.347-17.12c-0.167-0.645-0.417-1.205,0.538-1.353c0.604,0.229,1.208,0.46,1.812,0.688
			c2.512,0.385,3.799,2.394,5.326,4.062c0.566,0.617,0.969,1.381,1.38,2.124c1.86,3.49,2.037,7.262,1.861,11.094
			C311.297,1139.148,311.153,1141.926,309.422,1144.225z"/>
		<path fill="#0C9598" d="M351.004,1061.487c1.191-1.098,2.809-1.517,4.041-2.546c0.711,0.861,0.255,1.766,0.031,2.619
			c-1.833,6.973-3.747,13.924-5.587,20.895c-0.109,0.414-0.188,0.832-0.265,1.251c-0.314,1.152-1.115,2.012-1.804,2.934
			c-2.225,2.976-4.442,5.954-6.691,8.909c-0.461,0.607-0.836,1.39-1.802,1.354c-1.579-1.992-2.015-4.244-1.538-6.707
			c-0.166-2.888,0.581-5.655,1.093-8.455c1.417-4.096,3.21-7.999,5.75-11.538c1.877-2.616,3.833-5.162,6.081-7.479
			C350.62,1062.409,351.407,1062.241,351.004,1061.487z"/>
		<path fill="#23CAC1" d="M337.39,1090.196c0.426,2.244,0.479,4.584,1.724,6.614c0.463,0.809-0.274,1.234-0.627,1.703
			c-3.402,4.528-6.871,9.008-10.243,13.562c-0.402,0.544-0.827,1.062-1.554,1.188c-1.936,0.263-3.755,0.974-5.636,1.441
			c-0.792,0.197-1.59,0.699-2.438,0.149c0.445-1.519,1.626-2.562,2.544-3.741c4.264-5.486,8.409-11.062,12.635-16.574
			C334.933,1093.056,335.856,1091.363,337.39,1090.196z"/>
		<path fill="#0D9EB9" d="M318.617,1114.854c2.412-0.656,4.828-1.306,7.234-1.982c0.397-0.111,0.709-0.155,0.945,0.241
			c0.325,0.791-0.299,1.243-0.667,1.758c-1.63,2.266-3.368,4.449-5.106,6.627c-0.313,0.33-0.027,0.719-0.093,1.076
			c-0.741,1.307-1.803,2.362-2.716,3.535c-0.322,0.409-0.797,1.085-1.369,0.163c-0.14-1.935,0.122-3.854,0.282-5.767
			c0.13-1.567,0.253-3.125,0.19-4.697c0.004-0.215,0.07-0.409,0.195-0.586l0.008-0.002c0.12-0.002,0.241-0.004,0.361-0.007
			c0.128-0.113,0.252-0.229,0.373-0.349l0.01-0.006C318.38,1114.858,318.499,1114.855,318.617,1114.854z"/>
		<path fill="#23CAC1" d="M288.448,1093.881c0.125-0.119,0.251-0.237,0.377-0.354
			C288.699,1093.645,288.573,1093.762,288.448,1093.881z"/>
		<path fill="#0EAEAB" d="M318.253,1114.865c-0.125,0.115-0.249,0.23-0.373,0.349
			C318.004,1115.098,318.128,1114.98,318.253,1114.865z"/>
		<path fill="#0EAEAB" d="M348.786,1083.957c0.002-1.543,0.561-2.975,0.946-4.432c1.707-6.446,3.468-12.877,5.194-19.318
			c0.109-0.402,0.083-0.843,0.119-1.266c2.364-1.515,4.323-3.547,6.612-5.156c0.121-0.131,0.273-0.229,0.377-0.377l-0.011,0.008
			c1.842-0.611,3.372-1.852,5.159-2.576c0.118-0.126,0.254-0.234,0.37-0.365l0,0c0.689-0.255,1.6-1.623,1.839,0.368
			c-2.231,4.475-4.467,8.945-6.695,13.423c-0.322,0.647-0.774,1.263-0.639,2.058c-0.013,0.08-0.026,0.16-0.038,0.242
			c-0.147,0.387-0.316,0.764-0.478,1.146c-3.657,5.354-7.713,10.407-11.575,15.606
			C349.688,1083.689,349.401,1084.154,348.786,1083.957z"/>
		<path fill="#22C8C0" d="M362.034,1053.408c-0.126,0.125-0.251,0.251-0.376,0.377
			C361.783,1053.659,361.908,1053.533,362.034,1053.408z"/>
		<path fill="#11CFE1" d="M317.511,1115.223c-0.003,0.119-0.005,0.237-0.007,0.355c-1.073,2.45-3.092,4.193-4.709,6.234
			c-0.987,1.242-1.744,2.776-3.391,3.383c-1.632-2.454-3.629-4.53-6.209-6.005c0.714-0.491,1.562-0.663,2.367-0.889
			c3.792-1.051,7.601-2.044,11.405-3.051C317.137,1115.208,317.329,1115.23,317.511,1115.223z"/>
		<path fill="#18BDB7" d="M320.473,1121.492c0.251,0.506,0.728,0.359,1.128,0.359c10.754,0.02,21.509,0.028,32.263,0.029
			c1.324,0,1.333-0.025,1.599-1.376c0.615-3.113,1.221-6.229,1.83-9.343c0.604-0.469,1.135-0.146,1.687,0.134
			c2.88,1.454,5.766,2.899,8.792,4.421c0.288-0.757,0.083-1.534,0.156-2.272c0.064-0.646-0.225-1.356,0.35-1.909
			c0.004,1.029,0.003,2.061,0.013,3.091c0.006,0.475-0.091,0.983,0.368,1.338c-0.002,0.117-0.001,0.235,0.003,0.354
			c-1.508,0.998-2.036,2.713-2.954,4.13c-2.62,4.052-5.152,8.159-7.715,12.248c-1.849,2.949-3.688,5.904-5.547,8.848
			c-0.219,0.348-0.38,0.629,0.022,0.932c-0.248,0.236-0.499,0.475-0.748,0.711c-0.111-0.004-0.221-0.011-0.332-0.017
			c-0.624-0.599-0.646-1.427-0.824-2.188c-1.25-5.354-2.377-10.732-3.549-16.104c-0.358-1.641-1.126-2.243-2.756-2.154
			c-1.826,0.1-3.663,0.032-5.495,0.017c-0.729-0.007-1.479,0.042-2.086-0.494c-1.487-0.002-2.974-0.005-4.461-0.007
			c-0.21,0.104-0.425,0.202-0.641,0.292c-3.257,0.504-6.528,0.233-9.794,0.164c-0.363-0.011-0.708-0.163-0.96-0.459
			C320.378,1122.139,319.897,1122.062,320.473,1121.492z"/>
		<path fill="#1BAE7D" d="M369.769,1048.285c2.036,0.305,4.036,0.889,6.13,0.775c0.278-0.017,0.569,0.197,0.854,0.307
			c0.367,1.036-0.179,1.935-0.53,2.811c-1.908,4.77-3.367,9.711-5.578,14.361c-0.128,0.266-0.318,0.532-0.152,0.855
			c-0.295,0.534-0.428,1.19-1.081,1.465c-0.092-5.644,0.57-11.266,0.375-16.906C370.287,1050.727,369.069,1049.511,369.769,1048.285
			z"/>
		<path fill="#18BAB5" d="M369.769,1048.285c0.408,1.22,0.521,2.441,0.018,3.668c-0.059-0.396,0.05-0.854-0.396-1.11
			c-0.056-0.369-0.149-0.739-0.639-0.571c-0.395,0.138-0.786,0.22-1.2,0.203c-0.016-0.606,0.41-0.96,0.786-1.338
			c0.338-0.34,0.691-0.668,0.673-1.204C369.263,1048.05,369.516,1048.167,369.769,1048.285z"/>
		<path fill="#2ED9CD" d="M374.902,1098.305c-0.301-0.009-0.571-0.078-0.731-0.366c0.173-0.308,0.415-0.372,0.699-0.168
			C375.081,1097.92,375.171,1098.109,374.902,1098.305z"/>
		<path fill="#10A071" d="M370.492,1067.395c-0.224-0.151-0.325-0.363-0.229-0.619c1.712-4.547,3.432-9.088,5.139-13.636
			c0.47-1.25,0.901-2.515,1.35-3.771c1.12,0.054,2.226-0.057,3.319-0.303c-0.405,1.426-1.191,2.677-1.868,3.971
			c-1.611,3.083-3.292,6.131-4.941,9.193C372.335,1063.949,371.415,1065.673,370.492,1067.395z"/>
		<path fill="#0D9EB9" d="M352.473,1163.443c-0.524-1.038-0.723-2.16-0.726-3.303c-0.013-5.537,0.004-11.076,0.009-16.617
			c0.755,0.063,1.149,0.658,1.605,1.132c3.568,3.681,7.55,6.93,11.071,10.655c0.65,0.688,1.404,1.174,2.397,1.153
			c-3.653,1.167-7.085,2.831-10.449,4.646C355.048,1161.83,353.774,1162.662,352.473,1163.443z"/>
		<path fill="#18BDB7" d="M379.3,1115.585c-0.401,0.545-0.993,0.364-1.516,0.366c-2.798,0.013-5.596,0.002-8.395-0.002
			c0.483-0.543,1.13-0.344,1.713-0.35C373.834,1115.58,376.568,1115.588,379.3,1115.585z"/>
		<path fill="#25BC89" d="M388.145,1047.583c-0.123,0.103-0.246,0.205-0.369,0.308
			C387.899,1047.788,388.022,1047.686,388.145,1047.583z"/>
		<path fill="#0C8AA9" d="M336.678,1122.241c2.938-0.011,5.873-0.035,8.809-0.025c1.417,0.005,1.528,0.15,1.824,1.496
			c1.143,5.229,2.307,10.454,3.45,15.684c0.272,1.245,0.66,2.476,0.627,3.771c-0.486,0.233-0.856,0.59-1.106,1.069
			c-6.426,0.016-12.851,0.037-19.277,0.034c-1.408-0.001-1.54-0.212-1.054-1.683c2.187-6.609,4.396-13.21,6.594-19.812
			C336.603,1122.602,336.634,1122.42,336.678,1122.241z"/>
		<path fill="#0B7E9F" d="M320.82,1122.23c3.683,0,7.365,0,11.046,0.002c0.092,0.075,0.123,0.153,0.094,0.232
			c-0.028,0.08-0.059,0.119-0.088,0.119c-2.547,4.314-5.096,8.631-7.645,12.945c-1.461,2.473-2.954,4.928-4.374,7.425
			c-0.504,0.886-1.079,1.375-2.162,1.346c-2.756-0.074-5.514-0.056-8.27-0.075c-0.019-1.123,0.636-2.056,0.922-3.092
			c0.419-1.515,0.601-3.059,0.934-4.58c1.221-3.744,3.453-6.891,5.871-9.928C318.373,1125.161,319.596,1123.696,320.82,1122.23z"/>
		<path fill="#0D9EB9" d="M331.873,1122.586c-0.006-0.117-0.008-0.236-0.006-0.354c0.117-0.014,0.233-0.013,0.35,0.002
			C332.102,1122.352,331.987,1122.469,331.873,1122.586z"/>
		<path fill="#18BAB5" d="M367.552,1050.475c-0.124,0.123-0.246,0.244-0.37,0.366
			C367.306,1050.719,367.428,1050.598,367.552,1050.475z"/>
		<path fill="#0C8AA9" d="M317.149,1126.627c-0.211,1.188-1.086,2.018-1.706,2.957c-1.493,2.266-2.733,4.675-4.166,6.971
			c-0.096-2.234,0.166-4.478-0.34-6.712c-0.365-1.61-1.026-3.099-1.534-4.646c2.7-3.205,5.4-6.411,8.101-9.617
			c0.747,1.301,0.431,2.72,0.26,4.045c-0.123,0.96-0.313,1.917-0.227,2.871C317.667,1123.907,317.032,1125.229,317.149,1126.627z"/>
		<path fill="#2ED9CD" d="M362.063,1066.305c-0.065,0.497-0.343,0.846-0.764,1.094
			C361.3,1066.855,361.536,1066.479,362.063,1066.305z"/>
	</g>
</g>
</svg>
