<?xml version="1.0" encoding="utf-8"?>
<!-- Generator: Adobe Illustrator 16.0.0, SVG Export Plug-In . SVG Version: 6.00 Build 0)  -->
<!DOCTYPE svg PUBLIC "-//W3C//DTD SVG 1.1//EN" "http://www.w3.org/Graphics/SVG/1.1/DTD/svg11.dtd">
<svg version="1.1" id="Layer_1" xmlns="http://www.w3.org/2000/svg" xmlns:xlink="http://www.w3.org/1999/xlink" x="0px" y="0px"
	 width="1168px" height="819.297px" viewBox="-2 -1 1168 819.297" enable-background="new -2 -1 1168 819.297" xml:space="preserve"
	>
<g id="Layer_1_1_">
	<g>
		<g>
			<g>
				<defs>
					<rect id="SVGID_1_" x="-1.095" width="1168.392" height="821.565"/>
				</defs>
				<clipPath id="SVGID_2_">
					<use xlink:href="#SVGID_1_"  overflow="visible"/>
				</clipPath>
				<rect x="-1.269" clip-path="url(#SVGID_2_)" fill="none" width="1168.576" height="1258.372"/>
			</g>
		</g>
		<g>
			<g>
				<defs>
					<rect id="SVGID_3_" x="-1.095" width="1168.392" height="821.565"/>
				</defs>
				<clipPath id="SVGID_4_">
					<use xlink:href="#SVGID_3_"  overflow="visible"/>
				</clipPath>
				<g clip-path="url(#SVGID_4_)">
					<polygon fill="#EDEB9F" points="38.237,202.363 -20.608,304.287 -79.456,202.363 					"/>
					<polygon fill="#FDF8D0" points="-20.608,304.287 38.237,202.363 97.084,304.287 					"/>
					<polygon fill="#F79266" points="97.084,304.287 155.93,202.363 214.778,304.287 					"/>
					<polygon fill="#79D8D8" points="273.624,202.363 214.778,304.287 155.93,202.363 					"/>
					<polygon fill="#FDF8D0" points="391.317,202.363 332.469,304.287 273.624,202.363 					"/>
					<polygon fill="#F4DCBA" points="332.469,304.287 391.317,202.363 450.165,304.287 					"/>
					<polygon fill="#F79266" points="509.01,202.363 450.165,304.287 391.317,202.363 					"/>
					<polygon fill="#79D8D8" points="450.165,304.287 509.01,202.363 567.857,304.287 					"/>
					<polygon fill="#EDEB9F" points="626.699,202.363 567.857,304.287 509.01,202.363 					"/>
					<polygon fill="#FDF8D0" points="567.857,304.287 626.699,202.363 685.549,304.287 					"/>
					<polygon fill="#F4DCBA" points="744.396,202.363 685.549,304.287 626.699,202.363 					"/>
					<polygon fill="#F79266" points="685.549,304.287 744.396,202.363 803.244,304.287 					"/>
					<polygon fill="#79D8D8" points="862.086,202.363 803.244,304.287 744.396,202.363 					"/>
					<polygon fill="#EDEB9F" points="803.244,304.287 862.086,202.363 920.936,304.287 					"/>
					<polygon fill="#FDF8D0" points="979.779,202.363 920.936,304.287 862.086,202.363 					"/>
					<polygon fill="#F4DCBA" points="920.936,304.287 979.779,202.363 1038.629,304.287 					"/>
					<polygon fill="#F79266" points="1097.477,202.363 1038.629,304.287 979.779,202.363 					"/>
					<polygon fill="#79D8D8" points="1038.629,304.287 1097.477,202.363 1156.322,304.287 					"/>
					<polygon fill="#EDEB9F" points="1215.17,202.363 1156.322,304.287 1097.477,202.363 					"/>
					<polygon fill="#FDF8D0" points="1156.322,304.287 1215.17,202.363 1274.016,304.287 					"/>
					<polygon fill="#F4DCBA" points="1332.865,202.363 1274.016,304.287 1215.17,202.363 					"/>
					<polygon fill="#FDF8D0" points="-197.186,406.212 -138.341,304.287 -79.493,406.212 					"/>
					<polygon fill="#F79266" points="-79.493,406.212 -20.648,304.287 38.2,406.212 					"/>
					<polygon fill="#79D8D8" points="97.045,304.287 38.2,406.212 -20.648,304.287 					"/>
					<polygon fill="#FDF8D0" points="214.739,304.287 155.891,406.212 97.045,304.287 					"/>
					<polygon fill="#F79266" points="332.43,304.287 273.586,406.212 214.739,304.287 					"/>
					<polygon fill="#EDEB9F" points="450.125,304.287 391.277,406.212 332.43,304.287 					"/>
					<polygon fill="#FDF8D0" points="391.277,406.212 450.125,304.287 508.973,406.212 					"/>
					<polygon fill="#79D8D8" points="685.51,304.287 626.662,406.212 567.816,304.287 					"/>
					<polygon fill="#FDF8D0" points="803.205,304.287 744.359,406.212 685.51,304.287 					"/>
					<polygon fill="#F4DCBA" points="744.359,406.212 803.205,304.287 862.051,406.212 					"/>
					<polygon fill="#F79266" points="920.893,304.287 862.051,406.212 803.205,304.287 					"/>
					<polygon fill="#79D8D8" points="862.051,406.212 920.893,304.287 979.744,406.212 					"/>
					<polygon fill="#EDEB9F" points="1038.594,304.287 979.744,406.212 920.893,304.287 					"/>
					<polygon fill="#FDF8D0" points="979.744,406.212 1038.594,304.287 1097.438,406.212 					"/>
					<polygon fill="#F4DCBA" points="1156.281,304.287 1097.438,406.212 1038.594,304.287 					"/>
					<polygon fill="#F79266" points="1097.438,406.212 1156.281,304.287 1215.131,406.212 					"/>
					<polygon fill="#79D8D8" points="1273.977,304.287 1215.131,406.212 1156.281,304.287 					"/>
					<polygon fill="#79D8D8" points="38.237,-1.487 -20.608,100.438 -79.456,-1.487 					"/>
					<polygon fill="#EDEB9F" points="-20.608,100.438 38.237,-1.487 97.084,100.438 					"/>
					<polygon fill="#FDF8D0" points="155.93,-1.487 97.084,100.438 38.237,-1.487 					"/>
					<polygon fill="#F4DCBA" points="97.084,100.438 155.93,-1.487 214.778,100.438 					"/>
					<polygon fill="#F79266" points="273.624,-1.487 214.778,100.438 155.93,-1.487 					"/>
					<polygon fill="#79D8D8" points="214.739,100.438 273.584,-1.487 332.43,100.438 					"/>
					<polygon fill="#EDEB9F" points="391.317,-1.487 332.469,100.438 273.624,-1.487 					"/>
					<polygon fill="#FDF8D0" points="332.469,100.438 391.317,-1.487 450.165,100.438 					"/>
					<polygon fill="#F4DCBA" points="509.01,-1.487 450.165,100.438 391.317,-1.487 					"/>
					<polygon fill="#F79266" points="450.165,100.438 509.01,-1.487 567.857,100.438 					"/>
					<polygon fill="#79D8D8" points="626.699,-1.487 567.857,100.438 509.01,-1.487 					"/>
					<polygon fill="#EDEB9F" points="567.857,100.438 626.699,-1.487 685.549,100.438 					"/>
					<polygon fill="#FDF8D0" points="744.396,-1.487 685.549,100.438 626.699,-1.487 					"/>
					<polygon fill="#F4DCBA" points="685.549,100.438 744.396,-1.487 803.244,100.438 					"/>
					<polygon fill="#F79266" points="862.086,-1.487 803.244,100.438 744.396,-1.487 					"/>
					<polygon fill="#79D8D8" points="803.244,100.438 862.086,-1.487 920.936,100.438 					"/>
					<polygon fill="#EDEB9F" points="979.779,-1.487 920.936,100.438 862.086,-1.487 					"/>
					<polygon fill="#FDF8D0" points="920.936,100.438 979.779,-1.487 1038.629,100.438 					"/>
					<polygon fill="#F4DCBA" points="1097.477,-1.487 1038.629,100.438 979.779,-1.487 					"/>
					<polygon fill="#F79266" points="1038.629,100.438 1097.477,-1.487 1156.322,100.438 					"/>
					<polygon fill="#79D8D8" points="1215.17,-1.487 1156.322,100.438 1097.477,-1.487 					"/>
					<polygon fill="#EDEB9F" points="1156.322,100.438 1215.17,-1.487 1274.016,100.438 					"/>
					<polygon fill="#FDF8D0" points="1332.865,-1.487 1274.016,100.438 1215.17,-1.487 					"/>
					<polygon fill="#F4DCBA" points="-79.493,202.363 -20.648,100.438 38.2,202.363 					"/>
					<polygon fill="#F79266" points="97.045,100.438 38.2,202.363 -20.648,100.438 					"/>
					<polygon fill="#79D8D8" points="38.2,202.363 97.045,100.438 155.891,202.363 					"/>
					<polygon fill="#EDEB9F" points="214.739,100.438 155.891,202.363 97.045,100.438 					"/>
					<polygon fill="#FDF8D0" points="155.891,202.363 214.739,100.438 273.586,202.363 					"/>
					<polygon fill="#F4DCBA" points="332.43,100.438 273.586,202.363 214.739,100.438 					"/>
					<polygon fill="#F79266" points="273.586,202.363 332.43,100.438 391.277,202.363 					"/>
					<polygon fill="#79D8D8" points="450.125,100.438 391.277,202.363 332.43,100.438 					"/>
					<polygon fill="#EDEB9F" points="391.277,202.363 450.125,100.438 508.973,202.363 					"/>
					<polygon fill="#FDF8D0" points="567.816,100.438 508.973,202.363 450.125,100.438 					"/>
					<polygon fill="#F4DCBA" points="508.973,202.363 567.816,100.438 626.662,202.363 					"/>
					<polygon fill="#F79266" points="685.51,100.438 626.662,202.363 567.816,100.438 					"/>
					<polygon fill="#79D8D8" points="626.662,202.363 685.51,100.438 744.359,202.363 					"/>
					<polygon fill="#EDEB9F" points="803.205,100.438 744.359,202.363 685.51,100.438 					"/>
					<polygon fill="#FDF8D0" points="744.359,202.363 803.205,100.438 862.051,202.363 					"/>
					<polygon fill="#F4DCBA" points="920.893,100.438 862.051,202.363 803.205,100.438 					"/>
					<polygon fill="#F79266" points="862.051,202.363 920.893,100.438 979.744,202.363 					"/>
					<polygon fill="#79D8D8" points="1038.594,100.438 979.744,202.363 920.893,100.438 					"/>
					<polygon fill="#EDEB9F" points="979.744,202.363 1038.594,100.438 1097.438,202.363 					"/>
					<polygon fill="#FDF8D0" points="1156.281,100.438 1097.438,202.363 1038.594,100.438 					"/>
					<polygon fill="#F4DCBA" points="1097.438,202.363 1156.281,100.438 1215.131,202.363 					"/>
					<polygon fill="#F79266" points="1273.977,100.438 1215.131,202.363 1156.281,100.438 					"/>
					<g>
						<polygon fill="#79D8D8" points="416.804,339.344 417.008,339.344 417.008,339.144 						"/>
					</g>
					<polygon fill="#FDF8D0" points="979.779,610.051 920.936,711.979 862.086,610.051 					"/>
					<polygon fill="#F79266" points="1097.477,610.051 1038.629,711.979 979.779,610.051 					"/>
					<polygon fill="#EDEB9F" points="1215.17,610.051 1156.322,711.979 1097.477,610.051 					"/>
					<polygon fill="#FDF8D0" points="1156.322,711.979 1215.17,610.051 1274.016,711.979 					"/>
					<polygon fill="#F4DCBA" points="1332.865,610.051 1274.016,711.979 1215.17,610.051 					"/>
					<polygon fill="#F4DCBA" points="1156.281,711.979 1097.438,813.909 1038.594,711.979 					"/>
					<polygon fill="#F79266" points="1097.438,813.909 1156.281,711.979 1215.131,813.909 					"/>
					<polygon fill="#79D8D8" points="1273.977,711.979 1215.131,813.909 1156.281,711.979 					"/>
					<polygon fill="#F4DCBA" points="685.549,508.127 744.396,406.205 803.244,508.127 					"/>
					<polygon fill="#79D8D8" points="803.244,508.127 862.086,406.205 920.936,508.127 					"/>
					<polygon fill="#EDEB9F" points="979.779,406.205 920.936,508.127 862.086,406.205 					"/>
					<polygon fill="#FDF8D0" points="920.936,508.127 979.779,406.205 1038.629,508.127 					"/>
					<polygon fill="#F4DCBA" points="1097.477,406.205 1038.629,508.127 979.779,406.205 					"/>
					<polygon fill="#F79266" points="1038.629,508.127 1097.477,406.205 1156.322,508.127 					"/>
					<polygon fill="#79D8D8" points="1215.17,406.205 1156.322,508.127 1097.477,406.205 					"/>
					<polygon fill="#EDEB9F" points="1156.322,508.127 1215.17,406.205 1274.016,508.127 					"/>
					<polygon fill="#FDF8D0" points="1332.865,406.205 1274.016,508.127 1215.17,406.205 					"/>
					<polygon fill="#79D8D8" points="626.662,610.051 685.51,508.127 744.359,610.051 					"/>
					<polygon fill="#79D8D8" points="1038.594,508.127 979.744,610.051 920.893,508.127 					"/>
					<polygon fill="#EDEB9F" points="979.744,610.051 1038.594,508.127 1097.438,610.051 					"/>
					<polygon fill="#FDF8D0" points="1156.281,508.127 1097.438,610.051 1038.594,508.127 					"/>
					<polygon fill="#F4DCBA" points="1097.438,610.051 1156.281,508.127 1215.131,610.051 					"/>
					<polygon fill="#F79266" points="1273.977,508.127 1215.131,610.051 1156.281,508.127 					"/>
				</g>
			</g>
		</g>
	</g>
</g>
<g id="Layer_12">
	<rect x="-2" y="-1" opacity="0.4" fill="#FFFFFF" enable-background="new    " width="1168" height="819.297"/>
</g>
</svg>
