<?xml version="1.0" encoding="utf-8"?>
<!-- Generator: Adobe Illustrator 16.0.0, SVG Export Plug-In . SVG Version: 6.00 Build 0)  -->
<!DOCTYPE svg PUBLIC "-//W3C//DTD SVG 1.1//EN" "http://www.w3.org/Graphics/SVG/1.1/DTD/svg11.dtd">
<svg version="1.1" xmlns="http://www.w3.org/2000/svg" xmlns:xlink="http://www.w3.org/1999/xlink" x="0px" y="0px"
	 width="224.107px" height="88.568px" viewBox="20 70 224.107 88.568"
	 xml:space="preserve">
<g id="Layer_10">
	<g id="mPcJoV_1_">
		<g>
			<path fill-rule="evenodd" clip-rule="evenodd" fill="#667184" d="M139.971,91.189c-0.729,0.531-1.438,0.938-2.033,1.499
				c-3.309,3.132-6.576,6.314-9.883,9.448c-1.473,1.396-2.092,1.151-2.684-0.859c-0.42-1.421-0.062-2.703,0.441-3.963
				c0.528-1.328,1.158-2.606,1.693-3.931c0.345-0.852,0.643-1.733,0.88-2.628c0.304-1.148,0.691-1.364,1.677-0.796
				c1.654,0.956,2.266,2.862,1.541,4.779c-0.193,0.516-0.357,1.043-0.537,1.567c0.1,0.077,0.197,0.155,0.295,0.234
				c1.268-1.004,2.521-2.033,3.809-3.011c2.064-1.568,4.123-3.151,6.25-4.61c0.414-0.283,1.129-0.032,1.705-0.026
				c-0.113,0.497-0.1,1.102-0.359,1.473c-0.705,1.004-1.473,1.971-2.312,2.841c-2.27,2.356-4.762,4.485-6.846,7.023
				c-2.211,2.694-4.18,5.679-4.896,9.412c0.877-1.576,1.744-3.157,2.627-4.729c1.297-2.312,3.09-4.027,5.271-5.252
				c0.477-0.268,0.994-0.49,1.518-0.604c1.477-0.321,2.539,0.644,2.266,2.268c-0.436,2.593-1.102,5.138-1.639,7.711
				c-0.398,1.906-0.761,3.821-1.12,5.739c-0.382,2.042-0.706,4.097-1.132,6.127c-0.127,0.607-0.498,1.61-0.793,1.626
				c-0.662,0.035-1.365-0.39-2.014-0.721c-0.245-0.123-0.383-0.506-0.793-1.084c-1.108,2.326-2.131,4.474-3.156,6.621
				c0.068,0.11,0.135,0.219,0.203,0.329c1.182-0.693,2.33-1.479,3.559-2.058c1.9-0.896,3.803-1.931,5.803-2.394
				c2.168-0.502,3.297,1.405,2.428,3.72c-0.396,1.062-0.889,2.081-1.357,3.108c-0.52,1.134-0.252,1.915,0.75,2.532
				c1.166,0.718,2.164,1.665,2.562,3.156c0.078,0.285,0.012,0.618,0.012,0.93c-0.253-0.033-0.562,0.027-0.75-0.113
				c-1.07-0.806-2.184-1.568-3.14-2.523c-0.678-0.68-1.126-0.771-1.702,0.011c-2.105,2.85-2.312,1.722-4.059,0.042
				c-0.48-0.463-0.844-1.11-1.169-1.731c-0.757-1.455-0.262-2.786,1.267-2.981c0.896-0.116,1.893,0.197,2.775,0.534
				c0.82,0.312,1.297,0.263,1.639-0.682c0.443-1.222,1.074-2.374,1.416-3.625c0.334-1.216-0.094-1.612-1.198-1.271
				c-2.748,0.852-4.966,2.759-7.127,4.677c-2.474,2.195-4.525,4.862-6.315,7.771c-0.424,0.686-1.009,1.294-1.631,1.759
				c-0.273,0.206-0.932,0.13-1.211-0.108c-0.277-0.238-0.475-0.892-0.389-1.275c0.162-0.727,0.504-1.42,0.854-2.073
				c2.66-4.953,5.32-9.904,8.028-14.825c0.734-1.337,0.801-2.635,0.525-4.148c-0.254-1.39-0.301-2.879-0.151-4.288
				c0.179-1.707,1.487-2.736,2.612-2.353c1.584,0.538,2.562,2.565,2.004,4.151c-0.418,1.191-0.875,2.366-1.248,3.575
				c-0.211,0.682-0.193,1.362,0.793,1.592c0.357-1.666,0.73-3.297,1.051-4.938c0.711-3.646,1.416-7.294,2.06-10.955
				c0.097-0.544-0.159-1.164-0.252-1.75c-0.442,0.164-0.98,0.2-1.31,0.509c-2.877,2.715-5.369,5.766-6.722,9.771
				c-1.04,3.075-2.112,6.136-3.134,9.219c-0.195,0.589-0.113,1.307-0.363,1.854c-0.268,0.591-0.773,1.05-1.175,1.567
				c-0.507-0.51-1.19-0.927-1.472-1.559c-0.26-0.591-0.215-1.438-0.093-2.128c1.169-6.647,3.12-13.002,6.989-18.331
				c2.479-3.413,5.426-6.412,8.163-9.596c0.237-0.275,0.495-0.533,0.732-0.812C140.035,91.595,139.994,91.482,139.971,91.189z
				 M135.311,131.255c-0.121,0.206-0.24,0.413-0.357,0.619c0.387,0.279,0.762,0.59,1.178,0.804c0.064,0.034,0.314-0.365,0.48-0.565
				C136.176,131.827,135.744,131.541,135.311,131.255z"/>
			<path fill-rule="evenodd" clip-rule="evenodd" fill="#667184" d="M215.531,113.497c3.055-0.875,5.898-1.691,8.744-2.506
				c0.013-0.11,0.023-0.222,0.036-0.334c-0.868-0.3-1.737-0.602-2.789-0.965c0.624-0.479,1.626-0.623,0.868-1.73
				c-0.441-0.646-0.75-0.763-1.258-0.147c-0.771,0.933-1.576,1.835-2.088,2.428c-0.804-0.078-1.32-0.068-1.807-0.2
				c-0.293-0.079-0.707-0.327-0.771-0.588c-0.124-0.499-0.035-1.063-0.037-1.599c0.301,0.016,0.615,0.096,0.9,0.031
				c0.4-0.088,0.891-0.166,1.15-0.458c0.617-0.695,1.103-1.532,1.678-2.276c0.449-0.576,0.884-1.184,1.756-0.865
				c0.207,0.075,0.617-0.264,0.828-0.52c0.441-0.535,0.848-1.116,1.195-1.729c0.195-0.346,0.245-0.794,0.361-1.197
				c-0.498,0.008-1.053-0.136-1.48,0.058c-0.666,0.298-1.25,0.826-1.869,1.257c-0.092-0.133-0.188-0.263-0.283-0.394
				c0.293-0.356,0.584-0.714,0.969-1.185c-0.413-0.213-0.763-0.395-1.438-0.745c0.727-0.362,1.268-0.893,1.743-0.829
				c1.974,0.266,3.106-1.186,4.372-2.384c0.406-0.386,0.719-0.894,1.107-1.308c0.695-0.739,0.904-0.695,1.625,0.248
				c-1.512,1.247-3.031,2.499-4.664,3.846c0.909,0.726,1.512,1.253,2.422,0.437c0.734-0.661,1.436-0.131,1.359,1.088
				c-0.066,1.097-0.383,2.173-0.525,3.267c-0.064,0.476-0.1,1.044,0.076,1.455c0.436,1.021,0.227,1.806-0.477,2.525
				c-0.256,0.26-0.578,0.5-0.713,0.827c-0.148,0.356-0.116,0.806-0.164,1.214c0.344-0.185,0.843-0.27,1.002-0.571
				c0.866-1.659,1.584-3.415,2.479-5.054c1.191-2.188,2.553-4.264,3.727-6.462c0.348-0.652,0.304-1.558,0.439-2.347
				c-0.698,0.116-1.415,0.159-2.092,0.365c-0.771,0.23-1.508,0.606-2.295,0.791c0.663-1.176,3.91-2.551,4.916-2.134
				c0.297,0.124,0.665,0.837,0.58,1.133c-0.318,1.122-0.617,2.36-1.276,3.231c-2.028,2.689-3.268,5.866-4.776,8.876
				c-0.221,0.443-0.203,1.034-0.294,1.557c0.434,0.003,0.876,0.075,1.3-0.001c1.824-0.331,3.635-0.777,5.468-1.029
				c0.9-0.124,2.239-0.423,2.505,0.812c0.261,1.21-0.877,1.916-1.863,2.247c-2.876,0.961-5.766,1.865-8.664,2.745
				c-1.852,0.563-3.785,0.862-5.367,2.216c-0.152,0.129-0.316,0.246-0.455,0.388c-0.039,0.04-0.018,0.156-0.038,0.427
				c1.276-0.116,2.522-0.229,3.769-0.348c0.232-0.021,0.498-0.156,0.684-0.072c0.588,0.268,1.191,0.553,1.672,0.989
				c0.092,0.083-0.285,0.938-0.559,1.347c-0.758,1.126-1.705,1.947-3.043,2.12c-0.352,0.047-0.672,0.393-0.938,0.894
				c0.234,0.052,0.479,0.177,0.703,0.143c1.908-0.295,3.811-0.697,5.727-0.899c0.97-0.101,1.987,0.05,2.95,0.265
				c0.706,0.157,1.415,0.758,1.085,1.634c-0.263,0.689-0.903,1.301-1.51,1.698c-0.355,0.233-1.055,0.153-1.457-0.085
				c-1.842-1.101-3.61-0.344-5.359,0.193c-2.455,0.756-2.471,0.817-2.172,3.704c0.205,1.987,0.404,3.986,0.803,5.932
				c0.301,1.475-0.404,2.362-1.145,3.264c-0.172,0.208-0.742,0.154-1.076,0.037c-2.493-0.873-5.021-1.662-7.438-2.749
				c-1.443-0.648-2.705-1.788-4.048-2.708c0.062-0.146,0.124-0.29,0.187-0.435c0.229,0.03,0.477,0.004,0.681,0.101
				c0.747,0.351,1.46,0.798,2.219,1.104c2.132,0.854,4.267,1.694,6.425,2.46c1.252,0.444,2.018-0.22,2.027-1.686
				c0.012-2.303-0.01-4.607-0.045-6.909c-0.014-1.064-0.469-1.406-1.49-0.931c-1.739,0.813-3.406,1.812-5.139,2.641
				c-1.303,0.624-2.637,1.203-4.002,1.626c-1.447,0.446-2.726-0.279-3.406-1.699c-0.398-0.836-0.135-1.312,0.689-1.572
				c1.578-0.5,3.133-1.096,4.697-1.646c1.73-0.61,3.444-1.287,5.199-1.803c1.611-0.476,3.17-0.85,4.203-2.573
				c0.637-1.062,1.597-1.89,2.621-3.064c-1.246,0.32-2.212,0.636-3.201,0.802c-1,0.168-2.023,0.189-3.141,0.284
				c0.055-1.417,0.729-2.055,1.494-2.54c1.441-0.912,2.889-1.831,4.4-2.581c0.867-0.43,1.038-1.093,0.658-1.786
				c-0.192-0.349-1.016-0.568-1.432-0.424c-2.244,0.78-4.494,1.582-6.66,2.591c-2.521,1.176-2.914,0.489-3.008-2.688
				c-0.061-2.098,0.312-4.211,0.492-6.344c0.619,0.427,0.636,0.425,0.754,3.683C215.572,110.717,215.531,112.062,215.531,113.497z
				 M237.068,109.765c-0.032-0.183-0.062-0.365-0.095-0.549c-0.661,0.057-1.336,0.044-1.982,0.184
				c-1.696,0.37-3.373,0.861-5.075,1.196c-1.067,0.211-2.012,0.547-2.6,1.627c-0.146,0.268-0.232,0.577-0.345,0.868
				c0.308,0.061,0.638,0.229,0.923,0.163c1.316-0.305,2.662-0.552,3.92-1.049C233.601,111.498,235.321,110.587,237.068,109.765z
				 M227.092,101.117c-0.131-0.071-0.262-0.142-0.395-0.211c-0.174,0.275-0.35,0.551-0.527,0.825
				c-0.926,1.437-0.678,3.089-0.656,4.68c0.006,0.39,0.357,0.771,0.551,1.156c0.246-0.454,0.662-0.89,0.702-1.364
				c0.093-1.127-0.03-2.273,0.009-3.409C226.797,102.231,226.98,101.675,227.092,101.117z M224.574,107.562c0-1.488,0-2.822,0-4.266
				C222.5,105.047,222.914,106.074,224.574,107.562z M220.904,106.055c-0.16-0.113-0.321-0.226-0.482-0.338
				c-0.408,0.742-0.812,1.485-1.221,2.23c0.143,0.098,0.283,0.197,0.426,0.296C220.051,107.514,220.479,106.784,220.904,106.055z"/>
			<path fill-rule="evenodd" clip-rule="evenodd" fill="#667184" d="M65.684,155.618c-11.302-0.194-20.863-4.485-28.238-13.864
				c-5.727-7.285-8.348-15.868-7.44-25.581c1.024-10.936,5.999-19.288,14.017-25.524c6.871-5.344,14.635-7.855,22.957-7.29
				c14.635,0.994,26.043,8.129,31.91,23.448c4.861,12.688,2.666,24.708-5.434,35.111C86.174,151.268,76.604,155.408,65.684,155.618z
				 M67.057,84.47c-9.654,0.068-17.039,2.61-23.477,8.074c-7.885,6.693-12.508,15.474-12.56,26.605
				c-0.06,12.512,5.261,22.078,14.575,28.765c10.007,7.188,20.92,8.506,32.187,4.202c9.303-3.553,16.322-10.218,20.069-20.447
				c4.131-11.277,2.775-22.039-3.754-31.739C87.035,89.436,77.173,84.813,67.057,84.47z"/>
			<path fill-rule="evenodd" clip-rule="evenodd" fill="#667184" d="M115.148,124.117c-0.391,0.334-0.629,0.468-0.783,0.678
				c-1.11,1.516-2.178,3.072-3.316,4.56c-0.389,0.51-0.924,0.899-1.432,1.277c-0.186,0.139-0.564,0.201-0.721,0.084
				c-0.16-0.121-0.275-0.548-0.213-0.769c0.277-0.967,0.508-1.984,0.975-2.837c1.413-2.579,3.035-5.022,4.375-7.645
				c1.547-3.027,2.886-6.186,4.305-9.292c0.119-0.263,0.17-0.565,0.221-0.855c0.016-0.105-0.062-0.233-0.117-0.414
				c-0.709,0.125-1.404,0.342-2.105,0.355c-1.825,0.036-2.516-1.323-1.539-3.048c2.027-3.572,4.117-7.103,6.141-10.678
				c0.592-1.045,1.153-2.141,1.528-3.294c0.192-0.591-0.03-1.362-0.114-2.043c-0.162-1.33-0.508-2.657-0.503-3.983
				c0.003-1.545,0.774-1.837,2.005-0.95c1.672,1.208,2.816,5.298,1.016,8.063c-2.194,3.372-4.135,6.944-6.174,10.438
				c-0.115,0.192-0.129,0.452-0.227,0.823c0.368-0.056,0.619-0.079,0.865-0.133c1.709-0.38,3.195,1.043,2.807,2.921
				c-0.295,1.425-0.901,2.801-1.527,4.105c-0.956,1.995-2.049,3.912-3.084,5.859c-0.439,0.832-0.58,1.496,0.176,2.365
				c1.661,1.915,1.395,4.314,0.934,6.646c-0.625,3.136-0.928,6.293-0.772,9.499c0.057,1.204,0.208,2.415,0.139,3.61
				c-0.054,0.868-0.479,1.618-1.429,1.742c-0.998,0.134-1.586-0.525-1.834-1.4c-0.232-0.819-0.277-1.751-0.224-2.619
				c0.239-3.854,0.548-7.702,0.808-11.553C115.355,125.207,115.229,124.769,115.148,124.117z"/>
			<path fill-rule="evenodd" clip-rule="evenodd" fill="#667184" d="M162.975,120.987c-0.693-0.812-1.35-1.524-1.949-2.295
				c-0.682-0.876-1.255-0.936-1.982-0.016c-0.463,0.588-1.113,0.995-1.68,1.482c-0.068-0.093-0.137-0.186-0.205-0.277
				c0.473-0.746,0.9-1.533,1.432-2.224c0.713-0.927,0.652-1.777,0.139-2.794c-0.48-0.954-0.924-1.985-1.128-3.043
				c-0.126-0.653,0.032-1.656,0.431-2.054c0.277-0.279,1.33-0.014,1.768,0.377c1.107,0.988,2.061,2.185,3.174,3.404
				c1.254-3.472,2.57-7.112,3.992-11.051c-0.616,0.053-1.221-0.071-1.658,0.172c-1.744,0.97-3.482,1.977-5.137,3.121
				c-1.335,0.922-2.508,2.124-3.822,3.09c-1.5,1.102-1.809,1.979-1.062,3.815c0.233,0.582,0.526,1.143,0.836,1.682
				c1.109,1.929,0.441,3.796-0.199,5.625c-0.252,0.721-0.797,0.485-1.031-0.062c-0.242-0.562-0.322-1.214-0.45-1.833
				c-0.384-1.891-0.771-3.783-1.118-5.683c-0.061-0.33-0.025-0.945,0.123-1.015c0.848-0.396,0.697-1.116,0.615-1.835
				c-0.16-1.369,0.258-2.46,1.342-3.149c1.801-1.149,3.586-2.342,5.459-3.332c1.799-0.951,3.686-1.704,5.562-2.465
				c0.475-0.192,1.07-0.186,1.58-0.083c1.141,0.229,1.494,0.803,1.103,1.98c-0.659,1.977-1.552,3.863-2.154,5.859
				c-0.865,2.861-1.569,5.782-2.319,8.684C164.279,118.438,164.314,119.988,162.975,120.987z"/>
			<path fill-rule="evenodd" clip-rule="evenodd" fill="#667184" d="M184.091,118.973c-1.013,0.793-2.048,1.559-3.032,2.39
				c-0.766,0.646-1.461,1.395-2.213,2.06c-0.654,0.579-1.047,0.319-1.428-0.47c-0.396-0.813-0.156-1.21,0.508-1.439
				c2.652-0.91,4.676-2.96,6.74-4.817c0.85-0.764,1.133-2.419,1.471-3.731c1.363-5.312,1.764-10.787,2.097-16.267
				c0.013-0.211-0.075-0.44-0.026-0.634c0.175-0.704,0.223-1.78,0.629-1.993c0.469-0.247,1.396,0.09,1.88,0.515
				c0.357,0.312,0.497,1.193,0.429,1.779c-0.137,1.219-0.529,2.401-0.723,3.616c-0.401,2.512-0.674,5.051-1.127,7.551
				c-0.398,2.199-0.967,4.36-1.461,6.538c-0.034,0.157-0.051,0.32-0.104,0.642c0.32-0.051,0.584-0.023,0.781-0.139
				c1.193-0.695,2.372-1.426,3.555-2.144c0.996-0.604,1.012-0.964,0.086-1.689c-0.33-0.26-0.637-0.558-0.988-0.87
				c1.145-0.799,4.277-0.261,5.49,0.961c-1.07,0.735-2.094,1.456-3.129,2.147c-1.885,1.255-3.807,2.442-5.648,3.768
				c-0.535,0.385-1.051,1.074-1.236,1.739c-1.09,3.933-3.273,7.132-5.486,10.317c-1.238,1.783-4.805,2.347-6.232,1.02
				c-0.189-0.177-0.412-0.469-0.4-0.693c0.008-0.168,0.361-0.432,0.576-0.449c3.693-0.288,6.01-2.745,7.812-6.016
				c0.422-0.765,0.84-1.534,1.213-2.329c0.154-0.33,0.185-0.731,0.271-1.101C184.293,119.146,184.193,119.059,184.091,118.973z"/>
			<path fill-rule="evenodd" clip-rule="evenodd" fill="#667184" d="M173.749,146.939c-0.209-0.392-0.438-0.771-0.62-1.177
				c-0.189-0.424-0.535-0.946-0.434-1.288c0.102-0.329,0.67-0.655,1.054-0.688c2.196-0.178,2.271-0.134,3.161,0.588
				c1.594-0.947,3.206-0.491,4.875-0.358c1.604,0.126,3.264-0.746,4.858,0.273c1.206-0.795,2.468-0.687,3.753-0.247
				c0.175,0.061,0.36,0.138,0.537,0.127c2.059-0.126,4.117-0.29,6.174-0.375c0.316-0.013,0.891,0.286,0.924,0.515
				c0.109,0.765,0.269,1.705-0.03,2.319c-0.706,1.45-0.741,1.753,0.228,2.869c0.232,0.267,0.254,0.933,0.148,1.344
				c-0.184,0.725-0.164,1.756-1.191,1.776c-1.777,0.034-3.555,0.041-5.331-0.02c-0.302-0.011-0.743-0.361-0.839-0.661
				c-0.098-0.314,0.041-0.965,0.264-1.105c0.725-0.461,0.713-1.138,0.697-1.878c-0.014-0.726,0.111-1.482-0.043-2.167
				c-0.11-0.489-0.514-1.001-0.914-1.267c-0.196-0.129-0.779,0.186-1.018,0.472c-0.327,0.39-0.533,0.926-0.723,1.431
				c-0.523,1.378-0.947,2.805-1.543,4.142c-0.232,0.519-0.797,1.111-1.258,1.165c-0.36,0.041-0.947-0.613-1.168-1.104
				c-0.704-1.564-1.215-3.237-1.947-4.783c-0.277-0.583-0.969-1.312-1.453-1.297c-0.812,0.022-1.073,0.896-0.98,1.824
				c0.062,0.632-0.061,1.293,0.033,1.916c0.076,0.488,0.377,0.93,0.545,1.404c0.146,0.408,0.424,0.899,0.318,1.231
				c-0.096,0.315-0.598,0.635-0.941,0.667c-0.923,0.086-1.855,0.062-2.78-0.013c-0.286-0.022-0.712-0.288-0.786-0.545
				c-0.1-0.341-0.045-0.979,0.166-1.147c1.406-1.116,0.584-2.685,0.666-4.021c0.033-0.584-0.604-1.218-0.909-1.783
				c-1.294,0.563-1.614,1.438-1.503,2.699c0.104,1.185,0.072,2.394-0.008,3.582c-0.033,0.478-0.285,1.24-0.566,1.322
				c-0.428,0.123-1.105-0.075-1.436-0.42c-0.854-0.897-1.574-1.948-2.35-2.938c-0.133,0.072-0.264,0.145-0.396,0.217
				c0.166,0.388,0.338,0.769,0.494,1.159c0.176,0.429,0.549,0.949,0.442,1.271c-0.108,0.33-0.679,0.605-1.073,0.659
				c-0.722,0.098-1.471,0.072-2.193-0.028c-0.279-0.037-0.652-0.365-0.742-0.65c-0.09-0.295,0.021-0.932,0.203-1.021
				c1.008-0.492,0.805-1.428,0.812-2.299c0.006-0.641,0.176-1.375-0.053-1.895c-0.242-0.552-0.865-0.9-1.322-1.336
				c-0.354,0.48-0.922,0.916-1.021,1.454c-0.205,1.116-0.049,2.311-0.24,3.43c-0.32,1.876-1.697,2.7-3.865,2.489
				c-1.672-0.162-2.591-1.18-2.703-3.047c-0.043-0.722-0.016-1.448-0.023-2.176c-0.007-0.751,0.133-1.526-0.701-1.985
				c-0.209-0.116-0.328-0.812-0.223-1.135c0.101-0.297,0.555-0.622,0.859-0.628c1.109-0.02,2.224,0.127,3.338,0.134
				c0.758,0.006,1.518-0.145,2.279-0.171c1.367-0.049,2.729,0.372,4.109,0.01c0.887-0.233,1.525,0.254,2.062,1.055
				c0.567,0.843,1.246,1.597,1.877,2.392C173.447,147.129,173.598,147.033,173.749,146.939z M168.262,151.593
				c1.199,0.769,2.596,0.685,3.232-0.112c-1.713-0.836-0.799-2.38-0.852-3.729c1.086,1.136,2.018,2.364,3.002,3.535
				c0.314,0.375,0.778,0.596,1.174,0.888c0.127-0.488,0.289-0.971,0.377-1.469c0.361-2.007-0.887-4.335,1.068-6.178
				c-0.949-0.17-1.841-0.191-2.729-0.136c-0.077,0.006-0.232,0.704-0.183,0.733c1.604,0.942,0.5,2.468,0.714,3.734
				c-1.139-1.204-2.129-2.487-3.131-3.759c-0.749-0.946-1.592-1.071-2.818-0.272c1.438,0.663,1.421,1.955,1.33,3.287
				C169.361,149.364,169.877,150.809,168.262,151.593z M191.479,144.697c0.086,0.188,0.109,0.364,0.188,0.396
				c1.215,0.526,0.802,1.683,0.811,2.638c0.01,1.012-0.084,2.024-0.152,3.035c-0.006,0.088-0.182,0.147-0.252,0.243
				c-0.181,0.231-0.345,0.476-0.516,0.717c0.303,0.123,0.605,0.347,0.913,0.355c1.351,0.04,2.705-0.039,4.054,0.035
				c0.936,0.053,1.23-0.528,1.351-1.354c0.04-0.263-0.062-0.552-0.099-0.828c-0.272,0.068-0.564,0.09-0.812,0.214
				c-0.58,0.288-1.117,0.766-1.717,0.885c-0.307,0.062-0.939-0.415-1.023-0.766c-0.113-0.487,0.148-1.086,0.248-1.636
				c0.506,0.18,1.014,0.352,1.514,0.542c0.207,0.077,0.481,0.327,0.586,0.254c0.186-0.13,0.32-0.429,0.375-0.686
				c0.062-0.282,0.048-0.6,0.004-0.891c-0.058-0.399-0.172-0.785-0.264-1.178c-0.303,0.182-0.59,0.425-0.913,0.531
				c-0.418,0.14-0.878,0.262-1.298,0.197c-0.145-0.022-0.311-0.638-0.291-0.971c0.021-0.374,0.262-1.058,0.366-1.048
				c0.692,0.063,1.383,0.249,2.06,0.453c0.291,0.09,0.549,0.322,0.82,0.489c0.092-0.382,0.303-0.79,0.238-1.135
				c-0.062-0.319-0.412-0.804-0.648-0.812c-1.695-0.063-3.394-0.034-5.092-0.004C191.779,144.378,191.635,144.581,191.479,144.697z
				 M166.967,144.747c-1.078-0.521-2.078-0.569-3.486,0.001c1.743,0.713,1.408,2.04,1.436,3.227c0.008,0.426,0.01,0.853-0.012,1.277
				c-0.062,1.258-0.596,1.854-1.625,1.854c-1.139,0.002-1.473-0.832-1.455-1.857c0.027-1.591-0.438-3.303,1.097-4.73
				c-1.434,0-2.544,0-3.652,0c1.298,1.053,0.925,2.453,0.96,3.72c0.021,0.636-0.086,1.334,0.113,1.897
				c0.234,0.663,0.619,1.454,1.145,1.768c2.184,1.302,4.371-0.185,4.43-2.908c0.012-0.469,0.02-0.938-0.004-1.405
				C165.861,146.503,165.849,145.443,166.967,144.747z M186.002,144.493c-1.228-0.178-2.252-0.379-3.211,0.108
				c0.494,0.947,0.959,1.709,1.308,2.533c0.604,1.427,1.112,2.9,1.71,4.33c0.126,0.3,0.461,0.678,0.703,0.682
				c0.23,0.004,0.545-0.389,0.686-0.688c0.289-0.6,0.471-1.257,0.72-1.882c0.666-1.675,1.343-3.345,2.024-5.033
				c-0.834,0-1.708,0-2.748,0c1.048,1.383,0.877,2.585-0.576,4.649C186.398,147.579,184.766,146.518,186.002,144.493z
				 M177.855,144.497c-0.076,0.105-0.151,0.211-0.227,0.316c1.391,0.721,1.125,2.006,1.113,3.204
				c-0.003,0.512,0.078,1.045-0.029,1.525c-0.125,0.558-0.439,1.061-0.622,1.605c-0.085,0.249-0.173,0.67-0.062,0.798
				c0.369,0.412,2.852,0.098,3.465-0.492c-1.57-0.619-1.039-2.045-1.062-3.255c-0.026-1.26-0.354-2.648,1.182-3.43
				c-0.092-0.09-0.182-0.182-0.273-0.272C180.179,144.497,179.018,144.497,177.855,144.497z M164.322,148.007
				c0.008,0,0.018,0,0.027,0c0-0.426,0.123-0.921-0.031-1.259c-0.213-0.46-0.639-0.801-0.973-1.192
				c-0.322,0.391-0.859,0.741-0.925,1.179c-0.139,0.908-0.116,1.88,0.026,2.791c0.061,0.397,0.602,1.003,0.889,0.981
				c0.348-0.029,0.791-0.561,0.95-0.985C164.451,149.087,164.322,148.518,164.322,148.007z M186.424,147.463
				c0.248-0.013,0.498-0.024,0.744-0.038c-0.031-0.602-0.035-1.209-0.131-1.8c-0.012-0.077-0.492-0.063-0.754-0.091
				C186.33,146.177,186.375,146.819,186.424,147.463z M195.756,150.588c0.061-0.127,0.121-0.254,0.18-0.38
				c-0.283-0.374-0.566-0.745-0.852-1.119c-0.105,0.051-0.213,0.102-0.32,0.152c0.033,0.374-0.039,0.827,0.131,1.097
				C195.023,150.543,195.457,150.512,195.756,150.588z"/>
			<path fill-rule="evenodd" clip-rule="evenodd" fill="#667184" d="M118.361,144.346c1.16-0.864,7.913-0.835,9.024,0.021
				c1.717-1.176,6.233-0.829,7.813,0.63c1.131,1.046,1.582,2.401,1.295,4.003c-0.336,1.886-1.458,3.098-3.088,3.396
				c-1.621,0.296-3.305,0.232-4.961,0.225c-0.729-0.002-1.217-1.167-0.668-1.563c1.238-0.899,0.755-2.164,0.871-3.322
				c0.115-1.119-0.125-2.013-1.229-2.467c-0.888,0.372-1.295,1.104-1.167,2.232c0.053,0.463,0.012,0.938,0.006,1.408
				c-0.049,3.185-2.506,4.897-5.157,3.586c-1.016-0.503-1.536-1.404-1.582-2.615c-0.038-1.023,0.05-2.058-0.056-3.068
				c-0.045-0.456-0.423-0.871-0.654-1.313c-0.533,0.721-0.958,1.144-1.203,1.666c-0.214,0.455-0.193,1.037-0.342,1.54
				c-0.143,0.479-0.295,1.235-0.576,1.316c-0.398,0.117-0.919-0.269-1.385-0.449c-0.25-0.1-0.492-0.217-0.738-0.327
				c-0.029,0.354-0.146,0.738-0.061,1.055c0.064,0.234,0.472,0.336,0.58,0.577c0.156,0.351,0.311,0.812,0.223,1.148
				c-0.066,0.26-0.498,0.553-0.781,0.572c-1,0.069-2.01,0.082-3.01,0.006c-0.818-0.061-1.25-1.164-0.619-1.641
				c0.912-0.69,0.771-1.585,0.74-2.488c-0.036-1.085,0.322-2.242-0.805-3.098c-0.562-0.426-0.104-1.555,0.639-1.58
				c1.932-0.061,3.862-0.041,5.793,0.01C117.609,143.815,117.945,144.134,118.361,144.346z M127.938,151.562
				c0.094,0.125,0.188,0.247,0.281,0.371c1.654,0,3.332,0.181,4.961-0.051c1.713-0.241,2.86-1.902,2.885-3.63
				c0.025-1.644-1.051-3.359-2.703-3.664c-1.607-0.295-3.283-0.142-4.928-0.162c-0.094-0.001-0.191,0.214-0.363,0.423
				c1.463,0.711,1.123,2.09,1.113,3.32C129.174,149.429,129.605,150.863,127.938,151.562z M119.055,144.526
				c-0.062,0.093-0.127,0.187-0.193,0.279c1.488,0.724,1.119,2.089,1.152,3.315c0.016,0.639-0.018,1.284,0.063,1.913
				c0.132,1.054,0.647,1.814,1.61,2.112c2.383,0.736,3.955-0.57,4.008-3.282c0.029-1.462-0.453-3.085,1.1-4.078
				c-1.1-0.688-2.486-0.622-3.031-0.02c0.32,0.51,0.832,0.975,0.895,1.504c0.129,1.086,0.059,2.211-0.004,3.315
				c-0.062,1.107-0.73,1.542-1.662,1.507c-0.888-0.032-1.37-0.62-1.334-1.564c0.066-1.661-0.603-3.49,1.167-5.002
				C121.336,144.526,120.197,144.526,119.055,144.526z M111.237,151.62c0.005,0.161,0.011,0.321,0.016,0.482
				c0.81,0,1.622,0.032,2.432-0.014c0.354-0.021,0.702-0.206,1.053-0.317c-0.188-0.276-0.493-0.529-0.544-0.833
				c-0.115-0.711-0.107-1.443-0.15-2.166c0.498,0.022,1.015-0.036,1.488,0.098c0.318,0.09,0.574,0.451,0.859,0.689
				c0.109-0.464,0.234-0.925,0.325-1.394c0.04-0.206,0.056-0.438,0.007-0.636c-0.074-0.303-0.215-0.586-0.326-0.877
				c-0.219,0.133-0.428,0.308-0.662,0.39c-0.51,0.174-1.034,0.302-1.553,0.447c-0.088-0.559-0.345-1.181-0.203-1.654
				c0.09-0.296,0.811-0.566,1.197-0.499c0.552,0.098,1.055,0.522,1.586,0.79c0.223,0.113,0.475,0.27,0.691,0.235
				c0.115-0.019,0.238-0.398,0.258-0.628c0.071-0.826-0.119-1.424-1.041-1.414c-1.582,0.02-3.164-0.021-4.746,0.002
				c-0.251,0.004-0.5,0.205-0.814,0.345C112.683,146.39,112.683,149.911,111.237,151.62z M124.175,147.973c0,0-0.015,0-0.024-0.001
				c0-0.469,0.135-1.013-0.035-1.385c-0.192-0.421-0.629-0.886-1.016-0.953c-0.264-0.047-0.849,0.52-0.893,0.871
				c-0.119,1.003-0.115,2.048,0.004,3.052c0.045,0.372,0.572,0.977,0.829,0.947c0.38-0.046,0.863-0.486,1.03-0.894
				C124.262,149.143,124.154,148.524,124.175,147.973z"/>
			<path fill-rule="evenodd" clip-rule="evenodd" fill="#667184" d="M162.629,128.217c0.781-0.699,1.312-1.173,1.84-1.646
				c-0.051-0.112-0.101-0.223-0.152-0.335c-0.607,0.159-1.209,0.356-1.822,0.47c-3.254,0.598-5.979,2.29-8.508,4.595
				c-2.2,2.006-1.854,1.965-3.742-0.464c-0.432-0.557-0.713-1.669-0.499-2.291c0.167-0.491,1.179-0.688,1.847-0.903
				c1.678-0.547,3.371-1.034,5.064-1.534c2.516-0.745,5.035-1.486,7.557-2.218c0.816-0.235,1.643-0.461,2.475-0.624
				c0.403-0.08,0.908-0.163,1.235,0.03c0.642,0.381,1.188,0.954,1.774,1.446c-0.492,0.488-0.916,1.146-1.493,1.431
				c-1.571,0.779-3.206,1.405-4.819,2.077C163.26,128.303,163.096,128.242,162.629,128.217z"/>
			<path fill-rule="evenodd" clip-rule="evenodd" fill="#667184" d="M200.443,129.711c-0.91,0.363-1.799,0.854-2.738,1.057
				c-1.349,0.29-2.736,0.37-4.107,0.536c-0.907,0.107-2.338-0.778-2.701-1.834c-1.076-3.142-2.109-6.302-3.109-9.474
				c-0.176-0.558-0.104-1.211-0.145-1.821c0.115-0.076,0.231-0.154,0.347-0.229c0.428,0.416,0.948,0.763,1.269,1.263
				c1.051,1.631,1.917,3.423,3.074,4.949c0.937,1.237,2.085,2.376,3.335,3.194c1.093,0.717,2.458,0.921,3.699,1.364
				c0.347,0.122,0.681,0.282,1.021,0.425C200.404,129.33,200.424,129.521,200.443,129.711z"/>
			<path fill-rule="evenodd" clip-rule="evenodd" fill="#667184" d="M145.33,151.603c0.584-0.789,1.177-1.23,1.232-1.741
				c0.129-1.17,0.031-2.379-0.066-3.562c-0.018-0.226-0.451-0.401-0.681-0.616c-0.585-0.541-0.53-1.439,0.103-1.802
				c0.736-0.424,2.379-0.058,2.963,0.672c0.701,0.879,1.394,1.768,2.09,2.652c0.137-0.08,0.273-0.162,0.41-0.245
				c-0.174-0.388-0.354-0.773-0.52-1.166c-0.189-0.46-0.549-0.959-0.486-1.376c0.042-0.274,0.685-0.555,1.087-0.619
				c0.642-0.104,1.319-0.105,1.962-0.006c0.363,0.058,0.914,0.35,0.975,0.639c0.08,0.386-0.223,0.877-0.385,1.313
				c-0.174,0.471-0.518,0.921-0.541,1.396c-0.072,1.403,0.027,2.818-0.049,4.222c-0.027,0.47-0.303,1.218-0.596,1.304
				c-0.42,0.126-1.082-0.086-1.422-0.424c-0.711-0.707-1.272-1.595-1.91-2.396c-0.162-0.203-0.376-0.358-0.566-0.535
				c-0.113,0.077-0.227,0.156-0.341,0.233c0.196,0.383,0.407,0.756,0.579,1.149c0.188,0.424,0.555,0.954,0.447,1.276
				c-0.111,0.335-0.695,0.657-1.076,0.663c-1.038,0.02-2.076-0.133-3.076-0.347c-0.651,0.125-1.302,0.337-1.959,0.354
				c-1.863,0.049-3.73,0.049-5.594-0.009c-0.354-0.011-0.875-0.293-1-0.606c-0.129-0.329,0.062-0.874,0.219-1.272
				c0.77-1.926,1.635-3.809,2.33-5.765c0.199-0.567,0.135-1.202,0.863-1.227c0.756-0.025,1.582-0.222,1.963,0.857
				c0.533,1.51,1.043,3.033,1.648,4.509C144.254,149.911,144.756,150.604,145.33,151.603z M151.859,148.758
				c-0.088,0.049-0.174,0.098-0.26,0.145c-0.992-1.271-2.021-2.512-2.967-3.825c-0.577-0.805-1.305-0.808-2.082-0.728
				c-0.161,0.017-0.438,0.196-0.439,0.308c-0.002,0.21,0.129,0.44,0.246,0.63c0.246,0.396,0.779,0.811,0.74,1.153
				c-0.211,1.776,0.82,3.844-1.016,5.223c1.024,0.692,2.408,0.631,3.089-0.134c-1.699-0.9-0.823-2.47-0.786-3.93
				c0.241,0.072,0.281,0.302,0.4,0.457c0.873,1.137,1.735,2.284,2.656,3.372c0.283,0.334,0.738,0.488,1.113,0.728
				c0.113-0.419,0.281-0.83,0.33-1.258c0.059-0.502-0.029-1.026,0.023-1.53c0.165-1.593-0.653-3.427,1.068-4.589
				c-1.156-0.708-2.512-0.62-3.139,0.171C152.602,145.821,151.574,147.455,151.859,148.758z M142.947,152.121
				c0.008,0.034,0.012,0.067,0.02,0.102c0.51-0.117,1.021-0.235,1.531-0.351c-0.213-0.448-0.436-0.889-0.637-1.341
				c-0.154-0.344-0.293-0.695-0.421-1.052c-0.528-1.462-1.006-2.949-1.603-4.377c-0.152-0.364-0.652-0.701-1.025-0.748
				c-0.215-0.026-0.578,0.498-0.734,0.852c-0.883,2.007-1.74,4.03-2.556,6.073c-0.072,0.18,0.173,0.722,0.349,0.772
				c0.437,0.127,0.92,0.107,1.377,0.064c0.284-0.026,0.559-0.204,0.838-0.313c-0.133-0.268-0.287-0.526-0.389-0.806
				c-0.105-0.284-0.299-0.665-0.208-0.869c0.161-0.367,0.491-0.861,0.784-0.889c0.472-0.047,1.104,0.093,1.418,0.437
				c0.219,0.235,0.182,1.062-0.031,1.417c-0.475,0.806-0.17,0.97,0.48,1.023C142.407,152.139,142.678,152.121,142.947,152.121z"/>
			<path fill-rule="evenodd" clip-rule="evenodd" fill="#667184" d="M212.532,147.615c0.017,0.082,0.013,0.18,0.056,0.24
				c1.203,1.785,1.235,3.004,0.105,4.124c-1.107,1.097-3.566,1.119-4.625,0.041c-0.834-0.843-0.533-2.706,0.545-3.382
				c-0.012-0.082,0.002-0.185-0.039-0.242c-1.117-1.623-1.145-2.834-0.078-3.939c1.023-1.062,3.379-1.062,4.398,0.004
				C213.543,145.137,213.375,146.604,212.532,147.615z M208.434,149.129c-0.307,1.229-0.689,2.275,0.383,2.688
				c0.852,0.33,1.928,0.432,2.786,0.168c1.637-0.506,1.897-2.51,0.576-3.697c-0.567-0.51-1.239-0.871-1.811-1.377
				c-0.304-0.269-0.542-0.676-0.69-1.074c-0.037-0.098,0.428-0.611,0.617-0.581c0.416,0.064,0.828,0.313,1.192,0.573
				c0.167,0.118,0.18,0.596,0.323,0.635c0.268,0.07,0.58-0.059,0.873-0.104c-0.123-0.545-0.084-1.274-0.395-1.597
				c-0.951-0.982-2.941-0.699-3.658,0.39c-0.756,1.147-0.375,2.364,1.041,3.384c0.514,0.37,1.07,0.707,1.486,1.186
				c0.553,0.636,0.273,1.432-0.508,1.394c-0.451-0.022-0.916-0.458-1.314-0.793C209.041,150.071,208.844,149.682,208.434,149.129z"
				/>
			<path fill-rule="evenodd" clip-rule="evenodd" fill="#667184" d="M203.468,151.964c-0.458,0.523-3.447,1.039-4.201,0.468
				c-0.617-0.467-0.526-1.034-0.052-1.614c0.828-1.009,0.802-4.155,0.047-5.178c-0.23-0.311-0.383-0.867-0.295-1.231
				c0.068-0.287,0.559-0.644,0.857-0.639c1.383,0.016,2.793-0.011,4.144,0.271c1.978,0.412,2.509,2.158,1.431,4.054
				c-0.156,0.277-0.137,0.889,0.041,1.147c0.391,0.568,0.981,0.964,1.389,1.52c0.229,0.312,0.408,0.844,0.326,1.197
				c-0.064,0.286-0.57,0.665-0.85,0.634C205.439,152.497,204.592,152.229,203.468,151.964z M206.889,151.813
				c-1.035-1.209-1.889-2.206-2.777-3.243c0.35-0.359,0.619-0.588,0.84-0.869c0.721-0.928,0.596-2.565-0.404-2.793
				c-1.631-0.372-3.354-0.266-5.036-0.349c-0.019-0.001-0.04,0.148-0.083,0.315c1.395,0.698,0.884,2.113,0.914,3.312
				c0.033,1.255,0.377,2.648-1.075,3.413c1.2,0.704,3.06,0.58,3.35,0.192c-0.263-1.017-0.47-1.818-0.677-2.62
				C203.754,149.887,204.18,152.775,206.889,151.813z"/>
			<path fill-rule="evenodd" clip-rule="evenodd" fill="#667184" d="M231.961,143.76c0.963,0,1.932-0.07,2.885,0.033
				c0.422,0.046,1.046,0.357,1.152,0.709c0.104,0.342-0.278,0.928-0.539,1.334c-0.644,0.999-1.418,1.904-1.982,2.95
				c-0.328,0.61-0.303,1.347,0.361,1.936c0.268,0.237,0.379,0.899,0.311,1.316c-0.041,0.242-0.566,0.52-0.893,0.549
				c-0.844,0.08-1.704,0.104-2.545,0.009c-0.393-0.045-0.955-0.333-1.072-0.668c-0.109-0.313,0.16-0.997,0.451-1.234
				c0.709-0.578,0.665-1.296,0.312-1.911c-0.615-1.07-1.411-2.009-2.067-3.051c-0.233-0.37-0.446-0.932-0.358-1.318
				c0.066-0.29,0.621-0.595,0.977-0.626C229.949,143.704,230.957,143.76,231.961,143.76z M232.24,147.553
				c-0.428-0.735-0.754-1.297-1.064-1.827c0.265-0.369,0.465-0.653,0.9-1.265c-1.111-0.058-1.949-0.139-2.787-0.124
				c-0.295,0.007-0.585,0.248-0.877,0.383c0.17,0.253,0.354,0.497,0.51,0.76c0.734,1.233,1.648,2.393,2.111,3.739
				c0.227,0.66-0.387,1.673-0.699,2.817c0.908,0,1.977,0.01,3.045-0.038c0.041-0.002,0.191-0.677,0.071-0.824
				c-0.903-1.116-1.009-1.881-0.245-3.102c0.727-1.158,1.504-2.275,2.354-3.554c-1.074,0-2.025,0-2.976,0
				C233.877,145.779,232.943,146.549,232.24,147.553z"/>
			<path fill-rule="evenodd" clip-rule="evenodd" fill="#667184" d="M224.818,146.224c0.22,1.565-0.67,3.238,0.664,4.716
				c0.572,0.633,0.166,1.597-0.65,1.651c-1,0.065-2.012,0.075-3.01-0.007c-0.783-0.064-1.176-1.218-0.543-1.685
				c0.83-0.615,0.717-1.408,0.73-2.236c0.013-0.836,0.002-1.673,0.002-2.905c-0.516,0.476-0.723,0.791-0.995,0.894
				c-0.438,0.162-0.952,0.329-1.36,0.203c-0.207-0.062-0.377-0.771-0.352-1.173c0.107-1.757,0.293-1.914,1.908-1.92
				c1.621-0.006,3.241-0.018,4.863,0.006c1.114,0.018,2.033,1.825,1.341,2.79c-0.233,0.329-1.001,0.299-1.507,0.247
				c-0.27-0.028-0.507-0.454-0.758-0.7C225.04,146.144,224.93,146.185,224.818,146.224z M223.452,144.325
				c-0.85,0-1.71-0.09-2.542,0.04c-0.379,0.06-0.814,0.483-1.018,0.873c-0.135,0.262,0.092,0.754,0.156,1.144
				c0.342-0.208,0.667-0.449,1.025-0.616c0.366-0.17,0.764-0.348,1.146-0.343c0.107,0.001,0.291,0.622,0.304,0.963
				c0.04,1.15,0.03,2.302,0.009,3.453c-0.006,0.325-0.068,0.677-0.198,0.966c-0.164,0.364-0.427,0.676-0.645,1.01
				c0.437,0.092,0.869,0.22,1.31,0.266c0.458,0.047,0.928,0.054,1.386,0.005c0.241-0.025,0.469-0.208,0.704-0.32
				c-0.12-0.235-0.252-0.463-0.355-0.705c-0.184-0.429-0.469-0.856-0.5-1.303c-0.067-1.017-0.047-2.048,0.019-3.065
				c0.028-0.459,0.245-0.903,0.378-1.355c0.4,0.204,0.799,0.413,1.204,0.609c0.321,0.156,0.649,0.296,0.976,0.441
				c0.039-0.393,0.213-0.86,0.082-1.162c-0.168-0.372-0.561-0.811-0.9-0.86C225.158,144.24,224.299,144.324,223.452,144.325z"/>
			<path fill-rule="evenodd" clip-rule="evenodd" fill="#667184" d="M216.613,143.771c0.193,0,0.396-0.045,0.578,0.009
				c0.519,0.154,1.027,0.351,1.539,0.53c-0.197,0.544-0.322,1.139-0.605,1.62c-0.469,0.795-0.242,4.041,0.324,4.814
				c0.229,0.311,0.375,0.868,0.287,1.231c-0.07,0.279-0.553,0.585-0.871,0.615c-0.918,0.081-1.854,0.082-2.771,0
				c-0.32-0.029-0.734-0.326-0.881-0.632c-0.119-0.254-0.016-0.9,0.176-1.026c0.838-0.554,0.77-1.404,0.728-2.243
				c-0.06-1.166,0.343-2.411-0.821-3.354c-0.553-0.448-0.068-1.43,0.701-1.56c0.263-0.046,0.539-0.016,0.809-0.017
				c0.27-0.003,0.538-0.001,0.809-0.001C216.613,143.762,216.613,143.767,216.613,143.771z M214.539,144.504
				c1.145,1.539,1.145,1.539,1.147,3.433c0,0.595,0.082,1.208-0.019,1.78c-0.086,0.48-0.377,0.921-0.583,1.374
				c-0.097,0.21-0.212,0.406-0.317,0.608c0.217,0.134,0.428,0.363,0.652,0.381c0.691,0.047,1.386,0.038,2.076-0.006
				c0.242-0.017,0.475-0.199,0.711-0.305c-0.143-0.259-0.293-0.517-0.428-0.778c-0.148-0.278-0.432-0.579-0.404-0.837
				c0.197-1.836-0.764-3.898,1.198-5.65C217.068,144.504,215.92,144.504,214.539,144.504z"/>
			<path fill-rule="evenodd" clip-rule="evenodd" fill="#667184" d="M218.716,94.908c1.038,1.315,0.928,2.77-0.156,4.093
				c-1.187,1.448-2.36,2.91-3.54,4.366c-0.125-0.125-0.246-0.25-0.369-0.376C215.986,100.334,217.322,97.678,218.716,94.908z"/>
			<path fill-rule="evenodd" clip-rule="evenodd" fill="#667184" d="M212.564,113.7c0.036,0.489,0.084,0.726,0.064,0.954
				c-0.141,1.506-0.295,3.011-0.447,4.514c-0.021,0.211-0.013,0.467-0.119,0.614c-0.261,0.363-0.58,0.678-0.875,1.011
				c-0.184-0.373-0.526-0.748-0.525-1.12C210.672,117.566,211.035,115.562,212.564,113.7z"/>
			<path fill-rule="evenodd" clip-rule="evenodd" fill="#667184" d="M217.129,105.558c-0.04-0.913-0.119-1.573-0.08-2.224
				c0.038-0.667,0.304-1.267,1.02-0.764c0.486,0.344,0.853,0.893,1.273,1.35c-0.385,0.363-0.748,0.761-1.16,1.08
				C217.885,105.229,217.521,105.355,217.129,105.558z"/>
			<path fill-rule="evenodd" clip-rule="evenodd" fill="#667184" d="M135.311,131.255c0.434,0.286,0.865,0.572,1.301,0.857
				c-0.166,0.2-0.416,0.6-0.48,0.565c-0.416-0.214-0.791-0.524-1.178-0.804C135.07,131.668,135.189,131.461,135.311,131.255z"/>
			<path fill-rule="evenodd" clip-rule="evenodd" fill="#667184" d="M202.02,147.474c0.123,0.094,0.248,0.188,0.371,0.281
				c0.414-0.327,0.912-0.585,1.203-1.014c0.121-0.179-0.098-0.838-0.332-1.062c-0.234-0.226-0.682-0.18-1.035-0.251
				C202.156,146.11,202.088,146.792,202.02,147.474z"/>
			<path fill-rule="evenodd" clip-rule="evenodd" fill="#667184" d="M89.406,119.385c-0.252,8.94-3.996,15.538-10.678,20.157
				c-9.086,6.284-21.447,5.187-29.543-2.513c-7.27-6.917-9.615-17.836-5.548-27.047c3.79-8.589,10.298-13.154,18.765-14.396
				c5.834-0.856,11.354,0.355,16.342,3.807C85.414,104.009,89.173,110.613,89.406,119.385z M68.379,96.495
				c0.558,3.03,0.309,4.061-1.221,6.14c-0.201,0.273-0.455,0.668-0.416,0.961c0.129,0.906,1.812,1.943,2.705,1.888
				c3.196-0.197,6.396-0.405,9.596-0.458c1.01-0.017,2.062,0.34,3.02,0.743c0.434,0.184,0.682,0.9,1.012,1.374
				c-0.451,0.141-0.901,0.392-1.357,0.4c-4.053,0.086-8.111,0.123-12.167,0.185c-1.817,0.027-2.312,0.622-2.08,2.563
				c0.356,3.007-0.163,5.865-1.161,8.641c-1.969,5.477-2.482,11.145-1.871,16.966c0.133,1.27,0.322,2.536,0.364,3.811
				c0.014,0.436-0.257,1.09-0.571,1.259c-0.242,0.133-0.936-0.215-1.106-0.55c-0.54-1.054-1.142-2.161-1.329-3.322
				c-0.301-1.882-0.336-3.822-0.391-5.741c-0.037-1.217-0.469-1.799-1.592-1.83c-3.979-0.113-7.955-0.266-11.934-0.391
				c-0.381-0.012-0.784-0.003-1.145,0.118c-1.217,0.406-1.343,0.839-0.633,1.99c8.623,13.997,27.721,15.062,37.492,2.014
				c4.385-5.859,5.798-12.576,3.754-19.921c-2.062-7.405-6.705-12.23-13.12-15.025C72.432,97.525,70.494,97.138,68.379,96.495z
				 M44.966,129.093c2.075-2.093,4.396-1.83,6.671-1.874c3.049-0.059,6.102-0.125,9.148-0.262c0.402-0.019,1.047-0.384,1.138-0.73
				c0.991-3.724,1.901-7.474,2.798-11.227c0.074-0.309-0.122-0.695-0.191-1.045c-0.299,0.116-0.646,0.16-0.885,0.361
				c-1.979,1.67-3.232,3.758-3.578,6.589c-0.284,2.345-1.426,3.409-3.521,3.509c-2.076,0.097-4.171,0.031-6.244-0.151
				c-1.92-0.17-3.268-1.442-3.711-3.493c-0.373-1.72-0.548-3.531-0.555-5.303c-0.016-4.647,2.576-8.032,6.729-8.545
				c4.4-0.542,5.969,0.062,7.145,5.009c0.273,1.15,0.907,1.55,1.787,0.935c1.032-0.719,2.023-1.582,2.834-2.578
				c0.43-0.531,0.58-1.47,0.613-2.237c0.043-0.961-0.492-1.161-1.227-0.661c-0.523,0.355-1.02,0.884-1.583,1.002
				c-0.465,0.099-1.095-0.184-1.484-0.527c-0.142-0.124,0.084-1.052,0.362-1.389c0.724-0.882,1.517-1.719,2.38-2.429
				c1.813-1.491,2.747-3.502,3.165-5.893c0.268-1.532,0.235-1.63-1.154-1.623c-6.742,0.034-12.615,2.548-17.213,8.016
				c-5.217,6.201-6.861,13.479-4.499,21.678C44.143,127.102,44.525,127.933,44.966,129.093z M53.857,122.008
				c0.348-0.016,0.695-0.033,1.043-0.05c2.14-0.109,3.348-2.306,2.428-4.493c-0.109-0.261-0.533-0.514-0.811-0.511
				c-2.316,0.024-4.637,0.078-6.949,0.194c-1.031,0.051-1.178,0.431-0.754,1.516C49.781,121.146,51.203,122.09,53.857,122.008z
				 M52.93,114.362c0.002-0.013,0.002-0.025,0.002-0.038c1.155,0,2.314,0.05,3.465-0.033c0.314-0.022,0.814-0.391,0.871-0.686
				c0.412-2.162-0.85-3.941-2.865-4.002c-0.99-0.029-2.01,0.062-2.975,0.308c-1.688,0.434-2.564,1.795-2.624,3.712
				c-0.022,0.733,0.251,0.993,0.897,0.939C50.775,114.47,51.854,114.426,52.93,114.362z"/>
			<path fill-rule="evenodd" clip-rule="evenodd" fill="#667184" d="M91.945,100.073c0.391,0.548,0.949,1.033,1.139,1.656
				c0.412,1.347-0.654,2.479-1.934,2.013c-0.936-0.341-1.248,0.006-1.479,0.902c-0.208,0.807-0.504,1.584-0.792,2.466
				c-0.836-0.665-1.307-1.262-0.768-2.376c0.39-0.8,0.592-1.709,0.877-2.569c-0.103-0.112-0.205-0.226-0.309-0.339
				c-0.789,0.607-1.578,1.214-2.486,1.915c-0.281-0.37-0.683-0.896-0.996-1.308c1.894-1.451,3.703-2.841,5.662-4.342
				c0.311,0.555,0.721,1.293,1.133,2.029c-0.885-0.35-2.094,0.359-2.84,1.692c0.613,0.862,1.319,1.291,2.255,0.554
				C92.152,101.779,92.76,101.121,91.945,100.073z"/>
			<path fill-rule="evenodd" clip-rule="evenodd" fill="#667184" d="M39.824,115.63c-2.203-1.066-4.428-1.445-6.729-1.998
				c0.217-0.808,0.451-1.956,0.838-3.041c0.664-1.864,2.527-2.708,4.324-2.054c1.91,0.695,2.771,2.345,2.289,4.451
				C40.34,113.89,40.062,114.772,39.824,115.63z M40.316,112.23c-0.172-0.271-0.395-0.907-0.815-1.239
				c-1.214-0.957-2.634-1.181-4.087-0.949c-0.383,0.062-0.787,0.356-1.078,0.664c-0.676,0.717-0.525,1.42,0.379,1.695
				c1.487,0.449,2.991,0.83,4.492,1.214C39.963,113.81,40.279,113.37,40.316,112.23z"/>
			<path fill-rule="evenodd" clip-rule="evenodd" fill="#667184" d="M68.717,86.376c0,2.368,0,4.601,0,6.832
				c-0.111,0.052-0.225,0.102-0.336,0.152c-1.449-1.738-2.896-3.479-4.344-5.216c-0.082,0.047-0.162,0.096-0.243,0.145
				c0,1.652,0,3.307,0,5.054c-0.176,0.009-0.464,0.022-0.698,0.034c0.21-2.36,0.635-4.665-0.203-7.016
				c0.949-0.275,1.818-0.067,2.553,0.993c0.76,1.095,1.645,2.081,2.677,3.369c0-1.695,0-2.974,0-4.348
				C68.221,86.376,68.533,86.376,68.717,86.376z"/>
			<path fill-rule="evenodd" clip-rule="evenodd" fill="#667184" d="M47.471,96.645c-0.904-0.91-1.807-1.823-2.916-2.942
				c0.094-0.087,0.357-0.335,0.428-0.401c1.631,1.873,3.121,3.587,4.859,5.583c-2.555-0.314-4.793-0.591-7.033-0.866
				c-0.051,0.129-0.105,0.259-0.158,0.388c1.141,1.198,2.283,2.397,3.49,3.664c-0.041,0.05-0.237,0.28-0.359,0.425
				c-0.807-0.92-1.54-1.804-2.318-2.637c-0.773-0.828-1.593-1.604-2.504-2.513c0.326-0.618,0.957-1.086,1.979-0.9
				c1.432,0.261,2.877,0.438,4.316,0.651C47.326,96.945,47.398,96.794,47.471,96.645z"/>
			<path fill-rule="evenodd" clip-rule="evenodd" fill="#667184" d="M54.846,149.304c0.871,1.191,1.732,2.531,3.273,1.643
				c0.521-0.3,0.889-0.931,1.326-1.408c-0.06-0.088-0.119-0.177-0.178-0.265c-0.245,0-0.497,0.036-0.736-0.007
				c-0.746-0.136-1.526-0.191-2.219-0.486c-0.84-0.356-1.188-1.187-1.076-2.188c0.113-1.021,0.727-1.578,1.568-1.824
				c1.451-0.425,3.207,0.415,3.771,1.761c0.551,1.313-0.306,3.932-1.589,4.854c-1.118,0.806-3.034,0.565-3.958-0.552
				c-0.248-0.305-0.346-0.761-0.512-1.146C54.625,149.558,54.736,149.431,54.846,149.304z M58.137,148.782
				c0.938,0.011,1.676-0.726,1.691-1.681c0.012-0.93-0.885-1.776-1.898-1.791c-0.973-0.014-1.805,0.798-1.779,1.739
				C56.173,147.911,57.158,148.772,58.137,148.782z"/>
			<path fill-rule="evenodd" clip-rule="evenodd" fill="#667184" d="M80.199,147.152c0.605,0,0.959-0.055,1.292,0.016
				c0.368,0.073,0.808,0.478,1.062,0.354c0.731-0.36,1.496-0.807,2.016-1.447c0.203-0.25-0.074-1.477-0.377-1.622
				c-0.666-0.317-1.551-0.456-2.233-0.238c-0.712,0.227-1.29,0.959-2.116,1.621c-0.248-1.237-0.461-2.255-0.648-3.278
				c-0.025-0.139,0.049-0.405,0.141-0.449c1.275-0.598,2.562-1.164,3.846-1.741c0.07,0.181,0.141,0.36,0.209,0.539
				c-0.683,0.338-1.355,0.705-2.053,1.008c-1.397,0.609-1.422,0.646-0.766,2.286c0.227-0.113,0.457-0.225,0.686-0.339
				c0.381-0.191,0.75-0.453,1.152-0.566c1.527-0.433,2.832,0.171,3.203,1.439c0.336,1.143-0.456,2.473-1.856,3.113
				C82.373,148.479,81.375,148.352,80.199,147.152z"/>
			<path fill-rule="evenodd" clip-rule="evenodd" fill="#667184" d="M40.785,126.899c0.156,0.557,0.334,1.186,0.465,1.652
				c-2.232,0.637-4.396,1.252-6.717,1.91c-0.354-1.192-0.854-2.645-1.166-4.146c-0.062-0.304,0.595-0.787,0.92-1.187
				c0.1,0.098,0.197,0.196,0.297,0.294c-0.096,0.143-0.192,0.282-0.287,0.425c-0.537,0.798-0.555,2.53,0.043,2.617
				c0.84,0.122,1.743-0.267,2.619-0.438c-0.052-0.296-0.012-0.698-0.172-0.862c-0.262-0.27-0.655-0.386-1.099-0.623
				c0.778-0.251,1.514-0.489,2.514-0.812c-0.251,0.358-0.391,0.48-0.435,0.635c-0.123,0.404-0.202,0.823-0.301,1.238
				c0.359,0.035,0.737,0.168,1.069,0.083C39.234,127.509,39.908,127.215,40.785,126.899z"/>
			<path fill-rule="evenodd" clip-rule="evenodd" fill="#667184" d="M32.667,122.76c0-0.599,0-1.312,0-1.803
				c1.869,0,3.704,0.093,5.521-0.064c0.465-0.04,1.249-0.896,1.227-1.337c-0.037-0.661-0.574-1.749-1.035-1.842
				c-1.867-0.375-3.789-0.51-5.699,0.177c0-0.302,0-0.664,0-0.764c1.604,0,3.162-0.035,4.717,0.012
				c1.914,0.055,2.902,1.65,2.332,3.676c-0.309,1.102-0.939,1.73-2.026,1.719c-0.886-0.01-1.774-0.033-2.66,0.005
				C34.259,122.571,33.477,122.681,32.667,122.76z"/>
			<path fill-rule="evenodd" clip-rule="evenodd" fill="#667184" d="M70.452,152.697c-1.774,0.026-3.089-1.801-3.098-4.306
				c-0.005-1.682,1.117-2.843,2.79-2.888c1.779-0.049,3.104,1.728,3.16,4.241C73.344,151.452,72.168,152.67,70.452,152.697z
				 M68.178,148.283c0.254,0.886,0.42,1.813,0.779,2.643c0.402,0.934,1.229,1.466,2.097,1.018c0.553-0.288,1.21-1.088,1.236-1.691
				c0.046-1.005-0.261-2.093-0.634-3.044c-0.371-0.942-1.197-1.304-2.131-0.988C68.641,146.517,68.23,147.225,68.178,148.283z"/>
			<path fill-rule="evenodd" clip-rule="evenodd" fill="#667184" d="M59.809,86.695c0.047-0.018,0.369-0.125,0.648-0.22
				c0.047,0.67,0.039,1.31,0.146,1.925c0.143,0.834,0.408,1.644,0.557,2.478c0.354,2.012-0.219,2.941-2.02,3.378
				c-1.855,0.449-2.811-0.19-3.273-2.156c-0.324-1.38-0.676-2.753-1.044-4.251c0.462-0.107,1.11-0.259,1.589-0.371
				c0.418,1.832,0.754,3.567,1.223,5.256c0.236,0.85,0.908,1.266,1.748,1.104c0.824-0.156,1.645-0.677,1.539-1.6
				C60.716,90.428,60.221,88.659,59.809,86.695z"/>
			<path fill-rule="evenodd" clip-rule="evenodd" fill="#667184" d="M96.842,130.612c-2.023-1.735-3.425-4.307-6.457-3.53
				c0.162-0.756,0.306-1.396,0.486-2.23c2.559,1.813,4.758-0.003,7.238-0.562c-0.125,0.656-0.252,1.318-0.352,1.841
				c-1.287,0.318-2.479,0.615-3.733,0.925c0.841,1.574,2.005,2.372,3.054,2.135C97.007,129.619,96.94,130.009,96.842,130.612z"/>
			<path fill-rule="evenodd" clip-rule="evenodd" fill="#667184" d="M40.914,105.947c-0.762,1.393,0.266,1.836,1.129,2.426
				c-0.175,0.248-0.324,0.461-0.465,0.663c-1.541-2.045-3.033-4.025-4.783-6.347c2.823,0.334,5.307,0.627,7.946,0.938
				c-0.317,0.558-0.646,1.137-1.022,1.804c-1.094-0.858-2.072-0.891-2.814,0.467c-0.01-0.389,0.074-1.072-0.041-1.113
				c-0.64-0.236-1.325-0.318-2.164-0.486C39.482,106.196,39.961,106.502,40.914,105.947z"/>
			<path fill-rule="evenodd" clip-rule="evenodd" fill="#667184" d="M82.373,99.652c-0.789-0.657-1.576-1.314-2.336-1.947
				c1.879-1.527,3.315-3.305,4.693-5.441c0.439,0.523,0.98,1.171,1.52,1.819l0.029-0.021c-0.367,0.142-0.828,0.174-1.082,0.445
				c-1.033,1.104-1.971,2.315-3.006,3.417c-0.684,0.725-0.058,1.189,0.152,1.755L82.373,99.652z"/>
			<path fill-rule="evenodd" clip-rule="evenodd" fill="#667184" d="M97.883,113.159c-2.354,0.59-4.532,1.137-6.787,1.702
				c-0.105-0.412-0.285-1.128-0.387-1.53c2.266-0.579,4.49-1.148,6.773-1.731C97.572,111.943,97.746,112.627,97.883,113.159z"/>
			<path fill-rule="evenodd" clip-rule="evenodd" fill="#667184" d="M72.158,94.186c-0.535-0.109-1.205-0.248-1.66-0.342
				c0.493-2.307,0.98-4.58,1.482-6.934c0.377,0.088,1.041,0.244,1.658,0.389c-0.311,1.181-0.64,2.286-0.881,3.413
				C72.521,91.806,72.371,92.923,72.158,94.186z"/>
			<path fill-rule="evenodd" clip-rule="evenodd" fill="#667184" d="M90.003,110.771c1.698,0.333,2.038,0.034,2.197-1.878
				c0.188-2.254,0.782-3.157,2.192-3.099c0.543,0.022,1.072,0.382,1.564,0.727c-1.571-0.188-1.977,0.151-2.16,1.936
				c-0.039,0.38-0.059,0.764-0.072,1.147c-0.029,1.013-0.475,1.732-1.347,1.992C91.486,111.86,90.619,111.791,90.003,110.771z"/>
			<path fill-rule="evenodd" clip-rule="evenodd" fill="#667184" d="M98.308,118.127c0,0.51,0,0.994,0,1.706
				c-2.282,0-4.519,0-6.813,0c0-0.456,0-1.118,0-1.706C93.758,118.127,95.994,118.127,98.308,118.127z"/>
			<path fill-rule="evenodd" clip-rule="evenodd" fill="#667184" d="M78.695,93.483c-0.645,0.829-1.289,1.659-1.934,2.487
				c-0.133-0.094-0.266-0.186-0.398-0.277c0-2.543,0-5.085,0-7.706c0.553,0.246,1.193,0.531,1.623,0.724
				c-0.107,1.735-0.207,3.301-0.313,4.985c0.47-0.081,0.761-0.131,1.05-0.182L78.695,93.483z"/>
			<path fill-rule="evenodd" clip-rule="evenodd" fill="#667184" d="M48.122,141.751c-0.86-0.209-1.47-0.357-2.077-0.506
				c0.007-0.119,0.014-0.237,0.021-0.357c1.15,0,2.303,0,3.645,0c-0.297,0.509-0.562,0.988-0.854,1.444
				c-0.807,1.252-1.603,2.512-2.454,3.723c-0.184,0.259-0.59,0.326-0.893,0.48c0.061-0.362,0.028-0.794,0.201-1.073
				C46.438,144.269,47.222,143.121,48.122,141.751z"/>
			<path fill-rule="evenodd" clip-rule="evenodd" fill="#667184" d="M82.344,99.679c0.977,0.206,1.951,0.413,2.834,0.6
				c-0.869,1.247-1.133,1.208-2.804-0.628C82.373,99.652,82.344,99.679,82.344,99.679z"/>
			<path fill-rule="evenodd" clip-rule="evenodd" fill="#667184" d="M78.723,93.515c0.815-1.074,1.614-2.165,2.471-3.2
				c0.096-0.118,0.506,0.08,0.895,0.156c-1.23,1.092-2.312,2.052-3.393,3.012L78.723,93.515z"/>
			<path fill-rule="evenodd" clip-rule="evenodd" fill="#667184" d="M89.4,109.202c-0.131-0.391-0.311-0.93-0.525-1.568
				c0.572-0.206,1.097-0.396,1.76-0.635C90.166,107.834,89.77,108.544,89.4,109.202z"/>
			<path fill-rule="evenodd" clip-rule="evenodd" fill="#667184" d="M86.25,94.083c0.787,0.519,1.574,1.037,2.491,1.642
				c-0.462,0.567-0.754,0.924-1.046,1.279c0.264-1.475-0.578-2.208-1.412-2.946C86.279,94.062,86.25,94.083,86.25,94.083z"/>
			<path fill-rule="evenodd" clip-rule="evenodd" fill="#667184" d="M85.965,96.7c-0.551,0.637-0.962,1.109-1.484,1.715
				c-0.037-0.656-0.062-1.154-0.095-1.715C84.816,96.7,85.248,96.7,85.965,96.7z"/>
			<path fill-rule="evenodd" clip-rule="evenodd" fill="#667184" d="M95.273,110.204c0.49-0.932,0.812-1.541,1.167-2.217
				c0.146,0.462,0.29,0.922,0.46,1.458C96.414,109.672,95.975,109.877,95.273,110.204z"/>
			<path fill-rule="evenodd" clip-rule="evenodd" fill="#667184" d="M96.918,122.055c0.445-0.428,0.884-0.845,1.318-1.259
				C98.607,122.037,98.486,122.154,96.918,122.055z"/>
			<path fill-rule="evenodd" clip-rule="evenodd" fill="#667184" d="M130.793,148.139c-0.002-0.427-0.002-0.852,0-1.277
				c0.011-1.655,0.369-1.922,1.829-1.353c1.117,0.437,1.696,1.458,1.644,2.909c-0.047,1.339-0.723,2.283-1.859,2.592
				c-1.15,0.312-1.586-0.045-1.611-1.338C130.787,149.161,130.794,148.65,130.793,148.139z M131.341,148.256h-0.011
				c0,0.339-0.047,0.688,0.012,1.012c0.076,0.422,0.145,1.063,0.385,1.176c0.299,0.14,0.822-0.063,1.154-0.288
				c1.076-0.729,1.166-2.96,0.133-3.745c-0.373-0.284-0.914-0.297-1.379-0.431c-0.098,0.42-0.225,0.836-0.283,1.263
				C131.304,147.573,131.341,147.919,131.341,148.256z"/>
			<path fill-rule="evenodd" clip-rule="evenodd" fill="#667184" d="M202.02,147.474c0.068-0.682,0.137-1.363,0.207-2.045
				c0.354,0.071,0.801,0.025,1.035,0.251c0.234,0.224,0.453,0.883,0.332,1.062c-0.291,0.429-0.789,0.687-1.203,1.014
				C202.268,147.661,202.143,147.567,202.02,147.474z"/>
			<path fill-rule="evenodd" clip-rule="evenodd" fill="#667184" d="M72.638,123.858c0.995-0.089,1.988-0.203,2.985-0.255
				c0.36-0.02,0.859-0.02,1.055,0.217c0.164,0.197,0.088,0.811-0.068,1.133c-0.48,0.999,0.008,1.334,0.758,1.507
				c1.908,0.435,2.66-0.182,3.062-2.365c0.064-0.35,0.405-0.638,0.617-0.954c0.26,0.312,0.717,0.608,0.74,0.941
				c0.092,1.31,0.504,2.561-0.045,3.978c-0.412,1.062-0.195,2.364-1.172,3.294c-0.744,0.709-1.445,1.232-2.457,1.155
				c-0.498-0.037-1.006,0.008-1.502,0.075c-0.787,0.11-1.095,0.645-0.803,1.45c0.301,0.829,0.773,1.584,1.029,2.423
				c0.143,0.465-0.008,1.035-0.026,1.557c-0.444-0.118-1.072-0.072-1.304-0.384c-0.695-0.935-1.416-1.937-1.783-3.049
				c-0.33-1.004-0.646-1.129-1.49-0.854c-1.365,0.446-2.766,0.767-4.162,1.088c-0.484,0.112-1.01,0.143-1.494,0.063
				c-0.289-0.046-0.539-0.382-0.807-0.586c0.213-0.267,0.379-0.67,0.643-0.776c1.814-0.728,3.646-1.395,5.475-2.08
				c0.255-0.096,0.514-0.186,0.77-0.272c0.666-0.222,1.053-0.748,0.727-1.43c-0.154-0.322-0.811-0.56-1.199-0.505
				c-1.758,0.243-3.495,0.65-5.254,0.891c-0.387,0.051-0.822-0.349-1.236-0.541c0.369-0.364,0.699-0.963,1.115-1.051
				c1.816-0.379,3.66-0.61,5.494-0.894c0.151-0.023,0.34,0.012,0.453-0.078c0.34-0.271,0.65-0.591,0.973-0.894
				c-0.359-0.263-0.697-0.696-1.078-0.75c-0.836-0.12-1.701,0.026-2.541-0.074c-0.518-0.062-1.01-0.382-1.514-0.585
				c0.428-0.446,0.789-1.124,1.291-1.291c0.865-0.287,1.814-0.258,2.729-0.359C72.623,123.688,72.631,123.773,72.638,123.858z
				 M77.127,130.627c0.911-0.49,1.623-0.82,2.265-1.268c0.11-0.077-0.001-0.928-0.14-0.977c-0.73-0.258-1.539-0.602-2.248-0.463
				c-0.523,0.104-0.938,0.901-1.4,1.388C76.083,129.725,76.565,130.139,77.127,130.627z"/>
			<path fill-rule="evenodd" clip-rule="evenodd" fill="#667184" d="M75.983,115.205c-1.159,0.001-2.319,0.041-3.476-0.017
				c-0.645-0.031-1.326-0.108-1.92-0.37c-1.578-0.696-1.994-2.862-0.668-4.03c0.795-0.701,1.916-1.247,2.916-1.306
				c2.538-0.145,5.092-0.024,7.634,0.103c0.653,0.033,1.369,0.36,1.917,0.778c1.326,1.014,1.253,3.234-0.17,4.054
				c-0.789,0.455-1.743,0.66-2.644,0.756C78.387,115.299,77.182,115.204,75.983,115.205z M76.486,111.267
				c0-0.043-0.002-0.086-0.004-0.131c-1.154,0.086-2.316,0.087-3.449,0.304c-0.375,0.072-0.664,0.701-0.99,1.076
				c0.312,0.331,0.588,0.896,0.941,0.96c2.136,0.397,4.298,0.621,6.375-0.309c0.336-0.148,0.515-0.732,0.766-1.114
				c-0.363-0.263-0.707-0.697-1.093-0.75C78.195,111.188,77.338,111.267,76.486,111.267z"/>
			<path fill-rule="evenodd" clip-rule="evenodd" fill="#667184" d="M75.113,116.278c2.035,0.251,3.615,0.353,5.16,0.662
				c1.486,0.3,2.146,1.171,2.232,2.529c0.072,1.141-0.646,2.168-1.988,2.627c-0.689,0.235-1.443,0.391-2.156,0.35
				c-2.345-0.135-4.689-0.314-7.022-0.598c-1.702-0.209-2.718-1.179-2.784-2.382c-0.066-1.184,0.861-2.471,2.435-2.821
				C72.479,116.314,74.035,116.363,75.113,116.278z M75.527,117.808c-0.955,0.081-2.045,0.089-3.096,0.309
				c-0.395,0.081-0.703,0.664-1.05,1.018c0.36,0.383,0.71,1.081,1.081,1.096c2.219,0.087,4.443,0.069,6.662-0.049
				c0.406-0.021,0.782-0.666,1.174-1.022c-0.433-0.354-0.828-0.924-1.305-1.023C77.9,117.909,76.771,117.91,75.527,117.808z"/>
		</g>
	</g>
</g>
</svg>
