<?xml version="1.0" encoding="utf-8"?>
<!-- Generator: Adobe Illustrator 16.0.0, SVG Export Plug-In . SVG Version: 6.00 Build 0)  -->
<!DOCTYPE svg PUBLIC "-//W3C//DTD SVG 1.1//EN" "http://www.w3.org/Graphics/SVG/1.1/DTD/svg11.dtd">
<svg version="1.1" xmlns="http://www.w3.org/2000/svg" xmlns:xlink="http://www.w3.org/1999/xlink" x="0px" y="0px"
	 width="224.107px" height="88.568px" viewBox="20 70 224.107 88.568"
	 xml:space="preserve">
<g id="Layer_10">
	<g id="HUfr2w_1_">
		<g>
			<path fill-rule="evenodd" clip-rule="evenodd" fill="#6D5252" d="M67.119,82.793c20.053,0.06,36.227,16.312,36.131,36.299
				c-0.094,19.608-16.545,35.837-36.244,35.754c-19.984-0.082-36.105-16.234-36.043-36.11
				C31.025,98.775,47.166,82.731,67.119,82.793z M33.465,118.805c-0.005,18.577,15.025,33.526,33.73,33.548
				c18.379,0.02,33.508-15.133,33.512-33.566c0.007-18.359-15.012-33.447-33.293-33.449C48.41,85.334,33.469,100.064,33.465,118.805
				z"/>
			<path fill-rule="evenodd" clip-rule="evenodd" fill="#6D5252" d="M222.559,112.884c0.26-0.897,0.52-1.794,0.789-2.728
				c0.58-0.274,1.277-0.6,1.936-0.911c-0.859-1.458-1.639-2.779-2.448-4.154c1.537-0.557,3.366-0.737,4.435-1.733
				c1.097-1.023,1.451-2.841,2.164-4.391c1.518,0.453,2.031,1.434,1.479,2.882c-0.404,1.063-0.969,2.067-1.675,3.539
				c1.927-0.523,3.331-1.086,4.78-1.23c0.908-0.092,2.064,0.223,2.746,0.793c0.338,0.283,0.091,1.691-0.301,2.345
				c-1.211,2.016-2.619,3.916-3.992,5.923c1.512,0.283,2.104,1.182,1.525,2.823c-0.781,2.219-5.19,5.031-8.16,4.806
				c0.729-0.8,1.277-1.396,1.823-1.998c0.583-0.641,1.161-1.284,1.671-2.076c-4.142,2.71-8.025,6.05-13.305,5.791
				c-0.164-0.324-0.328-0.646-0.494-0.971c3.629-2.086,7.258-4.173,10.919-6.278c0.015-0.071,0.083-0.21,0.056-0.324
				c-0.578-2.438-0.555-2.393-3.023-1.01c-1.26,0.704-2.627,1.209-3.809,1.742c-1.83-3.192-3.641-6.349-5.451-9.505
				c3.699,1.148,6.629,2.859,7.631,6.674C222.087,112.888,222.323,112.886,222.559,112.884z M228.47,109.261
				c0.474,0.917,0.825,1.597,1.277,2.47c1.003-1.265,1.849-2.33,2.782-3.506c-3.65-1.181-4.453-0.903-5.605,1.742
				c-0.09,0.206,0.08,0.525,0.15,0.914C227.566,110.31,227.933,109.885,228.47,109.261z"/>
			<path fill-rule="evenodd" clip-rule="evenodd" fill="#6D5252" d="M181.176,129.612c3.068-2.917,7.684-3.57,7.99-8.589
				c-1.385,0.625-2.719,1.129-3.957,1.809c-1.314,0.724-2.457,1.809-3.826,2.375c-1.229,0.508-3.161,1.168-3.887,0.604
				c-0.986-0.767-1.121-2.632-1.361-4.256c3.936,1.585,6.352-1.405,9.248-2.405c5.275-1.822,5.33-1.981,5.114-7.543
				c-0.071-1.838-0.964-3.63-1.29-5.479c-0.166-0.933,0.092-1.942,0.16-2.918c0.955,0.178,1.989,0.18,2.852,0.565
				c2.078,0.933,3.165,2.243,2.316,4.871c-0.535,1.651-0.1,3.616-0.1,6.016c1.111-0.866,1.932-1.48,2.723-2.131
				c0.551-0.45,0.994-1.199,1.607-1.362c0.754-0.202,1.635,0.066,2.459,0.131c-0.215,0.696-0.228,1.598-0.686,2.047
				c-1.293,1.275-2.678,2.504-4.197,3.489c-1.547,1.004-2.104,2.358-2.453,4.06C192.824,126.048,187.33,130.045,181.176,129.612z"/>
			<path fill-rule="evenodd" clip-rule="evenodd" fill="#6D5252" d="M117.795,127.795c-1.615,1.146-3.012,2.025-4.273,3.07
				c-1.061,0.879-2.168,2.17-3.407,0.814c-1.161-1.273-0.985-2.873-0.157-4.604c1.158-2.42,1.928-5.056,2.586-7.669
				c0.215-0.857-0.436-1.932-0.84-3.484c2.215,0.677,4.096,1.251,6.231,1.902c0-2.739,0.489-5.447-0.144-7.86
				c-0.584-2.218-2.374-4.117-3.871-6.542c4.342,0.597,8.002,3.759,8.045,7.228c0.066,5.664-0.395,11.337-0.693,17.002
				c-0.035,0.682-0.309,1.438-0.705,1.993c-0.455,0.635-1.168,1.083-1.771,1.61c-0.311-0.65-0.67-1.283-0.914-1.959
				C117.754,128.941,117.827,128.516,117.795,127.795z M117.771,121.209c-3.443,0.705-3.846,4.09-6.107,6.283
				C116.168,127.131,118.047,125.074,117.771,121.209z"/>
			<path fill-rule="evenodd" clip-rule="evenodd" fill="#6D5252" d="M129.167,107.189c3.54,1.815,3.864,5.228,5.024,9.071
				c1.264-1.878,2.182-3.239,3.055-4.537c0.928,0.628,2.072,1.188,2.906,2.05c0.459,0.473,0.719,1.561,0.508,2.181
				c-0.611,1.8-2.041,2.735-3.967,2.889c-1.22,0.099-1.947,0.495-2.006,2.018c-0.035,0.938-0.938,1.845-1.697,3.208
				c2.42-0.66,4.497-1.279,6.604-1.77c0.682-0.156,1.442,0.029,2.168,0.06c-0.236,0.791-0.245,1.812-0.76,2.318
				c-0.754,0.739-1.826,1.22-2.84,1.612c-1.453,0.565-2.962,1.013-4.477,1.396c-1.793,0.453-3.435,0.041-4.236-1.723
				C126.65,119.811,126.155,113.577,129.167,107.189z"/>
			<path fill-rule="evenodd" clip-rule="evenodd" fill="#6D5252" d="M155.136,128.213c-3.345-3.231-1.816-6.645-1.489-10.419
				c2.387,2.068,3.873,0.54,5.564-0.606c2.365-1.604,4.865-3.042,8.21-1.017c-1.671,1.501-3.204,2.878-4.741,4.261
				c0.951,0.546,1.629,0.936,2.305,1.324c-0.531,0.715-1.006,1.481-1.613,2.126c-0.365,0.388-0.904,0.659-1.416,0.854
				c-1.688,0.646-1.884,1.646-1.361,3.358c0.638,2.092,0.779,4.337,1.135,6.517c-0.387,0.207-0.773,0.415-1.16,0.623
				c-0.881-1.362-1.764-2.725-2.727-4.216c0.175-0.31,0.664-1.173,1.154-2.035c-0.239-0.164-0.479-0.33-0.717-0.495
				c-1.635,1.637-3.197,3.361-4.945,4.868c-0.653,0.562-2.051,1.114-2.561,0.796c-0.797-0.499-1.229-1.706-1.584-2.697
				c-0.097-0.264,0.562-1.009,1.02-1.224C151.727,129.52,153.311,128.947,155.136,128.213z"/>
			<path fill-rule="evenodd" clip-rule="evenodd" fill="#6D5252" d="M160.304,140.155c1.044,0,1.974,0,2.438,0
				c0,2.249-0.104,4.395,0.074,6.518c0.043,0.526,0.996,1.361,1.537,1.366c0.705,0.007,2-0.625,2.033-1.062
				c0.168-2.17,0.008-4.364-0.046-6.96c1.47,0.095,3.937-0.389,5.62,0.545c1.771,0.982,2.793,3.319,4.695,4.935
				c-0.312-1.688-0.626-3.377-0.971-5.228c3.271,0,7.047,0,10.402,0c0.508,1.928,0.992,3.766,1.477,5.605
				c0.842-1.851,3.102-3.307,1.082-5.648c3.51,0,6.85,0,10.381,0c0.033,0.688,0.066,1.354,0.1,2.049
				c-1.365-0.493-2.58-0.932-4.092-1.479c0,1.301,0,2.061,0,3.233c0.947-0.45,1.693-0.806,2.572-1.225c0,1.077,0,2.136,0,3.273
				c-0.791-0.43-1.529-0.831-2.266-1.232c-0.205,0.13-0.41,0.26-0.615,0.391c0.309,0.936,0.635,2.67,0.922,2.664
				c1.225-0.025,2.436-0.568,3.729-0.945c0.633,1.881,0.428,2.208-1.982,2.243c-1.648,0.027-3.299,0.006-4.471,0.006
				c0.1-2.609,0.223-4.941,0.238-7.277c0.002-0.301-0.646-0.906-0.846-0.85c-0.541,0.152-1.23,0.473-1.451,0.927
				c-0.801,1.632-1.426,3.348-2.125,5.028c-0.295,0.706-0.609,1.404-1.543,2.209c-0.613-1.537-1.229-3.074-1.844-4.611
				c-0.381-0.955-0.678-1.958-1.18-2.844c-0.217-0.382-0.835-0.639-1.312-0.729c-0.244-0.047-0.836,0.395-0.838,0.621
				c-0.031,2.349,0.025,4.699,0.061,7.283c-0.543,0-1.713,0-2.283,0c0.033-2.381,0.113-4.655,0.051-6.925
				c-0.01-0.362-0.646-0.709-0.994-1.062c-0.422,0.459-1.18,0.897-1.207,1.38c-0.133,2.187-0.059,4.386-0.059,6.581
				c-0.27,0.104-0.539,0.209-0.809,0.312c-1.596-2.019-3.19-4.037-4.787-6.056c-0.199,0.064-0.398,0.126-0.598,0.188
				c0.332,1.795,0.662,3.59,1.025,5.557c-0.585,0-1.672,0-2.338,0c0.168-2.141,0.455-4.253,0.42-6.36
				c-0.01-0.564-1.006-1.112-1.549-1.668c-0.426,0.626-1.078,1.203-1.225,1.887c-0.213,0.987-0.066,2.053-0.066,3.086
				c0,2.167-1.238,3.19-3.247,3.321c-2.077,0.136-3.366-1.137-3.497-3.333c-0.057-0.95,0.062-1.912-0.033-2.855
				C160.795,142.103,160.527,141.211,160.304,140.155z"/>
			<path fill-rule="evenodd" clip-rule="evenodd" fill="#6D5252" d="M141.006,149.142c-2.865,0-6.274,0.312-9.572-0.152
				c-1.336-0.188-2.431-2.069-3.893-3.416c0.258,1.172,0.491,2.219,0.757,3.416c-3.498,0-7.206,0-10.952,0
				c1.328-2.937,1.356-5.78-0.146-8.97c1.854,0,3.633-0.01,5.41,0.003c1.922,0.015,1.678,1.079,1.316,2.21
				c-1.287-0.466-2.42-0.876-3.826-1.384c0,1.3,0,2.062,0,3.266c0.924-0.542,1.584-0.93,2.488-1.462c0,1.217,0,2.302,0,3.604
				c-0.76-0.514-1.395-0.942-2.389-1.613c0,1.321,0,2.209,0,3.812c1.52-0.633,2.854-1.188,4.342-1.81
				c0.084,0.246,0.281,0.838,0.462,1.374c1.165,0.062,1.416-5.374,0.479-6.911c-0.151-0.249-0.312-0.491-0.595-0.934
				c1.359,0,2.484,0,3.455,0c-0.303,1.146-0.578,2.188-0.851,3.228c0.247,0.117,0.496,0.234,0.746,0.353
				c0.679-1.075,1.358-2.149,2.038-3.226c-0.16-0.129-0.32-0.259-0.48-0.391c0.996,0,1.994,0,3.24,0
				c-1.408,1.314-2.635,2.456-3.992,3.724c1.213,1.462,2.068,2.707,3.152,3.695c0.475,0.432,1.459,0.519,2.146,0.397
				c0.301-0.053,0.643-1.028,0.619-1.57c-0.08-2.016-0.301-4.026-0.484-6.192c4.559-1.402,8.051,0.562,10.088,5.752
				c0.248-0.235,0.496-0.472,0.742-0.71c-0.238-1.658-0.477-3.315-0.727-5.046c0.576,0,1.568,0,2.034,0
				c-0.22,2.956-0.433,5.819-0.647,8.683c-0.176,0.078-0.352,0.157-0.531,0.235c-1.499-1.967-3.002-3.936-4.504-5.904
				c-0.197,0.039-0.396,0.078-0.594,0.116C140.545,145.129,140.754,146.938,141.006,149.142z M136.693,144.479
				c0,0.787-0.148,1.611,0.051,2.344c0.144,0.528,0.747,0.931,1.146,1.39c0.495-0.464,1.35-0.879,1.419-1.399
				c0.196-1.467,0.203-2.996-0.002-4.458c-0.078-0.539-0.959-0.964-1.473-1.439c-0.38,0.481-0.936,0.91-1.096,1.456
				C136.545,143.023,136.691,143.772,136.693,144.479z"/>
			<path fill-rule="evenodd" clip-rule="evenodd" fill="#6D5252" d="M219.924,131.994c5.05-1.793,5.05-1.793,4.271-5.162
				c-2.525,1.36-4.896,2.633-7.265,3.911c-2.326,1.259-3.501,0.912-4.037-1.451c-0.138-0.615,0.454-1.87,1.009-2.093
				c4.235-1.704,8.539-3.24,12.836-4.786c0.568-0.205,1.289-0.391,1.812-0.213c0.864,0.297,1.627,0.896,2.434,1.368
				c-0.758,0.788-1.389,2.008-2.297,2.27c-1.574,0.452-2.263,0.84-1.453,2.554c0.779,1.649,0.6,3.36-0.949,4.471
				C224.099,134.428,222.072,134.1,219.924,131.994z"/>
			<path fill-rule="evenodd" clip-rule="evenodd" fill="#6D5252" d="M202.998,145.701c0.268,1.013,0.537,2.023,0.881,3.316
				c-0.883,0.054-1.98,0.122-2.904,0.18c0-3.148,0-6.048,0-9.128c1.885,0.247,4.467-1.062,6.022,1.294
				c0.483,0.729-0.345,2.327-0.573,3.529c-0.248,0.031-0.496,0.063-0.746,0.096c0.843,1.074,1.688,2.149,2.834,3.61
				c0.332-1.227,0.523-1.93,0.822-3.021c0.574,0.77,0.892,1.49,1.443,1.85c0.6,0.393,1.41,0.551,2.143,0.596
				c0.234,0.014,0.807-0.804,0.716-0.981c-0.298-0.585-0.769-1.128-1.29-1.539c-0.418-0.331-1.222-0.301-1.479-0.683
				c-0.602-0.898-1.494-2.068-1.297-2.902c0.185-0.796,1.519-1.513,2.492-1.876c0.734-0.272,1.697,0.072,2.707,0.154
				c0,0.996,0,1.9,0,3.425c-0.668-0.94-0.953-1.536-1.412-1.926c-0.434-0.368-1.035-0.605-1.601-0.717
				c-0.181-0.034-0.729,0.596-0.672,0.781c0.171,0.541,0.471,1.123,0.897,1.477c0.469,0.39,1.321,0.393,1.672,0.83
				c0.682,0.854,1.787,2.175,1.523,2.797c-0.429,1.016-1.762,1.715-2.826,2.361c-0.349,0.212-1.045-0.171-1.586-0.247
				c-4.342-0.612-4.342-0.61-7.093-3.42C203.447,145.605,203.223,145.653,202.998,145.701z M203.217,144.076
				c0.271,0.127,0.543,0.256,0.812,0.384c0.418-0.751,1.041-1.474,1.156-2.268c0.049-0.338-0.973-0.828-1.969-1.611
				C203.217,142.278,203.217,143.178,203.217,144.076z"/>
			<path fill-rule="evenodd" clip-rule="evenodd" fill="#6D5252" d="M167.884,107.834c-0.644,0.706-0.954,1.159-1.366,1.48
				c-1.791,1.396-3.68,2.675-5.406,4.145c-2.066,1.761-4.49,1.951-6.496,0.302c-0.902-0.743-1.248-1.811-0.061-2.271
				c3.905-1.515,7.896-2.809,11.867-4.137C166.703,107.26,167.119,107.568,167.884,107.834z"/>
			<path fill-rule="evenodd" clip-rule="evenodd" fill="#6D5252" d="M160.23,106.576c-0.584-2.108-1.129-3.911-1.566-5.74
				c-0.17-0.701-0.098-1.46-0.135-2.194c0.689,0.004,1.48-0.211,2.047,0.052c1.5,0.691,2.961,1.506,4.324,2.437
				c1.203,0.82,1.377,2.224,0.242,3.009C163.55,105.243,161.645,105.898,160.23,106.576z"/>
			<path fill-rule="evenodd" clip-rule="evenodd" fill="#6D5252" d="M153.08,144.904c1.018,0,2.17,0,3.744,0
				c-0.922,1.502-1.436,3.073-2.518,3.855c-0.832,0.601-2.468,0.51-3.596,0.193c-2.324-0.653-3.395-3.207-2.738-5.828
				c0.67-2.666,2.691-3.455,7.392-2.802c0,0.979,0,1.976,0,3.267c-0.474-0.39-0.638-0.532-0.81-0.664
				c-0.914-0.699-1.832-1.396-2.748-2.092c-0.673,1.069-1.855,2.125-1.885,3.21c-0.033,1.3,0.805,2.694,1.527,3.889
				c0.166,0.274,1.399-0.096,2.141-0.17C153.43,146.861,153.27,145.961,153.08,144.904z"/>
			<path fill-rule="evenodd" clip-rule="evenodd" fill="#6D5252" d="M222.089,149.232c2.093-2.78,0.929-5.37,1.333-8.502
				c-1.18,0.816-1.861,1.287-2.855,1.974c-0.046-0.905-0.085-1.667-0.131-2.569c2.662,0,5.094,0,7.684,0c0,0.825,0,1.569,0,2.577
				c-0.814-0.627-1.484-1.143-2.629-2.026c-0.064,3.051-0.668,5.576,0.63,8.359C225.068,149.094,223.822,149.151,222.089,149.232z"
				/>
			<path fill-rule="evenodd" clip-rule="evenodd" fill="#6D5252" d="M236.957,140.207c-1.371,2.849-5.246,4.806-2.168,8.787
				c-1.417,0-2.674,0-4.047,0c2.836-3.805-0.715-5.939-2.016-8.814c1.199,0,2.324,0,3.115,0c0.301,1.228,0.578,2.365,0.856,3.502
				c0.28,0.007,0.563,0.014,0.845,0.021c0.327-1.087,0.654-2.176,1.051-3.495C234.996,140.207,235.934,140.207,236.957,140.207z"/>
			<path fill-rule="evenodd" clip-rule="evenodd" fill="#6D5252" d="M112.15,145.629c0.26,1.166,0.484,2.16,0.732,3.276
				c-0.932,0-1.912,0-2.588,0c0-2.968,0-5.798,0-8.682c3.549-0.542,5.587-0.068,5.916,1.649
				C116.765,144.764,114.418,144.934,112.15,145.629z M113.127,140.851c-0.202,0.178-0.404,0.356-0.607,0.533
				c0,0.949,0,1.897,0,2.846c0.218,0.106,0.438,0.214,0.658,0.32c0.445-0.639,1.229-1.274,1.239-1.921
				C114.424,142.043,113.592,141.445,113.127,140.851z"/>
			<path fill-rule="evenodd" clip-rule="evenodd" fill="#6D5252" d="M164.844,124.337c2.376-0.51,3.815,0.746,4.592,2.382
				c0.41,0.864,0.115,2.532-0.514,3.316c-0.979,1.214-2.025,0.305-2.91-0.666C164.678,127.903,164.089,126.343,164.844,124.337z"/>
			<path fill-rule="evenodd" clip-rule="evenodd" fill="#6D5252" d="M198.889,122.261c1.553,1.432,3.186,2.791,4.578,4.362
				c0.234,0.266-0.383,1.865-0.932,2.104c-0.846,0.37-2.676,0.431-2.857,0.044c-0.84-1.792-1.256-3.782-1.822-5.701
				C198.199,122.801,198.544,122.531,198.889,122.261z"/>
			<path fill-rule="evenodd" clip-rule="evenodd" fill="#6D5252" d="M220.116,149.001c-1.499,0-2.69,0-4.052,0
				c1.441-1.69,1.475-7.113-0.037-8.812c1.357,0,2.561,0,3.778,0C218.53,143.028,218.574,146.878,220.116,149.001z"/>
			<path fill-rule="evenodd" clip-rule="evenodd" fill="#6D5252" d="M214.818,119.546c-0.258-1.834-0.516-3.668-0.774-5.503
				c0.317-0.166,0.636-0.33,0.952-0.496c0.784,1.079,1.925,2.067,2.23,3.269c0.225,0.873-0.652,2.027-1.038,3.059
				C215.73,119.765,215.275,119.654,214.818,119.546z"/>
			<path fill-rule="evenodd" clip-rule="evenodd" fill="#6D5252" d="M42.922,118.565c0.105-13.5,10.98-23.987,24.734-23.854
				c12.973,0.126,23.773,11.236,23.648,24.324c-0.125,13.14-11.174,23.988-24.355,23.912
				C53.548,142.87,42.818,131.98,42.922,118.565z M67.078,97.25c-11.985-0.019-21.598,9.445-21.639,21.306
				c-0.045,12.161,9.555,21.886,21.617,21.896c11.896,0.012,21.687-9.746,21.716-21.645C88.801,106.89,79.122,97.271,67.078,97.25z"
				/>
			<path fill-rule="evenodd" clip-rule="evenodd" fill="#6D5252" d="M93.748,100.229c0.514,0.957,1.146,1.956,1.603,3.03
				c0.589,1.386-0.054,2.712-1.409,2.512c-2.16-0.32-2.17,1.009-2.672,3.051c-1.419-2.079-2.547-3.731-3.521-5.163
				C89.838,102.463,91.684,101.409,93.748,100.229z"/>
			<path fill-rule="evenodd" clip-rule="evenodd" fill="#6D5252" d="M42.867,110.087c-0.227,1.025-0.404,1.838-0.572,2.598
				c-0.944,0.152-1.754,0.282-2.563,0.412c-0.011,0.131-0.022,0.26-0.034,0.391c0.682,0.141,1.365,0.281,2.211,0.454
				c-0.231,0.854-0.453,1.673-0.619,2.284c-2.109-0.648-4.111-1.264-6.426-1.976c0.098-0.417,0.293-1.283,0.501-2.196
				c0.747,0.308,1.324,0.544,1.997,0.821c0.33-1.625-2.98-2.205-1.043-3.852c0.9,0.778,1.709,2.025,2.691,2.182
				C40.109,111.382,41.367,110.568,42.867,110.087z"/>
			<path fill-rule="evenodd" clip-rule="evenodd" fill="#6D5252" d="M84.65,144.902c-1.103,0.839-1.953,1.863-2.992,2.118
				c-0.518,0.126-1.414-1.13-2.071-1.825c-0.329-0.349-0.608-0.812-0.73-1.271c-0.208-0.771-0.603-1.742-0.31-2.329
				c0.32-0.648,1.295-1.243,2.04-1.321c0.501-0.051,1.178,0.771,1.638,1.319C82.986,142.5,83.635,143.5,84.65,144.902z"/>
			<path fill-rule="evenodd" clip-rule="evenodd" fill="#6D5252" d="M37.517,121.646c-0.384-0.782-0.569-1.165-0.888-1.817
				c0.9-0.089,1.636-0.163,2.584-0.257c-0.271,0.668-0.439,1.086-0.68,1.672c0.688,0,1.311,0,2.629,0
				c-0.9-1.27-1.514-2.14-2.094-2.962c2.381-0.895,3.092,0.56,2.473,5.094c-2.186,0.143-4.319,0.28-6.49,0.421
				c-0.945-5.311-0.924-5.389,1.582-5.377c-0.297,0.935-0.598,1.891-0.9,2.846C36.168,121.358,36.604,121.452,37.517,121.646z"/>
			<path fill-rule="evenodd" clip-rule="evenodd" fill="#6D5252" d="M65.773,146.119c0.094,0.417,0.319,0.854,0.258,1.244
				c-0.152,0.966-0.141,2.335-0.743,2.754c-0.712,0.494-2.136,0.455-2.978,0.062c-0.428-0.2-0.25-1.687-0.348-2.591
				c-0.049-0.438-0.211-0.899-0.122-1.307c0.153-0.702,0.28-1.74,0.747-1.97c0.748-0.368,1.837-0.417,2.641-0.162
				c0.478,0.153,0.688,1.149,1.018,1.766C66.088,145.983,65.93,146.05,65.773,146.119z"/>
			<path fill-rule="evenodd" clip-rule="evenodd" fill="#6D5252" d="M88.535,100.51c-0.569,0.605-1.072,1.144-1.719,1.832
				c-1.528-1.397-2.906-2.658-4.168-3.813c1.66-1.582,3.183-3.032,4.947-4.712c0.859,0.792,2.211,2.037,3.744,3.45
				c-0.621,0.659-1.107,1.175-1.539,1.633c-0.502-1.12-0.916-2.041-1.331-2.965c-0.403,0.299-0.81,0.599-1.476,1.091
				c0.797,0.26,1.256,0.41,1.898,0.62c-0.564,0.649-1.016,1.17-1.631,1.876c-0.314-0.596-0.537-1.016-0.873-1.651
				c-0.498,0.548-0.926,1.021-1.826,2.013C86.186,100.139,87.246,100.307,88.535,100.51z"/>
			<path fill-rule="evenodd" clip-rule="evenodd" fill="#6D5252" d="M37.15,131.606c-0.252-0.901-0.795-2.091-0.84-3.297
				c-0.024-0.738,0.551-1.808,1.177-2.152c0.43-0.237,1.805,0.321,2.065,0.859c1,2.07,1.967,1.144,3.293-0.051
				c0.322,0.979,0.6,1.821,0.807,2.444C41.457,130.151,39.414,130.843,37.15,131.606z"/>
			<path fill-rule="evenodd" clip-rule="evenodd" fill="#6D5252" d="M39.945,100.931c0.896-2.562,3.467-0.824,5.592-1.679
				c-1.062-0.621-1.863-1.091-2.854-1.672c0.211-0.31,0.573-0.841,0.845-1.238c1.734,1.541,3.338,2.965,4.941,4.387
				c-0.037,0.216-0.072,0.43-0.107,0.646c-1.709,0.095-3.418,0.188-5.94,0.328c1.571,0.984,2.584,1.618,3.669,2.296
				c-0.248,0.299-0.629,0.76-0.828,1C43.488,103.643,41.82,102.365,39.945,100.931z"/>
			<path fill-rule="evenodd" clip-rule="evenodd" fill="#6D5252" d="M70.893,90.35c-0.124-1.478-0.205-2.454-0.301-3.584
				c0.479,0.021,1.053,0.047,1.619,0.071c-0.348,2.271-0.675,4.383-1,6.495c-0.189,0.121-0.378,0.242-0.566,0.363
				c-1.064-1.491-2.131-2.98-3.631-5.079c0.086,1.904,0.141,3.147,0.207,4.595c-0.486-0.062-1.117-0.138-1.43-0.176
				c0.232-2.328,0.443-4.433,0.67-6.691C69.014,85.847,68.932,88.881,70.893,90.35z"/>
			<path fill-rule="evenodd" clip-rule="evenodd" fill="#6D5252" d="M51.131,91.01c0.357,0.62,0.66,1.138,0.889,1.534
				c-1.064,0.211-2.039,0.404-3.014,0.6c0.301,1.009,0.439,2.115,0.963,2.992c0.335,0.56,1.229,0.808,1.906,1.113
				c0.096,0.045,0.602-0.535,0.582-0.562c-0.469-0.593-0.982-1.148-1.594-1.831c0.734-0.502,1.556-1.063,2.432-1.663
				c0.436,1.066,0.801,1.967,1.196,2.934c-1.404,1.316-2.837,3.088-5.011,1.973c-0.995-0.512-1.933-1.975-2.084-3.114
				C47.092,92.656,49.041,91.819,51.131,91.01z"/>
			<path fill-rule="evenodd" clip-rule="evenodd" fill="#6D5252" d="M73.232,148.316c-1.875-0.026-3.243-0.089-3.496-2.037
				c-0.209-1.627,0.736-2.654,2.238-2.772c1.702-0.135,2.515,1.043,2.719,2.65c0.301,2.356-0.705,3.759-3.254,4.384
				C72.076,149.751,72.654,149.033,73.232,148.316z"/>
			<path fill-rule="evenodd" clip-rule="evenodd" fill="#6D5252" d="M92.403,112.153c2.372-0.779,0.946-4.846,4.325-3.809
				c1.002,0.309,1.502,2.242,2.444,3.781c-1.224,0.316-1.829,0.474-2.438,0.631c0.241-1.095,0.442-1.997,0.642-2.899
				c-0.299-0.075-0.6-0.15-0.9-0.225c-0.19,0.752-0.219,1.608-0.613,2.231c-0.502,0.788-1.438,2.029-1.939,1.923
				c-0.851-0.182-1.658-1.169-2.195-2.004c-0.389-0.606-0.312-1.514-0.48-2.506c0.744-0.167,1.443-0.323,2.047-0.458
				C92.967,110.042,92.686,111.098,92.403,112.153z"/>
			<path fill-rule="evenodd" clip-rule="evenodd" fill="#6D5252" d="M92.18,123.815c0.085-0.683,0.209-1.662,0.299-2.383
				c1.965,0.298,3.743,0.566,5.986,0.906c-0.593-0.948-0.957-1.53-1.357-2.169c1.944-0.519,2.572,0.193,2.225,2.008
				c-0.162,0.853-0.309,1.722-0.323,2.585c-0.027,1.774-0.933,1.911-2.524,1.313c0.514-0.551,0.938-1.003,1.821-1.951
				C95.952,124.006,94.15,123.915,92.18,123.815z"/>
			<path fill-rule="evenodd" clip-rule="evenodd" fill="#6D5252" d="M89.877,130.36c0.505-1.112,0.893-1.964,1.393-3.069
				c1.713,2.838,4.186,1.522,6.619,1.628c-0.307,0.821-0.594,1.58-0.879,2.346c-0.863-0.09-1.641-0.172-2.68-0.281
				c1.688,2.11,1.688,2.11,1.085,3.31C93.928,132.63,93.15,130.029,89.877,130.36z"/>
			<path fill-rule="evenodd" clip-rule="evenodd" fill="#6D5252" d="M74.964,87.562c0.6,0.14,1.487,0.346,2.124,0.494
				c-0.584,2.213-1.139,4.316-1.731,6.56c-0.655-0.163-1.532-0.379-2.079-0.513C73.863,91.834,74.385,89.807,74.964,87.562z"/>
			<path fill-rule="evenodd" clip-rule="evenodd" fill="#6D5252" d="M99.322,115.461c0.043,0.632,0.1,1.468,0.148,2.176
				c-2.309,0.139-4.479,0.268-6.768,0.405c0-0.57,0-1.467,0-2.168C94.873,115.739,96.914,115.611,99.322,115.461z"/>
			<path fill-rule="evenodd" clip-rule="evenodd" fill="#6D5252" d="M37.338,106.056c0.275-0.599,0.656-1.431,0.917-1.995
				c2.021,0.98,3.913,1.897,6.109,2.963c-0.151,0.352-0.531,1.236-0.81,1.883C41.443,107.938,39.472,107.034,37.338,106.056z"/>
			<path fill-rule="evenodd" clip-rule="evenodd" fill="#6D5252" d="M55.293,148.246c-0.654-0.315-1.479-0.71-2.381-1.143
				c2.264-1.521,3.008-3.753,1.533-5.566c1.325,0.126,2.314,0.221,3.527,0.337C57.027,144.123,56.211,146.064,55.293,148.246z"/>
			<path fill-rule="evenodd" clip-rule="evenodd" fill="#6D5252" d="M78.849,96.354c0.392-2.473,0.753-4.754,1.148-7.245
				c0.826,0.408,1.577,0.78,2.803,1.389C79.78,91.56,83.311,95.909,78.849,96.354z"/>
			<path fill-rule="evenodd" clip-rule="evenodd" fill="#6D5252" d="M62.141,93.359c-2.336,1.248-3.295,0.905-3.982-1.396
				c-0.375-1.248-0.786-2.484-1.234-3.895c0.678-0.165,1.557-0.381,2.498-0.61c-0.176,3.857,0.607,5.473,2.764,5.95L62.141,93.359z"
				/>
			<path fill-rule="evenodd" clip-rule="evenodd" fill="#6D5252" d="M62.186,93.408c0.643-2.276,0.217-4.365-1.355-6.191
				c0.711-0.194,1.346-0.369,1.843-0.506c0.222,1.555,0.587,2.928,0.545,4.286c-0.024,0.798-0.696,1.575-1.077,2.362L62.186,93.408z
				"/>
			<path fill-rule="evenodd" clip-rule="evenodd" fill="#6D5252" d="M67.078,97.25c12.044,0.021,21.723,9.64,21.694,21.558
				c-0.029,11.898-9.819,21.656-21.716,21.645c-12.062-0.011-21.662-9.735-21.617-21.896C45.48,106.695,55.093,97.231,67.078,97.25z
				 M66.938,139.394c11.543,0.049,20.932-9.216,20.875-20.601c-0.057-11.346-9.311-20.628-20.639-20.701
				c-11.309-0.072-20.795,9.238-20.842,20.458C46.283,130.105,55.416,139.345,66.938,139.394z"/>
			<path fill-rule="evenodd" clip-rule="evenodd" fill="#6D5252" d="M66.938,139.394c-11.521-0.049-20.654-9.288-20.605-20.844
				c0.047-11.22,9.533-20.53,20.842-20.458c11.328,0.073,20.582,9.355,20.639,20.701C87.869,130.178,78.48,139.442,66.938,139.394z
				 M68.985,120.944c1.515,1.124,3.034,1.879,4.022,3.073c1.502,1.814,2.562,3.987,3.967,5.891c0.401,0.547,1.348,0.691,2.044,1.019
				c0.151-0.688,0.634-1.523,0.402-2.042c-1.972-4.445-4.571-8.343-9.39-10.233c-0.676-0.265-1.094-1.145-1.676-1.692
				c-0.418-0.392-0.921-0.994-1.363-0.974c-0.457,0.019-0.904,0.655-1.324,1.058c-0.567,0.541-1,1.366-1.666,1.633
				c-4.711,1.888-7.294,5.707-9.232,10.075c-0.248,0.56,0.301,1.471,0.482,2.22c0.674-0.391,1.551-0.628,1.987-1.2
				c1.622-2.131,2.983-4.469,4.69-6.522c0.77-0.927,2.127-1.368,3.322-2.095c0.72,2.349-0.014,3.528-1.418,4.956
				c-1.652,1.68-2.719,3.993-3.779,6.159c-0.271,0.556,0.434,1.591,0.691,2.405c0.629-0.54,1.427-0.975,1.85-1.646
				c0.668-1.059,0.943-2.375,1.635-3.411c1.787-2.665,3.85-2.688,5.607-0.031c0.77,1.168,1.084,2.631,1.799,3.847
				c0.328,0.562,1.119,0.854,1.701,1.269c0.287-0.713,1.021-1.655,0.791-2.098c-1.219-2.339-2.414-4.788-4.144-6.732
				C68.705,124.429,68.187,123.271,68.985,120.944z M72.055,108.054c2.746,1.625,5.189,3.173,7.742,4.516
				c0.733,0.386,1.781,0.17,2.684,0.229c-0.334-0.792-0.445-1.948-1.044-2.314c-2.683-1.643-5.534-3.011-8.255-4.598
				c-0.668-0.392-1.092-1.223-1.594-1.879c-0.51-0.667-0.975-1.364-1.461-2.048c-0.518,0.662-1.446,1.301-1.484,1.988
				c-0.161,2.926-0.126,5.869,0,8.799c0.029,0.653,0.592,1.691,1.121,1.852c4.917,1.495,8.213,4.901,11.115,8.896
				c0.361,0.498,1.439,0.476,2.186,0.693c0.002-0.778,0.311-1.759-0.047-2.303c-2.329-3.552-5.098-6.782-9.076-8.492
				C71.586,112.379,71.119,110.962,72.055,108.054z M62.282,108.095c0.618,3.821,0.602,3.786-1.983,5.116
				c-3.993,2.055-6.982,5.209-9.375,8.933c-0.312,0.483,0.02,1.379,0.051,2.084c0.699-0.146,1.418-0.237,2.09-0.464
				c0.244-0.083,0.385-0.482,0.57-0.739c2.697-3.741,5.867-6.854,10.408-8.337c0.605-0.198,1.297-1.216,1.33-1.884
				c0.143-3.012,0.141-6.037,0.002-9.049c-0.029-0.615-0.876-1.189-1.346-1.783c-0.453,0.53-1.301,1.069-1.29,1.59
				c0.042,1.647-0.934,1.971-2.179,2.573c-2.906,1.402-5.684,3.086-8.438,4.783c-0.398,0.244-0.369,1.186-0.539,1.806
				c0.702,0.116,1.437,0.419,2.094,0.296c0.561-0.105,0.998-0.756,1.548-1.063C57.463,110.702,59.723,109.49,62.282,108.095z"/>
		</g>
	</g>
</g>
<g id="Layer_12">
</g>
</svg>
