<?xml version="1.0" encoding="utf-8"?>
<!-- Generator: Adobe Illustrator 16.0.0, SVG Export Plug-In . SVG Version: 6.00 Build 0)  -->
<!DOCTYPE svg PUBLIC "-//W3C//DTD SVG 1.1//EN" "http://www.w3.org/Graphics/SVG/1.1/DTD/svg11.dtd">
<svg version="1.1" id="Layer_1" xmlns="http://www.w3.org/2000/svg" xmlns:xlink="http://www.w3.org/1999/xlink" x="0px" y="0px"
	 width="1154.472px" height="230.592px" viewBox="5.247 208.547 1154.472 230.592"
	 enable-background="new 5.247 208.547 1154.472 230.592" xml:space="preserve">
<g id="Layer_6">
	<g>
		<polygon fill="#FDF8D0" points="139.053,439.139 183.428,362.276 227.807,439.139 		"/>
		<polygon fill="#A5A5A5" points="360.938,362.276 316.558,439.139 272.184,362.276 		"/>
		<polygon fill="#D8D0C5" points="627.199,362.276 582.82,439.139 538.446,362.276 		"/>
		<polygon fill="#FDF8D0" points="582.82,439.139 627.199,362.276 671.576,439.139 		"/>
		<polygon fill="#F4DCBA" points="715.955,362.276 671.576,439.139 627.199,362.276 		"/>
		<polygon fill="#A5A5A5" points="804.705,362.276 760.325,439.139 715.955,362.276 		"/>
		<polygon fill="#D8D0C5" points="760.325,439.139 804.705,362.276 849.084,439.139 		"/>
		<polygon fill="#FDF8D0" points="893.46,362.276 849.084,439.139 804.705,362.276 		"/>
		<polygon fill="#FDF8D0" points="1026.59,439.139 1070.969,362.276 1115.344,439.139 		"/>
		<polygon fill="#F4DCBA" points="1159.719,362.276 1115.344,439.139 1070.969,362.276 		"/>
		<polygon fill="#A5A5A5" points="182.783,208.547 138.404,285.411 94.033,208.547 		"/>
		<polygon fill="#D8D0C5" points="138.404,285.411 182.783,208.547 227.158,285.411 		"/>
		<polygon fill="#FDF8D0" points="271.537,208.547 227.158,285.411 182.783,208.547 		"/>
		<polygon fill="#F4DCBA" points="227.158,285.411 271.537,208.547 315.913,285.411 		"/>
		<polygon fill="#D8D0C5" points="449.043,208.547 404.668,285.411 360.293,208.547 		"/>
		<polygon fill="#FDF8D0" points="404.668,285.411 449.043,208.547 493.422,285.411 		"/>
		<polygon fill="#F4DCBA" points="537.796,208.547 493.422,285.411 449.043,208.547 		"/>
		<polygon fill="#D8D0C5" points="582.175,285.411 626.551,208.547 670.93,285.411 		"/>
		<polygon fill="#FDF8D0" points="715.305,208.547 670.93,285.411 626.551,208.547 		"/>
		<polygon fill="#F4DCBA" points="670.93,285.411 715.305,208.547 759.686,285.411 		"/>
		<polygon fill="#A5A5A5" points="759.686,285.411 804.061,208.547 848.436,285.411 		"/>
		<polygon fill="#D8D0C5" points="892.814,208.547 848.436,285.411 804.061,208.547 		"/>
		<polygon fill="#FDF8D0" points="848.436,285.411 892.814,208.547 937.189,285.411 		"/>
		<polygon fill="#A5A5A5" points="1070.318,208.547 1025.944,285.411 981.564,208.547 		"/>
		<polygon fill="#D8D0C5" points="1025.944,285.411 1070.318,208.547 1114.699,285.411 		"/>
		<polygon fill="#FDF8D0" points="1159.078,208.547 1114.699,285.411 1070.318,208.547 		"/>
		<polygon fill="#D8D0C5" points="5.247,362.276 49.622,285.411 94.002,362.276 		"/>
		<polygon fill="#FDF8D0" points="138.378,285.411 94.002,362.276 49.622,285.411 		"/>
		<polygon fill="#F4DCBA" points="94.002,362.276 138.378,285.411 182.752,362.276 		"/>
		<polygon fill="#A5A5A5" points="182.752,362.276 227.132,285.411 271.512,362.276 		"/>
		<polygon fill="#D8D0C5" points="315.887,285.411 271.512,362.276 227.132,285.411 		"/>
		<polygon fill="#FDF8D0" points="271.512,362.276 315.887,285.411 360.261,362.276 		"/>
		<polygon fill="#F4DCBA" points="404.641,285.411 360.261,362.276 315.887,285.411 		"/>
		<polygon fill="#A5A5A5" points="493.395,285.411 449.014,362.276 404.641,285.411 		"/>
		<polygon fill="#D8D0C5" points="449.014,362.276 493.395,285.411 537.77,362.276 		"/>
		<polygon fill="#FDF8D0" points="582.149,285.411 537.77,362.276 493.395,285.411 		"/>
		<polygon fill="#A5A5A5" points="626.52,362.276 670.898,285.411 715.278,362.276 		"/>
		<polygon fill="#D8D0C5" points="759.654,285.411 715.278,362.276 670.898,285.411 		"/>
		<polygon fill="#FDF8D0" points="715.278,362.276 759.654,285.411 804.033,362.276 		"/>
		<polygon fill="#F4DCBA" points="848.409,285.411 804.033,362.276 759.654,285.411 		"/>
		<polygon fill="#A5A5A5" points="937.164,285.411 892.783,362.276 848.409,285.411 		"/>
		<polygon fill="#D8D0C5" points="892.783,362.276 937.164,285.411 981.537,362.276 		"/>
		<polygon fill="#FDF8D0" points="1025.913,285.411 981.537,362.276 937.164,285.411 		"/>
		<polygon fill="#79D8D8" points="602.07,388.711 602.222,388.711 602.222,388.559 		"/>
	</g>
</g>
</svg>
