<?xml version="1.0" encoding="utf-8"?>
<!-- Generator: Adobe Illustrator 16.0.0, SVG Export Plug-In . SVG Version: 6.00 Build 0)  -->
<!DOCTYPE svg PUBLIC "-//W3C//DTD SVG 1.1//EN" "http://www.w3.org/Graphics/SVG/1.1/DTD/svg11.dtd">
<svg version="1.1" id="Layer_1" xmlns="http://www.w3.org/2000/svg" xmlns:xlink="http://www.w3.org/1999/xlink" x="0px" y="0px"
	 width="179.551px" height="898.938px" viewBox="156.179 -1 179.551 898.938" enable-background="new 156.179 -1 179.551 898.938"
	 xml:space="preserve">
<g id="Layer_2">
</g>
<g>
	<polygon fill="#FDF8D0" points="335.73,793.749 275.88,759.196 335.73,724.64 	"/>
	<polygon fill="#A5A5A5" points="275.88,620.977 335.73,655.532 275.88,690.086 	"/>
	<polygon fill="#D8D0C5" points="275.88,413.649 335.73,448.206 275.88,482.758 	"/>
	<polygon fill="#FDF8D0" points="335.73,448.206 275.88,413.649 335.73,379.096 	"/>
	<polygon fill="#F4DCBA" points="275.88,344.54 335.73,379.096 275.88,413.649 	"/>
	<polygon fill="#A5A5A5" points="275.88,275.433 335.73,309.991 275.88,344.54 	"/>
	<polygon fill="#D8D0C5" points="335.73,309.991 275.88,275.433 335.73,240.878 	"/>
	<polygon fill="#FDF8D0" points="275.88,206.325 335.73,240.878 275.88,275.433 	"/>
	<polygon fill="#FDF8D0" points="335.73,102.663 275.88,68.106 335.73,33.554 	"/>
	<polygon fill="#F4DCBA" points="275.88,-1 335.73,33.554 275.88,68.106 	"/>
	<polygon fill="#A5A5A5" points="156.179,759.698 216.029,794.255 156.179,828.804 	"/>
	<polygon fill="#D8D0C5" points="216.029,794.255 156.179,759.698 216.029,725.146 	"/>
	<polygon fill="#FDF8D0" points="156.179,690.589 216.029,725.146 156.179,759.698 	"/>
	<polygon fill="#F4DCBA" points="216.029,725.146 156.179,690.589 216.029,656.035 	"/>
	<polygon fill="#A5A5A5" points="156.179,552.374 216.029,586.926 156.179,621.479 	"/>
	<polygon fill="#FDF8D0" points="216.029,586.926 156.179,552.374 216.029,517.817 	"/>
	<polygon fill="#F4DCBA" points="156.179,483.265 216.029,517.817 156.179,552.374 	"/>
	<polygon fill="#D8D0C5" points="216.029,448.71 156.179,414.155 216.029,379.599 	"/>
	<polygon fill="#FDF8D0" points="156.179,345.047 216.029,379.599 156.179,414.155 	"/>
	<polygon fill="#F4DCBA" points="216.029,379.599 156.179,345.047 216.029,310.489 	"/>
	<polygon fill="#A5A5A5" points="216.029,310.489 156.179,275.937 216.029,241.383 	"/>
	<polygon fill="#D8D0C5" points="156.179,206.827 216.029,241.383 156.179,275.937 	"/>
	<polygon fill="#FDF8D0" points="216.029,241.383 156.179,206.827 216.029,172.273 	"/>
	<polygon fill="#A5A5A5" points="156.179,68.612 216.029,103.165 156.179,137.722 	"/>
	<polygon fill="#D8D0C5" points="216.029,103.165 156.179,68.612 216.029,34.055 	"/>
	<polygon fill="#FDF8D0" points="156.179,-0.501 216.029,34.055 156.179,68.612 	"/>
	<polygon fill="#D8D0C5" points="275.88,897.938 216.029,863.386 275.88,828.828 	"/>
	<polygon fill="#FDF8D0" points="216.029,794.274 275.88,828.828 216.029,863.386 	"/>
	<polygon fill="#F4DCBA" points="275.88,828.828 216.029,794.274 275.88,759.722 	"/>
	<polygon fill="#A5A5A5" points="275.88,759.722 216.029,725.166 275.88,690.608 	"/>
	<polygon fill="#D8D0C5" points="216.029,656.056 275.88,690.608 216.029,725.166 	"/>
	<polygon fill="#FDF8D0" points="275.88,690.608 216.029,656.056 275.88,621.503 	"/>
	<polygon fill="#F4DCBA" points="216.029,586.947 275.88,621.503 216.029,656.056 	"/>
	<polygon fill="#A5A5A5" points="216.029,517.838 275.88,552.396 216.029,586.947 	"/>
	<polygon fill="#D8D0C5" points="275.88,552.396 216.029,517.838 275.88,483.286 	"/>
	<polygon fill="#FDF8D0" points="216.029,448.729 275.88,483.286 216.029,517.838 	"/>
	<polygon fill="#A5A5A5" points="275.88,414.18 216.029,379.624 275.88,345.066 	"/>
	<polygon fill="#D8D0C5" points="216.029,310.513 275.88,345.066 216.029,379.624 	"/>
	<polygon fill="#FDF8D0" points="275.88,345.066 216.029,310.513 275.88,275.957 	"/>
	<polygon fill="#F4DCBA" points="216.029,241.404 275.88,275.957 216.029,310.513 	"/>
	<polygon fill="#A5A5A5" points="216.029,172.294 275.88,206.852 216.029,241.404 	"/>
	<polygon fill="#D8D0C5" points="275.88,206.852 216.029,172.294 275.88,137.742 	"/>
	<polygon fill="#FDF8D0" points="216.029,103.189 275.88,137.742 216.029,172.294 	"/>
	<polygon fill="#79D8D8" points="296.465,433.218 296.465,433.099 296.346,433.099 	"/>
</g>
</svg>
