<?xml version="1.0" encoding="utf-8"?>
<!-- Generator: Adobe Illustrator 16.0.0, SVG Export Plug-In . SVG Version: 6.00 Build 0)  -->
<!DOCTYPE svg PUBLIC "-//W3C//DTD SVG 1.1//EN" "http://www.w3.org/Graphics/SVG/1.1/DTD/svg11.dtd">
<svg version="1.1" id="Layer_1" xmlns="http://www.w3.org/2000/svg" xmlns:xlink="http://www.w3.org/1999/xlink" x="0px" y="0px"
	 width="179.313px" height="897.256px" viewBox="156 0 179.313 897.256" enable-background="new 156 0 179.313 897.256"
	 xml:space="preserve">
<g id="Layer_2">
</g>
<g>
	<polygon fill="#E2C0B7" points="215.771,759.198 275.542,793.709 215.771,828.213 	"/>
	<polygon fill="#F4DCBA" points="215.771,690.18 275.542,724.69 215.771,759.198 	"/>
	<polygon fill="#F4DCBA" points="275.542,586.654 215.771,552.146 275.542,517.636 	"/>
	<polygon fill="#FFCC99" points="215.771,483.129 275.542,517.636 215.771,552.146 	"/>
	<polygon fill="#F4DCBA" points="215.771,345.091 275.542,379.599 215.771,414.109 	"/>
	<polygon fill="#FFCC99" points="275.542,379.599 215.771,345.091 275.542,310.58 	"/>
	<polygon fill="#F4DCBA" points="275.542,241.565 215.771,207.055 275.542,172.547 	"/>
	<polygon fill="#FFCC99" points="215.771,138.04 275.542,172.547 215.771,207.055 	"/>
	<polygon fill="#E2C0B7" points="215.771,69.021 275.542,103.529 215.771,138.04 	"/>
	<polygon fill="#F4DCBA" points="215.771,0 275.542,34.511 215.771,69.021 	"/>
	<polygon fill="#F4DCBA" points="335.313,690.2 275.542,655.693 335.313,621.186 	"/>
	<polygon fill="#E2C0B7" points="275.542,517.656 335.313,552.168 275.542,586.675 	"/>
	<polygon fill="#F4DCBA" points="275.542,448.639 335.313,483.148 275.542,517.656 	"/>
	<polygon fill="#FFCC99" points="275.542,241.586 335.313,276.094 275.542,310.605 	"/>
	<polygon fill="#F4DCBA" points="275.542,103.553 335.313,138.06 275.542,172.567 	"/>
	<polygon fill="#E2C0B7" points="215.771,897.256 156,862.747 215.771,828.238 	"/>
	<polygon fill="#F4DCBA" points="215.771,828.238 156,793.729 215.771,759.223 	"/>
	<polygon fill="#FFCC99" points="156,724.711 215.771,759.223 156,793.729 	"/>
	<polygon fill="#E2C0B7" points="156,655.693 215.771,690.2 156,724.711 	"/>
	<polygon fill="#F4DCBA" points="156,586.675 215.771,621.186 156,655.693 	"/>
	<polygon fill="#FFCC99" points="215.771,621.186 156,586.675 215.771,552.168 	"/>
	<polygon fill="#E2C0B7" points="215.771,552.168 156,517.656 215.771,483.148 	"/>
	<polygon fill="#F4DCBA" points="215.771,483.148 156,448.639 215.771,414.135 	"/>
	<polygon fill="#FFCC99" points="156,379.623 215.771,414.135 156,448.639 	"/>
	<polygon fill="#E2C0B7" points="156,310.605 215.771,345.112 156,379.623 	"/>
	<polygon fill="#F4DCBA" points="156,241.586 215.771,276.094 156,310.605 	"/>
	<polygon fill="#FFCC99" points="215.771,276.094 156,241.586 215.771,207.079 	"/>
	<polygon fill="#E2C0B7" points="215.771,207.079 156,172.567 215.771,138.06 	"/>
	<polygon fill="#F4DCBA" points="215.771,138.06 156,103.553 215.771,69.041 	"/>
	<polyline fill="#FFCC99" points="156,34.535 215.771,69.041 156,103.553 	"/>
	<polygon fill="#79D8D8" points="296.1,537.197 296.1,537.082 295.981,537.082 	"/>
</g>
</svg>
